G04 #@! TF.GenerationSoftware,KiCad,Pcbnew,(5.0.0)*
G04 #@! TF.CreationDate,2018-10-11T21:50:58+05:00*
G04 #@! TF.ProjectId,Dev Board,44657620426F6172642E6B696361645F,rev?*
G04 #@! TF.SameCoordinates,Original*
G04 #@! TF.FileFunction,Copper,L2,Bot,Signal*
G04 #@! TF.FilePolarity,Positive*
%FSLAX46Y46*%
G04 Gerber Fmt 4.6, Leading zero omitted, Abs format (unit mm)*
G04 Created by KiCad (PCBNEW (5.0.0)) date 10/11/18 21:50:58*
%MOMM*%
%LPD*%
G01*
G04 APERTURE LIST*
G04 #@! TA.AperFunction,ComponentPad*
%ADD10C,3.800000*%
G04 #@! TD*
G04 #@! TA.AperFunction,ComponentPad*
%ADD11R,1.700000X1.700000*%
G04 #@! TD*
G04 #@! TA.AperFunction,ComponentPad*
%ADD12O,1.700000X1.700000*%
G04 #@! TD*
G04 #@! TA.AperFunction,ViaPad*
%ADD13C,0.800000*%
G04 #@! TD*
G04 #@! TA.AperFunction,Conductor*
%ADD14C,0.457200*%
G04 #@! TD*
G04 #@! TA.AperFunction,Conductor*
%ADD15C,0.406400*%
G04 #@! TD*
G04 #@! TA.AperFunction,Conductor*
%ADD16C,0.254000*%
G04 #@! TD*
G04 APERTURE END LIST*
D10*
G04 #@! TO.P,,1*
G04 #@! TO.N,N/C*
X174500000Y-149900000D03*
G04 #@! TD*
G04 #@! TO.P,,1*
G04 #@! TO.N,N/C*
X174500000Y-74900000D03*
G04 #@! TD*
G04 #@! TO.P,,1*
G04 #@! TO.N,N/C*
X129500000Y-74900000D03*
G04 #@! TD*
G04 #@! TO.P,,1*
G04 #@! TO.N,N/C*
X129500000Y-149900000D03*
G04 #@! TD*
D11*
G04 #@! TO.P,J1,1*
G04 #@! TO.N,/~MCLR~*
X143050000Y-145400000D03*
D12*
G04 #@! TO.P,J1,2*
G04 #@! TO.N,VCC*
X145590000Y-145400000D03*
G04 #@! TO.P,J1,3*
G04 #@! TO.N,GND*
X148130000Y-145400000D03*
G04 #@! TO.P,J1,4*
G04 #@! TO.N,/PGD*
X150670000Y-145400000D03*
G04 #@! TO.P,J1,5*
G04 #@! TO.N,/PGC*
X153210000Y-145400000D03*
G04 #@! TO.P,J1,6*
G04 #@! TO.N,Net-(J1-Pad6)*
X155750000Y-145400000D03*
G04 #@! TO.P,J1,7*
G04 #@! TO.N,Net-(J1-Pad7)*
X158290000Y-145400000D03*
G04 #@! TO.P,J1,8*
G04 #@! TO.N,Net-(J1-Pad8)*
X160830000Y-145400000D03*
G04 #@! TD*
G04 #@! TO.P,J2,4*
G04 #@! TO.N,/SDA_SDI*
X170000000Y-130020000D03*
G04 #@! TO.P,J2,3*
G04 #@! TO.N,/SCL_SCK*
X170000000Y-127480000D03*
G04 #@! TO.P,J2,2*
G04 #@! TO.N,GND*
X170000000Y-124940000D03*
D11*
G04 #@! TO.P,J2,1*
G04 #@! TO.N,VCC*
X170000000Y-122400000D03*
G04 #@! TD*
G04 #@! TO.P,J3,1*
G04 #@! TO.N,VCC*
X170000000Y-133900000D03*
D12*
G04 #@! TO.P,J3,2*
G04 #@! TO.N,GND*
X170000000Y-136440000D03*
G04 #@! TO.P,J3,3*
G04 #@! TO.N,/TX1*
X170000000Y-138980000D03*
G04 #@! TO.P,J3,4*
G04 #@! TO.N,/RX1*
X170000000Y-141520000D03*
G04 #@! TD*
D11*
G04 #@! TO.P,J4,1*
G04 #@! TO.N,VCC*
X170000000Y-105820000D03*
D12*
G04 #@! TO.P,J4,2*
G04 #@! TO.N,GND*
X170000000Y-108360000D03*
G04 #@! TO.P,J4,3*
G04 #@! TO.N,/SCL_SCK*
X170000000Y-110900000D03*
G04 #@! TO.P,J4,4*
G04 #@! TO.N,/SDA_SDI*
X170000000Y-113440000D03*
G04 #@! TO.P,J4,5*
G04 #@! TO.N,/SDO*
X170000000Y-115980000D03*
G04 #@! TO.P,J4,6*
G04 #@! TO.N,/~SS~*
X170000000Y-118520000D03*
G04 #@! TD*
D11*
G04 #@! TO.P,J5,1*
G04 #@! TO.N,+12V*
X170000000Y-94320000D03*
D12*
G04 #@! TO.P,J5,2*
G04 #@! TO.N,GND*
X170000000Y-96860000D03*
G04 #@! TO.P,J5,3*
G04 #@! TO.N,/CAN_H*
X170000000Y-99400000D03*
G04 #@! TO.P,J5,4*
G04 #@! TO.N,/CAN_L*
X170000000Y-101940000D03*
G04 #@! TD*
D11*
G04 #@! TO.P,J6,1*
G04 #@! TO.N,/LED_RB0*
X163910000Y-81900000D03*
D12*
G04 #@! TO.P,J6,2*
G04 #@! TO.N,/LED_RB1*
X161370000Y-81900000D03*
G04 #@! TO.P,J6,3*
G04 #@! TO.N,/LED_RB4*
X158830000Y-81900000D03*
G04 #@! TO.P,J6,4*
G04 #@! TO.N,/AN0*
X156290000Y-81900000D03*
G04 #@! TO.P,J6,5*
G04 #@! TO.N,/AN1*
X153750000Y-81900000D03*
G04 #@! TO.P,J6,6*
G04 #@! TO.N,/AN2*
X151210000Y-81900000D03*
G04 #@! TO.P,J6,7*
G04 #@! TO.N,/AN3*
X148670000Y-81900000D03*
G04 #@! TO.P,J6,8*
G04 #@! TO.N,/AN4*
X146130000Y-81900000D03*
G04 #@! TO.P,J6,9*
G04 #@! TO.N,VCC*
X143590000Y-81900000D03*
G04 #@! TO.P,J6,10*
G04 #@! TO.N,GND*
X141050000Y-81900000D03*
G04 #@! TD*
D13*
G04 #@! TO.N,VCC*
X137900000Y-98150000D03*
X137800000Y-113800000D03*
X160600000Y-98400000D03*
X163800000Y-102200000D03*
G04 #@! TO.N,GND*
X134600000Y-107200000D03*
X134600000Y-113400000D03*
X163600000Y-114600000D03*
X132600000Y-102400000D03*
X134000000Y-102400000D03*
X139200000Y-102600000D03*
X147400000Y-96800000D03*
X150200000Y-89600000D03*
X150000000Y-112600000D03*
X163400000Y-100200000D03*
X164400000Y-100200000D03*
X167000000Y-100200000D03*
X168000000Y-100200000D03*
X162000000Y-98600000D03*
X163000000Y-98600000D03*
X164000000Y-98600000D03*
X162400000Y-111800000D03*
X161400000Y-111800000D03*
X160400000Y-111800000D03*
X160400000Y-109800000D03*
X160400000Y-110800000D03*
X161400000Y-109800000D03*
X162400000Y-109800000D03*
X161400000Y-110800000D03*
X162400000Y-110800000D03*
X162400000Y-107800000D03*
X161400000Y-108800000D03*
X162400000Y-108800000D03*
X161400000Y-107800000D03*
X160400000Y-108800000D03*
X160400000Y-107800000D03*
X142200000Y-85600000D03*
X163400000Y-107800000D03*
X164400000Y-107800000D03*
X165400000Y-107800000D03*
X163400000Y-108800000D03*
X164400000Y-108800000D03*
X165400000Y-108800000D03*
X163400000Y-109800000D03*
X164400000Y-109800000D03*
X163400000Y-110800000D03*
X166400000Y-107800000D03*
X166400000Y-106800000D03*
X165400000Y-106800000D03*
X164400000Y-106800000D03*
X167000000Y-102400000D03*
X168000000Y-102400000D03*
G04 #@! TO.N,/OSC2*
X140750000Y-118250000D03*
X134750000Y-109750000D03*
G04 #@! TO.N,/LED_RB0*
X157200000Y-112600000D03*
G04 #@! TO.N,/LED_RB1*
X153505600Y-115400000D03*
X153704998Y-112002136D03*
G04 #@! TO.N,/LED_RB4*
X153554428Y-117954428D03*
X153421055Y-111093045D03*
X157400000Y-109600000D03*
G04 #@! TO.N,/~MCLR~*
X150400000Y-107400000D03*
G04 #@! TO.N,/PGD*
X150000000Y-115000000D03*
G04 #@! TO.N,/PGC*
X151000000Y-115200000D03*
G04 #@! TO.N,/SDA_SDI*
X157250000Y-117102403D03*
X163750000Y-116900000D03*
G04 #@! TO.N,/SCL_SCK*
X151000000Y-116900000D03*
G04 #@! TO.N,/TX1*
X164000000Y-138650000D03*
X162238799Y-138400000D03*
G04 #@! TO.N,/SDO*
X157250000Y-116150000D03*
G04 #@! TO.N,/~SS~*
X151994400Y-116400000D03*
G04 #@! TO.N,Net-(R1-Pad1)*
X151400000Y-100800000D03*
X154400000Y-100800000D03*
G04 #@! TO.N,/CAN_TXD*
X159034290Y-111834290D03*
X159600000Y-98400000D03*
G04 #@! TO.N,/CAN_RXD*
X153800000Y-107200000D03*
X150400000Y-100400000D03*
G04 #@! TO.N,Net-(C13-Pad1)*
X141750000Y-112000000D03*
X143909290Y-111340710D03*
G04 #@! TO.N,/AN0*
X150000000Y-108647597D03*
G04 #@! TO.N,/AN1*
X150000000Y-109600000D03*
G04 #@! TO.N,/AN2*
X146279419Y-109702422D03*
G04 #@! TO.N,/AN3*
X146637092Y-110585110D03*
G04 #@! TO.N,/AN4*
X146500000Y-112250000D03*
G04 #@! TD*
D14*
G04 #@! TO.N,VCC*
X170000000Y-132592800D02*
X168500000Y-131092800D01*
X170000000Y-133900000D02*
X170000000Y-132592800D01*
X168500000Y-131092800D02*
X168500000Y-123900000D01*
X168500000Y-123900000D02*
X170000000Y-122400000D01*
X137900000Y-98150000D02*
X137900000Y-113700000D01*
X137900000Y-113700000D02*
X137800000Y-113800000D01*
X160600000Y-98400000D02*
X160600000Y-99000000D01*
X160600000Y-99000000D02*
X163800000Y-102200000D01*
G04 #@! TO.N,GND*
X142200000Y-85600000D02*
X141600000Y-85600000D01*
X141050000Y-85050000D02*
X141050000Y-81900000D01*
X141600000Y-85600000D02*
X141050000Y-85050000D01*
X133968999Y-112768999D02*
X134600000Y-113400000D01*
X134600000Y-107200000D02*
X133968999Y-107831001D01*
X133968999Y-107831001D02*
X133968999Y-112768999D01*
X169840000Y-108360000D02*
X170000000Y-108360000D01*
X163600000Y-114600000D02*
X169840000Y-108360000D01*
X147400000Y-96800000D02*
X150200000Y-94000000D01*
X150200000Y-94000000D02*
X150200000Y-89600000D01*
D15*
G04 #@! TO.N,/OSC2*
X140750000Y-118250000D02*
X134750000Y-112250000D01*
X134750000Y-112250000D02*
X134750000Y-109750000D01*
G04 #@! TO.N,/LED_RB0*
X157200000Y-112600000D02*
X158800000Y-111000000D01*
X158800000Y-111000000D02*
X158800000Y-94800000D01*
X158800000Y-94800000D02*
X158800000Y-94600000D01*
X162694399Y-83105601D02*
X158800000Y-87000000D01*
X162704399Y-83105601D02*
X162694399Y-83105601D01*
X163910000Y-81900000D02*
X162704399Y-83105601D01*
X158800000Y-94600000D02*
X158800000Y-87000000D01*
G04 #@! TO.N,/LED_RB1*
X153505600Y-114834315D02*
X153500000Y-114828715D01*
X153505600Y-115400000D02*
X153505600Y-114834315D01*
X153500000Y-114828715D02*
X153500000Y-112400000D01*
X153500000Y-112400000D02*
X153500000Y-112207134D01*
X153500000Y-112207134D02*
X153704998Y-112002136D01*
X154307134Y-111400000D02*
X153704998Y-112002136D01*
X157200000Y-111400000D02*
X154307134Y-111400000D01*
X158200000Y-110400000D02*
X157200000Y-111400000D01*
X161370000Y-81900000D02*
X158200000Y-85070000D01*
X158200000Y-85070000D02*
X158200000Y-110400000D01*
G04 #@! TO.N,/LED_RB4*
X153554428Y-117954428D02*
X152750000Y-117150000D01*
X152750000Y-117150000D02*
X152750000Y-111838844D01*
X153438844Y-111110834D02*
X153421055Y-111093045D01*
X153438844Y-111150000D02*
X153438844Y-111110834D01*
X152750000Y-111838844D02*
X153421055Y-111093045D01*
X157400000Y-83330000D02*
X158830000Y-81900000D01*
X153421055Y-111093045D02*
X153821054Y-110693046D01*
X157400000Y-109600000D02*
X157400000Y-83330000D01*
G04 #@! TO.N,/~MCLR~*
X143050000Y-145400000D02*
X143050000Y-145350000D01*
X143050000Y-145350000D02*
X144200000Y-144200000D01*
X144600000Y-143800000D02*
X149000000Y-143800000D01*
X144200000Y-144200000D02*
X144600000Y-143800000D01*
X149000000Y-143800000D02*
X149600000Y-143200000D01*
X149600000Y-143200000D02*
X149600000Y-120600000D01*
X149600000Y-120600000D02*
X149000000Y-120000000D01*
X149000000Y-120000000D02*
X148800000Y-119800000D01*
X148800000Y-119800000D02*
X148800000Y-118800000D01*
X148800000Y-118800000D02*
X148800000Y-115000000D01*
X148800000Y-115000000D02*
X150800000Y-113000000D01*
X150800000Y-113000000D02*
X150800000Y-111400000D01*
X150800000Y-111400000D02*
X150800000Y-108400000D01*
X150800000Y-108400000D02*
X150800000Y-108329307D01*
X150800000Y-108329307D02*
X150800000Y-107800000D01*
X150800000Y-107800000D02*
X150400000Y-107400000D01*
G04 #@! TO.N,/PGD*
X149600001Y-115399999D02*
X150000000Y-115000000D01*
X149600000Y-119200000D02*
X149600001Y-115399999D01*
X150600000Y-120200000D02*
X149600000Y-119200000D01*
X150600000Y-140200000D02*
X150600000Y-134600000D01*
X150670000Y-145400000D02*
X150670000Y-140270000D01*
X150670000Y-140270000D02*
X150600000Y-140200000D01*
X150600000Y-134600000D02*
X150600000Y-131800000D01*
X150600000Y-131800000D02*
X150600000Y-120200000D01*
G04 #@! TO.N,/PGC*
X153210000Y-139810000D02*
X153210000Y-145400000D01*
X151200000Y-137800000D02*
X153210000Y-139810000D01*
X151200000Y-119800000D02*
X151200000Y-137800000D01*
X150244399Y-118844399D02*
X151200000Y-119800000D01*
X151000000Y-115200000D02*
X150244399Y-115955601D01*
X150244399Y-115955601D02*
X150244399Y-118844399D01*
G04 #@! TO.N,/SDA_SDI*
X157250000Y-117102403D02*
X163547597Y-117102403D01*
X163547597Y-117102403D02*
X163750000Y-116900000D01*
G04 #@! TO.N,/SCL_SCK*
X171500000Y-112400000D02*
X170000000Y-110900000D01*
X171500000Y-119150000D02*
X171500000Y-112400000D01*
X170924399Y-119725601D02*
X171500000Y-119150000D01*
X153285325Y-119725601D02*
X170924399Y-119725601D01*
X151000000Y-116900000D02*
X151000000Y-117440276D01*
X151000000Y-117440276D02*
X153285325Y-119725601D01*
X171500000Y-119150000D02*
X171500000Y-125980000D01*
X171500000Y-125980000D02*
X170000000Y-127480000D01*
G04 #@! TO.N,/TX1*
X164000000Y-138650000D02*
X162488799Y-138650000D01*
X162488799Y-138650000D02*
X162238799Y-138400000D01*
G04 #@! TO.N,/SDO*
X170000000Y-115980000D02*
X157420000Y-115980000D01*
X157420000Y-115980000D02*
X157250000Y-116150000D01*
G04 #@! TO.N,/~SS~*
X168607890Y-118710029D02*
X153060029Y-118710029D01*
X170000000Y-118520000D02*
X168797919Y-118520000D01*
X168797919Y-118520000D02*
X168607890Y-118710029D01*
X153060029Y-118710029D02*
X151994400Y-117644400D01*
X151994400Y-117644400D02*
X151994400Y-116400000D01*
G04 #@! TO.N,Net-(R1-Pad1)*
X151400000Y-100800000D02*
X154400000Y-100800000D01*
G04 #@! TO.N,/CAN_TXD*
X159358810Y-102641190D02*
X159358810Y-111509770D01*
X159358810Y-111509770D02*
X159034290Y-111834290D01*
X159600000Y-102400000D02*
X159358810Y-102641190D01*
X159600000Y-98400000D02*
X159600000Y-102400000D01*
G04 #@! TO.N,/CAN_RXD*
X153800000Y-107200000D02*
X150400000Y-103800000D01*
X150400000Y-103800000D02*
X150400000Y-100400000D01*
G04 #@! TO.N,Net-(C13-Pad1)*
X141750000Y-112000000D02*
X143250000Y-112000000D01*
X143250000Y-112000000D02*
X143909290Y-111340710D01*
G04 #@! TO.N,/AN0*
X147047598Y-108247598D02*
X145735240Y-106935240D01*
X150000000Y-108647597D02*
X149600001Y-108247598D01*
X149600001Y-108247598D02*
X147047598Y-108247598D01*
X145735240Y-106935240D02*
X145735240Y-90705036D01*
X155440001Y-82749999D02*
X156290000Y-81900000D01*
X155084399Y-83105601D02*
X155440001Y-82749999D01*
X153334675Y-83105601D02*
X155084399Y-83105601D01*
X145735240Y-90705036D02*
X153334675Y-83105601D01*
G04 #@! TO.N,/AN1*
X150000000Y-109600000D02*
X147600000Y-109600000D01*
X145176430Y-90473570D02*
X145176430Y-90600000D01*
X153750000Y-81900000D02*
X145176430Y-90473570D01*
X145176430Y-107176430D02*
X145176430Y-107000000D01*
X147600000Y-109600000D02*
X145176430Y-107176430D01*
X145176430Y-107000000D02*
X145176430Y-90600000D01*
G04 #@! TO.N,/AN2*
X151210000Y-81900000D02*
X144617620Y-88492380D01*
X144617620Y-88492380D02*
X144617620Y-109287068D01*
X144617620Y-109287068D02*
X145032974Y-109702422D01*
X145032974Y-109702422D02*
X146279419Y-109702422D01*
G04 #@! TO.N,/AN3*
X146637092Y-110585110D02*
X145125386Y-110585110D01*
X145125386Y-110585110D02*
X144058810Y-109518534D01*
X144058810Y-86511190D02*
X144058810Y-86800000D01*
X148670000Y-81900000D02*
X144058810Y-86511190D01*
X144058810Y-109518534D02*
X144058810Y-86800000D01*
G04 #@! TO.N,/AN4*
X146130000Y-81900000D02*
X143500000Y-84530000D01*
X143500000Y-84530000D02*
X143500000Y-109750000D01*
X143500000Y-109750000D02*
X146000000Y-112250000D01*
X146000000Y-112250000D02*
X146500000Y-112250000D01*
G04 #@! TD*
D16*
G04 #@! TO.N,GND*
G36*
X171873000Y-111587606D02*
X171459558Y-111174164D01*
X171514092Y-110900000D01*
X171398839Y-110320582D01*
X171070625Y-109829375D01*
X170751522Y-109616157D01*
X170881358Y-109555183D01*
X171271645Y-109126924D01*
X171441476Y-108716890D01*
X171320155Y-108487000D01*
X170127000Y-108487000D01*
X170127000Y-108507000D01*
X169873000Y-108507000D01*
X169873000Y-108487000D01*
X168679845Y-108487000D01*
X168558524Y-108716890D01*
X168728355Y-109126924D01*
X169118642Y-109555183D01*
X169248478Y-109616157D01*
X168929375Y-109829375D01*
X168601161Y-110320582D01*
X168485908Y-110900000D01*
X168601161Y-111479418D01*
X168929375Y-111970625D01*
X169227761Y-112170000D01*
X168929375Y-112369375D01*
X168601161Y-112860582D01*
X168485908Y-113440000D01*
X168601161Y-114019418D01*
X168929375Y-114510625D01*
X169227761Y-114710000D01*
X168929375Y-114909375D01*
X168774074Y-115141800D01*
X157520575Y-115141800D01*
X157455874Y-115115000D01*
X157044126Y-115115000D01*
X156663720Y-115272569D01*
X156372569Y-115563720D01*
X156215000Y-115944126D01*
X156215000Y-116355874D01*
X156326973Y-116626201D01*
X156215000Y-116896529D01*
X156215000Y-117308277D01*
X156372569Y-117688683D01*
X156555715Y-117871829D01*
X154589428Y-117871829D01*
X154589428Y-117748554D01*
X154431859Y-117368148D01*
X154140708Y-117076997D01*
X153760302Y-116919428D01*
X153704821Y-116919428D01*
X153588200Y-116802807D01*
X153588200Y-116435000D01*
X153711474Y-116435000D01*
X154091880Y-116277431D01*
X154383031Y-115986280D01*
X154540600Y-115605874D01*
X154540600Y-115194126D01*
X154383031Y-114813720D01*
X154349442Y-114780131D01*
X154343800Y-114751765D01*
X154343800Y-114751761D01*
X154338200Y-114723608D01*
X154338200Y-112832645D01*
X154582429Y-112588416D01*
X154727493Y-112238200D01*
X156229587Y-112238200D01*
X156165000Y-112394126D01*
X156165000Y-112805874D01*
X156322569Y-113186280D01*
X156613720Y-113477431D01*
X156994126Y-113635000D01*
X157405874Y-113635000D01*
X157786280Y-113477431D01*
X158077431Y-113186280D01*
X158235000Y-112805874D01*
X158235000Y-112750393D01*
X158360841Y-112624552D01*
X158448010Y-112711721D01*
X158828416Y-112869290D01*
X159240164Y-112869290D01*
X159620570Y-112711721D01*
X159911721Y-112420570D01*
X160069290Y-112040164D01*
X160069290Y-111955181D01*
X160148377Y-111836819D01*
X160197010Y-111592324D01*
X160197010Y-111592320D01*
X160213430Y-111509770D01*
X160197010Y-111427220D01*
X160197010Y-104970000D01*
X168502560Y-104970000D01*
X168502560Y-106670000D01*
X168551843Y-106917765D01*
X168692191Y-107127809D01*
X168902235Y-107268157D01*
X169005708Y-107288739D01*
X168728355Y-107593076D01*
X168558524Y-108003110D01*
X168679845Y-108233000D01*
X169873000Y-108233000D01*
X169873000Y-108213000D01*
X170127000Y-108213000D01*
X170127000Y-108233000D01*
X171320155Y-108233000D01*
X171441476Y-108003110D01*
X171271645Y-107593076D01*
X170994292Y-107288739D01*
X171097765Y-107268157D01*
X171307809Y-107127809D01*
X171448157Y-106917765D01*
X171497440Y-106670000D01*
X171497440Y-104970000D01*
X171448157Y-104722235D01*
X171307809Y-104512191D01*
X171097765Y-104371843D01*
X170850000Y-104322560D01*
X169150000Y-104322560D01*
X168902235Y-104371843D01*
X168692191Y-104512191D01*
X168551843Y-104722235D01*
X168502560Y-104970000D01*
X160197010Y-104970000D01*
X160197010Y-103009184D01*
X160204308Y-103004308D01*
X160389567Y-102727049D01*
X160438200Y-102482554D01*
X160438200Y-102482550D01*
X160454620Y-102400001D01*
X160438200Y-102317452D01*
X160438200Y-100059513D01*
X162765000Y-102386315D01*
X162765000Y-102405874D01*
X162922569Y-102786280D01*
X163213720Y-103077431D01*
X163594126Y-103235000D01*
X164005874Y-103235000D01*
X164386280Y-103077431D01*
X164677431Y-102786280D01*
X164835000Y-102405874D01*
X164835000Y-101994126D01*
X164677431Y-101613720D01*
X164386280Y-101322569D01*
X164005874Y-101165000D01*
X163986315Y-101165000D01*
X162221314Y-99400000D01*
X168485908Y-99400000D01*
X168601161Y-99979418D01*
X168929375Y-100470625D01*
X169227761Y-100670000D01*
X168929375Y-100869375D01*
X168601161Y-101360582D01*
X168485908Y-101940000D01*
X168601161Y-102519418D01*
X168929375Y-103010625D01*
X169420582Y-103338839D01*
X169853744Y-103425000D01*
X170146256Y-103425000D01*
X170579418Y-103338839D01*
X171070625Y-103010625D01*
X171398839Y-102519418D01*
X171514092Y-101940000D01*
X171398839Y-101360582D01*
X171070625Y-100869375D01*
X170772239Y-100670000D01*
X171070625Y-100470625D01*
X171398839Y-99979418D01*
X171514092Y-99400000D01*
X171398839Y-98820582D01*
X171070625Y-98329375D01*
X170751522Y-98116157D01*
X170881358Y-98055183D01*
X171271645Y-97626924D01*
X171441476Y-97216890D01*
X171320155Y-96987000D01*
X170127000Y-96987000D01*
X170127000Y-97007000D01*
X169873000Y-97007000D01*
X169873000Y-96987000D01*
X168679845Y-96987000D01*
X168558524Y-97216890D01*
X168728355Y-97626924D01*
X169118642Y-98055183D01*
X169248478Y-98116157D01*
X168929375Y-98329375D01*
X168601161Y-98820582D01*
X168485908Y-99400000D01*
X162221314Y-99400000D01*
X161574133Y-98752820D01*
X161635000Y-98605874D01*
X161635000Y-98194126D01*
X161477431Y-97813720D01*
X161186280Y-97522569D01*
X160805874Y-97365000D01*
X160394126Y-97365000D01*
X160100000Y-97486831D01*
X159805874Y-97365000D01*
X159638200Y-97365000D01*
X159638200Y-93470000D01*
X168502560Y-93470000D01*
X168502560Y-95170000D01*
X168551843Y-95417765D01*
X168692191Y-95627809D01*
X168902235Y-95768157D01*
X169005708Y-95788739D01*
X168728355Y-96093076D01*
X168558524Y-96503110D01*
X168679845Y-96733000D01*
X169873000Y-96733000D01*
X169873000Y-96713000D01*
X170127000Y-96713000D01*
X170127000Y-96733000D01*
X171320155Y-96733000D01*
X171441476Y-96503110D01*
X171271645Y-96093076D01*
X170994292Y-95788739D01*
X171097765Y-95768157D01*
X171307809Y-95627809D01*
X171448157Y-95417765D01*
X171497440Y-95170000D01*
X171497440Y-93470000D01*
X171448157Y-93222235D01*
X171307809Y-93012191D01*
X171097765Y-92871843D01*
X170850000Y-92822560D01*
X169150000Y-92822560D01*
X168902235Y-92871843D01*
X168692191Y-93012191D01*
X168551843Y-93222235D01*
X168502560Y-93470000D01*
X159638200Y-93470000D01*
X159638200Y-87347193D01*
X163208586Y-83776808D01*
X163308707Y-83709909D01*
X163355471Y-83639922D01*
X163597953Y-83397440D01*
X164760000Y-83397440D01*
X165007765Y-83348157D01*
X165217809Y-83207809D01*
X165358157Y-82997765D01*
X165407440Y-82750000D01*
X165407440Y-81050000D01*
X165358157Y-80802235D01*
X165217809Y-80592191D01*
X165007765Y-80451843D01*
X164760000Y-80402560D01*
X163060000Y-80402560D01*
X162812235Y-80451843D01*
X162602191Y-80592191D01*
X162461843Y-80802235D01*
X162452816Y-80847619D01*
X162440625Y-80829375D01*
X161949418Y-80501161D01*
X161516256Y-80415000D01*
X161223744Y-80415000D01*
X160790582Y-80501161D01*
X160299375Y-80829375D01*
X160100000Y-81127761D01*
X159900625Y-80829375D01*
X159409418Y-80501161D01*
X158976256Y-80415000D01*
X158683744Y-80415000D01*
X158250582Y-80501161D01*
X157759375Y-80829375D01*
X157560000Y-81127761D01*
X157360625Y-80829375D01*
X156869418Y-80501161D01*
X156436256Y-80415000D01*
X156143744Y-80415000D01*
X155710582Y-80501161D01*
X155219375Y-80829375D01*
X155020000Y-81127761D01*
X154820625Y-80829375D01*
X154329418Y-80501161D01*
X153896256Y-80415000D01*
X153603744Y-80415000D01*
X153170582Y-80501161D01*
X152679375Y-80829375D01*
X152480000Y-81127761D01*
X152280625Y-80829375D01*
X151789418Y-80501161D01*
X151356256Y-80415000D01*
X151063744Y-80415000D01*
X150630582Y-80501161D01*
X150139375Y-80829375D01*
X149940000Y-81127761D01*
X149740625Y-80829375D01*
X149249418Y-80501161D01*
X148816256Y-80415000D01*
X148523744Y-80415000D01*
X148090582Y-80501161D01*
X147599375Y-80829375D01*
X147400000Y-81127761D01*
X147200625Y-80829375D01*
X146709418Y-80501161D01*
X146276256Y-80415000D01*
X145983744Y-80415000D01*
X145550582Y-80501161D01*
X145059375Y-80829375D01*
X144860000Y-81127761D01*
X144660625Y-80829375D01*
X144169418Y-80501161D01*
X143736256Y-80415000D01*
X143443744Y-80415000D01*
X143010582Y-80501161D01*
X142519375Y-80829375D01*
X142306157Y-81148478D01*
X142245183Y-81018642D01*
X141816924Y-80628355D01*
X141406890Y-80458524D01*
X141177000Y-80579845D01*
X141177000Y-81773000D01*
X141197000Y-81773000D01*
X141197000Y-82027000D01*
X141177000Y-82027000D01*
X141177000Y-83220155D01*
X141406890Y-83341476D01*
X141816924Y-83171645D01*
X142245183Y-82781358D01*
X142306157Y-82651522D01*
X142519375Y-82970625D01*
X143010582Y-83298839D01*
X143443744Y-83385000D01*
X143459607Y-83385000D01*
X142965679Y-83878928D01*
X142895692Y-83925692D01*
X142710433Y-84202952D01*
X142661800Y-84447447D01*
X142661800Y-84447451D01*
X142645380Y-84530000D01*
X142661800Y-84612549D01*
X142661801Y-109667446D01*
X142645380Y-109750000D01*
X142710434Y-110077049D01*
X142848929Y-110284322D01*
X142848931Y-110284324D01*
X142895693Y-110354308D01*
X142965677Y-110401070D01*
X143175448Y-110610841D01*
X143031859Y-110754430D01*
X142874290Y-111134836D01*
X142874290Y-111161800D01*
X142375511Y-111161800D01*
X142336280Y-111122569D01*
X141955874Y-110965000D01*
X141544126Y-110965000D01*
X141163720Y-111122569D01*
X140872569Y-111413720D01*
X140715000Y-111794126D01*
X140715000Y-112205874D01*
X140872569Y-112586280D01*
X141163720Y-112877431D01*
X141544126Y-113035000D01*
X141955874Y-113035000D01*
X142336280Y-112877431D01*
X142375511Y-112838200D01*
X143167451Y-112838200D01*
X143250000Y-112854620D01*
X143332549Y-112838200D01*
X143332554Y-112838200D01*
X143577049Y-112789567D01*
X143854308Y-112604308D01*
X143901071Y-112534322D01*
X144059683Y-112375710D01*
X144115164Y-112375710D01*
X144495570Y-112218141D01*
X144639159Y-112074552D01*
X145348930Y-112784324D01*
X145395692Y-112854308D01*
X145465676Y-112901070D01*
X145465677Y-112901071D01*
X145504556Y-112927049D01*
X145672951Y-113039567D01*
X145863823Y-113077534D01*
X145913720Y-113127431D01*
X146294126Y-113285000D01*
X146705874Y-113285000D01*
X147086280Y-113127431D01*
X147377431Y-112836280D01*
X147535000Y-112455874D01*
X147535000Y-112044126D01*
X147377431Y-111663720D01*
X147190053Y-111476342D01*
X147223372Y-111462541D01*
X147514523Y-111171390D01*
X147672092Y-110790984D01*
X147672092Y-110440280D01*
X147682550Y-110438200D01*
X149374489Y-110438200D01*
X149413720Y-110477431D01*
X149794126Y-110635000D01*
X149961800Y-110635000D01*
X149961800Y-111482553D01*
X149961801Y-111482558D01*
X149961800Y-112652806D01*
X148265677Y-114348930D01*
X148195693Y-114395692D01*
X148148931Y-114465676D01*
X148148929Y-114465678D01*
X148010434Y-114672951D01*
X147945380Y-115000000D01*
X147961801Y-115082554D01*
X147961800Y-118882553D01*
X147961801Y-118882557D01*
X147961800Y-119717450D01*
X147945380Y-119800000D01*
X147961800Y-119882549D01*
X147961800Y-119882553D01*
X148010433Y-120127048D01*
X148195692Y-120404308D01*
X148265678Y-120451071D01*
X148348929Y-120534322D01*
X148761801Y-120947195D01*
X148761800Y-142852806D01*
X148652807Y-142961800D01*
X144682548Y-142961800D01*
X144599999Y-142945380D01*
X144517450Y-142961800D01*
X144517446Y-142961800D01*
X144272951Y-143010433D01*
X143995692Y-143195692D01*
X143948929Y-143265678D01*
X143665680Y-143548927D01*
X143665677Y-143548929D01*
X143312046Y-143902560D01*
X142200000Y-143902560D01*
X141952235Y-143951843D01*
X141742191Y-144092191D01*
X141601843Y-144302235D01*
X141552560Y-144550000D01*
X141552560Y-146250000D01*
X141601843Y-146497765D01*
X141742191Y-146707809D01*
X141952235Y-146848157D01*
X142200000Y-146897440D01*
X143900000Y-146897440D01*
X144147765Y-146848157D01*
X144357809Y-146707809D01*
X144498157Y-146497765D01*
X144507184Y-146452381D01*
X144519375Y-146470625D01*
X145010582Y-146798839D01*
X145443744Y-146885000D01*
X145736256Y-146885000D01*
X146169418Y-146798839D01*
X146660625Y-146470625D01*
X146873843Y-146151522D01*
X146934817Y-146281358D01*
X147363076Y-146671645D01*
X147773110Y-146841476D01*
X148003000Y-146720155D01*
X148003000Y-145527000D01*
X147983000Y-145527000D01*
X147983000Y-145273000D01*
X148003000Y-145273000D01*
X148003000Y-145253000D01*
X148257000Y-145253000D01*
X148257000Y-145273000D01*
X148277000Y-145273000D01*
X148277000Y-145527000D01*
X148257000Y-145527000D01*
X148257000Y-146720155D01*
X148486890Y-146841476D01*
X148896924Y-146671645D01*
X149325183Y-146281358D01*
X149386157Y-146151522D01*
X149599375Y-146470625D01*
X150090582Y-146798839D01*
X150523744Y-146885000D01*
X150816256Y-146885000D01*
X151249418Y-146798839D01*
X151740625Y-146470625D01*
X151940000Y-146172239D01*
X152139375Y-146470625D01*
X152630582Y-146798839D01*
X153063744Y-146885000D01*
X153356256Y-146885000D01*
X153789418Y-146798839D01*
X154280625Y-146470625D01*
X154480000Y-146172239D01*
X154679375Y-146470625D01*
X155170582Y-146798839D01*
X155603744Y-146885000D01*
X155896256Y-146885000D01*
X156329418Y-146798839D01*
X156820625Y-146470625D01*
X157020000Y-146172239D01*
X157219375Y-146470625D01*
X157710582Y-146798839D01*
X158143744Y-146885000D01*
X158436256Y-146885000D01*
X158869418Y-146798839D01*
X159360625Y-146470625D01*
X159560000Y-146172239D01*
X159759375Y-146470625D01*
X160250582Y-146798839D01*
X160683744Y-146885000D01*
X160976256Y-146885000D01*
X161409418Y-146798839D01*
X161900625Y-146470625D01*
X162228839Y-145979418D01*
X162344092Y-145400000D01*
X162228839Y-144820582D01*
X161900625Y-144329375D01*
X161409418Y-144001161D01*
X160976256Y-143915000D01*
X160683744Y-143915000D01*
X160250582Y-144001161D01*
X159759375Y-144329375D01*
X159560000Y-144627761D01*
X159360625Y-144329375D01*
X158869418Y-144001161D01*
X158436256Y-143915000D01*
X158143744Y-143915000D01*
X157710582Y-144001161D01*
X157219375Y-144329375D01*
X157020000Y-144627761D01*
X156820625Y-144329375D01*
X156329418Y-144001161D01*
X155896256Y-143915000D01*
X155603744Y-143915000D01*
X155170582Y-144001161D01*
X154679375Y-144329375D01*
X154480000Y-144627761D01*
X154280625Y-144329375D01*
X154048200Y-144174074D01*
X154048200Y-139892548D01*
X154064620Y-139809999D01*
X154048200Y-139727450D01*
X154048200Y-139727446D01*
X153999567Y-139482951D01*
X153907645Y-139345380D01*
X153861071Y-139275677D01*
X153861070Y-139275676D01*
X153814308Y-139205692D01*
X153744325Y-139158931D01*
X152779520Y-138194126D01*
X161203799Y-138194126D01*
X161203799Y-138605874D01*
X161361368Y-138986280D01*
X161652519Y-139277431D01*
X162032925Y-139435000D01*
X162154915Y-139435000D01*
X162161750Y-139439567D01*
X162406245Y-139488200D01*
X162406249Y-139488200D01*
X162488798Y-139504620D01*
X162571347Y-139488200D01*
X163374489Y-139488200D01*
X163413720Y-139527431D01*
X163794126Y-139685000D01*
X164205874Y-139685000D01*
X164586280Y-139527431D01*
X164877431Y-139236280D01*
X164983585Y-138980000D01*
X168485908Y-138980000D01*
X168601161Y-139559418D01*
X168929375Y-140050625D01*
X169227761Y-140250000D01*
X168929375Y-140449375D01*
X168601161Y-140940582D01*
X168485908Y-141520000D01*
X168601161Y-142099418D01*
X168929375Y-142590625D01*
X169420582Y-142918839D01*
X169853744Y-143005000D01*
X170146256Y-143005000D01*
X170579418Y-142918839D01*
X171070625Y-142590625D01*
X171398839Y-142099418D01*
X171514092Y-141520000D01*
X171398839Y-140940582D01*
X171070625Y-140449375D01*
X170772239Y-140250000D01*
X171070625Y-140050625D01*
X171398839Y-139559418D01*
X171514092Y-138980000D01*
X171398839Y-138400582D01*
X171070625Y-137909375D01*
X170751522Y-137696157D01*
X170881358Y-137635183D01*
X171271645Y-137206924D01*
X171441476Y-136796890D01*
X171320155Y-136567000D01*
X170127000Y-136567000D01*
X170127000Y-136587000D01*
X169873000Y-136587000D01*
X169873000Y-136567000D01*
X168679845Y-136567000D01*
X168558524Y-136796890D01*
X168728355Y-137206924D01*
X169118642Y-137635183D01*
X169248478Y-137696157D01*
X168929375Y-137909375D01*
X168601161Y-138400582D01*
X168485908Y-138980000D01*
X164983585Y-138980000D01*
X165035000Y-138855874D01*
X165035000Y-138444126D01*
X164877431Y-138063720D01*
X164586280Y-137772569D01*
X164205874Y-137615000D01*
X163794126Y-137615000D01*
X163413720Y-137772569D01*
X163374489Y-137811800D01*
X163114310Y-137811800D01*
X162825079Y-137522569D01*
X162444673Y-137365000D01*
X162032925Y-137365000D01*
X161652519Y-137522569D01*
X161361368Y-137813720D01*
X161203799Y-138194126D01*
X152779520Y-138194126D01*
X152038200Y-137452807D01*
X152038200Y-119882549D01*
X152054620Y-119800000D01*
X152038200Y-119717451D01*
X152038200Y-119717446D01*
X152024897Y-119650567D01*
X152634255Y-120259925D01*
X152681017Y-120329909D01*
X152751001Y-120376671D01*
X152751002Y-120376672D01*
X152958275Y-120515168D01*
X152969728Y-120517446D01*
X153202771Y-120563801D01*
X153202774Y-120563801D01*
X153285325Y-120580221D01*
X153367875Y-120563801D01*
X170661800Y-120563801D01*
X170661800Y-120902560D01*
X169150000Y-120902560D01*
X168902235Y-120951843D01*
X168692191Y-121092191D01*
X168551843Y-121302235D01*
X168502560Y-121550000D01*
X168502560Y-122676126D01*
X167949486Y-123229200D01*
X167877381Y-123277380D01*
X167829202Y-123349485D01*
X167686507Y-123563041D01*
X167619483Y-123900000D01*
X167636401Y-123985054D01*
X167636400Y-131007751D01*
X167619483Y-131092800D01*
X167636400Y-131177849D01*
X167636400Y-131177852D01*
X167686507Y-131429759D01*
X167877380Y-131715420D01*
X167949488Y-131763602D01*
X168743676Y-132557790D01*
X168692191Y-132592191D01*
X168551843Y-132802235D01*
X168502560Y-133050000D01*
X168502560Y-134750000D01*
X168551843Y-134997765D01*
X168692191Y-135207809D01*
X168902235Y-135348157D01*
X169005708Y-135368739D01*
X168728355Y-135673076D01*
X168558524Y-136083110D01*
X168679845Y-136313000D01*
X169873000Y-136313000D01*
X169873000Y-136293000D01*
X170127000Y-136293000D01*
X170127000Y-136313000D01*
X171320155Y-136313000D01*
X171441476Y-136083110D01*
X171271645Y-135673076D01*
X170994292Y-135368739D01*
X171097765Y-135348157D01*
X171307809Y-135207809D01*
X171448157Y-134997765D01*
X171497440Y-134750000D01*
X171497440Y-133050000D01*
X171448157Y-132802235D01*
X171307809Y-132592191D01*
X171097765Y-132451843D01*
X170850000Y-132402560D01*
X170842677Y-132402560D01*
X170813493Y-132255840D01*
X170622620Y-131970180D01*
X170550517Y-131922002D01*
X170133514Y-131505000D01*
X170146256Y-131505000D01*
X170579418Y-131418839D01*
X171070625Y-131090625D01*
X171398839Y-130599418D01*
X171514092Y-130020000D01*
X171398839Y-129440582D01*
X171070625Y-128949375D01*
X170772239Y-128750000D01*
X171070625Y-128550625D01*
X171398839Y-128059418D01*
X171514092Y-127480000D01*
X171459558Y-127205836D01*
X171873000Y-126792394D01*
X171873000Y-147273000D01*
X132127000Y-147273000D01*
X132127000Y-109544126D01*
X133715000Y-109544126D01*
X133715000Y-109955874D01*
X133872569Y-110336280D01*
X133911801Y-110375512D01*
X133911800Y-112167451D01*
X133895380Y-112250000D01*
X133911800Y-112332549D01*
X133911800Y-112332553D01*
X133960433Y-112577048D01*
X134145692Y-112854308D01*
X134215678Y-112901071D01*
X139715000Y-118400394D01*
X139715000Y-118455874D01*
X139872569Y-118836280D01*
X140163720Y-119127431D01*
X140544126Y-119285000D01*
X140955874Y-119285000D01*
X141336280Y-119127431D01*
X141627431Y-118836280D01*
X141785000Y-118455874D01*
X141785000Y-118044126D01*
X141627431Y-117663720D01*
X141336280Y-117372569D01*
X140955874Y-117215000D01*
X140900394Y-117215000D01*
X138369694Y-114684301D01*
X138386280Y-114677431D01*
X138677431Y-114386280D01*
X138835000Y-114005874D01*
X138835000Y-113594126D01*
X138763600Y-113421751D01*
X138763600Y-98750111D01*
X138777431Y-98736280D01*
X138935000Y-98355874D01*
X138935000Y-97944126D01*
X138777431Y-97563720D01*
X138486280Y-97272569D01*
X138105874Y-97115000D01*
X137694126Y-97115000D01*
X137313720Y-97272569D01*
X137022569Y-97563720D01*
X136865000Y-97944126D01*
X136865000Y-98355874D01*
X137022569Y-98736280D01*
X137036400Y-98750111D01*
X137036401Y-113099888D01*
X136922569Y-113213720D01*
X136915699Y-113230306D01*
X135588200Y-111902807D01*
X135588200Y-110375511D01*
X135627431Y-110336280D01*
X135785000Y-109955874D01*
X135785000Y-109544126D01*
X135627431Y-109163720D01*
X135336280Y-108872569D01*
X134955874Y-108715000D01*
X134544126Y-108715000D01*
X134163720Y-108872569D01*
X133872569Y-109163720D01*
X133715000Y-109544126D01*
X132127000Y-109544126D01*
X132127000Y-82256892D01*
X139608514Y-82256892D01*
X139854817Y-82781358D01*
X140283076Y-83171645D01*
X140693110Y-83341476D01*
X140923000Y-83220155D01*
X140923000Y-82027000D01*
X139729181Y-82027000D01*
X139608514Y-82256892D01*
X132127000Y-82256892D01*
X132127000Y-81543108D01*
X139608514Y-81543108D01*
X139729181Y-81773000D01*
X140923000Y-81773000D01*
X140923000Y-80579845D01*
X140693110Y-80458524D01*
X140283076Y-80628355D01*
X139854817Y-81018642D01*
X139608514Y-81543108D01*
X132127000Y-81543108D01*
X132127000Y-77527000D01*
X171873000Y-77527000D01*
X171873000Y-111587606D01*
X171873000Y-111587606D01*
G37*
X171873000Y-111587606D02*
X171459558Y-111174164D01*
X171514092Y-110900000D01*
X171398839Y-110320582D01*
X171070625Y-109829375D01*
X170751522Y-109616157D01*
X170881358Y-109555183D01*
X171271645Y-109126924D01*
X171441476Y-108716890D01*
X171320155Y-108487000D01*
X170127000Y-108487000D01*
X170127000Y-108507000D01*
X169873000Y-108507000D01*
X169873000Y-108487000D01*
X168679845Y-108487000D01*
X168558524Y-108716890D01*
X168728355Y-109126924D01*
X169118642Y-109555183D01*
X169248478Y-109616157D01*
X168929375Y-109829375D01*
X168601161Y-110320582D01*
X168485908Y-110900000D01*
X168601161Y-111479418D01*
X168929375Y-111970625D01*
X169227761Y-112170000D01*
X168929375Y-112369375D01*
X168601161Y-112860582D01*
X168485908Y-113440000D01*
X168601161Y-114019418D01*
X168929375Y-114510625D01*
X169227761Y-114710000D01*
X168929375Y-114909375D01*
X168774074Y-115141800D01*
X157520575Y-115141800D01*
X157455874Y-115115000D01*
X157044126Y-115115000D01*
X156663720Y-115272569D01*
X156372569Y-115563720D01*
X156215000Y-115944126D01*
X156215000Y-116355874D01*
X156326973Y-116626201D01*
X156215000Y-116896529D01*
X156215000Y-117308277D01*
X156372569Y-117688683D01*
X156555715Y-117871829D01*
X154589428Y-117871829D01*
X154589428Y-117748554D01*
X154431859Y-117368148D01*
X154140708Y-117076997D01*
X153760302Y-116919428D01*
X153704821Y-116919428D01*
X153588200Y-116802807D01*
X153588200Y-116435000D01*
X153711474Y-116435000D01*
X154091880Y-116277431D01*
X154383031Y-115986280D01*
X154540600Y-115605874D01*
X154540600Y-115194126D01*
X154383031Y-114813720D01*
X154349442Y-114780131D01*
X154343800Y-114751765D01*
X154343800Y-114751761D01*
X154338200Y-114723608D01*
X154338200Y-112832645D01*
X154582429Y-112588416D01*
X154727493Y-112238200D01*
X156229587Y-112238200D01*
X156165000Y-112394126D01*
X156165000Y-112805874D01*
X156322569Y-113186280D01*
X156613720Y-113477431D01*
X156994126Y-113635000D01*
X157405874Y-113635000D01*
X157786280Y-113477431D01*
X158077431Y-113186280D01*
X158235000Y-112805874D01*
X158235000Y-112750393D01*
X158360841Y-112624552D01*
X158448010Y-112711721D01*
X158828416Y-112869290D01*
X159240164Y-112869290D01*
X159620570Y-112711721D01*
X159911721Y-112420570D01*
X160069290Y-112040164D01*
X160069290Y-111955181D01*
X160148377Y-111836819D01*
X160197010Y-111592324D01*
X160197010Y-111592320D01*
X160213430Y-111509770D01*
X160197010Y-111427220D01*
X160197010Y-104970000D01*
X168502560Y-104970000D01*
X168502560Y-106670000D01*
X168551843Y-106917765D01*
X168692191Y-107127809D01*
X168902235Y-107268157D01*
X169005708Y-107288739D01*
X168728355Y-107593076D01*
X168558524Y-108003110D01*
X168679845Y-108233000D01*
X169873000Y-108233000D01*
X169873000Y-108213000D01*
X170127000Y-108213000D01*
X170127000Y-108233000D01*
X171320155Y-108233000D01*
X171441476Y-108003110D01*
X171271645Y-107593076D01*
X170994292Y-107288739D01*
X171097765Y-107268157D01*
X171307809Y-107127809D01*
X171448157Y-106917765D01*
X171497440Y-106670000D01*
X171497440Y-104970000D01*
X171448157Y-104722235D01*
X171307809Y-104512191D01*
X171097765Y-104371843D01*
X170850000Y-104322560D01*
X169150000Y-104322560D01*
X168902235Y-104371843D01*
X168692191Y-104512191D01*
X168551843Y-104722235D01*
X168502560Y-104970000D01*
X160197010Y-104970000D01*
X160197010Y-103009184D01*
X160204308Y-103004308D01*
X160389567Y-102727049D01*
X160438200Y-102482554D01*
X160438200Y-102482550D01*
X160454620Y-102400001D01*
X160438200Y-102317452D01*
X160438200Y-100059513D01*
X162765000Y-102386315D01*
X162765000Y-102405874D01*
X162922569Y-102786280D01*
X163213720Y-103077431D01*
X163594126Y-103235000D01*
X164005874Y-103235000D01*
X164386280Y-103077431D01*
X164677431Y-102786280D01*
X164835000Y-102405874D01*
X164835000Y-101994126D01*
X164677431Y-101613720D01*
X164386280Y-101322569D01*
X164005874Y-101165000D01*
X163986315Y-101165000D01*
X162221314Y-99400000D01*
X168485908Y-99400000D01*
X168601161Y-99979418D01*
X168929375Y-100470625D01*
X169227761Y-100670000D01*
X168929375Y-100869375D01*
X168601161Y-101360582D01*
X168485908Y-101940000D01*
X168601161Y-102519418D01*
X168929375Y-103010625D01*
X169420582Y-103338839D01*
X169853744Y-103425000D01*
X170146256Y-103425000D01*
X170579418Y-103338839D01*
X171070625Y-103010625D01*
X171398839Y-102519418D01*
X171514092Y-101940000D01*
X171398839Y-101360582D01*
X171070625Y-100869375D01*
X170772239Y-100670000D01*
X171070625Y-100470625D01*
X171398839Y-99979418D01*
X171514092Y-99400000D01*
X171398839Y-98820582D01*
X171070625Y-98329375D01*
X170751522Y-98116157D01*
X170881358Y-98055183D01*
X171271645Y-97626924D01*
X171441476Y-97216890D01*
X171320155Y-96987000D01*
X170127000Y-96987000D01*
X170127000Y-97007000D01*
X169873000Y-97007000D01*
X169873000Y-96987000D01*
X168679845Y-96987000D01*
X168558524Y-97216890D01*
X168728355Y-97626924D01*
X169118642Y-98055183D01*
X169248478Y-98116157D01*
X168929375Y-98329375D01*
X168601161Y-98820582D01*
X168485908Y-99400000D01*
X162221314Y-99400000D01*
X161574133Y-98752820D01*
X161635000Y-98605874D01*
X161635000Y-98194126D01*
X161477431Y-97813720D01*
X161186280Y-97522569D01*
X160805874Y-97365000D01*
X160394126Y-97365000D01*
X160100000Y-97486831D01*
X159805874Y-97365000D01*
X159638200Y-97365000D01*
X159638200Y-93470000D01*
X168502560Y-93470000D01*
X168502560Y-95170000D01*
X168551843Y-95417765D01*
X168692191Y-95627809D01*
X168902235Y-95768157D01*
X169005708Y-95788739D01*
X168728355Y-96093076D01*
X168558524Y-96503110D01*
X168679845Y-96733000D01*
X169873000Y-96733000D01*
X169873000Y-96713000D01*
X170127000Y-96713000D01*
X170127000Y-96733000D01*
X171320155Y-96733000D01*
X171441476Y-96503110D01*
X171271645Y-96093076D01*
X170994292Y-95788739D01*
X171097765Y-95768157D01*
X171307809Y-95627809D01*
X171448157Y-95417765D01*
X171497440Y-95170000D01*
X171497440Y-93470000D01*
X171448157Y-93222235D01*
X171307809Y-93012191D01*
X171097765Y-92871843D01*
X170850000Y-92822560D01*
X169150000Y-92822560D01*
X168902235Y-92871843D01*
X168692191Y-93012191D01*
X168551843Y-93222235D01*
X168502560Y-93470000D01*
X159638200Y-93470000D01*
X159638200Y-87347193D01*
X163208586Y-83776808D01*
X163308707Y-83709909D01*
X163355471Y-83639922D01*
X163597953Y-83397440D01*
X164760000Y-83397440D01*
X165007765Y-83348157D01*
X165217809Y-83207809D01*
X165358157Y-82997765D01*
X165407440Y-82750000D01*
X165407440Y-81050000D01*
X165358157Y-80802235D01*
X165217809Y-80592191D01*
X165007765Y-80451843D01*
X164760000Y-80402560D01*
X163060000Y-80402560D01*
X162812235Y-80451843D01*
X162602191Y-80592191D01*
X162461843Y-80802235D01*
X162452816Y-80847619D01*
X162440625Y-80829375D01*
X161949418Y-80501161D01*
X161516256Y-80415000D01*
X161223744Y-80415000D01*
X160790582Y-80501161D01*
X160299375Y-80829375D01*
X160100000Y-81127761D01*
X159900625Y-80829375D01*
X159409418Y-80501161D01*
X158976256Y-80415000D01*
X158683744Y-80415000D01*
X158250582Y-80501161D01*
X157759375Y-80829375D01*
X157560000Y-81127761D01*
X157360625Y-80829375D01*
X156869418Y-80501161D01*
X156436256Y-80415000D01*
X156143744Y-80415000D01*
X155710582Y-80501161D01*
X155219375Y-80829375D01*
X155020000Y-81127761D01*
X154820625Y-80829375D01*
X154329418Y-80501161D01*
X153896256Y-80415000D01*
X153603744Y-80415000D01*
X153170582Y-80501161D01*
X152679375Y-80829375D01*
X152480000Y-81127761D01*
X152280625Y-80829375D01*
X151789418Y-80501161D01*
X151356256Y-80415000D01*
X151063744Y-80415000D01*
X150630582Y-80501161D01*
X150139375Y-80829375D01*
X149940000Y-81127761D01*
X149740625Y-80829375D01*
X149249418Y-80501161D01*
X148816256Y-80415000D01*
X148523744Y-80415000D01*
X148090582Y-80501161D01*
X147599375Y-80829375D01*
X147400000Y-81127761D01*
X147200625Y-80829375D01*
X146709418Y-80501161D01*
X146276256Y-80415000D01*
X145983744Y-80415000D01*
X145550582Y-80501161D01*
X145059375Y-80829375D01*
X144860000Y-81127761D01*
X144660625Y-80829375D01*
X144169418Y-80501161D01*
X143736256Y-80415000D01*
X143443744Y-80415000D01*
X143010582Y-80501161D01*
X142519375Y-80829375D01*
X142306157Y-81148478D01*
X142245183Y-81018642D01*
X141816924Y-80628355D01*
X141406890Y-80458524D01*
X141177000Y-80579845D01*
X141177000Y-81773000D01*
X141197000Y-81773000D01*
X141197000Y-82027000D01*
X141177000Y-82027000D01*
X141177000Y-83220155D01*
X141406890Y-83341476D01*
X141816924Y-83171645D01*
X142245183Y-82781358D01*
X142306157Y-82651522D01*
X142519375Y-82970625D01*
X143010582Y-83298839D01*
X143443744Y-83385000D01*
X143459607Y-83385000D01*
X142965679Y-83878928D01*
X142895692Y-83925692D01*
X142710433Y-84202952D01*
X142661800Y-84447447D01*
X142661800Y-84447451D01*
X142645380Y-84530000D01*
X142661800Y-84612549D01*
X142661801Y-109667446D01*
X142645380Y-109750000D01*
X142710434Y-110077049D01*
X142848929Y-110284322D01*
X142848931Y-110284324D01*
X142895693Y-110354308D01*
X142965677Y-110401070D01*
X143175448Y-110610841D01*
X143031859Y-110754430D01*
X142874290Y-111134836D01*
X142874290Y-111161800D01*
X142375511Y-111161800D01*
X142336280Y-111122569D01*
X141955874Y-110965000D01*
X141544126Y-110965000D01*
X141163720Y-111122569D01*
X140872569Y-111413720D01*
X140715000Y-111794126D01*
X140715000Y-112205874D01*
X140872569Y-112586280D01*
X141163720Y-112877431D01*
X141544126Y-113035000D01*
X141955874Y-113035000D01*
X142336280Y-112877431D01*
X142375511Y-112838200D01*
X143167451Y-112838200D01*
X143250000Y-112854620D01*
X143332549Y-112838200D01*
X143332554Y-112838200D01*
X143577049Y-112789567D01*
X143854308Y-112604308D01*
X143901071Y-112534322D01*
X144059683Y-112375710D01*
X144115164Y-112375710D01*
X144495570Y-112218141D01*
X144639159Y-112074552D01*
X145348930Y-112784324D01*
X145395692Y-112854308D01*
X145465676Y-112901070D01*
X145465677Y-112901071D01*
X145504556Y-112927049D01*
X145672951Y-113039567D01*
X145863823Y-113077534D01*
X145913720Y-113127431D01*
X146294126Y-113285000D01*
X146705874Y-113285000D01*
X147086280Y-113127431D01*
X147377431Y-112836280D01*
X147535000Y-112455874D01*
X147535000Y-112044126D01*
X147377431Y-111663720D01*
X147190053Y-111476342D01*
X147223372Y-111462541D01*
X147514523Y-111171390D01*
X147672092Y-110790984D01*
X147672092Y-110440280D01*
X147682550Y-110438200D01*
X149374489Y-110438200D01*
X149413720Y-110477431D01*
X149794126Y-110635000D01*
X149961800Y-110635000D01*
X149961800Y-111482553D01*
X149961801Y-111482558D01*
X149961800Y-112652806D01*
X148265677Y-114348930D01*
X148195693Y-114395692D01*
X148148931Y-114465676D01*
X148148929Y-114465678D01*
X148010434Y-114672951D01*
X147945380Y-115000000D01*
X147961801Y-115082554D01*
X147961800Y-118882553D01*
X147961801Y-118882557D01*
X147961800Y-119717450D01*
X147945380Y-119800000D01*
X147961800Y-119882549D01*
X147961800Y-119882553D01*
X148010433Y-120127048D01*
X148195692Y-120404308D01*
X148265678Y-120451071D01*
X148348929Y-120534322D01*
X148761801Y-120947195D01*
X148761800Y-142852806D01*
X148652807Y-142961800D01*
X144682548Y-142961800D01*
X144599999Y-142945380D01*
X144517450Y-142961800D01*
X144517446Y-142961800D01*
X144272951Y-143010433D01*
X143995692Y-143195692D01*
X143948929Y-143265678D01*
X143665680Y-143548927D01*
X143665677Y-143548929D01*
X143312046Y-143902560D01*
X142200000Y-143902560D01*
X141952235Y-143951843D01*
X141742191Y-144092191D01*
X141601843Y-144302235D01*
X141552560Y-144550000D01*
X141552560Y-146250000D01*
X141601843Y-146497765D01*
X141742191Y-146707809D01*
X141952235Y-146848157D01*
X142200000Y-146897440D01*
X143900000Y-146897440D01*
X144147765Y-146848157D01*
X144357809Y-146707809D01*
X144498157Y-146497765D01*
X144507184Y-146452381D01*
X144519375Y-146470625D01*
X145010582Y-146798839D01*
X145443744Y-146885000D01*
X145736256Y-146885000D01*
X146169418Y-146798839D01*
X146660625Y-146470625D01*
X146873843Y-146151522D01*
X146934817Y-146281358D01*
X147363076Y-146671645D01*
X147773110Y-146841476D01*
X148003000Y-146720155D01*
X148003000Y-145527000D01*
X147983000Y-145527000D01*
X147983000Y-145273000D01*
X148003000Y-145273000D01*
X148003000Y-145253000D01*
X148257000Y-145253000D01*
X148257000Y-145273000D01*
X148277000Y-145273000D01*
X148277000Y-145527000D01*
X148257000Y-145527000D01*
X148257000Y-146720155D01*
X148486890Y-146841476D01*
X148896924Y-146671645D01*
X149325183Y-146281358D01*
X149386157Y-146151522D01*
X149599375Y-146470625D01*
X150090582Y-146798839D01*
X150523744Y-146885000D01*
X150816256Y-146885000D01*
X151249418Y-146798839D01*
X151740625Y-146470625D01*
X151940000Y-146172239D01*
X152139375Y-146470625D01*
X152630582Y-146798839D01*
X153063744Y-146885000D01*
X153356256Y-146885000D01*
X153789418Y-146798839D01*
X154280625Y-146470625D01*
X154480000Y-146172239D01*
X154679375Y-146470625D01*
X155170582Y-146798839D01*
X155603744Y-146885000D01*
X155896256Y-146885000D01*
X156329418Y-146798839D01*
X156820625Y-146470625D01*
X157020000Y-146172239D01*
X157219375Y-146470625D01*
X157710582Y-146798839D01*
X158143744Y-146885000D01*
X158436256Y-146885000D01*
X158869418Y-146798839D01*
X159360625Y-146470625D01*
X159560000Y-146172239D01*
X159759375Y-146470625D01*
X160250582Y-146798839D01*
X160683744Y-146885000D01*
X160976256Y-146885000D01*
X161409418Y-146798839D01*
X161900625Y-146470625D01*
X162228839Y-145979418D01*
X162344092Y-145400000D01*
X162228839Y-144820582D01*
X161900625Y-144329375D01*
X161409418Y-144001161D01*
X160976256Y-143915000D01*
X160683744Y-143915000D01*
X160250582Y-144001161D01*
X159759375Y-144329375D01*
X159560000Y-144627761D01*
X159360625Y-144329375D01*
X158869418Y-144001161D01*
X158436256Y-143915000D01*
X158143744Y-143915000D01*
X157710582Y-144001161D01*
X157219375Y-144329375D01*
X157020000Y-144627761D01*
X156820625Y-144329375D01*
X156329418Y-144001161D01*
X155896256Y-143915000D01*
X155603744Y-143915000D01*
X155170582Y-144001161D01*
X154679375Y-144329375D01*
X154480000Y-144627761D01*
X154280625Y-144329375D01*
X154048200Y-144174074D01*
X154048200Y-139892548D01*
X154064620Y-139809999D01*
X154048200Y-139727450D01*
X154048200Y-139727446D01*
X153999567Y-139482951D01*
X153907645Y-139345380D01*
X153861071Y-139275677D01*
X153861070Y-139275676D01*
X153814308Y-139205692D01*
X153744325Y-139158931D01*
X152779520Y-138194126D01*
X161203799Y-138194126D01*
X161203799Y-138605874D01*
X161361368Y-138986280D01*
X161652519Y-139277431D01*
X162032925Y-139435000D01*
X162154915Y-139435000D01*
X162161750Y-139439567D01*
X162406245Y-139488200D01*
X162406249Y-139488200D01*
X162488798Y-139504620D01*
X162571347Y-139488200D01*
X163374489Y-139488200D01*
X163413720Y-139527431D01*
X163794126Y-139685000D01*
X164205874Y-139685000D01*
X164586280Y-139527431D01*
X164877431Y-139236280D01*
X164983585Y-138980000D01*
X168485908Y-138980000D01*
X168601161Y-139559418D01*
X168929375Y-140050625D01*
X169227761Y-140250000D01*
X168929375Y-140449375D01*
X168601161Y-140940582D01*
X168485908Y-141520000D01*
X168601161Y-142099418D01*
X168929375Y-142590625D01*
X169420582Y-142918839D01*
X169853744Y-143005000D01*
X170146256Y-143005000D01*
X170579418Y-142918839D01*
X171070625Y-142590625D01*
X171398839Y-142099418D01*
X171514092Y-141520000D01*
X171398839Y-140940582D01*
X171070625Y-140449375D01*
X170772239Y-140250000D01*
X171070625Y-140050625D01*
X171398839Y-139559418D01*
X171514092Y-138980000D01*
X171398839Y-138400582D01*
X171070625Y-137909375D01*
X170751522Y-137696157D01*
X170881358Y-137635183D01*
X171271645Y-137206924D01*
X171441476Y-136796890D01*
X171320155Y-136567000D01*
X170127000Y-136567000D01*
X170127000Y-136587000D01*
X169873000Y-136587000D01*
X169873000Y-136567000D01*
X168679845Y-136567000D01*
X168558524Y-136796890D01*
X168728355Y-137206924D01*
X169118642Y-137635183D01*
X169248478Y-137696157D01*
X168929375Y-137909375D01*
X168601161Y-138400582D01*
X168485908Y-138980000D01*
X164983585Y-138980000D01*
X165035000Y-138855874D01*
X165035000Y-138444126D01*
X164877431Y-138063720D01*
X164586280Y-137772569D01*
X164205874Y-137615000D01*
X163794126Y-137615000D01*
X163413720Y-137772569D01*
X163374489Y-137811800D01*
X163114310Y-137811800D01*
X162825079Y-137522569D01*
X162444673Y-137365000D01*
X162032925Y-137365000D01*
X161652519Y-137522569D01*
X161361368Y-137813720D01*
X161203799Y-138194126D01*
X152779520Y-138194126D01*
X152038200Y-137452807D01*
X152038200Y-119882549D01*
X152054620Y-119800000D01*
X152038200Y-119717451D01*
X152038200Y-119717446D01*
X152024897Y-119650567D01*
X152634255Y-120259925D01*
X152681017Y-120329909D01*
X152751001Y-120376671D01*
X152751002Y-120376672D01*
X152958275Y-120515168D01*
X152969728Y-120517446D01*
X153202771Y-120563801D01*
X153202774Y-120563801D01*
X153285325Y-120580221D01*
X153367875Y-120563801D01*
X170661800Y-120563801D01*
X170661800Y-120902560D01*
X169150000Y-120902560D01*
X168902235Y-120951843D01*
X168692191Y-121092191D01*
X168551843Y-121302235D01*
X168502560Y-121550000D01*
X168502560Y-122676126D01*
X167949486Y-123229200D01*
X167877381Y-123277380D01*
X167829202Y-123349485D01*
X167686507Y-123563041D01*
X167619483Y-123900000D01*
X167636401Y-123985054D01*
X167636400Y-131007751D01*
X167619483Y-131092800D01*
X167636400Y-131177849D01*
X167636400Y-131177852D01*
X167686507Y-131429759D01*
X167877380Y-131715420D01*
X167949488Y-131763602D01*
X168743676Y-132557790D01*
X168692191Y-132592191D01*
X168551843Y-132802235D01*
X168502560Y-133050000D01*
X168502560Y-134750000D01*
X168551843Y-134997765D01*
X168692191Y-135207809D01*
X168902235Y-135348157D01*
X169005708Y-135368739D01*
X168728355Y-135673076D01*
X168558524Y-136083110D01*
X168679845Y-136313000D01*
X169873000Y-136313000D01*
X169873000Y-136293000D01*
X170127000Y-136293000D01*
X170127000Y-136313000D01*
X171320155Y-136313000D01*
X171441476Y-136083110D01*
X171271645Y-135673076D01*
X170994292Y-135368739D01*
X171097765Y-135348157D01*
X171307809Y-135207809D01*
X171448157Y-134997765D01*
X171497440Y-134750000D01*
X171497440Y-133050000D01*
X171448157Y-132802235D01*
X171307809Y-132592191D01*
X171097765Y-132451843D01*
X170850000Y-132402560D01*
X170842677Y-132402560D01*
X170813493Y-132255840D01*
X170622620Y-131970180D01*
X170550517Y-131922002D01*
X170133514Y-131505000D01*
X170146256Y-131505000D01*
X170579418Y-131418839D01*
X171070625Y-131090625D01*
X171398839Y-130599418D01*
X171514092Y-130020000D01*
X171398839Y-129440582D01*
X171070625Y-128949375D01*
X170772239Y-128750000D01*
X171070625Y-128550625D01*
X171398839Y-128059418D01*
X171514092Y-127480000D01*
X171459558Y-127205836D01*
X171873000Y-126792394D01*
X171873000Y-147273000D01*
X132127000Y-147273000D01*
X132127000Y-109544126D01*
X133715000Y-109544126D01*
X133715000Y-109955874D01*
X133872569Y-110336280D01*
X133911801Y-110375512D01*
X133911800Y-112167451D01*
X133895380Y-112250000D01*
X133911800Y-112332549D01*
X133911800Y-112332553D01*
X133960433Y-112577048D01*
X134145692Y-112854308D01*
X134215678Y-112901071D01*
X139715000Y-118400394D01*
X139715000Y-118455874D01*
X139872569Y-118836280D01*
X140163720Y-119127431D01*
X140544126Y-119285000D01*
X140955874Y-119285000D01*
X141336280Y-119127431D01*
X141627431Y-118836280D01*
X141785000Y-118455874D01*
X141785000Y-118044126D01*
X141627431Y-117663720D01*
X141336280Y-117372569D01*
X140955874Y-117215000D01*
X140900394Y-117215000D01*
X138369694Y-114684301D01*
X138386280Y-114677431D01*
X138677431Y-114386280D01*
X138835000Y-114005874D01*
X138835000Y-113594126D01*
X138763600Y-113421751D01*
X138763600Y-98750111D01*
X138777431Y-98736280D01*
X138935000Y-98355874D01*
X138935000Y-97944126D01*
X138777431Y-97563720D01*
X138486280Y-97272569D01*
X138105874Y-97115000D01*
X137694126Y-97115000D01*
X137313720Y-97272569D01*
X137022569Y-97563720D01*
X136865000Y-97944126D01*
X136865000Y-98355874D01*
X137022569Y-98736280D01*
X137036400Y-98750111D01*
X137036401Y-113099888D01*
X136922569Y-113213720D01*
X136915699Y-113230306D01*
X135588200Y-111902807D01*
X135588200Y-110375511D01*
X135627431Y-110336280D01*
X135785000Y-109955874D01*
X135785000Y-109544126D01*
X135627431Y-109163720D01*
X135336280Y-108872569D01*
X134955874Y-108715000D01*
X134544126Y-108715000D01*
X134163720Y-108872569D01*
X133872569Y-109163720D01*
X133715000Y-109544126D01*
X132127000Y-109544126D01*
X132127000Y-82256892D01*
X139608514Y-82256892D01*
X139854817Y-82781358D01*
X140283076Y-83171645D01*
X140693110Y-83341476D01*
X140923000Y-83220155D01*
X140923000Y-82027000D01*
X139729181Y-82027000D01*
X139608514Y-82256892D01*
X132127000Y-82256892D01*
X132127000Y-81543108D01*
X139608514Y-81543108D01*
X139729181Y-81773000D01*
X140923000Y-81773000D01*
X140923000Y-80579845D01*
X140693110Y-80458524D01*
X140283076Y-80628355D01*
X139854817Y-81018642D01*
X139608514Y-81543108D01*
X132127000Y-81543108D01*
X132127000Y-77527000D01*
X171873000Y-77527000D01*
X171873000Y-111587606D01*
G36*
X170127000Y-124813000D02*
X170147000Y-124813000D01*
X170147000Y-125067000D01*
X170127000Y-125067000D01*
X170127000Y-125087000D01*
X169873000Y-125087000D01*
X169873000Y-125067000D01*
X169853000Y-125067000D01*
X169853000Y-124813000D01*
X169873000Y-124813000D01*
X169873000Y-124793000D01*
X170127000Y-124793000D01*
X170127000Y-124813000D01*
X170127000Y-124813000D01*
G37*
X170127000Y-124813000D02*
X170147000Y-124813000D01*
X170147000Y-125067000D01*
X170127000Y-125067000D01*
X170127000Y-125087000D01*
X169873000Y-125087000D01*
X169873000Y-125067000D01*
X169853000Y-125067000D01*
X169853000Y-124813000D01*
X169873000Y-124813000D01*
X169873000Y-124793000D01*
X170127000Y-124793000D01*
X170127000Y-124813000D01*
G36*
X156143744Y-83385000D02*
X156436256Y-83385000D01*
X156551751Y-83362027D01*
X156561801Y-83412554D01*
X156561800Y-108974489D01*
X156522569Y-109013720D01*
X156365000Y-109394126D01*
X156365000Y-109805874D01*
X156522569Y-110186280D01*
X156813720Y-110477431D01*
X156901016Y-110513590D01*
X156852807Y-110561800D01*
X154649567Y-110561800D01*
X154610620Y-110365997D01*
X154425362Y-110088738D01*
X154148103Y-109903480D01*
X153821053Y-109838426D01*
X153494004Y-109903480D01*
X153286732Y-110041975D01*
X153270662Y-110058045D01*
X153215181Y-110058045D01*
X152834775Y-110215614D01*
X152543624Y-110506765D01*
X152386055Y-110887171D01*
X152386055Y-110990177D01*
X152197082Y-111200199D01*
X152145693Y-111234536D01*
X152086569Y-111323021D01*
X152071685Y-111339563D01*
X152040787Y-111391538D01*
X151960434Y-111511795D01*
X151955977Y-111534204D01*
X151944301Y-111553844D01*
X151923596Y-111696990D01*
X151911801Y-111756290D01*
X151911801Y-111778541D01*
X151896567Y-111883865D01*
X151911801Y-111943763D01*
X151911800Y-114696695D01*
X151877431Y-114613720D01*
X151586280Y-114322569D01*
X151205874Y-114165000D01*
X150820394Y-114165000D01*
X151334325Y-113651069D01*
X151404308Y-113604308D01*
X151589567Y-113327049D01*
X151638200Y-113082554D01*
X151638200Y-113082550D01*
X151654620Y-113000001D01*
X151638200Y-112917452D01*
X151638200Y-107882548D01*
X151654620Y-107799999D01*
X151638200Y-107717450D01*
X151638200Y-107717446D01*
X151589567Y-107472951D01*
X151435000Y-107241626D01*
X151435000Y-107194126D01*
X151277431Y-106813720D01*
X150986280Y-106522569D01*
X150605874Y-106365000D01*
X150194126Y-106365000D01*
X149813720Y-106522569D01*
X149522569Y-106813720D01*
X149365000Y-107194126D01*
X149365000Y-107409398D01*
X147394792Y-107409398D01*
X146573440Y-106588047D01*
X146573440Y-100194126D01*
X149365000Y-100194126D01*
X149365000Y-100605874D01*
X149522569Y-100986280D01*
X149561801Y-101025512D01*
X149561800Y-103717451D01*
X149545380Y-103800000D01*
X149561800Y-103882549D01*
X149561800Y-103882553D01*
X149610433Y-104127048D01*
X149795692Y-104404308D01*
X149865679Y-104451072D01*
X152765000Y-107350394D01*
X152765000Y-107405874D01*
X152922569Y-107786280D01*
X153213720Y-108077431D01*
X153594126Y-108235000D01*
X154005874Y-108235000D01*
X154386280Y-108077431D01*
X154677431Y-107786280D01*
X154835000Y-107405874D01*
X154835000Y-106994126D01*
X154677431Y-106613720D01*
X154386280Y-106322569D01*
X154005874Y-106165000D01*
X153950394Y-106165000D01*
X151238200Y-103452807D01*
X151238200Y-101835000D01*
X151605874Y-101835000D01*
X151986280Y-101677431D01*
X152025511Y-101638200D01*
X153774489Y-101638200D01*
X153813720Y-101677431D01*
X154194126Y-101835000D01*
X154605874Y-101835000D01*
X154986280Y-101677431D01*
X155277431Y-101386280D01*
X155435000Y-101005874D01*
X155435000Y-100594126D01*
X155277431Y-100213720D01*
X154986280Y-99922569D01*
X154605874Y-99765000D01*
X154194126Y-99765000D01*
X153813720Y-99922569D01*
X153774489Y-99961800D01*
X152025511Y-99961800D01*
X151986280Y-99922569D01*
X151605874Y-99765000D01*
X151228711Y-99765000D01*
X150986280Y-99522569D01*
X150605874Y-99365000D01*
X150194126Y-99365000D01*
X149813720Y-99522569D01*
X149522569Y-99813720D01*
X149365000Y-100194126D01*
X146573440Y-100194126D01*
X146573440Y-91052229D01*
X153681869Y-83943801D01*
X155001850Y-83943801D01*
X155084399Y-83960221D01*
X155166948Y-83943801D01*
X155166953Y-83943801D01*
X155411448Y-83895168D01*
X155688707Y-83709909D01*
X155735471Y-83639922D01*
X156015836Y-83359557D01*
X156143744Y-83385000D01*
X156143744Y-83385000D01*
G37*
X156143744Y-83385000D02*
X156436256Y-83385000D01*
X156551751Y-83362027D01*
X156561801Y-83412554D01*
X156561800Y-108974489D01*
X156522569Y-109013720D01*
X156365000Y-109394126D01*
X156365000Y-109805874D01*
X156522569Y-110186280D01*
X156813720Y-110477431D01*
X156901016Y-110513590D01*
X156852807Y-110561800D01*
X154649567Y-110561800D01*
X154610620Y-110365997D01*
X154425362Y-110088738D01*
X154148103Y-109903480D01*
X153821053Y-109838426D01*
X153494004Y-109903480D01*
X153286732Y-110041975D01*
X153270662Y-110058045D01*
X153215181Y-110058045D01*
X152834775Y-110215614D01*
X152543624Y-110506765D01*
X152386055Y-110887171D01*
X152386055Y-110990177D01*
X152197082Y-111200199D01*
X152145693Y-111234536D01*
X152086569Y-111323021D01*
X152071685Y-111339563D01*
X152040787Y-111391538D01*
X151960434Y-111511795D01*
X151955977Y-111534204D01*
X151944301Y-111553844D01*
X151923596Y-111696990D01*
X151911801Y-111756290D01*
X151911801Y-111778541D01*
X151896567Y-111883865D01*
X151911801Y-111943763D01*
X151911800Y-114696695D01*
X151877431Y-114613720D01*
X151586280Y-114322569D01*
X151205874Y-114165000D01*
X150820394Y-114165000D01*
X151334325Y-113651069D01*
X151404308Y-113604308D01*
X151589567Y-113327049D01*
X151638200Y-113082554D01*
X151638200Y-113082550D01*
X151654620Y-113000001D01*
X151638200Y-112917452D01*
X151638200Y-107882548D01*
X151654620Y-107799999D01*
X151638200Y-107717450D01*
X151638200Y-107717446D01*
X151589567Y-107472951D01*
X151435000Y-107241626D01*
X151435000Y-107194126D01*
X151277431Y-106813720D01*
X150986280Y-106522569D01*
X150605874Y-106365000D01*
X150194126Y-106365000D01*
X149813720Y-106522569D01*
X149522569Y-106813720D01*
X149365000Y-107194126D01*
X149365000Y-107409398D01*
X147394792Y-107409398D01*
X146573440Y-106588047D01*
X146573440Y-100194126D01*
X149365000Y-100194126D01*
X149365000Y-100605874D01*
X149522569Y-100986280D01*
X149561801Y-101025512D01*
X149561800Y-103717451D01*
X149545380Y-103800000D01*
X149561800Y-103882549D01*
X149561800Y-103882553D01*
X149610433Y-104127048D01*
X149795692Y-104404308D01*
X149865679Y-104451072D01*
X152765000Y-107350394D01*
X152765000Y-107405874D01*
X152922569Y-107786280D01*
X153213720Y-108077431D01*
X153594126Y-108235000D01*
X154005874Y-108235000D01*
X154386280Y-108077431D01*
X154677431Y-107786280D01*
X154835000Y-107405874D01*
X154835000Y-106994126D01*
X154677431Y-106613720D01*
X154386280Y-106322569D01*
X154005874Y-106165000D01*
X153950394Y-106165000D01*
X151238200Y-103452807D01*
X151238200Y-101835000D01*
X151605874Y-101835000D01*
X151986280Y-101677431D01*
X152025511Y-101638200D01*
X153774489Y-101638200D01*
X153813720Y-101677431D01*
X154194126Y-101835000D01*
X154605874Y-101835000D01*
X154986280Y-101677431D01*
X155277431Y-101386280D01*
X155435000Y-101005874D01*
X155435000Y-100594126D01*
X155277431Y-100213720D01*
X154986280Y-99922569D01*
X154605874Y-99765000D01*
X154194126Y-99765000D01*
X153813720Y-99922569D01*
X153774489Y-99961800D01*
X152025511Y-99961800D01*
X151986280Y-99922569D01*
X151605874Y-99765000D01*
X151228711Y-99765000D01*
X150986280Y-99522569D01*
X150605874Y-99365000D01*
X150194126Y-99365000D01*
X149813720Y-99522569D01*
X149522569Y-99813720D01*
X149365000Y-100194126D01*
X146573440Y-100194126D01*
X146573440Y-91052229D01*
X153681869Y-83943801D01*
X155001850Y-83943801D01*
X155084399Y-83960221D01*
X155166948Y-83943801D01*
X155166953Y-83943801D01*
X155411448Y-83895168D01*
X155688707Y-83709909D01*
X155735471Y-83639922D01*
X156015836Y-83359557D01*
X156143744Y-83385000D01*
G04 #@! TD*
M02*
