G04 #@! TF.GenerationSoftware,KiCad,Pcbnew,(5.0.0)*
G04 #@! TF.CreationDate,2018-10-11T21:50:58+05:00*
G04 #@! TF.ProjectId,Dev Board,44657620426F6172642E6B696361645F,rev?*
G04 #@! TF.SameCoordinates,Original*
G04 #@! TF.FileFunction,Copper,L1,Top,Signal*
G04 #@! TF.FilePolarity,Positive*
%FSLAX46Y46*%
G04 Gerber Fmt 4.6, Leading zero omitted, Abs format (unit mm)*
G04 Created by KiCad (PCBNEW (5.0.0)) date 10/11/18 21:50:58*
%MOMM*%
%LPD*%
G01*
G04 APERTURE LIST*
G04 #@! TA.AperFunction,ComponentPad*
%ADD10C,3.800000*%
G04 #@! TD*
G04 #@! TA.AperFunction,SMDPad,CuDef*
%ADD11R,1.395000X1.800000*%
G04 #@! TD*
G04 #@! TA.AperFunction,SMDPad,CuDef*
%ADD12R,1.800000X1.395000*%
G04 #@! TD*
G04 #@! TA.AperFunction,SMDPad,CuDef*
%ADD13R,1.600000X3.000000*%
G04 #@! TD*
G04 #@! TA.AperFunction,SMDPad,CuDef*
%ADD14R,1.800000X1.220000*%
G04 #@! TD*
G04 #@! TA.AperFunction,ComponentPad*
%ADD15R,1.700000X1.700000*%
G04 #@! TD*
G04 #@! TA.AperFunction,ComponentPad*
%ADD16O,1.700000X1.700000*%
G04 #@! TD*
G04 #@! TA.AperFunction,BGAPad,CuDef*
%ADD17C,1.000000*%
G04 #@! TD*
G04 #@! TA.AperFunction,SMDPad,CuDef*
%ADD18R,1.550000X0.600000*%
G04 #@! TD*
G04 #@! TA.AperFunction,SMDPad,CuDef*
%ADD19R,1.750000X0.450000*%
G04 #@! TD*
G04 #@! TA.AperFunction,SMDPad,CuDef*
%ADD20R,2.200000X1.200000*%
G04 #@! TD*
G04 #@! TA.AperFunction,SMDPad,CuDef*
%ADD21R,6.400000X5.800000*%
G04 #@! TD*
G04 #@! TA.AperFunction,SMDPad,CuDef*
%ADD22R,2.000000X7.875000*%
G04 #@! TD*
G04 #@! TA.AperFunction,SMDPad,CuDef*
%ADD23R,1.200000X0.900000*%
G04 #@! TD*
G04 #@! TA.AperFunction,ViaPad*
%ADD24C,0.800000*%
G04 #@! TD*
G04 #@! TA.AperFunction,Conductor*
%ADD25C,0.457200*%
G04 #@! TD*
G04 #@! TA.AperFunction,Conductor*
%ADD26C,0.609600*%
G04 #@! TD*
G04 #@! TA.AperFunction,Conductor*
%ADD27C,0.406400*%
G04 #@! TD*
G04 #@! TA.AperFunction,Conductor*
%ADD28C,0.254000*%
G04 #@! TD*
G04 APERTURE END LIST*
D10*
G04 #@! TO.P,,1*
G04 #@! TO.N,N/C*
X174500000Y-149900000D03*
G04 #@! TD*
G04 #@! TO.P,,1*
G04 #@! TO.N,N/C*
X174500000Y-74900000D03*
G04 #@! TD*
G04 #@! TO.P,,1*
G04 #@! TO.N,N/C*
X129500000Y-74900000D03*
G04 #@! TD*
G04 #@! TO.P,,1*
G04 #@! TO.N,N/C*
X129500000Y-149900000D03*
G04 #@! TD*
D11*
G04 #@! TO.P,C1,1*
G04 #@! TO.N,VCC*
X136285000Y-114500000D03*
G04 #@! TO.P,C1,2*
G04 #@! TO.N,GND*
X133250000Y-114500000D03*
G04 #@! TD*
D12*
G04 #@! TO.P,C2,2*
G04 #@! TO.N,GND*
X149550000Y-105667500D03*
G04 #@! TO.P,C2,1*
G04 #@! TO.N,VCC*
X149550000Y-102632500D03*
G04 #@! TD*
D11*
G04 #@! TO.P,C3,2*
G04 #@! TO.N,GND*
X133250000Y-119500000D03*
G04 #@! TO.P,C3,1*
G04 #@! TO.N,VCC*
X136285000Y-119500000D03*
G04 #@! TD*
G04 #@! TO.P,C4,1*
G04 #@! TO.N,VCC*
X136285000Y-117000000D03*
G04 #@! TO.P,C4,2*
G04 #@! TO.N,GND*
X133250000Y-117000000D03*
G04 #@! TD*
D12*
G04 #@! TO.P,C5,1*
G04 #@! TO.N,Net-(C5-Pad1)*
X157050000Y-105685000D03*
G04 #@! TO.P,C5,2*
G04 #@! TO.N,GND*
X157050000Y-102650000D03*
G04 #@! TD*
G04 #@! TO.P,C6,1*
G04 #@! TO.N,Net-(C6-Pad1)*
X159550000Y-105685000D03*
G04 #@! TO.P,C6,2*
G04 #@! TO.N,GND*
X159550000Y-102650000D03*
G04 #@! TD*
D11*
G04 #@! TO.P,C7,2*
G04 #@! TO.N,GND*
X133232500Y-104500000D03*
G04 #@! TO.P,C7,1*
G04 #@! TO.N,/OSC1*
X136267500Y-104500000D03*
G04 #@! TD*
G04 #@! TO.P,C8,2*
G04 #@! TO.N,GND*
X133215000Y-107000000D03*
G04 #@! TO.P,C8,1*
G04 #@! TO.N,/OSC2*
X136250000Y-107000000D03*
G04 #@! TD*
D12*
G04 #@! TO.P,C9,2*
G04 #@! TO.N,GND*
X150250000Y-88150000D03*
G04 #@! TO.P,C9,1*
G04 #@! TO.N,/Vin*
X150250000Y-91185000D03*
G04 #@! TD*
D13*
G04 #@! TO.P,C10,2*
G04 #@! TO.N,GND*
X137250000Y-87950000D03*
G04 #@! TO.P,C10,1*
G04 #@! TO.N,/Vin*
X137250000Y-92350000D03*
G04 #@! TD*
D12*
G04 #@! TO.P,C11,1*
G04 #@! TO.N,VCC*
X147750000Y-91167500D03*
G04 #@! TO.P,C11,2*
G04 #@! TO.N,GND*
X147750000Y-88132500D03*
G04 #@! TD*
D13*
G04 #@! TO.P,C12,1*
G04 #@! TO.N,VCC*
X143250000Y-92350000D03*
G04 #@! TO.P,C12,2*
G04 #@! TO.N,GND*
X143250000Y-87950000D03*
G04 #@! TD*
D14*
G04 #@! TO.P,D1,1*
G04 #@! TO.N,Net-(D1-Pad1)*
X149000000Y-123510000D03*
G04 #@! TO.P,D1,2*
G04 #@! TO.N,/LED_RB0*
X149000000Y-120650000D03*
G04 #@! TD*
G04 #@! TO.P,D2,2*
G04 #@! TO.N,/LED_RB1*
X152000000Y-120650000D03*
G04 #@! TO.P,D2,1*
G04 #@! TO.N,Net-(D2-Pad1)*
X152000000Y-123510000D03*
G04 #@! TD*
G04 #@! TO.P,D3,1*
G04 #@! TO.N,Net-(D3-Pad1)*
X155000000Y-123510000D03*
G04 #@! TO.P,D3,2*
G04 #@! TO.N,/LED_RB4*
X155000000Y-120650000D03*
G04 #@! TD*
D15*
G04 #@! TO.P,J1,1*
G04 #@! TO.N,/~MCLR~*
X143050000Y-145400000D03*
D16*
G04 #@! TO.P,J1,2*
G04 #@! TO.N,VCC*
X145590000Y-145400000D03*
G04 #@! TO.P,J1,3*
G04 #@! TO.N,GND*
X148130000Y-145400000D03*
G04 #@! TO.P,J1,4*
G04 #@! TO.N,/PGD*
X150670000Y-145400000D03*
G04 #@! TO.P,J1,5*
G04 #@! TO.N,/PGC*
X153210000Y-145400000D03*
G04 #@! TO.P,J1,6*
G04 #@! TO.N,Net-(J1-Pad6)*
X155750000Y-145400000D03*
G04 #@! TO.P,J1,7*
G04 #@! TO.N,Net-(J1-Pad7)*
X158290000Y-145400000D03*
G04 #@! TO.P,J1,8*
G04 #@! TO.N,Net-(J1-Pad8)*
X160830000Y-145400000D03*
G04 #@! TD*
G04 #@! TO.P,J2,4*
G04 #@! TO.N,/SDA_SDI*
X170000000Y-130020000D03*
G04 #@! TO.P,J2,3*
G04 #@! TO.N,/SCL_SCK*
X170000000Y-127480000D03*
G04 #@! TO.P,J2,2*
G04 #@! TO.N,GND*
X170000000Y-124940000D03*
D15*
G04 #@! TO.P,J2,1*
G04 #@! TO.N,VCC*
X170000000Y-122400000D03*
G04 #@! TD*
G04 #@! TO.P,J3,1*
G04 #@! TO.N,VCC*
X170000000Y-133900000D03*
D16*
G04 #@! TO.P,J3,2*
G04 #@! TO.N,GND*
X170000000Y-136440000D03*
G04 #@! TO.P,J3,3*
G04 #@! TO.N,/TX1*
X170000000Y-138980000D03*
G04 #@! TO.P,J3,4*
G04 #@! TO.N,/RX1*
X170000000Y-141520000D03*
G04 #@! TD*
D15*
G04 #@! TO.P,J4,1*
G04 #@! TO.N,VCC*
X170000000Y-105820000D03*
D16*
G04 #@! TO.P,J4,2*
G04 #@! TO.N,GND*
X170000000Y-108360000D03*
G04 #@! TO.P,J4,3*
G04 #@! TO.N,/SCL_SCK*
X170000000Y-110900000D03*
G04 #@! TO.P,J4,4*
G04 #@! TO.N,/SDA_SDI*
X170000000Y-113440000D03*
G04 #@! TO.P,J4,5*
G04 #@! TO.N,/SDO*
X170000000Y-115980000D03*
G04 #@! TO.P,J4,6*
G04 #@! TO.N,/~SS~*
X170000000Y-118520000D03*
G04 #@! TD*
D15*
G04 #@! TO.P,J5,1*
G04 #@! TO.N,+12V*
X170000000Y-94320000D03*
D16*
G04 #@! TO.P,J5,2*
G04 #@! TO.N,GND*
X170000000Y-96860000D03*
G04 #@! TO.P,J5,3*
G04 #@! TO.N,/CAN_H*
X170000000Y-99400000D03*
G04 #@! TO.P,J5,4*
G04 #@! TO.N,/CAN_L*
X170000000Y-101940000D03*
G04 #@! TD*
D12*
G04 #@! TO.P,R1,1*
G04 #@! TO.N,Net-(R1-Pad1)*
X162000000Y-102615000D03*
G04 #@! TO.P,R1,2*
G04 #@! TO.N,GND*
X162000000Y-105650000D03*
G04 #@! TD*
G04 #@! TO.P,R2,1*
G04 #@! TO.N,/CAN_L*
X154550000Y-102650000D03*
G04 #@! TO.P,R2,2*
G04 #@! TO.N,Net-(C5-Pad1)*
X154550000Y-105685000D03*
G04 #@! TD*
G04 #@! TO.P,R3,2*
G04 #@! TO.N,Net-(C6-Pad1)*
X152050000Y-105685000D03*
G04 #@! TO.P,R3,1*
G04 #@! TO.N,/CAN_H*
X152050000Y-102650000D03*
G04 #@! TD*
D11*
G04 #@! TO.P,R4,1*
G04 #@! TO.N,/OSC2*
X133232500Y-109500000D03*
G04 #@! TO.P,R4,2*
G04 #@! TO.N,/OSC1*
X136267500Y-109500000D03*
G04 #@! TD*
D12*
G04 #@! TO.P,R5,2*
G04 #@! TO.N,Net-(D1-Pad1)*
X149000000Y-125865000D03*
G04 #@! TO.P,R5,1*
G04 #@! TO.N,GND*
X149000000Y-128900000D03*
G04 #@! TD*
G04 #@! TO.P,R6,2*
G04 #@! TO.N,Net-(D2-Pad1)*
X152000000Y-125900000D03*
G04 #@! TO.P,R6,1*
G04 #@! TO.N,GND*
X152000000Y-128935000D03*
G04 #@! TD*
G04 #@! TO.P,R7,1*
G04 #@! TO.N,GND*
X155000000Y-128935000D03*
G04 #@! TO.P,R7,2*
G04 #@! TO.N,Net-(D3-Pad1)*
X155000000Y-125900000D03*
G04 #@! TD*
G04 #@! TO.P,R8,2*
G04 #@! TO.N,/~MCLR~*
X147000000Y-105650000D03*
G04 #@! TO.P,R8,1*
G04 #@! TO.N,VCC*
X147000000Y-102615000D03*
G04 #@! TD*
D17*
G04 #@! TO.P,TP1,1*
G04 #@! TO.N,/~MCLR~*
X141250000Y-140400000D03*
G04 #@! TD*
G04 #@! TO.P,TP2,1*
G04 #@! TO.N,/PGD*
X150750000Y-140400000D03*
G04 #@! TD*
G04 #@! TO.P,TP3,1*
G04 #@! TO.N,/PGC*
X153750000Y-140400000D03*
G04 #@! TD*
G04 #@! TO.P,TP5,1*
G04 #@! TO.N,/CAN_H*
X165750000Y-99400000D03*
G04 #@! TD*
G04 #@! TO.P,TP6,1*
G04 #@! TO.N,/CAN_L*
X165750000Y-101650000D03*
G04 #@! TD*
G04 #@! TO.P,TP7,1*
G04 #@! TO.N,/CAN_TXD*
X155250000Y-91900000D03*
G04 #@! TD*
G04 #@! TO.P,TP8,1*
G04 #@! TO.N,/CAN_RXD*
X156750000Y-93900000D03*
G04 #@! TD*
G04 #@! TO.P,TP9,1*
G04 #@! TO.N,/SCL_SCK*
X165000000Y-128650000D03*
G04 #@! TD*
G04 #@! TO.P,TP10,1*
G04 #@! TO.N,/SDA_SDI*
X165000000Y-130900000D03*
G04 #@! TD*
G04 #@! TO.P,TP11,1*
G04 #@! TO.N,/TX1*
X165000000Y-139900000D03*
G04 #@! TD*
G04 #@! TO.P,TP12,1*
G04 #@! TO.N,/RX1*
X165000000Y-142150000D03*
G04 #@! TD*
G04 #@! TO.P,TP13,1*
G04 #@! TO.N,/SCL_SCK*
X165500000Y-112650000D03*
G04 #@! TD*
G04 #@! TO.P,TP14,1*
G04 #@! TO.N,/SDA_SDI*
X165500000Y-114900000D03*
G04 #@! TD*
G04 #@! TO.P,TP15,1*
G04 #@! TO.N,/SDO*
X165500000Y-117150000D03*
G04 #@! TD*
G04 #@! TO.P,TP16,1*
G04 #@! TO.N,/~SS~*
X165500000Y-119400000D03*
G04 #@! TD*
G04 #@! TO.P,TP17,1*
G04 #@! TO.N,VCC*
X144750000Y-140400000D03*
G04 #@! TD*
G04 #@! TO.P,TP18,1*
G04 #@! TO.N,GND*
X147750000Y-140400000D03*
G04 #@! TD*
D18*
G04 #@! TO.P,U1,1*
G04 #@! TO.N,/CAN_TXD*
X149300000Y-95495000D03*
G04 #@! TO.P,U1,2*
G04 #@! TO.N,GND*
X149300000Y-96765000D03*
G04 #@! TO.P,U1,3*
G04 #@! TO.N,VCC*
X149300000Y-98035000D03*
G04 #@! TO.P,U1,4*
G04 #@! TO.N,/CAN_RXD*
X149300000Y-99305000D03*
G04 #@! TO.P,U1,5*
G04 #@! TO.N,Net-(U1-Pad5)*
X154700000Y-99305000D03*
G04 #@! TO.P,U1,6*
G04 #@! TO.N,/CAN_L*
X154700000Y-98035000D03*
G04 #@! TO.P,U1,7*
G04 #@! TO.N,/CAN_H*
X154700000Y-96765000D03*
G04 #@! TO.P,U1,8*
G04 #@! TO.N,Net-(R1-Pad1)*
X154700000Y-95495000D03*
G04 #@! TD*
D19*
G04 #@! TO.P,U2,1*
G04 #@! TO.N,/~MCLR~*
X148400000Y-108175000D03*
G04 #@! TO.P,U2,2*
G04 #@! TO.N,/AN0*
X148400000Y-108825000D03*
G04 #@! TO.P,U2,3*
G04 #@! TO.N,/AN1*
X148400000Y-109475000D03*
G04 #@! TO.P,U2,4*
G04 #@! TO.N,/AN2*
X148400000Y-110125000D03*
G04 #@! TO.P,U2,5*
G04 #@! TO.N,/AN3*
X148400000Y-110775000D03*
G04 #@! TO.P,U2,6*
G04 #@! TO.N,Net-(C13-Pad1)*
X148400000Y-111425000D03*
G04 #@! TO.P,U2,7*
G04 #@! TO.N,/AN4*
X148400000Y-112075000D03*
G04 #@! TO.P,U2,8*
G04 #@! TO.N,GND*
X148400000Y-112725000D03*
G04 #@! TO.P,U2,9*
G04 #@! TO.N,/OSC1*
X148400000Y-113375000D03*
G04 #@! TO.P,U2,10*
G04 #@! TO.N,/OSC2*
X148400000Y-114025000D03*
G04 #@! TO.P,U2,11*
G04 #@! TO.N,Net-(U2-Pad11)*
X148400000Y-114675000D03*
G04 #@! TO.P,U2,12*
G04 #@! TO.N,Net-(U2-Pad12)*
X148400000Y-115325000D03*
G04 #@! TO.P,U2,13*
G04 #@! TO.N,/~SS~*
X148400000Y-115975000D03*
G04 #@! TO.P,U2,14*
G04 #@! TO.N,/SCL_SCK*
X148400000Y-116625000D03*
G04 #@! TO.P,U2,15*
G04 #@! TO.N,/SDA_SDI*
X155600000Y-116625000D03*
G04 #@! TO.P,U2,16*
G04 #@! TO.N,/SDO*
X155600000Y-115975000D03*
G04 #@! TO.P,U2,17*
G04 #@! TO.N,/TX1*
X155600000Y-115325000D03*
G04 #@! TO.P,U2,18*
G04 #@! TO.N,/RX1*
X155600000Y-114675000D03*
G04 #@! TO.P,U2,19*
G04 #@! TO.N,GND*
X155600000Y-114025000D03*
G04 #@! TO.P,U2,20*
G04 #@! TO.N,VCC*
X155600000Y-113375000D03*
G04 #@! TO.P,U2,21*
G04 #@! TO.N,/LED_RB0*
X155600000Y-112725000D03*
G04 #@! TO.P,U2,22*
G04 #@! TO.N,/LED_RB1*
X155600000Y-112075000D03*
G04 #@! TO.P,U2,23*
G04 #@! TO.N,/CAN_TXD*
X155600000Y-111425000D03*
G04 #@! TO.P,U2,24*
G04 #@! TO.N,/CAN_RXD*
X155600000Y-110775000D03*
G04 #@! TO.P,U2,25*
G04 #@! TO.N,/LED_RB4*
X155600000Y-110125000D03*
G04 #@! TO.P,U2,26*
G04 #@! TO.N,Net-(U2-Pad26)*
X155600000Y-109475000D03*
G04 #@! TO.P,U2,27*
G04 #@! TO.N,/PGC*
X155600000Y-108825000D03*
G04 #@! TO.P,U2,28*
G04 #@! TO.N,/PGD*
X155600000Y-108175000D03*
G04 #@! TD*
D20*
G04 #@! TO.P,U3,1*
G04 #@! TO.N,GND*
X144200000Y-100430000D03*
G04 #@! TO.P,U3,3*
G04 #@! TO.N,/Vin*
X144200000Y-95870000D03*
D21*
G04 #@! TO.P,U3,2*
G04 #@! TO.N,VCC*
X137900000Y-98150000D03*
G04 #@! TD*
D22*
G04 #@! TO.P,Y1,1*
G04 #@! TO.N,/OSC1*
X142500000Y-106462500D03*
G04 #@! TO.P,Y1,2*
G04 #@! TO.N,/OSC2*
X142500000Y-118337500D03*
G04 #@! TD*
D11*
G04 #@! TO.P,C13,1*
G04 #@! TO.N,Net-(C13-Pad1)*
X136285000Y-112000000D03*
G04 #@! TO.P,C13,2*
G04 #@! TO.N,GND*
X133250000Y-112000000D03*
G04 #@! TD*
D23*
G04 #@! TO.P,D4,1*
G04 #@! TO.N,/Vin*
X152750000Y-91300000D03*
G04 #@! TO.P,D4,2*
G04 #@! TO.N,+12V*
X152750000Y-88000000D03*
G04 #@! TD*
D15*
G04 #@! TO.P,J6,1*
G04 #@! TO.N,/LED_RB0*
X163910000Y-81900000D03*
D16*
G04 #@! TO.P,J6,2*
G04 #@! TO.N,/LED_RB1*
X161370000Y-81900000D03*
G04 #@! TO.P,J6,3*
G04 #@! TO.N,/LED_RB4*
X158830000Y-81900000D03*
G04 #@! TO.P,J6,4*
G04 #@! TO.N,/AN0*
X156290000Y-81900000D03*
G04 #@! TO.P,J6,5*
G04 #@! TO.N,/AN1*
X153750000Y-81900000D03*
G04 #@! TO.P,J6,6*
G04 #@! TO.N,/AN2*
X151210000Y-81900000D03*
G04 #@! TO.P,J6,7*
G04 #@! TO.N,/AN3*
X148670000Y-81900000D03*
G04 #@! TO.P,J6,8*
G04 #@! TO.N,/AN4*
X146130000Y-81900000D03*
G04 #@! TO.P,J6,9*
G04 #@! TO.N,VCC*
X143590000Y-81900000D03*
G04 #@! TO.P,J6,10*
G04 #@! TO.N,GND*
X141050000Y-81900000D03*
G04 #@! TD*
D24*
G04 #@! TO.N,VCC*
X137900000Y-98150000D03*
X137800000Y-113800000D03*
X160600000Y-98400000D03*
X163800000Y-102200000D03*
G04 #@! TO.N,GND*
X134600000Y-107200000D03*
X134600000Y-113400000D03*
X163600000Y-114600000D03*
X132600000Y-102400000D03*
X134000000Y-102400000D03*
X139200000Y-102600000D03*
X147400000Y-96800000D03*
X150200000Y-89600000D03*
X150000000Y-112600000D03*
X163400000Y-100200000D03*
X164400000Y-100200000D03*
X167000000Y-100200000D03*
X168000000Y-100200000D03*
X162000000Y-98600000D03*
X163000000Y-98600000D03*
X164000000Y-98600000D03*
X162400000Y-111800000D03*
X161400000Y-111800000D03*
X160400000Y-111800000D03*
X160400000Y-109800000D03*
X160400000Y-110800000D03*
X161400000Y-109800000D03*
X162400000Y-109800000D03*
X161400000Y-110800000D03*
X162400000Y-110800000D03*
X162400000Y-107800000D03*
X161400000Y-108800000D03*
X162400000Y-108800000D03*
X161400000Y-107800000D03*
X160400000Y-108800000D03*
X160400000Y-107800000D03*
X142200000Y-85600000D03*
X163400000Y-107800000D03*
X164400000Y-107800000D03*
X165400000Y-107800000D03*
X163400000Y-108800000D03*
X164400000Y-108800000D03*
X165400000Y-108800000D03*
X163400000Y-109800000D03*
X164400000Y-109800000D03*
X163400000Y-110800000D03*
X166400000Y-107800000D03*
X166400000Y-106800000D03*
X165400000Y-106800000D03*
X164400000Y-106800000D03*
X167000000Y-102400000D03*
X168000000Y-102400000D03*
G04 #@! TO.N,/OSC2*
X140750000Y-118250000D03*
X134750000Y-109750000D03*
G04 #@! TO.N,/LED_RB0*
X157200000Y-112600000D03*
G04 #@! TO.N,/LED_RB1*
X153505600Y-115400000D03*
X153704998Y-112002136D03*
G04 #@! TO.N,/LED_RB4*
X153554428Y-117954428D03*
X153421055Y-111093045D03*
X157400000Y-109600000D03*
G04 #@! TO.N,/~MCLR~*
X150400000Y-107400000D03*
G04 #@! TO.N,/PGD*
X150000000Y-115000000D03*
G04 #@! TO.N,/PGC*
X151000000Y-115200000D03*
G04 #@! TO.N,/SDA_SDI*
X157250000Y-117102403D03*
X163750000Y-116900000D03*
G04 #@! TO.N,/SCL_SCK*
X151000000Y-116900000D03*
G04 #@! TO.N,/TX1*
X164000000Y-138650000D03*
X162238799Y-138400000D03*
G04 #@! TO.N,/SDO*
X157250000Y-116150000D03*
G04 #@! TO.N,/~SS~*
X151994400Y-116400000D03*
G04 #@! TO.N,Net-(R1-Pad1)*
X151400000Y-100800000D03*
X154400000Y-100800000D03*
G04 #@! TO.N,/CAN_TXD*
X159034290Y-111834290D03*
X159600000Y-98400000D03*
G04 #@! TO.N,/CAN_RXD*
X153800000Y-107200000D03*
X150400000Y-100400000D03*
G04 #@! TO.N,Net-(C13-Pad1)*
X141750000Y-112000000D03*
X143909290Y-111340710D03*
G04 #@! TO.N,/AN0*
X150000000Y-108647597D03*
G04 #@! TO.N,/AN1*
X150000000Y-109600000D03*
G04 #@! TO.N,/AN2*
X146279419Y-109702422D03*
G04 #@! TO.N,/AN3*
X146637092Y-110585110D03*
G04 #@! TO.N,/AN4*
X146500000Y-112250000D03*
G04 #@! TD*
D25*
G04 #@! TO.N,VCC*
X149532500Y-102615000D02*
X149550000Y-102632500D01*
X147000000Y-102615000D02*
X149532500Y-102615000D01*
X141557200Y-98150000D02*
X137900000Y-98150000D01*
X144305802Y-98150000D02*
X141557200Y-98150000D01*
X143250000Y-93100000D02*
X143250000Y-92350000D01*
X137900000Y-98150000D02*
X138200000Y-98150000D01*
X143250000Y-92350000D02*
X144900000Y-92350000D01*
X146082500Y-91167500D02*
X147750000Y-91167500D01*
X144900000Y-92350000D02*
X146082500Y-91167500D01*
X143590000Y-81900000D02*
X141250000Y-84240000D01*
X143250000Y-91650000D02*
X143250000Y-92350000D01*
X141250000Y-89650000D02*
X143250000Y-91650000D01*
X141250000Y-84240000D02*
X141250000Y-89650000D01*
X145590000Y-141240000D02*
X144750000Y-140400000D01*
X145590000Y-145400000D02*
X145590000Y-141240000D01*
X137600000Y-98150000D02*
X135600000Y-96150000D01*
X137900000Y-98150000D02*
X137600000Y-98150000D01*
X135600000Y-91014198D02*
X136414198Y-90200000D01*
X135600000Y-96150000D02*
X135600000Y-91014198D01*
X140700000Y-90200000D02*
X141250000Y-89650000D01*
X136414198Y-90200000D02*
X140700000Y-90200000D01*
X147000000Y-102615000D02*
X147000000Y-101200000D01*
X147000000Y-101200000D02*
X147000000Y-100844198D01*
X170000000Y-106000000D02*
X170000000Y-105820000D01*
X171400000Y-107400000D02*
X170000000Y-106000000D01*
X171400000Y-121200000D02*
X171400000Y-107400000D01*
X170000000Y-122400000D02*
X170200000Y-122400000D01*
X170200000Y-122400000D02*
X171400000Y-121200000D01*
X136285000Y-119500000D02*
X136285000Y-117000000D01*
X136285000Y-117000000D02*
X136285000Y-114500000D01*
X137100000Y-114500000D02*
X136285000Y-114500000D01*
X137800000Y-113800000D02*
X137100000Y-114500000D01*
X147000000Y-95600000D02*
X148400000Y-94200000D01*
X148400000Y-94200000D02*
X151800000Y-94200000D01*
X151800000Y-94200000D02*
X154000000Y-92000000D01*
X154000000Y-92000000D02*
X154000000Y-91200000D01*
X154000000Y-91200000D02*
X154181001Y-91018999D01*
X154181001Y-91018999D02*
X154600000Y-90600000D01*
X154600000Y-90600000D02*
X155800000Y-90600000D01*
X155800000Y-90600000D02*
X157000000Y-91800000D01*
X157000000Y-91800000D02*
X159226197Y-91800000D01*
X159226197Y-91800000D02*
X159400000Y-91800000D01*
X159400000Y-91800000D02*
X160600000Y-93000000D01*
X160600000Y-93000000D02*
X160600000Y-98400000D01*
X163800000Y-102200000D02*
X167420000Y-105820000D01*
X156735802Y-113375000D02*
X156760802Y-113400000D01*
X156760802Y-113400000D02*
X162750000Y-113400000D01*
X162750000Y-113400000D02*
X167500000Y-108650000D01*
X155600000Y-113375000D02*
X156735802Y-113375000D01*
X167500000Y-105920000D02*
X167600000Y-105820000D01*
X167500000Y-108650000D02*
X167500000Y-105920000D01*
X167420000Y-105820000D02*
X167600000Y-105820000D01*
X167600000Y-105820000D02*
X170000000Y-105820000D01*
X145555802Y-97044198D02*
X145555802Y-99400000D01*
X147000000Y-95600000D02*
X145555802Y-97044198D01*
X147000000Y-100844198D02*
X145555802Y-99400000D01*
X145555802Y-99400000D02*
X144305802Y-98150000D01*
X147000000Y-99102800D02*
X147000000Y-100844198D01*
X148067800Y-98035000D02*
X147000000Y-99102800D01*
X149300000Y-98035000D02*
X148067800Y-98035000D01*
X136285000Y-120857200D02*
X136285000Y-119500000D01*
X136285000Y-132642106D02*
X136285000Y-120857200D01*
X144042894Y-140400000D02*
X136285000Y-132642106D01*
X144750000Y-140400000D02*
X144042894Y-140400000D01*
D26*
G04 #@! TO.N,GND*
X151965000Y-128900000D02*
X152000000Y-128935000D01*
X149000000Y-128900000D02*
X151965000Y-128900000D01*
X152000000Y-128935000D02*
X155000000Y-128935000D01*
D25*
X144200000Y-102098302D02*
X146251698Y-104150000D01*
X149347500Y-105667500D02*
X149550000Y-105667500D01*
X147830000Y-104150000D02*
X149347500Y-105667500D01*
X146251698Y-104150000D02*
X147830000Y-104150000D01*
X147750000Y-145020000D02*
X148130000Y-145400000D01*
X147750000Y-140400000D02*
X147750000Y-145020000D01*
X150232500Y-88132500D02*
X150250000Y-88150000D01*
X147750000Y-88132500D02*
X150232500Y-88132500D01*
X162000000Y-105100000D02*
X159550000Y-102650000D01*
X162000000Y-105650000D02*
X162000000Y-105100000D01*
X159550000Y-102650000D02*
X157050000Y-102650000D01*
X156847500Y-102650000D02*
X157050000Y-102650000D01*
X155692800Y-103804700D02*
X156847500Y-102650000D01*
X151624700Y-103804700D02*
X155692800Y-103804700D01*
X151620000Y-103800000D02*
X151624700Y-103804700D01*
X149752500Y-105667500D02*
X151620000Y-103800000D01*
X149550000Y-105667500D02*
X149752500Y-105667500D01*
X133232500Y-104297500D02*
X133232500Y-104500000D01*
X135730000Y-101800000D02*
X133232500Y-104297500D01*
X144200000Y-101800000D02*
X135730000Y-101800000D01*
X144200000Y-101800000D02*
X144200000Y-102098302D01*
X135992800Y-87950000D02*
X137250000Y-87950000D01*
X133232500Y-90710300D02*
X135992800Y-87950000D01*
X133232500Y-104500000D02*
X133232500Y-90710300D01*
X147567500Y-87950000D02*
X147750000Y-88132500D01*
X143250000Y-87950000D02*
X147567500Y-87950000D01*
X143250000Y-87950000D02*
X143250000Y-86650000D01*
X143250000Y-86650000D02*
X142200000Y-85600000D01*
X137250000Y-85700000D02*
X141050000Y-81900000D01*
X137250000Y-87950000D02*
X137250000Y-85700000D01*
X133215000Y-107000000D02*
X134400000Y-107000000D01*
X134400000Y-107000000D02*
X134600000Y-107200000D01*
X134600000Y-113350000D02*
X133250000Y-112000000D01*
X134600000Y-113400000D02*
X134600000Y-113350000D01*
X156775000Y-114025000D02*
X156790390Y-114009610D01*
X155600000Y-114025000D02*
X156775000Y-114025000D01*
X156790390Y-114009610D02*
X163009610Y-114009610D01*
X163009610Y-114009610D02*
X163600000Y-114600000D01*
X144200000Y-100430000D02*
X144200000Y-101800000D01*
X149300000Y-96765000D02*
X147435000Y-96765000D01*
X147435000Y-96765000D02*
X147400000Y-96800000D01*
X150200000Y-88200000D02*
X150250000Y-88150000D01*
X150200000Y-89600000D02*
X150200000Y-88200000D01*
X148400000Y-112725000D02*
X149875000Y-112725000D01*
X149875000Y-112725000D02*
X150000000Y-112600000D01*
D27*
G04 #@! TO.N,Net-(C5-Pad1)*
X154550000Y-105685000D02*
X157050000Y-105685000D01*
G04 #@! TO.N,Net-(C6-Pad1)*
X159347500Y-105685000D02*
X159550000Y-105685000D01*
X158243600Y-104581100D02*
X159347500Y-105685000D01*
X153356400Y-104581100D02*
X158243600Y-104581100D01*
X152252500Y-105685000D02*
X153356400Y-104581100D01*
X152050000Y-105685000D02*
X152252500Y-105685000D01*
G04 #@! TO.N,/OSC1*
X142500000Y-109400000D02*
X142500000Y-106462500D01*
X141093600Y-106462500D02*
X139131100Y-104500000D01*
X142500000Y-106462500D02*
X141093600Y-106462500D01*
X139131100Y-104500000D02*
X136267500Y-104500000D01*
X140408900Y-106462500D02*
X141093600Y-106462500D01*
X137371400Y-109500000D02*
X140408900Y-106462500D01*
X136267500Y-109500000D02*
X137371400Y-109500000D01*
X142500000Y-111000000D02*
X142500000Y-106462500D01*
X148400000Y-113375000D02*
X144875000Y-113375000D01*
X144875000Y-113375000D02*
X142500000Y-111000000D01*
G04 #@! TO.N,/OSC2*
X133750000Y-109500000D02*
X133232500Y-109500000D01*
X136250000Y-107000000D02*
X133750000Y-109500000D01*
X142500000Y-116500000D02*
X142500000Y-118337500D01*
X148400000Y-114025000D02*
X144975000Y-114025000D01*
X144975000Y-114025000D02*
X142500000Y-116500000D01*
X142500000Y-118337500D02*
X140837500Y-118337500D01*
X140837500Y-118337500D02*
X140750000Y-118250000D01*
X134500000Y-109500000D02*
X134750000Y-109750000D01*
X133232500Y-109500000D02*
X134500000Y-109500000D01*
D25*
G04 #@! TO.N,+12V*
X153807200Y-88000000D02*
X152750000Y-88000000D01*
X164987200Y-88000000D02*
X153807200Y-88000000D01*
X170000000Y-93012800D02*
X164987200Y-88000000D01*
X170000000Y-94320000D02*
X170000000Y-93012800D01*
D27*
G04 #@! TO.N,Net-(D1-Pad1)*
X149000000Y-125865000D02*
X149000000Y-123510000D01*
G04 #@! TO.N,/LED_RB0*
X153925000Y-112725000D02*
X155600000Y-112725000D01*
X152750000Y-113900000D02*
X153925000Y-112725000D01*
X149000000Y-120650000D02*
X152750000Y-116900000D01*
X152750000Y-116900000D02*
X152750000Y-113900000D01*
X155600000Y-112725000D02*
X157075000Y-112725000D01*
X157075000Y-112725000D02*
X157200000Y-112600000D01*
G04 #@! TO.N,/LED_RB1*
X152000000Y-118440276D02*
X153308810Y-117131466D01*
X152000000Y-120650000D02*
X152000000Y-118440276D01*
X153308810Y-117131466D02*
X153308810Y-115596790D01*
X153308810Y-115596790D02*
X153505600Y-115400000D01*
X153777862Y-112075000D02*
X155600000Y-112075000D01*
X153704998Y-112002136D02*
X153777862Y-112075000D01*
G04 #@! TO.N,Net-(D2-Pad1)*
X152000000Y-125900000D02*
X152000000Y-123510000D01*
G04 #@! TO.N,Net-(D3-Pad1)*
X155000000Y-125900000D02*
X155000000Y-123510000D01*
G04 #@! TO.N,/LED_RB4*
X155000000Y-120650000D02*
X155000000Y-119400000D01*
X155000000Y-119400000D02*
X153554428Y-117954428D01*
X154389100Y-110125000D02*
X155600000Y-110125000D01*
X153421055Y-111093045D02*
X154389100Y-110125000D01*
X156875000Y-110125000D02*
X157400000Y-109600000D01*
X155600000Y-110125000D02*
X156875000Y-110125000D01*
G04 #@! TO.N,/~MCLR~*
X147750000Y-108175000D02*
X148400000Y-108175000D01*
X147000000Y-107425000D02*
X147750000Y-108175000D01*
X147000000Y-105650000D02*
X147000000Y-107425000D01*
X143050000Y-142200000D02*
X141250000Y-140400000D01*
X143050000Y-145400000D02*
X143050000Y-142200000D01*
X147025000Y-107400000D02*
X147000000Y-107425000D01*
X150400000Y-107400000D02*
X147025000Y-107400000D01*
G04 #@! TO.N,/PGD*
X150750000Y-145320000D02*
X150670000Y-145400000D01*
X150750000Y-140400000D02*
X150750000Y-145320000D01*
X155600000Y-108175000D02*
X151825000Y-108175000D01*
X151590887Y-108175000D02*
X150800000Y-108965887D01*
X151825000Y-108175000D02*
X151590887Y-108175000D01*
X150800000Y-108965887D02*
X150800000Y-114200000D01*
X150800000Y-114200000D02*
X150000000Y-115000000D01*
G04 #@! TO.N,/PGC*
X153750000Y-144860000D02*
X153210000Y-145400000D01*
X153750000Y-140400000D02*
X153750000Y-144860000D01*
X154318600Y-108825000D02*
X154293600Y-108800000D01*
X155600000Y-108825000D02*
X154318600Y-108825000D01*
X154293600Y-108800000D02*
X151800000Y-108800000D01*
X151800000Y-108800000D02*
X151358810Y-109241190D01*
X151358810Y-109241190D02*
X151358810Y-110800000D01*
X151358810Y-110800000D02*
X151358810Y-114841190D01*
X151358810Y-114841190D02*
X151000000Y-115200000D01*
G04 #@! TO.N,/SDA_SDI*
X168540000Y-114900000D02*
X170000000Y-113440000D01*
X165500000Y-114900000D02*
X168540000Y-114900000D01*
X155600000Y-116625000D02*
X156077403Y-117102403D01*
X156077403Y-117102403D02*
X157250000Y-117102403D01*
X163750000Y-116650000D02*
X165500000Y-114900000D01*
X163750000Y-116900000D02*
X163750000Y-116650000D01*
X165880000Y-130020000D02*
X170000000Y-130020000D01*
X165000000Y-130900000D02*
X165880000Y-130020000D01*
X164292894Y-130900000D02*
X163750000Y-130357106D01*
X165000000Y-130900000D02*
X164292894Y-130900000D01*
X163750000Y-130357106D02*
X163750000Y-116900000D01*
G04 #@! TO.N,/SCL_SCK*
X168250000Y-112650000D02*
X170000000Y-110900000D01*
X165500000Y-112650000D02*
X168250000Y-112650000D01*
X148400000Y-116625000D02*
X150725000Y-116625000D01*
X150725000Y-116625000D02*
X151000000Y-116900000D01*
X168830000Y-128650000D02*
X170000000Y-127480000D01*
X165000000Y-128650000D02*
X168830000Y-128650000D01*
G04 #@! TO.N,/TX1*
X165920000Y-138980000D02*
X165000000Y-139900000D01*
X170000000Y-138980000D02*
X165920000Y-138980000D01*
X165920000Y-138980000D02*
X164330000Y-138980000D01*
X164330000Y-138980000D02*
X164000000Y-138650000D01*
X161925000Y-115325000D02*
X155600000Y-115325000D01*
X162250000Y-115650000D02*
X161925000Y-115325000D01*
X162250000Y-136650000D02*
X162250000Y-115650000D01*
X162238799Y-138400000D02*
X162238799Y-136661201D01*
X162238799Y-136661201D02*
X162250000Y-136650000D01*
G04 #@! TO.N,/RX1*
X165630000Y-141520000D02*
X165000000Y-142150000D01*
X170000000Y-141520000D02*
X165630000Y-141520000D01*
X155600000Y-114675000D02*
X162275000Y-114675000D01*
X162275000Y-114675000D02*
X163000000Y-115400000D01*
X164500001Y-141650001D02*
X165000000Y-142150000D01*
X162994399Y-140144399D02*
X164500001Y-141650001D01*
X162994399Y-115405601D02*
X162994399Y-140144399D01*
X163000000Y-115400000D02*
X162994399Y-115405601D01*
G04 #@! TO.N,/SDO*
X168830000Y-117150000D02*
X170000000Y-115980000D01*
X165500000Y-117150000D02*
X168830000Y-117150000D01*
X157075000Y-115975000D02*
X155600000Y-115975000D01*
X157250000Y-116150000D02*
X157075000Y-115975000D01*
G04 #@! TO.N,/~SS~*
X169120000Y-119400000D02*
X170000000Y-118520000D01*
X165500000Y-119400000D02*
X169120000Y-119400000D01*
X151569400Y-115975000D02*
X148400000Y-115975000D01*
X151994400Y-116400000D02*
X151569400Y-115975000D01*
G04 #@! TO.N,/CAN_H*
X152050000Y-101546100D02*
X152500000Y-101096100D01*
X152050000Y-102650000D02*
X152050000Y-101546100D01*
X153518600Y-96765000D02*
X154700000Y-96765000D01*
X152500000Y-97783600D02*
X153518600Y-96765000D01*
X152500000Y-101096100D02*
X152500000Y-97783600D01*
X166457106Y-99400000D02*
X170000000Y-99400000D01*
X165750000Y-99400000D02*
X166457106Y-99400000D01*
X165750000Y-99400000D02*
X157800000Y-99400000D01*
X155175000Y-96765000D02*
X154700000Y-96765000D01*
X157800000Y-99390000D02*
X155175000Y-96765000D01*
X157800000Y-99400000D02*
X157800000Y-99390000D01*
G04 #@! TO.N,/CAN_L*
X153518600Y-98035000D02*
X154700000Y-98035000D01*
X153250000Y-98303600D02*
X153518600Y-98035000D01*
X153250000Y-101150000D02*
X153250000Y-98303600D01*
X154550000Y-102450000D02*
X153250000Y-101150000D01*
X154550000Y-102650000D02*
X154550000Y-102450000D01*
X169710000Y-101650000D02*
X170000000Y-101940000D01*
X165750000Y-101650000D02*
X169710000Y-101650000D01*
X155175000Y-98035000D02*
X154700000Y-98035000D01*
X157140000Y-100000000D02*
X155175000Y-98035000D01*
X161279176Y-100000000D02*
X157140000Y-100000000D01*
X162429177Y-101150001D02*
X161279176Y-100000000D01*
X165250001Y-101150001D02*
X162429177Y-101150001D01*
X165750000Y-101650000D02*
X165250001Y-101150001D01*
G04 #@! TO.N,Net-(R1-Pad1)*
X151400000Y-97613600D02*
X151400000Y-100800000D01*
X154700000Y-95495000D02*
X153518600Y-95495000D01*
X153518600Y-95495000D02*
X151400000Y-97613600D01*
X162000000Y-101511100D02*
X162000000Y-102615000D01*
X161288900Y-100800000D02*
X162000000Y-101511100D01*
X154400000Y-100800000D02*
X161288900Y-100800000D01*
G04 #@! TO.N,/CAN_TXD*
X151655000Y-95495000D02*
X155250000Y-91900000D01*
X149300000Y-95495000D02*
X151655000Y-95495000D01*
X155749999Y-92399999D02*
X155999999Y-92399999D01*
X155250000Y-91900000D02*
X155749999Y-92399999D01*
X155999999Y-92399999D02*
X156000000Y-92400000D01*
X156000000Y-92400000D02*
X156516290Y-92400000D01*
X156516290Y-92400000D02*
X157800000Y-92400000D01*
X158625000Y-111425000D02*
X155600000Y-111425000D01*
X159034290Y-111834290D02*
X158625000Y-111425000D01*
X157800000Y-92400000D02*
X159000000Y-92400000D01*
X159000000Y-92400000D02*
X159600000Y-93000000D01*
X159600000Y-93000000D02*
X159600000Y-98400000D01*
G04 #@! TO.N,/CAN_RXD*
X156250001Y-93400001D02*
X156750000Y-93900000D01*
X154540275Y-93400001D02*
X156250001Y-93400001D01*
X150600000Y-97340276D02*
X154540275Y-93400001D01*
X150600000Y-98800000D02*
X150600000Y-97340276D01*
X149300000Y-99305000D02*
X150095000Y-99305000D01*
X150095000Y-99305000D02*
X150600000Y-98800000D01*
X155600000Y-110775000D02*
X157625000Y-110775000D01*
X157625000Y-110775000D02*
X158200000Y-110200000D01*
X158200000Y-110200000D02*
X158200000Y-109281710D01*
X158200000Y-109281710D02*
X158200000Y-108400000D01*
X158200000Y-108400000D02*
X157000000Y-107200000D01*
X157000000Y-107200000D02*
X153800000Y-107200000D01*
X150395000Y-100400000D02*
X149300000Y-99305000D01*
X150400000Y-100400000D02*
X150395000Y-100400000D01*
G04 #@! TO.N,Net-(C13-Pad1)*
X136285000Y-112000000D02*
X141750000Y-112000000D01*
X147309918Y-111425000D02*
X148400000Y-111425000D01*
X147225628Y-111340710D02*
X147309918Y-111425000D01*
X143909290Y-111340710D02*
X147225628Y-111340710D01*
G04 #@! TO.N,/AN0*
X148400000Y-108825000D02*
X149822597Y-108825000D01*
X149822597Y-108825000D02*
X150000000Y-108647597D01*
G04 #@! TO.N,/AN1*
X148400000Y-109475000D02*
X149875000Y-109475000D01*
X149875000Y-109475000D02*
X150000000Y-109600000D01*
G04 #@! TO.N,/AN2*
X147295272Y-110125000D02*
X148400000Y-110125000D01*
X146872694Y-109702422D02*
X147295272Y-110125000D01*
X146279419Y-109702422D02*
X146872694Y-109702422D01*
G04 #@! TO.N,/AN3*
X148400000Y-110775000D02*
X146826982Y-110775000D01*
X146826982Y-110775000D02*
X146637092Y-110585110D01*
G04 #@! TO.N,/AN4*
X146675000Y-112075000D02*
X148400000Y-112075000D01*
X146500000Y-112250000D02*
X146675000Y-112075000D01*
D25*
G04 #@! TO.N,/Vin*
X150365000Y-91300000D02*
X150250000Y-91185000D01*
X152750000Y-91300000D02*
X150365000Y-91300000D01*
X150250000Y-91377200D02*
X150250000Y-91185000D01*
X145757200Y-95870000D02*
X150250000Y-91377200D01*
X144200000Y-95870000D02*
X145757200Y-95870000D01*
X142642800Y-95870000D02*
X144200000Y-95870000D01*
X142405802Y-95870000D02*
X142642800Y-95870000D01*
X138885802Y-92350000D02*
X142405802Y-95870000D01*
X137250000Y-92350000D02*
X138885802Y-92350000D01*
G04 #@! TD*
D28*
G04 #@! TO.N,GND*
G36*
X135048905Y-110763095D02*
X134989343Y-110852235D01*
X134940060Y-111100000D01*
X134940060Y-112900000D01*
X134989343Y-113147765D01*
X135057655Y-113250000D01*
X134989343Y-113352235D01*
X134940060Y-113600000D01*
X134940060Y-115400000D01*
X134989343Y-115647765D01*
X135057655Y-115750000D01*
X134989343Y-115852235D01*
X134940060Y-116100000D01*
X134940060Y-117900000D01*
X134989343Y-118147765D01*
X135057655Y-118250000D01*
X134989343Y-118352235D01*
X134940060Y-118600000D01*
X134940060Y-120400000D01*
X134989343Y-120647765D01*
X135129691Y-120857809D01*
X135339735Y-120998157D01*
X135421401Y-121014401D01*
X135421400Y-132557057D01*
X135404483Y-132642106D01*
X135421400Y-132727155D01*
X135421400Y-132727158D01*
X135471507Y-132979065D01*
X135662380Y-133264726D01*
X135734489Y-133312908D01*
X141835647Y-139414067D01*
X141475766Y-139265000D01*
X141024234Y-139265000D01*
X140607074Y-139437793D01*
X140287793Y-139757074D01*
X140115000Y-140174234D01*
X140115000Y-140625766D01*
X140287793Y-141042926D01*
X140607074Y-141362207D01*
X141024234Y-141535000D01*
X141199607Y-141535000D01*
X142211801Y-142547195D01*
X142211800Y-143902560D01*
X142200000Y-143902560D01*
X141952235Y-143951843D01*
X141742191Y-144092191D01*
X141601843Y-144302235D01*
X141552560Y-144550000D01*
X141552560Y-146250000D01*
X141601843Y-146497765D01*
X141742191Y-146707809D01*
X141952235Y-146848157D01*
X142200000Y-146897440D01*
X143900000Y-146897440D01*
X144147765Y-146848157D01*
X144357809Y-146707809D01*
X144498157Y-146497765D01*
X144507184Y-146452381D01*
X144519375Y-146470625D01*
X145010582Y-146798839D01*
X145443744Y-146885000D01*
X145736256Y-146885000D01*
X146169418Y-146798839D01*
X146660625Y-146470625D01*
X146873843Y-146151522D01*
X146934817Y-146281358D01*
X147363076Y-146671645D01*
X147773110Y-146841476D01*
X148003000Y-146720155D01*
X148003000Y-145527000D01*
X147983000Y-145527000D01*
X147983000Y-145273000D01*
X148003000Y-145273000D01*
X148003000Y-144079845D01*
X148257000Y-144079845D01*
X148257000Y-145273000D01*
X148277000Y-145273000D01*
X148277000Y-145527000D01*
X148257000Y-145527000D01*
X148257000Y-146720155D01*
X148486890Y-146841476D01*
X148896924Y-146671645D01*
X149325183Y-146281358D01*
X149386157Y-146151522D01*
X149599375Y-146470625D01*
X150090582Y-146798839D01*
X150523744Y-146885000D01*
X150816256Y-146885000D01*
X151249418Y-146798839D01*
X151740625Y-146470625D01*
X151940000Y-146172239D01*
X152139375Y-146470625D01*
X152630582Y-146798839D01*
X153063744Y-146885000D01*
X153356256Y-146885000D01*
X153789418Y-146798839D01*
X154280625Y-146470625D01*
X154480000Y-146172239D01*
X154679375Y-146470625D01*
X155170582Y-146798839D01*
X155603744Y-146885000D01*
X155896256Y-146885000D01*
X156329418Y-146798839D01*
X156820625Y-146470625D01*
X157020000Y-146172239D01*
X157219375Y-146470625D01*
X157710582Y-146798839D01*
X158143744Y-146885000D01*
X158436256Y-146885000D01*
X158869418Y-146798839D01*
X159360625Y-146470625D01*
X159560000Y-146172239D01*
X159759375Y-146470625D01*
X160250582Y-146798839D01*
X160683744Y-146885000D01*
X160976256Y-146885000D01*
X161409418Y-146798839D01*
X161900625Y-146470625D01*
X162228839Y-145979418D01*
X162344092Y-145400000D01*
X162228839Y-144820582D01*
X161900625Y-144329375D01*
X161409418Y-144001161D01*
X160976256Y-143915000D01*
X160683744Y-143915000D01*
X160250582Y-144001161D01*
X159759375Y-144329375D01*
X159560000Y-144627761D01*
X159360625Y-144329375D01*
X158869418Y-144001161D01*
X158436256Y-143915000D01*
X158143744Y-143915000D01*
X157710582Y-144001161D01*
X157219375Y-144329375D01*
X157020000Y-144627761D01*
X156820625Y-144329375D01*
X156329418Y-144001161D01*
X155896256Y-143915000D01*
X155603744Y-143915000D01*
X155170582Y-144001161D01*
X154679375Y-144329375D01*
X154588200Y-144465828D01*
X154588200Y-141166933D01*
X154712207Y-141042926D01*
X154885000Y-140625766D01*
X154885000Y-140174234D01*
X154712207Y-139757074D01*
X154392926Y-139437793D01*
X153975766Y-139265000D01*
X153524234Y-139265000D01*
X153107074Y-139437793D01*
X152787793Y-139757074D01*
X152615000Y-140174234D01*
X152615000Y-140625766D01*
X152787793Y-141042926D01*
X152911800Y-141166933D01*
X152911801Y-143945223D01*
X152630582Y-144001161D01*
X152139375Y-144329375D01*
X151940000Y-144627761D01*
X151740625Y-144329375D01*
X151588200Y-144227528D01*
X151588200Y-141166933D01*
X151712207Y-141042926D01*
X151885000Y-140625766D01*
X151885000Y-140174234D01*
X151712207Y-139757074D01*
X151392926Y-139437793D01*
X150975766Y-139265000D01*
X150524234Y-139265000D01*
X150107074Y-139437793D01*
X149787793Y-139757074D01*
X149615000Y-140174234D01*
X149615000Y-140625766D01*
X149787793Y-141042926D01*
X149911800Y-141166933D01*
X149911801Y-144120619D01*
X149599375Y-144329375D01*
X149386157Y-144648478D01*
X149325183Y-144518642D01*
X148896924Y-144128355D01*
X148486890Y-143958524D01*
X148257000Y-144079845D01*
X148003000Y-144079845D01*
X147773110Y-143958524D01*
X147363076Y-144128355D01*
X146934817Y-144518642D01*
X146873843Y-144648478D01*
X146660625Y-144329375D01*
X146453600Y-144191045D01*
X146453600Y-141325047D01*
X146470517Y-141239999D01*
X146460593Y-141190104D01*
X147139501Y-141190104D01*
X147176648Y-141405217D01*
X147604972Y-141548112D01*
X148055375Y-141516217D01*
X148323352Y-141405217D01*
X148360499Y-141190104D01*
X147750000Y-140579605D01*
X147139501Y-141190104D01*
X146460593Y-141190104D01*
X146453600Y-141154951D01*
X146453600Y-141154947D01*
X146403493Y-140903040D01*
X146212620Y-140617380D01*
X146140516Y-140569202D01*
X145885000Y-140313686D01*
X145885000Y-140254972D01*
X146601888Y-140254972D01*
X146633783Y-140705375D01*
X146744783Y-140973352D01*
X146959896Y-141010499D01*
X147570395Y-140400000D01*
X147929605Y-140400000D01*
X148540104Y-141010499D01*
X148755217Y-140973352D01*
X148898112Y-140545028D01*
X148866217Y-140094625D01*
X148755217Y-139826648D01*
X148540104Y-139789501D01*
X147929605Y-140400000D01*
X147570395Y-140400000D01*
X146959896Y-139789501D01*
X146744783Y-139826648D01*
X146601888Y-140254972D01*
X145885000Y-140254972D01*
X145885000Y-140174234D01*
X145712207Y-139757074D01*
X145565029Y-139609896D01*
X147139501Y-139609896D01*
X147750000Y-140220395D01*
X148360499Y-139609896D01*
X148323352Y-139394783D01*
X147895028Y-139251888D01*
X147444625Y-139283783D01*
X147176648Y-139394783D01*
X147139501Y-139609896D01*
X145565029Y-139609896D01*
X145392926Y-139437793D01*
X144975766Y-139265000D01*
X144524234Y-139265000D01*
X144244909Y-139380700D01*
X137148600Y-132284393D01*
X137148600Y-129185750D01*
X147465000Y-129185750D01*
X147465000Y-129723809D01*
X147561673Y-129957198D01*
X147740301Y-130135827D01*
X147973690Y-130232500D01*
X148714250Y-130232500D01*
X148873000Y-130073750D01*
X148873000Y-129027000D01*
X149127000Y-129027000D01*
X149127000Y-130073750D01*
X149285750Y-130232500D01*
X150026310Y-130232500D01*
X150259699Y-130135827D01*
X150438327Y-129957198D01*
X150492751Y-129825806D01*
X150561673Y-129992198D01*
X150740301Y-130170827D01*
X150973690Y-130267500D01*
X151714250Y-130267500D01*
X151873000Y-130108750D01*
X151873000Y-129062000D01*
X152127000Y-129062000D01*
X152127000Y-130108750D01*
X152285750Y-130267500D01*
X153026310Y-130267500D01*
X153259699Y-130170827D01*
X153438327Y-129992198D01*
X153500000Y-129843306D01*
X153561673Y-129992198D01*
X153740301Y-130170827D01*
X153973690Y-130267500D01*
X154714250Y-130267500D01*
X154873000Y-130108750D01*
X154873000Y-129062000D01*
X155127000Y-129062000D01*
X155127000Y-130108750D01*
X155285750Y-130267500D01*
X156026310Y-130267500D01*
X156259699Y-130170827D01*
X156438327Y-129992198D01*
X156535000Y-129758809D01*
X156535000Y-129220750D01*
X156376250Y-129062000D01*
X155127000Y-129062000D01*
X154873000Y-129062000D01*
X153623750Y-129062000D01*
X153500000Y-129185750D01*
X153376250Y-129062000D01*
X152127000Y-129062000D01*
X151873000Y-129062000D01*
X150623750Y-129062000D01*
X150517500Y-129168250D01*
X150376250Y-129027000D01*
X149127000Y-129027000D01*
X148873000Y-129027000D01*
X147623750Y-129027000D01*
X147465000Y-129185750D01*
X137148600Y-129185750D01*
X137148600Y-128076191D01*
X147465000Y-128076191D01*
X147465000Y-128614250D01*
X147623750Y-128773000D01*
X148873000Y-128773000D01*
X148873000Y-127726250D01*
X149127000Y-127726250D01*
X149127000Y-128773000D01*
X150376250Y-128773000D01*
X150482500Y-128666750D01*
X150623750Y-128808000D01*
X151873000Y-128808000D01*
X151873000Y-127761250D01*
X152127000Y-127761250D01*
X152127000Y-128808000D01*
X153376250Y-128808000D01*
X153500000Y-128684250D01*
X153623750Y-128808000D01*
X154873000Y-128808000D01*
X154873000Y-127761250D01*
X155127000Y-127761250D01*
X155127000Y-128808000D01*
X156376250Y-128808000D01*
X156535000Y-128649250D01*
X156535000Y-128111191D01*
X156438327Y-127877802D01*
X156259699Y-127699173D01*
X156026310Y-127602500D01*
X155285750Y-127602500D01*
X155127000Y-127761250D01*
X154873000Y-127761250D01*
X154714250Y-127602500D01*
X153973690Y-127602500D01*
X153740301Y-127699173D01*
X153561673Y-127877802D01*
X153500000Y-128026694D01*
X153438327Y-127877802D01*
X153259699Y-127699173D01*
X153026310Y-127602500D01*
X152285750Y-127602500D01*
X152127000Y-127761250D01*
X151873000Y-127761250D01*
X151714250Y-127602500D01*
X150973690Y-127602500D01*
X150740301Y-127699173D01*
X150561673Y-127877802D01*
X150507249Y-128009194D01*
X150438327Y-127842802D01*
X150259699Y-127664173D01*
X150026310Y-127567500D01*
X149285750Y-127567500D01*
X149127000Y-127726250D01*
X148873000Y-127726250D01*
X148714250Y-127567500D01*
X147973690Y-127567500D01*
X147740301Y-127664173D01*
X147561673Y-127842802D01*
X147465000Y-128076191D01*
X137148600Y-128076191D01*
X137148600Y-121014401D01*
X137230265Y-120998157D01*
X137440309Y-120857809D01*
X137580657Y-120647765D01*
X137629940Y-120400000D01*
X137629940Y-118600000D01*
X137580657Y-118352235D01*
X137512345Y-118250000D01*
X137580657Y-118147765D01*
X137629940Y-117900000D01*
X137629940Y-116100000D01*
X137580657Y-115852235D01*
X137512345Y-115750000D01*
X137580657Y-115647765D01*
X137629940Y-115400000D01*
X137629940Y-115184547D01*
X137722620Y-115122620D01*
X137770801Y-115050512D01*
X137986314Y-114835000D01*
X138005874Y-114835000D01*
X138386280Y-114677431D01*
X138677431Y-114386280D01*
X138835000Y-114005874D01*
X138835000Y-113594126D01*
X138677431Y-113213720D01*
X138386280Y-112922569D01*
X138182595Y-112838200D01*
X141124489Y-112838200D01*
X141163720Y-112877431D01*
X141544126Y-113035000D01*
X141955874Y-113035000D01*
X142336280Y-112877431D01*
X142627431Y-112586280D01*
X142707524Y-112392918D01*
X144064606Y-113750000D01*
X143906619Y-113907987D01*
X143747765Y-113801843D01*
X143500000Y-113752560D01*
X141500000Y-113752560D01*
X141252235Y-113801843D01*
X141042191Y-113942191D01*
X140901843Y-114152235D01*
X140852560Y-114400000D01*
X140852560Y-117215000D01*
X140544126Y-117215000D01*
X140163720Y-117372569D01*
X139872569Y-117663720D01*
X139715000Y-118044126D01*
X139715000Y-118455874D01*
X139872569Y-118836280D01*
X140163720Y-119127431D01*
X140544126Y-119285000D01*
X140852560Y-119285000D01*
X140852560Y-122275000D01*
X140901843Y-122522765D01*
X141042191Y-122732809D01*
X141252235Y-122873157D01*
X141500000Y-122922440D01*
X143500000Y-122922440D01*
X143612814Y-122900000D01*
X147452560Y-122900000D01*
X147452560Y-124120000D01*
X147501843Y-124367765D01*
X147642191Y-124577809D01*
X147740878Y-124643750D01*
X147642191Y-124709691D01*
X147501843Y-124919735D01*
X147452560Y-125167500D01*
X147452560Y-126562500D01*
X147501843Y-126810265D01*
X147642191Y-127020309D01*
X147852235Y-127160657D01*
X148100000Y-127209940D01*
X149900000Y-127209940D01*
X150147765Y-127160657D01*
X150357809Y-127020309D01*
X150495633Y-126814043D01*
X150501843Y-126845265D01*
X150642191Y-127055309D01*
X150852235Y-127195657D01*
X151100000Y-127244940D01*
X152900000Y-127244940D01*
X153147765Y-127195657D01*
X153357809Y-127055309D01*
X153498157Y-126845265D01*
X153500000Y-126836000D01*
X153501843Y-126845265D01*
X153642191Y-127055309D01*
X153852235Y-127195657D01*
X154100000Y-127244940D01*
X155900000Y-127244940D01*
X156147765Y-127195657D01*
X156357809Y-127055309D01*
X156498157Y-126845265D01*
X156547440Y-126597500D01*
X156547440Y-125202500D01*
X156498157Y-124954735D01*
X156357809Y-124744691D01*
X156232932Y-124661250D01*
X156357809Y-124577809D01*
X156498157Y-124367765D01*
X156547440Y-124120000D01*
X156547440Y-122900000D01*
X156498157Y-122652235D01*
X156357809Y-122442191D01*
X156147765Y-122301843D01*
X155900000Y-122252560D01*
X154100000Y-122252560D01*
X153852235Y-122301843D01*
X153642191Y-122442191D01*
X153501843Y-122652235D01*
X153500000Y-122661500D01*
X153498157Y-122652235D01*
X153357809Y-122442191D01*
X153147765Y-122301843D01*
X152900000Y-122252560D01*
X151100000Y-122252560D01*
X150852235Y-122301843D01*
X150642191Y-122442191D01*
X150501843Y-122652235D01*
X150500000Y-122661500D01*
X150498157Y-122652235D01*
X150357809Y-122442191D01*
X150147765Y-122301843D01*
X149900000Y-122252560D01*
X148100000Y-122252560D01*
X147852235Y-122301843D01*
X147642191Y-122442191D01*
X147501843Y-122652235D01*
X147452560Y-122900000D01*
X143612814Y-122900000D01*
X143747765Y-122873157D01*
X143957809Y-122732809D01*
X144098157Y-122522765D01*
X144147440Y-122275000D01*
X144147440Y-116037953D01*
X145322194Y-114863200D01*
X146877560Y-114863200D01*
X146877560Y-114900000D01*
X146897451Y-115000000D01*
X146877560Y-115100000D01*
X146877560Y-115550000D01*
X146897451Y-115649999D01*
X146877560Y-115750000D01*
X146877560Y-116200000D01*
X146897451Y-116300000D01*
X146877560Y-116400000D01*
X146877560Y-116850000D01*
X146926843Y-117097765D01*
X147067191Y-117307809D01*
X147277235Y-117448157D01*
X147525000Y-117497440D01*
X149275000Y-117497440D01*
X149447138Y-117463200D01*
X150113009Y-117463200D01*
X150122569Y-117486280D01*
X150413720Y-117777431D01*
X150607082Y-117857524D01*
X149072047Y-119392560D01*
X148100000Y-119392560D01*
X147852235Y-119441843D01*
X147642191Y-119582191D01*
X147501843Y-119792235D01*
X147452560Y-120040000D01*
X147452560Y-121260000D01*
X147501843Y-121507765D01*
X147642191Y-121717809D01*
X147852235Y-121858157D01*
X148100000Y-121907440D01*
X149900000Y-121907440D01*
X150147765Y-121858157D01*
X150357809Y-121717809D01*
X150498157Y-121507765D01*
X150500000Y-121498500D01*
X150501843Y-121507765D01*
X150642191Y-121717809D01*
X150852235Y-121858157D01*
X151100000Y-121907440D01*
X152900000Y-121907440D01*
X153147765Y-121858157D01*
X153357809Y-121717809D01*
X153498157Y-121507765D01*
X153500000Y-121498500D01*
X153501843Y-121507765D01*
X153642191Y-121717809D01*
X153852235Y-121858157D01*
X154100000Y-121907440D01*
X155900000Y-121907440D01*
X156147765Y-121858157D01*
X156357809Y-121717809D01*
X156498157Y-121507765D01*
X156547440Y-121260000D01*
X156547440Y-120040000D01*
X156498157Y-119792235D01*
X156357809Y-119582191D01*
X156147765Y-119441843D01*
X155900000Y-119392560D01*
X155853140Y-119392560D01*
X155838200Y-119317449D01*
X155838200Y-119317446D01*
X155789567Y-119072951D01*
X155789567Y-119072950D01*
X155651071Y-118865677D01*
X155651070Y-118865676D01*
X155604308Y-118795692D01*
X155534324Y-118748930D01*
X154589428Y-117804035D01*
X154589428Y-117748554D01*
X154460317Y-117436853D01*
X154477235Y-117448157D01*
X154725000Y-117497440D01*
X155287047Y-117497440D01*
X155426331Y-117636724D01*
X155473095Y-117706711D01*
X155750354Y-117891970D01*
X155994849Y-117940603D01*
X155994854Y-117940603D01*
X156077403Y-117957023D01*
X156159952Y-117940603D01*
X156624489Y-117940603D01*
X156663720Y-117979834D01*
X157044126Y-118137403D01*
X157455874Y-118137403D01*
X157836280Y-117979834D01*
X158127431Y-117688683D01*
X158285000Y-117308277D01*
X158285000Y-116896529D01*
X158173027Y-116626201D01*
X158285000Y-116355874D01*
X158285000Y-116163200D01*
X161411801Y-116163200D01*
X161411800Y-136522341D01*
X161384179Y-136661201D01*
X161400600Y-136743755D01*
X161400599Y-137774489D01*
X161361368Y-137813720D01*
X161203799Y-138194126D01*
X161203799Y-138605874D01*
X161361368Y-138986280D01*
X161652519Y-139277431D01*
X162032925Y-139435000D01*
X162156200Y-139435000D01*
X162156200Y-140061845D01*
X162139779Y-140144399D01*
X162204833Y-140471448D01*
X162343328Y-140678721D01*
X162343330Y-140678723D01*
X162390092Y-140748707D01*
X162460076Y-140795469D01*
X163865000Y-142200394D01*
X163865000Y-142375766D01*
X164037793Y-142792926D01*
X164357074Y-143112207D01*
X164774234Y-143285000D01*
X165225766Y-143285000D01*
X165642926Y-143112207D01*
X165962207Y-142792926D01*
X166135000Y-142375766D01*
X166135000Y-142358200D01*
X168774074Y-142358200D01*
X168929375Y-142590625D01*
X169420582Y-142918839D01*
X169853744Y-143005000D01*
X170146256Y-143005000D01*
X170579418Y-142918839D01*
X171070625Y-142590625D01*
X171398839Y-142099418D01*
X171514092Y-141520000D01*
X171398839Y-140940582D01*
X171070625Y-140449375D01*
X170772239Y-140250000D01*
X171070625Y-140050625D01*
X171398839Y-139559418D01*
X171514092Y-138980000D01*
X171398839Y-138400582D01*
X171070625Y-137909375D01*
X170751522Y-137696157D01*
X170881358Y-137635183D01*
X171271645Y-137206924D01*
X171441476Y-136796890D01*
X171320155Y-136567000D01*
X170127000Y-136567000D01*
X170127000Y-136587000D01*
X169873000Y-136587000D01*
X169873000Y-136567000D01*
X168679845Y-136567000D01*
X168558524Y-136796890D01*
X168728355Y-137206924D01*
X169118642Y-137635183D01*
X169248478Y-137696157D01*
X168929375Y-137909375D01*
X168774074Y-138141800D01*
X166002548Y-138141800D01*
X165919999Y-138125380D01*
X165837450Y-138141800D01*
X164909773Y-138141800D01*
X164877431Y-138063720D01*
X164586280Y-137772569D01*
X164205874Y-137615000D01*
X163832599Y-137615000D01*
X163832599Y-133050000D01*
X168502560Y-133050000D01*
X168502560Y-134750000D01*
X168551843Y-134997765D01*
X168692191Y-135207809D01*
X168902235Y-135348157D01*
X169005708Y-135368739D01*
X168728355Y-135673076D01*
X168558524Y-136083110D01*
X168679845Y-136313000D01*
X169873000Y-136313000D01*
X169873000Y-136293000D01*
X170127000Y-136293000D01*
X170127000Y-136313000D01*
X171320155Y-136313000D01*
X171441476Y-136083110D01*
X171271645Y-135673076D01*
X170994292Y-135368739D01*
X171097765Y-135348157D01*
X171307809Y-135207809D01*
X171448157Y-134997765D01*
X171497440Y-134750000D01*
X171497440Y-133050000D01*
X171448157Y-132802235D01*
X171307809Y-132592191D01*
X171097765Y-132451843D01*
X170850000Y-132402560D01*
X169150000Y-132402560D01*
X168902235Y-132451843D01*
X168692191Y-132592191D01*
X168551843Y-132802235D01*
X168502560Y-133050000D01*
X163832599Y-133050000D01*
X163832599Y-131600535D01*
X163872139Y-131626955D01*
X163965845Y-131689567D01*
X164210340Y-131738200D01*
X164210344Y-131738200D01*
X164238709Y-131743842D01*
X164357074Y-131862207D01*
X164774234Y-132035000D01*
X165225766Y-132035000D01*
X165642926Y-131862207D01*
X165962207Y-131542926D01*
X166135000Y-131125766D01*
X166135000Y-130950394D01*
X166227194Y-130858200D01*
X168774074Y-130858200D01*
X168929375Y-131090625D01*
X169420582Y-131418839D01*
X169853744Y-131505000D01*
X170146256Y-131505000D01*
X170579418Y-131418839D01*
X171070625Y-131090625D01*
X171398839Y-130599418D01*
X171514092Y-130020000D01*
X171398839Y-129440582D01*
X171070625Y-128949375D01*
X170772239Y-128750000D01*
X171070625Y-128550625D01*
X171398839Y-128059418D01*
X171514092Y-127480000D01*
X171398839Y-126900582D01*
X171070625Y-126409375D01*
X170751522Y-126196157D01*
X170881358Y-126135183D01*
X171271645Y-125706924D01*
X171441476Y-125296890D01*
X171320155Y-125067000D01*
X170127000Y-125067000D01*
X170127000Y-125087000D01*
X169873000Y-125087000D01*
X169873000Y-125067000D01*
X168679845Y-125067000D01*
X168558524Y-125296890D01*
X168728355Y-125706924D01*
X169118642Y-126135183D01*
X169248478Y-126196157D01*
X168929375Y-126409375D01*
X168601161Y-126900582D01*
X168485908Y-127480000D01*
X168540442Y-127754164D01*
X168482807Y-127811800D01*
X165766933Y-127811800D01*
X165642926Y-127687793D01*
X165225766Y-127515000D01*
X164774234Y-127515000D01*
X164588200Y-127592058D01*
X164588200Y-120093333D01*
X164857074Y-120362207D01*
X165274234Y-120535000D01*
X165725766Y-120535000D01*
X166142926Y-120362207D01*
X166266933Y-120238200D01*
X169037451Y-120238200D01*
X169120000Y-120254620D01*
X169202549Y-120238200D01*
X169202554Y-120238200D01*
X169447049Y-120189567D01*
X169724308Y-120004308D01*
X169739085Y-119982193D01*
X169853744Y-120005000D01*
X170146256Y-120005000D01*
X170536400Y-119927396D01*
X170536400Y-120842285D01*
X170476126Y-120902560D01*
X169150000Y-120902560D01*
X168902235Y-120951843D01*
X168692191Y-121092191D01*
X168551843Y-121302235D01*
X168502560Y-121550000D01*
X168502560Y-123250000D01*
X168551843Y-123497765D01*
X168692191Y-123707809D01*
X168902235Y-123848157D01*
X169005708Y-123868739D01*
X168728355Y-124173076D01*
X168558524Y-124583110D01*
X168679845Y-124813000D01*
X169873000Y-124813000D01*
X169873000Y-124793000D01*
X170127000Y-124793000D01*
X170127000Y-124813000D01*
X171320155Y-124813000D01*
X171441476Y-124583110D01*
X171271645Y-124173076D01*
X170994292Y-123868739D01*
X171097765Y-123848157D01*
X171307809Y-123707809D01*
X171448157Y-123497765D01*
X171497440Y-123250000D01*
X171497440Y-122323874D01*
X171873000Y-121948315D01*
X171873000Y-147273000D01*
X132127000Y-147273000D01*
X132127000Y-120872525D01*
X132192802Y-120938327D01*
X132426191Y-121035000D01*
X132964250Y-121035000D01*
X133123000Y-120876250D01*
X133123000Y-119627000D01*
X133377000Y-119627000D01*
X133377000Y-120876250D01*
X133535750Y-121035000D01*
X134073809Y-121035000D01*
X134307198Y-120938327D01*
X134485827Y-120759699D01*
X134582500Y-120526310D01*
X134582500Y-119785750D01*
X134423750Y-119627000D01*
X133377000Y-119627000D01*
X133123000Y-119627000D01*
X133103000Y-119627000D01*
X133103000Y-119373000D01*
X133123000Y-119373000D01*
X133123000Y-117127000D01*
X133377000Y-117127000D01*
X133377000Y-119373000D01*
X134423750Y-119373000D01*
X134582500Y-119214250D01*
X134582500Y-118473690D01*
X134489844Y-118250000D01*
X134582500Y-118026310D01*
X134582500Y-117285750D01*
X134423750Y-117127000D01*
X133377000Y-117127000D01*
X133123000Y-117127000D01*
X133103000Y-117127000D01*
X133103000Y-116873000D01*
X133123000Y-116873000D01*
X133123000Y-114627000D01*
X133377000Y-114627000D01*
X133377000Y-116873000D01*
X134423750Y-116873000D01*
X134582500Y-116714250D01*
X134582500Y-115973690D01*
X134489844Y-115750000D01*
X134582500Y-115526310D01*
X134582500Y-114785750D01*
X134423750Y-114627000D01*
X133377000Y-114627000D01*
X133123000Y-114627000D01*
X133103000Y-114627000D01*
X133103000Y-114373000D01*
X133123000Y-114373000D01*
X133123000Y-112127000D01*
X133377000Y-112127000D01*
X133377000Y-114373000D01*
X134423750Y-114373000D01*
X134582500Y-114214250D01*
X134582500Y-113473690D01*
X134489844Y-113250000D01*
X134582500Y-113026310D01*
X134582500Y-112285750D01*
X134423750Y-112127000D01*
X133377000Y-112127000D01*
X133123000Y-112127000D01*
X133103000Y-112127000D01*
X133103000Y-111873000D01*
X133123000Y-111873000D01*
X133123000Y-111853000D01*
X133377000Y-111853000D01*
X133377000Y-111873000D01*
X134423750Y-111873000D01*
X134582500Y-111714250D01*
X134582500Y-110973690D01*
X134496102Y-110765108D01*
X134544126Y-110785000D01*
X134955874Y-110785000D01*
X135040202Y-110750070D01*
X135048905Y-110763095D01*
X135048905Y-110763095D01*
G37*
X135048905Y-110763095D02*
X134989343Y-110852235D01*
X134940060Y-111100000D01*
X134940060Y-112900000D01*
X134989343Y-113147765D01*
X135057655Y-113250000D01*
X134989343Y-113352235D01*
X134940060Y-113600000D01*
X134940060Y-115400000D01*
X134989343Y-115647765D01*
X135057655Y-115750000D01*
X134989343Y-115852235D01*
X134940060Y-116100000D01*
X134940060Y-117900000D01*
X134989343Y-118147765D01*
X135057655Y-118250000D01*
X134989343Y-118352235D01*
X134940060Y-118600000D01*
X134940060Y-120400000D01*
X134989343Y-120647765D01*
X135129691Y-120857809D01*
X135339735Y-120998157D01*
X135421401Y-121014401D01*
X135421400Y-132557057D01*
X135404483Y-132642106D01*
X135421400Y-132727155D01*
X135421400Y-132727158D01*
X135471507Y-132979065D01*
X135662380Y-133264726D01*
X135734489Y-133312908D01*
X141835647Y-139414067D01*
X141475766Y-139265000D01*
X141024234Y-139265000D01*
X140607074Y-139437793D01*
X140287793Y-139757074D01*
X140115000Y-140174234D01*
X140115000Y-140625766D01*
X140287793Y-141042926D01*
X140607074Y-141362207D01*
X141024234Y-141535000D01*
X141199607Y-141535000D01*
X142211801Y-142547195D01*
X142211800Y-143902560D01*
X142200000Y-143902560D01*
X141952235Y-143951843D01*
X141742191Y-144092191D01*
X141601843Y-144302235D01*
X141552560Y-144550000D01*
X141552560Y-146250000D01*
X141601843Y-146497765D01*
X141742191Y-146707809D01*
X141952235Y-146848157D01*
X142200000Y-146897440D01*
X143900000Y-146897440D01*
X144147765Y-146848157D01*
X144357809Y-146707809D01*
X144498157Y-146497765D01*
X144507184Y-146452381D01*
X144519375Y-146470625D01*
X145010582Y-146798839D01*
X145443744Y-146885000D01*
X145736256Y-146885000D01*
X146169418Y-146798839D01*
X146660625Y-146470625D01*
X146873843Y-146151522D01*
X146934817Y-146281358D01*
X147363076Y-146671645D01*
X147773110Y-146841476D01*
X148003000Y-146720155D01*
X148003000Y-145527000D01*
X147983000Y-145527000D01*
X147983000Y-145273000D01*
X148003000Y-145273000D01*
X148003000Y-144079845D01*
X148257000Y-144079845D01*
X148257000Y-145273000D01*
X148277000Y-145273000D01*
X148277000Y-145527000D01*
X148257000Y-145527000D01*
X148257000Y-146720155D01*
X148486890Y-146841476D01*
X148896924Y-146671645D01*
X149325183Y-146281358D01*
X149386157Y-146151522D01*
X149599375Y-146470625D01*
X150090582Y-146798839D01*
X150523744Y-146885000D01*
X150816256Y-146885000D01*
X151249418Y-146798839D01*
X151740625Y-146470625D01*
X151940000Y-146172239D01*
X152139375Y-146470625D01*
X152630582Y-146798839D01*
X153063744Y-146885000D01*
X153356256Y-146885000D01*
X153789418Y-146798839D01*
X154280625Y-146470625D01*
X154480000Y-146172239D01*
X154679375Y-146470625D01*
X155170582Y-146798839D01*
X155603744Y-146885000D01*
X155896256Y-146885000D01*
X156329418Y-146798839D01*
X156820625Y-146470625D01*
X157020000Y-146172239D01*
X157219375Y-146470625D01*
X157710582Y-146798839D01*
X158143744Y-146885000D01*
X158436256Y-146885000D01*
X158869418Y-146798839D01*
X159360625Y-146470625D01*
X159560000Y-146172239D01*
X159759375Y-146470625D01*
X160250582Y-146798839D01*
X160683744Y-146885000D01*
X160976256Y-146885000D01*
X161409418Y-146798839D01*
X161900625Y-146470625D01*
X162228839Y-145979418D01*
X162344092Y-145400000D01*
X162228839Y-144820582D01*
X161900625Y-144329375D01*
X161409418Y-144001161D01*
X160976256Y-143915000D01*
X160683744Y-143915000D01*
X160250582Y-144001161D01*
X159759375Y-144329375D01*
X159560000Y-144627761D01*
X159360625Y-144329375D01*
X158869418Y-144001161D01*
X158436256Y-143915000D01*
X158143744Y-143915000D01*
X157710582Y-144001161D01*
X157219375Y-144329375D01*
X157020000Y-144627761D01*
X156820625Y-144329375D01*
X156329418Y-144001161D01*
X155896256Y-143915000D01*
X155603744Y-143915000D01*
X155170582Y-144001161D01*
X154679375Y-144329375D01*
X154588200Y-144465828D01*
X154588200Y-141166933D01*
X154712207Y-141042926D01*
X154885000Y-140625766D01*
X154885000Y-140174234D01*
X154712207Y-139757074D01*
X154392926Y-139437793D01*
X153975766Y-139265000D01*
X153524234Y-139265000D01*
X153107074Y-139437793D01*
X152787793Y-139757074D01*
X152615000Y-140174234D01*
X152615000Y-140625766D01*
X152787793Y-141042926D01*
X152911800Y-141166933D01*
X152911801Y-143945223D01*
X152630582Y-144001161D01*
X152139375Y-144329375D01*
X151940000Y-144627761D01*
X151740625Y-144329375D01*
X151588200Y-144227528D01*
X151588200Y-141166933D01*
X151712207Y-141042926D01*
X151885000Y-140625766D01*
X151885000Y-140174234D01*
X151712207Y-139757074D01*
X151392926Y-139437793D01*
X150975766Y-139265000D01*
X150524234Y-139265000D01*
X150107074Y-139437793D01*
X149787793Y-139757074D01*
X149615000Y-140174234D01*
X149615000Y-140625766D01*
X149787793Y-141042926D01*
X149911800Y-141166933D01*
X149911801Y-144120619D01*
X149599375Y-144329375D01*
X149386157Y-144648478D01*
X149325183Y-144518642D01*
X148896924Y-144128355D01*
X148486890Y-143958524D01*
X148257000Y-144079845D01*
X148003000Y-144079845D01*
X147773110Y-143958524D01*
X147363076Y-144128355D01*
X146934817Y-144518642D01*
X146873843Y-144648478D01*
X146660625Y-144329375D01*
X146453600Y-144191045D01*
X146453600Y-141325047D01*
X146470517Y-141239999D01*
X146460593Y-141190104D01*
X147139501Y-141190104D01*
X147176648Y-141405217D01*
X147604972Y-141548112D01*
X148055375Y-141516217D01*
X148323352Y-141405217D01*
X148360499Y-141190104D01*
X147750000Y-140579605D01*
X147139501Y-141190104D01*
X146460593Y-141190104D01*
X146453600Y-141154951D01*
X146453600Y-141154947D01*
X146403493Y-140903040D01*
X146212620Y-140617380D01*
X146140516Y-140569202D01*
X145885000Y-140313686D01*
X145885000Y-140254972D01*
X146601888Y-140254972D01*
X146633783Y-140705375D01*
X146744783Y-140973352D01*
X146959896Y-141010499D01*
X147570395Y-140400000D01*
X147929605Y-140400000D01*
X148540104Y-141010499D01*
X148755217Y-140973352D01*
X148898112Y-140545028D01*
X148866217Y-140094625D01*
X148755217Y-139826648D01*
X148540104Y-139789501D01*
X147929605Y-140400000D01*
X147570395Y-140400000D01*
X146959896Y-139789501D01*
X146744783Y-139826648D01*
X146601888Y-140254972D01*
X145885000Y-140254972D01*
X145885000Y-140174234D01*
X145712207Y-139757074D01*
X145565029Y-139609896D01*
X147139501Y-139609896D01*
X147750000Y-140220395D01*
X148360499Y-139609896D01*
X148323352Y-139394783D01*
X147895028Y-139251888D01*
X147444625Y-139283783D01*
X147176648Y-139394783D01*
X147139501Y-139609896D01*
X145565029Y-139609896D01*
X145392926Y-139437793D01*
X144975766Y-139265000D01*
X144524234Y-139265000D01*
X144244909Y-139380700D01*
X137148600Y-132284393D01*
X137148600Y-129185750D01*
X147465000Y-129185750D01*
X147465000Y-129723809D01*
X147561673Y-129957198D01*
X147740301Y-130135827D01*
X147973690Y-130232500D01*
X148714250Y-130232500D01*
X148873000Y-130073750D01*
X148873000Y-129027000D01*
X149127000Y-129027000D01*
X149127000Y-130073750D01*
X149285750Y-130232500D01*
X150026310Y-130232500D01*
X150259699Y-130135827D01*
X150438327Y-129957198D01*
X150492751Y-129825806D01*
X150561673Y-129992198D01*
X150740301Y-130170827D01*
X150973690Y-130267500D01*
X151714250Y-130267500D01*
X151873000Y-130108750D01*
X151873000Y-129062000D01*
X152127000Y-129062000D01*
X152127000Y-130108750D01*
X152285750Y-130267500D01*
X153026310Y-130267500D01*
X153259699Y-130170827D01*
X153438327Y-129992198D01*
X153500000Y-129843306D01*
X153561673Y-129992198D01*
X153740301Y-130170827D01*
X153973690Y-130267500D01*
X154714250Y-130267500D01*
X154873000Y-130108750D01*
X154873000Y-129062000D01*
X155127000Y-129062000D01*
X155127000Y-130108750D01*
X155285750Y-130267500D01*
X156026310Y-130267500D01*
X156259699Y-130170827D01*
X156438327Y-129992198D01*
X156535000Y-129758809D01*
X156535000Y-129220750D01*
X156376250Y-129062000D01*
X155127000Y-129062000D01*
X154873000Y-129062000D01*
X153623750Y-129062000D01*
X153500000Y-129185750D01*
X153376250Y-129062000D01*
X152127000Y-129062000D01*
X151873000Y-129062000D01*
X150623750Y-129062000D01*
X150517500Y-129168250D01*
X150376250Y-129027000D01*
X149127000Y-129027000D01*
X148873000Y-129027000D01*
X147623750Y-129027000D01*
X147465000Y-129185750D01*
X137148600Y-129185750D01*
X137148600Y-128076191D01*
X147465000Y-128076191D01*
X147465000Y-128614250D01*
X147623750Y-128773000D01*
X148873000Y-128773000D01*
X148873000Y-127726250D01*
X149127000Y-127726250D01*
X149127000Y-128773000D01*
X150376250Y-128773000D01*
X150482500Y-128666750D01*
X150623750Y-128808000D01*
X151873000Y-128808000D01*
X151873000Y-127761250D01*
X152127000Y-127761250D01*
X152127000Y-128808000D01*
X153376250Y-128808000D01*
X153500000Y-128684250D01*
X153623750Y-128808000D01*
X154873000Y-128808000D01*
X154873000Y-127761250D01*
X155127000Y-127761250D01*
X155127000Y-128808000D01*
X156376250Y-128808000D01*
X156535000Y-128649250D01*
X156535000Y-128111191D01*
X156438327Y-127877802D01*
X156259699Y-127699173D01*
X156026310Y-127602500D01*
X155285750Y-127602500D01*
X155127000Y-127761250D01*
X154873000Y-127761250D01*
X154714250Y-127602500D01*
X153973690Y-127602500D01*
X153740301Y-127699173D01*
X153561673Y-127877802D01*
X153500000Y-128026694D01*
X153438327Y-127877802D01*
X153259699Y-127699173D01*
X153026310Y-127602500D01*
X152285750Y-127602500D01*
X152127000Y-127761250D01*
X151873000Y-127761250D01*
X151714250Y-127602500D01*
X150973690Y-127602500D01*
X150740301Y-127699173D01*
X150561673Y-127877802D01*
X150507249Y-128009194D01*
X150438327Y-127842802D01*
X150259699Y-127664173D01*
X150026310Y-127567500D01*
X149285750Y-127567500D01*
X149127000Y-127726250D01*
X148873000Y-127726250D01*
X148714250Y-127567500D01*
X147973690Y-127567500D01*
X147740301Y-127664173D01*
X147561673Y-127842802D01*
X147465000Y-128076191D01*
X137148600Y-128076191D01*
X137148600Y-121014401D01*
X137230265Y-120998157D01*
X137440309Y-120857809D01*
X137580657Y-120647765D01*
X137629940Y-120400000D01*
X137629940Y-118600000D01*
X137580657Y-118352235D01*
X137512345Y-118250000D01*
X137580657Y-118147765D01*
X137629940Y-117900000D01*
X137629940Y-116100000D01*
X137580657Y-115852235D01*
X137512345Y-115750000D01*
X137580657Y-115647765D01*
X137629940Y-115400000D01*
X137629940Y-115184547D01*
X137722620Y-115122620D01*
X137770801Y-115050512D01*
X137986314Y-114835000D01*
X138005874Y-114835000D01*
X138386280Y-114677431D01*
X138677431Y-114386280D01*
X138835000Y-114005874D01*
X138835000Y-113594126D01*
X138677431Y-113213720D01*
X138386280Y-112922569D01*
X138182595Y-112838200D01*
X141124489Y-112838200D01*
X141163720Y-112877431D01*
X141544126Y-113035000D01*
X141955874Y-113035000D01*
X142336280Y-112877431D01*
X142627431Y-112586280D01*
X142707524Y-112392918D01*
X144064606Y-113750000D01*
X143906619Y-113907987D01*
X143747765Y-113801843D01*
X143500000Y-113752560D01*
X141500000Y-113752560D01*
X141252235Y-113801843D01*
X141042191Y-113942191D01*
X140901843Y-114152235D01*
X140852560Y-114400000D01*
X140852560Y-117215000D01*
X140544126Y-117215000D01*
X140163720Y-117372569D01*
X139872569Y-117663720D01*
X139715000Y-118044126D01*
X139715000Y-118455874D01*
X139872569Y-118836280D01*
X140163720Y-119127431D01*
X140544126Y-119285000D01*
X140852560Y-119285000D01*
X140852560Y-122275000D01*
X140901843Y-122522765D01*
X141042191Y-122732809D01*
X141252235Y-122873157D01*
X141500000Y-122922440D01*
X143500000Y-122922440D01*
X143612814Y-122900000D01*
X147452560Y-122900000D01*
X147452560Y-124120000D01*
X147501843Y-124367765D01*
X147642191Y-124577809D01*
X147740878Y-124643750D01*
X147642191Y-124709691D01*
X147501843Y-124919735D01*
X147452560Y-125167500D01*
X147452560Y-126562500D01*
X147501843Y-126810265D01*
X147642191Y-127020309D01*
X147852235Y-127160657D01*
X148100000Y-127209940D01*
X149900000Y-127209940D01*
X150147765Y-127160657D01*
X150357809Y-127020309D01*
X150495633Y-126814043D01*
X150501843Y-126845265D01*
X150642191Y-127055309D01*
X150852235Y-127195657D01*
X151100000Y-127244940D01*
X152900000Y-127244940D01*
X153147765Y-127195657D01*
X153357809Y-127055309D01*
X153498157Y-126845265D01*
X153500000Y-126836000D01*
X153501843Y-126845265D01*
X153642191Y-127055309D01*
X153852235Y-127195657D01*
X154100000Y-127244940D01*
X155900000Y-127244940D01*
X156147765Y-127195657D01*
X156357809Y-127055309D01*
X156498157Y-126845265D01*
X156547440Y-126597500D01*
X156547440Y-125202500D01*
X156498157Y-124954735D01*
X156357809Y-124744691D01*
X156232932Y-124661250D01*
X156357809Y-124577809D01*
X156498157Y-124367765D01*
X156547440Y-124120000D01*
X156547440Y-122900000D01*
X156498157Y-122652235D01*
X156357809Y-122442191D01*
X156147765Y-122301843D01*
X155900000Y-122252560D01*
X154100000Y-122252560D01*
X153852235Y-122301843D01*
X153642191Y-122442191D01*
X153501843Y-122652235D01*
X153500000Y-122661500D01*
X153498157Y-122652235D01*
X153357809Y-122442191D01*
X153147765Y-122301843D01*
X152900000Y-122252560D01*
X151100000Y-122252560D01*
X150852235Y-122301843D01*
X150642191Y-122442191D01*
X150501843Y-122652235D01*
X150500000Y-122661500D01*
X150498157Y-122652235D01*
X150357809Y-122442191D01*
X150147765Y-122301843D01*
X149900000Y-122252560D01*
X148100000Y-122252560D01*
X147852235Y-122301843D01*
X147642191Y-122442191D01*
X147501843Y-122652235D01*
X147452560Y-122900000D01*
X143612814Y-122900000D01*
X143747765Y-122873157D01*
X143957809Y-122732809D01*
X144098157Y-122522765D01*
X144147440Y-122275000D01*
X144147440Y-116037953D01*
X145322194Y-114863200D01*
X146877560Y-114863200D01*
X146877560Y-114900000D01*
X146897451Y-115000000D01*
X146877560Y-115100000D01*
X146877560Y-115550000D01*
X146897451Y-115649999D01*
X146877560Y-115750000D01*
X146877560Y-116200000D01*
X146897451Y-116300000D01*
X146877560Y-116400000D01*
X146877560Y-116850000D01*
X146926843Y-117097765D01*
X147067191Y-117307809D01*
X147277235Y-117448157D01*
X147525000Y-117497440D01*
X149275000Y-117497440D01*
X149447138Y-117463200D01*
X150113009Y-117463200D01*
X150122569Y-117486280D01*
X150413720Y-117777431D01*
X150607082Y-117857524D01*
X149072047Y-119392560D01*
X148100000Y-119392560D01*
X147852235Y-119441843D01*
X147642191Y-119582191D01*
X147501843Y-119792235D01*
X147452560Y-120040000D01*
X147452560Y-121260000D01*
X147501843Y-121507765D01*
X147642191Y-121717809D01*
X147852235Y-121858157D01*
X148100000Y-121907440D01*
X149900000Y-121907440D01*
X150147765Y-121858157D01*
X150357809Y-121717809D01*
X150498157Y-121507765D01*
X150500000Y-121498500D01*
X150501843Y-121507765D01*
X150642191Y-121717809D01*
X150852235Y-121858157D01*
X151100000Y-121907440D01*
X152900000Y-121907440D01*
X153147765Y-121858157D01*
X153357809Y-121717809D01*
X153498157Y-121507765D01*
X153500000Y-121498500D01*
X153501843Y-121507765D01*
X153642191Y-121717809D01*
X153852235Y-121858157D01*
X154100000Y-121907440D01*
X155900000Y-121907440D01*
X156147765Y-121858157D01*
X156357809Y-121717809D01*
X156498157Y-121507765D01*
X156547440Y-121260000D01*
X156547440Y-120040000D01*
X156498157Y-119792235D01*
X156357809Y-119582191D01*
X156147765Y-119441843D01*
X155900000Y-119392560D01*
X155853140Y-119392560D01*
X155838200Y-119317449D01*
X155838200Y-119317446D01*
X155789567Y-119072951D01*
X155789567Y-119072950D01*
X155651071Y-118865677D01*
X155651070Y-118865676D01*
X155604308Y-118795692D01*
X155534324Y-118748930D01*
X154589428Y-117804035D01*
X154589428Y-117748554D01*
X154460317Y-117436853D01*
X154477235Y-117448157D01*
X154725000Y-117497440D01*
X155287047Y-117497440D01*
X155426331Y-117636724D01*
X155473095Y-117706711D01*
X155750354Y-117891970D01*
X155994849Y-117940603D01*
X155994854Y-117940603D01*
X156077403Y-117957023D01*
X156159952Y-117940603D01*
X156624489Y-117940603D01*
X156663720Y-117979834D01*
X157044126Y-118137403D01*
X157455874Y-118137403D01*
X157836280Y-117979834D01*
X158127431Y-117688683D01*
X158285000Y-117308277D01*
X158285000Y-116896529D01*
X158173027Y-116626201D01*
X158285000Y-116355874D01*
X158285000Y-116163200D01*
X161411801Y-116163200D01*
X161411800Y-136522341D01*
X161384179Y-136661201D01*
X161400600Y-136743755D01*
X161400599Y-137774489D01*
X161361368Y-137813720D01*
X161203799Y-138194126D01*
X161203799Y-138605874D01*
X161361368Y-138986280D01*
X161652519Y-139277431D01*
X162032925Y-139435000D01*
X162156200Y-139435000D01*
X162156200Y-140061845D01*
X162139779Y-140144399D01*
X162204833Y-140471448D01*
X162343328Y-140678721D01*
X162343330Y-140678723D01*
X162390092Y-140748707D01*
X162460076Y-140795469D01*
X163865000Y-142200394D01*
X163865000Y-142375766D01*
X164037793Y-142792926D01*
X164357074Y-143112207D01*
X164774234Y-143285000D01*
X165225766Y-143285000D01*
X165642926Y-143112207D01*
X165962207Y-142792926D01*
X166135000Y-142375766D01*
X166135000Y-142358200D01*
X168774074Y-142358200D01*
X168929375Y-142590625D01*
X169420582Y-142918839D01*
X169853744Y-143005000D01*
X170146256Y-143005000D01*
X170579418Y-142918839D01*
X171070625Y-142590625D01*
X171398839Y-142099418D01*
X171514092Y-141520000D01*
X171398839Y-140940582D01*
X171070625Y-140449375D01*
X170772239Y-140250000D01*
X171070625Y-140050625D01*
X171398839Y-139559418D01*
X171514092Y-138980000D01*
X171398839Y-138400582D01*
X171070625Y-137909375D01*
X170751522Y-137696157D01*
X170881358Y-137635183D01*
X171271645Y-137206924D01*
X171441476Y-136796890D01*
X171320155Y-136567000D01*
X170127000Y-136567000D01*
X170127000Y-136587000D01*
X169873000Y-136587000D01*
X169873000Y-136567000D01*
X168679845Y-136567000D01*
X168558524Y-136796890D01*
X168728355Y-137206924D01*
X169118642Y-137635183D01*
X169248478Y-137696157D01*
X168929375Y-137909375D01*
X168774074Y-138141800D01*
X166002548Y-138141800D01*
X165919999Y-138125380D01*
X165837450Y-138141800D01*
X164909773Y-138141800D01*
X164877431Y-138063720D01*
X164586280Y-137772569D01*
X164205874Y-137615000D01*
X163832599Y-137615000D01*
X163832599Y-133050000D01*
X168502560Y-133050000D01*
X168502560Y-134750000D01*
X168551843Y-134997765D01*
X168692191Y-135207809D01*
X168902235Y-135348157D01*
X169005708Y-135368739D01*
X168728355Y-135673076D01*
X168558524Y-136083110D01*
X168679845Y-136313000D01*
X169873000Y-136313000D01*
X169873000Y-136293000D01*
X170127000Y-136293000D01*
X170127000Y-136313000D01*
X171320155Y-136313000D01*
X171441476Y-136083110D01*
X171271645Y-135673076D01*
X170994292Y-135368739D01*
X171097765Y-135348157D01*
X171307809Y-135207809D01*
X171448157Y-134997765D01*
X171497440Y-134750000D01*
X171497440Y-133050000D01*
X171448157Y-132802235D01*
X171307809Y-132592191D01*
X171097765Y-132451843D01*
X170850000Y-132402560D01*
X169150000Y-132402560D01*
X168902235Y-132451843D01*
X168692191Y-132592191D01*
X168551843Y-132802235D01*
X168502560Y-133050000D01*
X163832599Y-133050000D01*
X163832599Y-131600535D01*
X163872139Y-131626955D01*
X163965845Y-131689567D01*
X164210340Y-131738200D01*
X164210344Y-131738200D01*
X164238709Y-131743842D01*
X164357074Y-131862207D01*
X164774234Y-132035000D01*
X165225766Y-132035000D01*
X165642926Y-131862207D01*
X165962207Y-131542926D01*
X166135000Y-131125766D01*
X166135000Y-130950394D01*
X166227194Y-130858200D01*
X168774074Y-130858200D01*
X168929375Y-131090625D01*
X169420582Y-131418839D01*
X169853744Y-131505000D01*
X170146256Y-131505000D01*
X170579418Y-131418839D01*
X171070625Y-131090625D01*
X171398839Y-130599418D01*
X171514092Y-130020000D01*
X171398839Y-129440582D01*
X171070625Y-128949375D01*
X170772239Y-128750000D01*
X171070625Y-128550625D01*
X171398839Y-128059418D01*
X171514092Y-127480000D01*
X171398839Y-126900582D01*
X171070625Y-126409375D01*
X170751522Y-126196157D01*
X170881358Y-126135183D01*
X171271645Y-125706924D01*
X171441476Y-125296890D01*
X171320155Y-125067000D01*
X170127000Y-125067000D01*
X170127000Y-125087000D01*
X169873000Y-125087000D01*
X169873000Y-125067000D01*
X168679845Y-125067000D01*
X168558524Y-125296890D01*
X168728355Y-125706924D01*
X169118642Y-126135183D01*
X169248478Y-126196157D01*
X168929375Y-126409375D01*
X168601161Y-126900582D01*
X168485908Y-127480000D01*
X168540442Y-127754164D01*
X168482807Y-127811800D01*
X165766933Y-127811800D01*
X165642926Y-127687793D01*
X165225766Y-127515000D01*
X164774234Y-127515000D01*
X164588200Y-127592058D01*
X164588200Y-120093333D01*
X164857074Y-120362207D01*
X165274234Y-120535000D01*
X165725766Y-120535000D01*
X166142926Y-120362207D01*
X166266933Y-120238200D01*
X169037451Y-120238200D01*
X169120000Y-120254620D01*
X169202549Y-120238200D01*
X169202554Y-120238200D01*
X169447049Y-120189567D01*
X169724308Y-120004308D01*
X169739085Y-119982193D01*
X169853744Y-120005000D01*
X170146256Y-120005000D01*
X170536400Y-119927396D01*
X170536400Y-120842285D01*
X170476126Y-120902560D01*
X169150000Y-120902560D01*
X168902235Y-120951843D01*
X168692191Y-121092191D01*
X168551843Y-121302235D01*
X168502560Y-121550000D01*
X168502560Y-123250000D01*
X168551843Y-123497765D01*
X168692191Y-123707809D01*
X168902235Y-123848157D01*
X169005708Y-123868739D01*
X168728355Y-124173076D01*
X168558524Y-124583110D01*
X168679845Y-124813000D01*
X169873000Y-124813000D01*
X169873000Y-124793000D01*
X170127000Y-124793000D01*
X170127000Y-124813000D01*
X171320155Y-124813000D01*
X171441476Y-124583110D01*
X171271645Y-124173076D01*
X170994292Y-123868739D01*
X171097765Y-123848157D01*
X171307809Y-123707809D01*
X171448157Y-123497765D01*
X171497440Y-123250000D01*
X171497440Y-122323874D01*
X171873000Y-121948315D01*
X171873000Y-147273000D01*
X132127000Y-147273000D01*
X132127000Y-120872525D01*
X132192802Y-120938327D01*
X132426191Y-121035000D01*
X132964250Y-121035000D01*
X133123000Y-120876250D01*
X133123000Y-119627000D01*
X133377000Y-119627000D01*
X133377000Y-120876250D01*
X133535750Y-121035000D01*
X134073809Y-121035000D01*
X134307198Y-120938327D01*
X134485827Y-120759699D01*
X134582500Y-120526310D01*
X134582500Y-119785750D01*
X134423750Y-119627000D01*
X133377000Y-119627000D01*
X133123000Y-119627000D01*
X133103000Y-119627000D01*
X133103000Y-119373000D01*
X133123000Y-119373000D01*
X133123000Y-117127000D01*
X133377000Y-117127000D01*
X133377000Y-119373000D01*
X134423750Y-119373000D01*
X134582500Y-119214250D01*
X134582500Y-118473690D01*
X134489844Y-118250000D01*
X134582500Y-118026310D01*
X134582500Y-117285750D01*
X134423750Y-117127000D01*
X133377000Y-117127000D01*
X133123000Y-117127000D01*
X133103000Y-117127000D01*
X133103000Y-116873000D01*
X133123000Y-116873000D01*
X133123000Y-114627000D01*
X133377000Y-114627000D01*
X133377000Y-116873000D01*
X134423750Y-116873000D01*
X134582500Y-116714250D01*
X134582500Y-115973690D01*
X134489844Y-115750000D01*
X134582500Y-115526310D01*
X134582500Y-114785750D01*
X134423750Y-114627000D01*
X133377000Y-114627000D01*
X133123000Y-114627000D01*
X133103000Y-114627000D01*
X133103000Y-114373000D01*
X133123000Y-114373000D01*
X133123000Y-112127000D01*
X133377000Y-112127000D01*
X133377000Y-114373000D01*
X134423750Y-114373000D01*
X134582500Y-114214250D01*
X134582500Y-113473690D01*
X134489844Y-113250000D01*
X134582500Y-113026310D01*
X134582500Y-112285750D01*
X134423750Y-112127000D01*
X133377000Y-112127000D01*
X133123000Y-112127000D01*
X133103000Y-112127000D01*
X133103000Y-111873000D01*
X133123000Y-111873000D01*
X133123000Y-111853000D01*
X133377000Y-111853000D01*
X133377000Y-111873000D01*
X134423750Y-111873000D01*
X134582500Y-111714250D01*
X134582500Y-110973690D01*
X134496102Y-110765108D01*
X134544126Y-110785000D01*
X134955874Y-110785000D01*
X135040202Y-110750070D01*
X135048905Y-110763095D01*
G36*
X164537793Y-113292926D02*
X164857074Y-113612207D01*
X165250092Y-113775000D01*
X164857074Y-113937793D01*
X164537793Y-114257074D01*
X164365000Y-114674234D01*
X164365000Y-114849606D01*
X163847981Y-115366625D01*
X163789566Y-115072950D01*
X163651071Y-114865677D01*
X163651069Y-114865675D01*
X163604308Y-114795692D01*
X163534325Y-114748931D01*
X163013499Y-114228105D01*
X163086960Y-114213493D01*
X163372620Y-114022620D01*
X163420802Y-113950511D01*
X164403236Y-112968077D01*
X164537793Y-113292926D01*
X164537793Y-113292926D01*
G37*
X164537793Y-113292926D02*
X164857074Y-113612207D01*
X165250092Y-113775000D01*
X164857074Y-113937793D01*
X164537793Y-114257074D01*
X164365000Y-114674234D01*
X164365000Y-114849606D01*
X163847981Y-115366625D01*
X163789566Y-115072950D01*
X163651071Y-114865677D01*
X163651069Y-114865675D01*
X163604308Y-114795692D01*
X163534325Y-114748931D01*
X163013499Y-114228105D01*
X163086960Y-114213493D01*
X163372620Y-114022620D01*
X163420802Y-113950511D01*
X164403236Y-112968077D01*
X164537793Y-113292926D01*
G36*
X149961801Y-113852805D02*
X149922440Y-113892166D01*
X149922440Y-113800000D01*
X149902549Y-113700000D01*
X149922440Y-113600000D01*
X149922440Y-113150000D01*
X149908502Y-113079927D01*
X149910000Y-113076310D01*
X149910000Y-112996250D01*
X149887353Y-112973603D01*
X149873157Y-112902235D01*
X149754731Y-112725000D01*
X149873157Y-112547765D01*
X149887353Y-112476397D01*
X149910000Y-112453750D01*
X149910000Y-112373690D01*
X149908502Y-112370073D01*
X149922440Y-112300000D01*
X149922440Y-111850000D01*
X149902549Y-111750000D01*
X149922440Y-111650000D01*
X149922440Y-111200000D01*
X149902549Y-111100000D01*
X149922440Y-111000000D01*
X149922440Y-110635000D01*
X149961800Y-110635000D01*
X149961801Y-113852805D01*
X149961801Y-113852805D01*
G37*
X149961801Y-113852805D02*
X149922440Y-113892166D01*
X149922440Y-113800000D01*
X149902549Y-113700000D01*
X149922440Y-113600000D01*
X149922440Y-113150000D01*
X149908502Y-113079927D01*
X149910000Y-113076310D01*
X149910000Y-112996250D01*
X149887353Y-112973603D01*
X149873157Y-112902235D01*
X149754731Y-112725000D01*
X149873157Y-112547765D01*
X149887353Y-112476397D01*
X149910000Y-112453750D01*
X149910000Y-112373690D01*
X149908502Y-112370073D01*
X149922440Y-112300000D01*
X149922440Y-111850000D01*
X149902549Y-111750000D01*
X149922440Y-111650000D01*
X149922440Y-111200000D01*
X149902549Y-111100000D01*
X149922440Y-111000000D01*
X149922440Y-110635000D01*
X149961800Y-110635000D01*
X149961801Y-113852805D01*
G36*
X157177000Y-102523000D02*
X159423000Y-102523000D01*
X159423000Y-102503000D01*
X159677000Y-102503000D01*
X159677000Y-102523000D01*
X159697000Y-102523000D01*
X159697000Y-102777000D01*
X159677000Y-102777000D01*
X159677000Y-103823750D01*
X159835750Y-103982500D01*
X160576310Y-103982500D01*
X160809699Y-103885827D01*
X160811852Y-103883674D01*
X160852235Y-103910657D01*
X161100000Y-103959940D01*
X162900000Y-103959940D01*
X163147765Y-103910657D01*
X163357809Y-103770309D01*
X163498157Y-103560265D01*
X163547440Y-103312500D01*
X163547440Y-103215662D01*
X163594126Y-103235000D01*
X163613687Y-103235000D01*
X166636401Y-106257715D01*
X166636400Y-108292285D01*
X162392287Y-112536400D01*
X159795891Y-112536400D01*
X159911721Y-112420570D01*
X160069290Y-112040164D01*
X160069290Y-111628416D01*
X159911721Y-111248010D01*
X159620570Y-110956859D01*
X159240164Y-110799290D01*
X159197278Y-110799290D01*
X158952049Y-110635433D01*
X158921242Y-110629305D01*
X158942316Y-110597765D01*
X158989567Y-110527049D01*
X159038200Y-110282554D01*
X159038200Y-110282549D01*
X159054620Y-110200000D01*
X159038200Y-110117451D01*
X159038200Y-108482548D01*
X159054620Y-108399999D01*
X159038200Y-108317450D01*
X159038200Y-108317446D01*
X158989567Y-108072951D01*
X158804308Y-107795692D01*
X158734324Y-107748930D01*
X158004494Y-107019101D01*
X158197765Y-106980657D01*
X158300000Y-106912345D01*
X158402235Y-106980657D01*
X158650000Y-107029940D01*
X160450000Y-107029940D01*
X160697765Y-106980657D01*
X160801654Y-106911240D01*
X160973690Y-106982500D01*
X161714250Y-106982500D01*
X161873000Y-106823750D01*
X161873000Y-105777000D01*
X162127000Y-105777000D01*
X162127000Y-106823750D01*
X162285750Y-106982500D01*
X163026310Y-106982500D01*
X163259699Y-106885827D01*
X163438327Y-106707198D01*
X163535000Y-106473809D01*
X163535000Y-105935750D01*
X163376250Y-105777000D01*
X162127000Y-105777000D01*
X161873000Y-105777000D01*
X161853000Y-105777000D01*
X161853000Y-105523000D01*
X161873000Y-105523000D01*
X161873000Y-104476250D01*
X162127000Y-104476250D01*
X162127000Y-105523000D01*
X163376250Y-105523000D01*
X163535000Y-105364250D01*
X163535000Y-104826191D01*
X163438327Y-104592802D01*
X163259699Y-104414173D01*
X163026310Y-104317500D01*
X162285750Y-104317500D01*
X162127000Y-104476250D01*
X161873000Y-104476250D01*
X161714250Y-104317500D01*
X160973690Y-104317500D01*
X160740301Y-104414173D01*
X160738148Y-104416326D01*
X160697765Y-104389343D01*
X160450000Y-104340060D01*
X159187953Y-104340060D01*
X158894672Y-104046779D01*
X158851722Y-103982500D01*
X159264250Y-103982500D01*
X159423000Y-103823750D01*
X159423000Y-102777000D01*
X157177000Y-102777000D01*
X157177000Y-102797000D01*
X156923000Y-102797000D01*
X156923000Y-102777000D01*
X156903000Y-102777000D01*
X156903000Y-102523000D01*
X156923000Y-102523000D01*
X156923000Y-102503000D01*
X157177000Y-102503000D01*
X157177000Y-102523000D01*
X157177000Y-102523000D01*
G37*
X157177000Y-102523000D02*
X159423000Y-102523000D01*
X159423000Y-102503000D01*
X159677000Y-102503000D01*
X159677000Y-102523000D01*
X159697000Y-102523000D01*
X159697000Y-102777000D01*
X159677000Y-102777000D01*
X159677000Y-103823750D01*
X159835750Y-103982500D01*
X160576310Y-103982500D01*
X160809699Y-103885827D01*
X160811852Y-103883674D01*
X160852235Y-103910657D01*
X161100000Y-103959940D01*
X162900000Y-103959940D01*
X163147765Y-103910657D01*
X163357809Y-103770309D01*
X163498157Y-103560265D01*
X163547440Y-103312500D01*
X163547440Y-103215662D01*
X163594126Y-103235000D01*
X163613687Y-103235000D01*
X166636401Y-106257715D01*
X166636400Y-108292285D01*
X162392287Y-112536400D01*
X159795891Y-112536400D01*
X159911721Y-112420570D01*
X160069290Y-112040164D01*
X160069290Y-111628416D01*
X159911721Y-111248010D01*
X159620570Y-110956859D01*
X159240164Y-110799290D01*
X159197278Y-110799290D01*
X158952049Y-110635433D01*
X158921242Y-110629305D01*
X158942316Y-110597765D01*
X158989567Y-110527049D01*
X159038200Y-110282554D01*
X159038200Y-110282549D01*
X159054620Y-110200000D01*
X159038200Y-110117451D01*
X159038200Y-108482548D01*
X159054620Y-108399999D01*
X159038200Y-108317450D01*
X159038200Y-108317446D01*
X158989567Y-108072951D01*
X158804308Y-107795692D01*
X158734324Y-107748930D01*
X158004494Y-107019101D01*
X158197765Y-106980657D01*
X158300000Y-106912345D01*
X158402235Y-106980657D01*
X158650000Y-107029940D01*
X160450000Y-107029940D01*
X160697765Y-106980657D01*
X160801654Y-106911240D01*
X160973690Y-106982500D01*
X161714250Y-106982500D01*
X161873000Y-106823750D01*
X161873000Y-105777000D01*
X162127000Y-105777000D01*
X162127000Y-106823750D01*
X162285750Y-106982500D01*
X163026310Y-106982500D01*
X163259699Y-106885827D01*
X163438327Y-106707198D01*
X163535000Y-106473809D01*
X163535000Y-105935750D01*
X163376250Y-105777000D01*
X162127000Y-105777000D01*
X161873000Y-105777000D01*
X161853000Y-105777000D01*
X161853000Y-105523000D01*
X161873000Y-105523000D01*
X161873000Y-104476250D01*
X162127000Y-104476250D01*
X162127000Y-105523000D01*
X163376250Y-105523000D01*
X163535000Y-105364250D01*
X163535000Y-104826191D01*
X163438327Y-104592802D01*
X163259699Y-104414173D01*
X163026310Y-104317500D01*
X162285750Y-104317500D01*
X162127000Y-104476250D01*
X161873000Y-104476250D01*
X161714250Y-104317500D01*
X160973690Y-104317500D01*
X160740301Y-104414173D01*
X160738148Y-104416326D01*
X160697765Y-104389343D01*
X160450000Y-104340060D01*
X159187953Y-104340060D01*
X158894672Y-104046779D01*
X158851722Y-103982500D01*
X159264250Y-103982500D01*
X159423000Y-103823750D01*
X159423000Y-102777000D01*
X157177000Y-102777000D01*
X157177000Y-102797000D01*
X156923000Y-102797000D01*
X156923000Y-102777000D01*
X156903000Y-102777000D01*
X156903000Y-102523000D01*
X156923000Y-102523000D01*
X156923000Y-102503000D01*
X157177000Y-102503000D01*
X157177000Y-102523000D01*
G36*
X168551843Y-106917765D02*
X168692191Y-107127809D01*
X168902235Y-107268157D01*
X169005708Y-107288739D01*
X168728355Y-107593076D01*
X168558524Y-108003110D01*
X168679845Y-108233000D01*
X169873000Y-108233000D01*
X169873000Y-108213000D01*
X170127000Y-108213000D01*
X170127000Y-108233000D01*
X170147000Y-108233000D01*
X170147000Y-108487000D01*
X170127000Y-108487000D01*
X170127000Y-108507000D01*
X169873000Y-108507000D01*
X169873000Y-108487000D01*
X168679845Y-108487000D01*
X168558524Y-108716890D01*
X168728355Y-109126924D01*
X169118642Y-109555183D01*
X169248478Y-109616157D01*
X168929375Y-109829375D01*
X168601161Y-110320582D01*
X168485908Y-110900000D01*
X168540442Y-111174164D01*
X167902807Y-111811800D01*
X166266933Y-111811800D01*
X166142926Y-111687793D01*
X165818077Y-111553237D01*
X168050517Y-109320797D01*
X168122620Y-109272620D01*
X168313493Y-108986960D01*
X168363600Y-108735053D01*
X168363600Y-108735049D01*
X168380517Y-108650001D01*
X168363600Y-108564953D01*
X168363600Y-106683600D01*
X168505265Y-106683600D01*
X168551843Y-106917765D01*
X168551843Y-106917765D01*
G37*
X168551843Y-106917765D02*
X168692191Y-107127809D01*
X168902235Y-107268157D01*
X169005708Y-107288739D01*
X168728355Y-107593076D01*
X168558524Y-108003110D01*
X168679845Y-108233000D01*
X169873000Y-108233000D01*
X169873000Y-108213000D01*
X170127000Y-108213000D01*
X170127000Y-108233000D01*
X170147000Y-108233000D01*
X170147000Y-108487000D01*
X170127000Y-108487000D01*
X170127000Y-108507000D01*
X169873000Y-108507000D01*
X169873000Y-108487000D01*
X168679845Y-108487000D01*
X168558524Y-108716890D01*
X168728355Y-109126924D01*
X169118642Y-109555183D01*
X169248478Y-109616157D01*
X168929375Y-109829375D01*
X168601161Y-110320582D01*
X168485908Y-110900000D01*
X168540442Y-111174164D01*
X167902807Y-111811800D01*
X166266933Y-111811800D01*
X166142926Y-111687793D01*
X165818077Y-111553237D01*
X168050517Y-109320797D01*
X168122620Y-109272620D01*
X168313493Y-108986960D01*
X168363600Y-108735053D01*
X168363600Y-108735049D01*
X168380517Y-108650001D01*
X168363600Y-108564953D01*
X168363600Y-106683600D01*
X168505265Y-106683600D01*
X168551843Y-106917765D01*
G36*
X171873000Y-106651686D02*
X171497440Y-106276126D01*
X171497440Y-104970000D01*
X171448157Y-104722235D01*
X171307809Y-104512191D01*
X171097765Y-104371843D01*
X170850000Y-104322560D01*
X169150000Y-104322560D01*
X168902235Y-104371843D01*
X168692191Y-104512191D01*
X168551843Y-104722235D01*
X168505265Y-104956400D01*
X167777714Y-104956400D01*
X165606313Y-102785000D01*
X165975766Y-102785000D01*
X166392926Y-102612207D01*
X166516933Y-102488200D01*
X168594951Y-102488200D01*
X168601161Y-102519418D01*
X168929375Y-103010625D01*
X169420582Y-103338839D01*
X169853744Y-103425000D01*
X170146256Y-103425000D01*
X170579418Y-103338839D01*
X171070625Y-103010625D01*
X171398839Y-102519418D01*
X171514092Y-101940000D01*
X171398839Y-101360582D01*
X171070625Y-100869375D01*
X170772239Y-100670000D01*
X171070625Y-100470625D01*
X171398839Y-99979418D01*
X171514092Y-99400000D01*
X171398839Y-98820582D01*
X171070625Y-98329375D01*
X170751522Y-98116157D01*
X170881358Y-98055183D01*
X171271645Y-97626924D01*
X171441476Y-97216890D01*
X171320155Y-96987000D01*
X170127000Y-96987000D01*
X170127000Y-97007000D01*
X169873000Y-97007000D01*
X169873000Y-96987000D01*
X168679845Y-96987000D01*
X168558524Y-97216890D01*
X168728355Y-97626924D01*
X169118642Y-98055183D01*
X169248478Y-98116157D01*
X168929375Y-98329375D01*
X168774074Y-98561800D01*
X166516933Y-98561800D01*
X166392926Y-98437793D01*
X165975766Y-98265000D01*
X165524234Y-98265000D01*
X165107074Y-98437793D01*
X164983067Y-98561800D01*
X161635000Y-98561800D01*
X161635000Y-98194126D01*
X161477431Y-97813720D01*
X161463600Y-97799889D01*
X161463600Y-93085047D01*
X161480517Y-92999999D01*
X161463600Y-92914951D01*
X161463600Y-92914947D01*
X161413493Y-92663040D01*
X161222620Y-92377380D01*
X161150517Y-92329202D01*
X160070802Y-91249488D01*
X160022620Y-91177380D01*
X159736960Y-90986507D01*
X159485053Y-90936400D01*
X159485049Y-90936400D01*
X159400000Y-90919483D01*
X159314951Y-90936400D01*
X157357715Y-90936400D01*
X156470802Y-90049488D01*
X156422620Y-89977380D01*
X156136960Y-89786507D01*
X155885053Y-89736400D01*
X155885049Y-89736400D01*
X155800000Y-89719483D01*
X155714951Y-89736400D01*
X154685048Y-89736400D01*
X154599999Y-89719483D01*
X154514950Y-89736400D01*
X154514947Y-89736400D01*
X154263040Y-89786507D01*
X153977380Y-89977380D01*
X153929198Y-90049489D01*
X153675142Y-90303545D01*
X153597765Y-90251843D01*
X153350000Y-90202560D01*
X152150000Y-90202560D01*
X151902235Y-90251843D01*
X151768359Y-90341297D01*
X151748157Y-90239735D01*
X151607809Y-90029691D01*
X151397765Y-89889343D01*
X151150000Y-89840060D01*
X149350000Y-89840060D01*
X149102235Y-89889343D01*
X149013095Y-89948905D01*
X148897765Y-89871843D01*
X148650000Y-89822560D01*
X146850000Y-89822560D01*
X146602235Y-89871843D01*
X146392191Y-90012191D01*
X146251843Y-90222235D01*
X146235599Y-90303900D01*
X146167549Y-90303900D01*
X146082500Y-90286983D01*
X145997451Y-90303900D01*
X145997447Y-90303900D01*
X145774729Y-90348201D01*
X145745540Y-90354007D01*
X145531984Y-90496701D01*
X145531983Y-90496702D01*
X145459880Y-90544880D01*
X145411702Y-90616983D01*
X144697440Y-91331246D01*
X144697440Y-90850000D01*
X144648157Y-90602235D01*
X144507809Y-90392191D01*
X144297765Y-90251843D01*
X144050000Y-90202560D01*
X143023874Y-90202560D01*
X142906314Y-90085000D01*
X142964250Y-90085000D01*
X143123000Y-89926250D01*
X143123000Y-88077000D01*
X143377000Y-88077000D01*
X143377000Y-89926250D01*
X143535750Y-90085000D01*
X144176310Y-90085000D01*
X144409699Y-89988327D01*
X144588327Y-89809698D01*
X144685000Y-89576309D01*
X144685000Y-88418250D01*
X146215000Y-88418250D01*
X146215000Y-88956309D01*
X146311673Y-89189698D01*
X146490301Y-89368327D01*
X146723690Y-89465000D01*
X147464250Y-89465000D01*
X147623000Y-89306250D01*
X147623000Y-88259500D01*
X147877000Y-88259500D01*
X147877000Y-89306250D01*
X148035750Y-89465000D01*
X148776310Y-89465000D01*
X148983608Y-89379134D01*
X148990301Y-89385827D01*
X149223690Y-89482500D01*
X149964250Y-89482500D01*
X150123000Y-89323750D01*
X150123000Y-88277000D01*
X149143750Y-88277000D01*
X149126250Y-88259500D01*
X147877000Y-88259500D01*
X147623000Y-88259500D01*
X146373750Y-88259500D01*
X146215000Y-88418250D01*
X144685000Y-88418250D01*
X144685000Y-88235750D01*
X144526250Y-88077000D01*
X143377000Y-88077000D01*
X143123000Y-88077000D01*
X143103000Y-88077000D01*
X143103000Y-87823000D01*
X143123000Y-87823000D01*
X143123000Y-85973750D01*
X143377000Y-85973750D01*
X143377000Y-87823000D01*
X144526250Y-87823000D01*
X144685000Y-87664250D01*
X144685000Y-87308691D01*
X146215000Y-87308691D01*
X146215000Y-87846750D01*
X146373750Y-88005500D01*
X147623000Y-88005500D01*
X147623000Y-86958750D01*
X147877000Y-86958750D01*
X147877000Y-88005500D01*
X148856250Y-88005500D01*
X148873750Y-88023000D01*
X150123000Y-88023000D01*
X150123000Y-86976250D01*
X150377000Y-86976250D01*
X150377000Y-88023000D01*
X150397000Y-88023000D01*
X150397000Y-88277000D01*
X150377000Y-88277000D01*
X150377000Y-89323750D01*
X150535750Y-89482500D01*
X151276310Y-89482500D01*
X151509699Y-89385827D01*
X151688327Y-89207198D01*
X151785000Y-88973809D01*
X151785000Y-88969822D01*
X151902235Y-89048157D01*
X152150000Y-89097440D01*
X153350000Y-89097440D01*
X153597765Y-89048157D01*
X153807809Y-88907809D01*
X153837349Y-88863600D01*
X164629487Y-88863600D01*
X168743675Y-92977790D01*
X168692191Y-93012191D01*
X168551843Y-93222235D01*
X168502560Y-93470000D01*
X168502560Y-95170000D01*
X168551843Y-95417765D01*
X168692191Y-95627809D01*
X168902235Y-95768157D01*
X169005708Y-95788739D01*
X168728355Y-96093076D01*
X168558524Y-96503110D01*
X168679845Y-96733000D01*
X169873000Y-96733000D01*
X169873000Y-96713000D01*
X170127000Y-96713000D01*
X170127000Y-96733000D01*
X171320155Y-96733000D01*
X171441476Y-96503110D01*
X171271645Y-96093076D01*
X170994292Y-95788739D01*
X171097765Y-95768157D01*
X171307809Y-95627809D01*
X171448157Y-95417765D01*
X171497440Y-95170000D01*
X171497440Y-93470000D01*
X171448157Y-93222235D01*
X171307809Y-93012191D01*
X171097765Y-92871843D01*
X170850000Y-92822560D01*
X170842677Y-92822560D01*
X170813493Y-92675840D01*
X170673066Y-92465677D01*
X170670799Y-92462284D01*
X170670798Y-92462283D01*
X170622620Y-92390180D01*
X170550517Y-92342002D01*
X165658002Y-87449489D01*
X165609820Y-87377380D01*
X165324160Y-87186507D01*
X165072253Y-87136400D01*
X165072249Y-87136400D01*
X164987200Y-87119483D01*
X164902151Y-87136400D01*
X153837349Y-87136400D01*
X153807809Y-87092191D01*
X153597765Y-86951843D01*
X153350000Y-86902560D01*
X152150000Y-86902560D01*
X151902235Y-86951843D01*
X151692191Y-87092191D01*
X151689649Y-87095995D01*
X151688327Y-87092802D01*
X151509699Y-86914173D01*
X151276310Y-86817500D01*
X150535750Y-86817500D01*
X150377000Y-86976250D01*
X150123000Y-86976250D01*
X149964250Y-86817500D01*
X149223690Y-86817500D01*
X149016392Y-86903366D01*
X149009699Y-86896673D01*
X148776310Y-86800000D01*
X148035750Y-86800000D01*
X147877000Y-86958750D01*
X147623000Y-86958750D01*
X147464250Y-86800000D01*
X146723690Y-86800000D01*
X146490301Y-86896673D01*
X146311673Y-87075302D01*
X146215000Y-87308691D01*
X144685000Y-87308691D01*
X144685000Y-86323691D01*
X144588327Y-86090302D01*
X144409699Y-85911673D01*
X144176310Y-85815000D01*
X143535750Y-85815000D01*
X143377000Y-85973750D01*
X143123000Y-85973750D01*
X142964250Y-85815000D01*
X142323690Y-85815000D01*
X142113600Y-85902022D01*
X142113600Y-84597713D01*
X143345797Y-83365517D01*
X143443744Y-83385000D01*
X143736256Y-83385000D01*
X144169418Y-83298839D01*
X144660625Y-82970625D01*
X144860000Y-82672239D01*
X145059375Y-82970625D01*
X145550582Y-83298839D01*
X145983744Y-83385000D01*
X146276256Y-83385000D01*
X146709418Y-83298839D01*
X147200625Y-82970625D01*
X147400000Y-82672239D01*
X147599375Y-82970625D01*
X148090582Y-83298839D01*
X148523744Y-83385000D01*
X148816256Y-83385000D01*
X149249418Y-83298839D01*
X149740625Y-82970625D01*
X149940000Y-82672239D01*
X150139375Y-82970625D01*
X150630582Y-83298839D01*
X151063744Y-83385000D01*
X151356256Y-83385000D01*
X151789418Y-83298839D01*
X152280625Y-82970625D01*
X152480000Y-82672239D01*
X152679375Y-82970625D01*
X153170582Y-83298839D01*
X153603744Y-83385000D01*
X153896256Y-83385000D01*
X154329418Y-83298839D01*
X154820625Y-82970625D01*
X155020000Y-82672239D01*
X155219375Y-82970625D01*
X155710582Y-83298839D01*
X156143744Y-83385000D01*
X156436256Y-83385000D01*
X156869418Y-83298839D01*
X157360625Y-82970625D01*
X157560000Y-82672239D01*
X157759375Y-82970625D01*
X158250582Y-83298839D01*
X158683744Y-83385000D01*
X158976256Y-83385000D01*
X159409418Y-83298839D01*
X159900625Y-82970625D01*
X160100000Y-82672239D01*
X160299375Y-82970625D01*
X160790582Y-83298839D01*
X161223744Y-83385000D01*
X161516256Y-83385000D01*
X161949418Y-83298839D01*
X162440625Y-82970625D01*
X162452816Y-82952381D01*
X162461843Y-82997765D01*
X162602191Y-83207809D01*
X162812235Y-83348157D01*
X163060000Y-83397440D01*
X164760000Y-83397440D01*
X165007765Y-83348157D01*
X165217809Y-83207809D01*
X165358157Y-82997765D01*
X165407440Y-82750000D01*
X165407440Y-81050000D01*
X165358157Y-80802235D01*
X165217809Y-80592191D01*
X165007765Y-80451843D01*
X164760000Y-80402560D01*
X163060000Y-80402560D01*
X162812235Y-80451843D01*
X162602191Y-80592191D01*
X162461843Y-80802235D01*
X162452816Y-80847619D01*
X162440625Y-80829375D01*
X161949418Y-80501161D01*
X161516256Y-80415000D01*
X161223744Y-80415000D01*
X160790582Y-80501161D01*
X160299375Y-80829375D01*
X160100000Y-81127761D01*
X159900625Y-80829375D01*
X159409418Y-80501161D01*
X158976256Y-80415000D01*
X158683744Y-80415000D01*
X158250582Y-80501161D01*
X157759375Y-80829375D01*
X157560000Y-81127761D01*
X157360625Y-80829375D01*
X156869418Y-80501161D01*
X156436256Y-80415000D01*
X156143744Y-80415000D01*
X155710582Y-80501161D01*
X155219375Y-80829375D01*
X155020000Y-81127761D01*
X154820625Y-80829375D01*
X154329418Y-80501161D01*
X153896256Y-80415000D01*
X153603744Y-80415000D01*
X153170582Y-80501161D01*
X152679375Y-80829375D01*
X152480000Y-81127761D01*
X152280625Y-80829375D01*
X151789418Y-80501161D01*
X151356256Y-80415000D01*
X151063744Y-80415000D01*
X150630582Y-80501161D01*
X150139375Y-80829375D01*
X149940000Y-81127761D01*
X149740625Y-80829375D01*
X149249418Y-80501161D01*
X148816256Y-80415000D01*
X148523744Y-80415000D01*
X148090582Y-80501161D01*
X147599375Y-80829375D01*
X147400000Y-81127761D01*
X147200625Y-80829375D01*
X146709418Y-80501161D01*
X146276256Y-80415000D01*
X145983744Y-80415000D01*
X145550582Y-80501161D01*
X145059375Y-80829375D01*
X144860000Y-81127761D01*
X144660625Y-80829375D01*
X144169418Y-80501161D01*
X143736256Y-80415000D01*
X143443744Y-80415000D01*
X143010582Y-80501161D01*
X142519375Y-80829375D01*
X142306157Y-81148478D01*
X142245183Y-81018642D01*
X141816924Y-80628355D01*
X141406890Y-80458524D01*
X141177000Y-80579845D01*
X141177000Y-81773000D01*
X141197000Y-81773000D01*
X141197000Y-82027000D01*
X141177000Y-82027000D01*
X141177000Y-82047000D01*
X140923000Y-82047000D01*
X140923000Y-82027000D01*
X139729181Y-82027000D01*
X139608514Y-82256892D01*
X139854817Y-82781358D01*
X140283076Y-83171645D01*
X140693110Y-83341476D01*
X140922998Y-83220156D01*
X140922998Y-83345689D01*
X140699489Y-83569198D01*
X140627380Y-83617380D01*
X140436507Y-83903041D01*
X140386400Y-84154948D01*
X140386400Y-84154951D01*
X140369483Y-84240000D01*
X140386400Y-84325049D01*
X140386401Y-89292286D01*
X140342287Y-89336400D01*
X138685000Y-89336400D01*
X138685000Y-88235750D01*
X138526250Y-88077000D01*
X137377000Y-88077000D01*
X137377000Y-88097000D01*
X137123000Y-88097000D01*
X137123000Y-88077000D01*
X135973750Y-88077000D01*
X135815000Y-88235750D01*
X135815000Y-89561730D01*
X135791578Y-89577380D01*
X135743400Y-89649484D01*
X135049486Y-90343399D01*
X134977381Y-90391578D01*
X134929202Y-90463683D01*
X134786507Y-90677239D01*
X134719483Y-91014198D01*
X134736401Y-91099252D01*
X134736400Y-94602560D01*
X134700000Y-94602560D01*
X134452235Y-94651843D01*
X134242191Y-94792191D01*
X134101843Y-95002235D01*
X134052560Y-95250000D01*
X134052560Y-101050000D01*
X134101843Y-101297765D01*
X134242191Y-101507809D01*
X134452235Y-101648157D01*
X134700000Y-101697440D01*
X141100000Y-101697440D01*
X141347765Y-101648157D01*
X141557809Y-101507809D01*
X141698157Y-101297765D01*
X141747440Y-101050000D01*
X141747440Y-100715750D01*
X142465000Y-100715750D01*
X142465000Y-101156310D01*
X142561673Y-101389699D01*
X142740302Y-101568327D01*
X142973691Y-101665000D01*
X143914250Y-101665000D01*
X144073000Y-101506250D01*
X144073000Y-100557000D01*
X142623750Y-100557000D01*
X142465000Y-100715750D01*
X141747440Y-100715750D01*
X141747440Y-99013600D01*
X143948089Y-99013600D01*
X144129489Y-99195000D01*
X144072998Y-99195000D01*
X144072998Y-99353748D01*
X143914250Y-99195000D01*
X142973691Y-99195000D01*
X142740302Y-99291673D01*
X142561673Y-99470301D01*
X142465000Y-99703690D01*
X142465000Y-100144250D01*
X142623750Y-100303000D01*
X144073000Y-100303000D01*
X144073000Y-100283000D01*
X144327000Y-100283000D01*
X144327000Y-100303000D01*
X144347000Y-100303000D01*
X144347000Y-100557000D01*
X144327000Y-100557000D01*
X144327000Y-101506250D01*
X144485750Y-101665000D01*
X145426309Y-101665000D01*
X145535124Y-101619927D01*
X145501843Y-101669735D01*
X145452560Y-101917500D01*
X145452560Y-103312500D01*
X145501843Y-103560265D01*
X145642191Y-103770309D01*
X145852235Y-103910657D01*
X146100000Y-103959940D01*
X147900000Y-103959940D01*
X148147765Y-103910657D01*
X148261905Y-103834391D01*
X148402235Y-103928157D01*
X148650000Y-103977440D01*
X150450000Y-103977440D01*
X150697765Y-103928157D01*
X150786905Y-103868595D01*
X150902235Y-103945657D01*
X151150000Y-103994940D01*
X152739966Y-103994940D01*
X152705330Y-104046776D01*
X152412046Y-104340060D01*
X151150000Y-104340060D01*
X150902235Y-104389343D01*
X150821389Y-104443363D01*
X150809699Y-104431673D01*
X150576310Y-104335000D01*
X149835750Y-104335000D01*
X149677000Y-104493750D01*
X149677000Y-105540500D01*
X149697000Y-105540500D01*
X149697000Y-105794500D01*
X149677000Y-105794500D01*
X149677000Y-105814500D01*
X149423000Y-105814500D01*
X149423000Y-105794500D01*
X149403000Y-105794500D01*
X149403000Y-105540500D01*
X149423000Y-105540500D01*
X149423000Y-104493750D01*
X149264250Y-104335000D01*
X148523690Y-104335000D01*
X148290301Y-104431673D01*
X148279565Y-104442409D01*
X148147765Y-104354343D01*
X147900000Y-104305060D01*
X146100000Y-104305060D01*
X145852235Y-104354343D01*
X145642191Y-104494691D01*
X145501843Y-104704735D01*
X145452560Y-104952500D01*
X145452560Y-106347500D01*
X145501843Y-106595265D01*
X145642191Y-106805309D01*
X145852235Y-106945657D01*
X146100000Y-106994940D01*
X146161801Y-106994940D01*
X146161801Y-107342446D01*
X146145380Y-107425000D01*
X146210434Y-107752049D01*
X146395692Y-108029308D01*
X146465678Y-108076071D01*
X146896150Y-108506543D01*
X146877560Y-108600000D01*
X146877560Y-108836852D01*
X146865699Y-108824991D01*
X146485293Y-108667422D01*
X146073545Y-108667422D01*
X145693139Y-108824991D01*
X145401988Y-109116142D01*
X145244419Y-109496548D01*
X145244419Y-109908296D01*
X145401988Y-110288702D01*
X145602092Y-110488806D01*
X145602092Y-110502510D01*
X144534801Y-110502510D01*
X144495570Y-110463279D01*
X144147440Y-110319079D01*
X144147440Y-102525000D01*
X144098157Y-102277235D01*
X143957809Y-102067191D01*
X143747765Y-101926843D01*
X143500000Y-101877560D01*
X141500000Y-101877560D01*
X141252235Y-101926843D01*
X141042191Y-102067191D01*
X140901843Y-102277235D01*
X140852560Y-102525000D01*
X140852560Y-105036066D01*
X139782172Y-103965679D01*
X139735408Y-103895692D01*
X139458149Y-103710433D01*
X139213654Y-103661800D01*
X139213649Y-103661800D01*
X139131100Y-103645380D01*
X139048551Y-103661800D01*
X137612440Y-103661800D01*
X137612440Y-103600000D01*
X137563157Y-103352235D01*
X137422809Y-103142191D01*
X137212765Y-103001843D01*
X136965000Y-102952560D01*
X135570000Y-102952560D01*
X135322235Y-103001843D01*
X135112191Y-103142191D01*
X134971843Y-103352235D01*
X134922560Y-103600000D01*
X134922560Y-105400000D01*
X134971843Y-105647765D01*
X135031405Y-105736905D01*
X134954343Y-105852235D01*
X134905060Y-106100000D01*
X134905060Y-107159546D01*
X134547500Y-107517106D01*
X134547500Y-107285750D01*
X134388750Y-107127000D01*
X133342000Y-107127000D01*
X133342000Y-107147000D01*
X133088000Y-107147000D01*
X133088000Y-107127000D01*
X133068000Y-107127000D01*
X133068000Y-106873000D01*
X133088000Y-106873000D01*
X133088000Y-105893750D01*
X133105500Y-105876250D01*
X133105500Y-105623750D01*
X133342000Y-105623750D01*
X133342000Y-106873000D01*
X134388750Y-106873000D01*
X134547500Y-106714250D01*
X134547500Y-105973690D01*
X134461634Y-105766392D01*
X134468327Y-105759699D01*
X134565000Y-105526310D01*
X134565000Y-104785750D01*
X134406250Y-104627000D01*
X133359500Y-104627000D01*
X133359500Y-105606250D01*
X133342000Y-105623750D01*
X133105500Y-105623750D01*
X133105500Y-104627000D01*
X133085500Y-104627000D01*
X133085500Y-104373000D01*
X133105500Y-104373000D01*
X133105500Y-103123750D01*
X133359500Y-103123750D01*
X133359500Y-104373000D01*
X134406250Y-104373000D01*
X134565000Y-104214250D01*
X134565000Y-103473690D01*
X134468327Y-103240301D01*
X134289698Y-103061673D01*
X134056309Y-102965000D01*
X133518250Y-102965000D01*
X133359500Y-103123750D01*
X133105500Y-103123750D01*
X132946750Y-102965000D01*
X132408691Y-102965000D01*
X132175302Y-103061673D01*
X132127000Y-103109975D01*
X132127000Y-86323691D01*
X135815000Y-86323691D01*
X135815000Y-87664250D01*
X135973750Y-87823000D01*
X137123000Y-87823000D01*
X137123000Y-85973750D01*
X137377000Y-85973750D01*
X137377000Y-87823000D01*
X138526250Y-87823000D01*
X138685000Y-87664250D01*
X138685000Y-86323691D01*
X138588327Y-86090302D01*
X138409699Y-85911673D01*
X138176310Y-85815000D01*
X137535750Y-85815000D01*
X137377000Y-85973750D01*
X137123000Y-85973750D01*
X136964250Y-85815000D01*
X136323690Y-85815000D01*
X136090301Y-85911673D01*
X135911673Y-86090302D01*
X135815000Y-86323691D01*
X132127000Y-86323691D01*
X132127000Y-81543108D01*
X139608514Y-81543108D01*
X139729181Y-81773000D01*
X140923000Y-81773000D01*
X140923000Y-80579845D01*
X140693110Y-80458524D01*
X140283076Y-80628355D01*
X139854817Y-81018642D01*
X139608514Y-81543108D01*
X132127000Y-81543108D01*
X132127000Y-77527000D01*
X171873000Y-77527000D01*
X171873000Y-106651686D01*
X171873000Y-106651686D01*
G37*
X171873000Y-106651686D02*
X171497440Y-106276126D01*
X171497440Y-104970000D01*
X171448157Y-104722235D01*
X171307809Y-104512191D01*
X171097765Y-104371843D01*
X170850000Y-104322560D01*
X169150000Y-104322560D01*
X168902235Y-104371843D01*
X168692191Y-104512191D01*
X168551843Y-104722235D01*
X168505265Y-104956400D01*
X167777714Y-104956400D01*
X165606313Y-102785000D01*
X165975766Y-102785000D01*
X166392926Y-102612207D01*
X166516933Y-102488200D01*
X168594951Y-102488200D01*
X168601161Y-102519418D01*
X168929375Y-103010625D01*
X169420582Y-103338839D01*
X169853744Y-103425000D01*
X170146256Y-103425000D01*
X170579418Y-103338839D01*
X171070625Y-103010625D01*
X171398839Y-102519418D01*
X171514092Y-101940000D01*
X171398839Y-101360582D01*
X171070625Y-100869375D01*
X170772239Y-100670000D01*
X171070625Y-100470625D01*
X171398839Y-99979418D01*
X171514092Y-99400000D01*
X171398839Y-98820582D01*
X171070625Y-98329375D01*
X170751522Y-98116157D01*
X170881358Y-98055183D01*
X171271645Y-97626924D01*
X171441476Y-97216890D01*
X171320155Y-96987000D01*
X170127000Y-96987000D01*
X170127000Y-97007000D01*
X169873000Y-97007000D01*
X169873000Y-96987000D01*
X168679845Y-96987000D01*
X168558524Y-97216890D01*
X168728355Y-97626924D01*
X169118642Y-98055183D01*
X169248478Y-98116157D01*
X168929375Y-98329375D01*
X168774074Y-98561800D01*
X166516933Y-98561800D01*
X166392926Y-98437793D01*
X165975766Y-98265000D01*
X165524234Y-98265000D01*
X165107074Y-98437793D01*
X164983067Y-98561800D01*
X161635000Y-98561800D01*
X161635000Y-98194126D01*
X161477431Y-97813720D01*
X161463600Y-97799889D01*
X161463600Y-93085047D01*
X161480517Y-92999999D01*
X161463600Y-92914951D01*
X161463600Y-92914947D01*
X161413493Y-92663040D01*
X161222620Y-92377380D01*
X161150517Y-92329202D01*
X160070802Y-91249488D01*
X160022620Y-91177380D01*
X159736960Y-90986507D01*
X159485053Y-90936400D01*
X159485049Y-90936400D01*
X159400000Y-90919483D01*
X159314951Y-90936400D01*
X157357715Y-90936400D01*
X156470802Y-90049488D01*
X156422620Y-89977380D01*
X156136960Y-89786507D01*
X155885053Y-89736400D01*
X155885049Y-89736400D01*
X155800000Y-89719483D01*
X155714951Y-89736400D01*
X154685048Y-89736400D01*
X154599999Y-89719483D01*
X154514950Y-89736400D01*
X154514947Y-89736400D01*
X154263040Y-89786507D01*
X153977380Y-89977380D01*
X153929198Y-90049489D01*
X153675142Y-90303545D01*
X153597765Y-90251843D01*
X153350000Y-90202560D01*
X152150000Y-90202560D01*
X151902235Y-90251843D01*
X151768359Y-90341297D01*
X151748157Y-90239735D01*
X151607809Y-90029691D01*
X151397765Y-89889343D01*
X151150000Y-89840060D01*
X149350000Y-89840060D01*
X149102235Y-89889343D01*
X149013095Y-89948905D01*
X148897765Y-89871843D01*
X148650000Y-89822560D01*
X146850000Y-89822560D01*
X146602235Y-89871843D01*
X146392191Y-90012191D01*
X146251843Y-90222235D01*
X146235599Y-90303900D01*
X146167549Y-90303900D01*
X146082500Y-90286983D01*
X145997451Y-90303900D01*
X145997447Y-90303900D01*
X145774729Y-90348201D01*
X145745540Y-90354007D01*
X145531984Y-90496701D01*
X145531983Y-90496702D01*
X145459880Y-90544880D01*
X145411702Y-90616983D01*
X144697440Y-91331246D01*
X144697440Y-90850000D01*
X144648157Y-90602235D01*
X144507809Y-90392191D01*
X144297765Y-90251843D01*
X144050000Y-90202560D01*
X143023874Y-90202560D01*
X142906314Y-90085000D01*
X142964250Y-90085000D01*
X143123000Y-89926250D01*
X143123000Y-88077000D01*
X143377000Y-88077000D01*
X143377000Y-89926250D01*
X143535750Y-90085000D01*
X144176310Y-90085000D01*
X144409699Y-89988327D01*
X144588327Y-89809698D01*
X144685000Y-89576309D01*
X144685000Y-88418250D01*
X146215000Y-88418250D01*
X146215000Y-88956309D01*
X146311673Y-89189698D01*
X146490301Y-89368327D01*
X146723690Y-89465000D01*
X147464250Y-89465000D01*
X147623000Y-89306250D01*
X147623000Y-88259500D01*
X147877000Y-88259500D01*
X147877000Y-89306250D01*
X148035750Y-89465000D01*
X148776310Y-89465000D01*
X148983608Y-89379134D01*
X148990301Y-89385827D01*
X149223690Y-89482500D01*
X149964250Y-89482500D01*
X150123000Y-89323750D01*
X150123000Y-88277000D01*
X149143750Y-88277000D01*
X149126250Y-88259500D01*
X147877000Y-88259500D01*
X147623000Y-88259500D01*
X146373750Y-88259500D01*
X146215000Y-88418250D01*
X144685000Y-88418250D01*
X144685000Y-88235750D01*
X144526250Y-88077000D01*
X143377000Y-88077000D01*
X143123000Y-88077000D01*
X143103000Y-88077000D01*
X143103000Y-87823000D01*
X143123000Y-87823000D01*
X143123000Y-85973750D01*
X143377000Y-85973750D01*
X143377000Y-87823000D01*
X144526250Y-87823000D01*
X144685000Y-87664250D01*
X144685000Y-87308691D01*
X146215000Y-87308691D01*
X146215000Y-87846750D01*
X146373750Y-88005500D01*
X147623000Y-88005500D01*
X147623000Y-86958750D01*
X147877000Y-86958750D01*
X147877000Y-88005500D01*
X148856250Y-88005500D01*
X148873750Y-88023000D01*
X150123000Y-88023000D01*
X150123000Y-86976250D01*
X150377000Y-86976250D01*
X150377000Y-88023000D01*
X150397000Y-88023000D01*
X150397000Y-88277000D01*
X150377000Y-88277000D01*
X150377000Y-89323750D01*
X150535750Y-89482500D01*
X151276310Y-89482500D01*
X151509699Y-89385827D01*
X151688327Y-89207198D01*
X151785000Y-88973809D01*
X151785000Y-88969822D01*
X151902235Y-89048157D01*
X152150000Y-89097440D01*
X153350000Y-89097440D01*
X153597765Y-89048157D01*
X153807809Y-88907809D01*
X153837349Y-88863600D01*
X164629487Y-88863600D01*
X168743675Y-92977790D01*
X168692191Y-93012191D01*
X168551843Y-93222235D01*
X168502560Y-93470000D01*
X168502560Y-95170000D01*
X168551843Y-95417765D01*
X168692191Y-95627809D01*
X168902235Y-95768157D01*
X169005708Y-95788739D01*
X168728355Y-96093076D01*
X168558524Y-96503110D01*
X168679845Y-96733000D01*
X169873000Y-96733000D01*
X169873000Y-96713000D01*
X170127000Y-96713000D01*
X170127000Y-96733000D01*
X171320155Y-96733000D01*
X171441476Y-96503110D01*
X171271645Y-96093076D01*
X170994292Y-95788739D01*
X171097765Y-95768157D01*
X171307809Y-95627809D01*
X171448157Y-95417765D01*
X171497440Y-95170000D01*
X171497440Y-93470000D01*
X171448157Y-93222235D01*
X171307809Y-93012191D01*
X171097765Y-92871843D01*
X170850000Y-92822560D01*
X170842677Y-92822560D01*
X170813493Y-92675840D01*
X170673066Y-92465677D01*
X170670799Y-92462284D01*
X170670798Y-92462283D01*
X170622620Y-92390180D01*
X170550517Y-92342002D01*
X165658002Y-87449489D01*
X165609820Y-87377380D01*
X165324160Y-87186507D01*
X165072253Y-87136400D01*
X165072249Y-87136400D01*
X164987200Y-87119483D01*
X164902151Y-87136400D01*
X153837349Y-87136400D01*
X153807809Y-87092191D01*
X153597765Y-86951843D01*
X153350000Y-86902560D01*
X152150000Y-86902560D01*
X151902235Y-86951843D01*
X151692191Y-87092191D01*
X151689649Y-87095995D01*
X151688327Y-87092802D01*
X151509699Y-86914173D01*
X151276310Y-86817500D01*
X150535750Y-86817500D01*
X150377000Y-86976250D01*
X150123000Y-86976250D01*
X149964250Y-86817500D01*
X149223690Y-86817500D01*
X149016392Y-86903366D01*
X149009699Y-86896673D01*
X148776310Y-86800000D01*
X148035750Y-86800000D01*
X147877000Y-86958750D01*
X147623000Y-86958750D01*
X147464250Y-86800000D01*
X146723690Y-86800000D01*
X146490301Y-86896673D01*
X146311673Y-87075302D01*
X146215000Y-87308691D01*
X144685000Y-87308691D01*
X144685000Y-86323691D01*
X144588327Y-86090302D01*
X144409699Y-85911673D01*
X144176310Y-85815000D01*
X143535750Y-85815000D01*
X143377000Y-85973750D01*
X143123000Y-85973750D01*
X142964250Y-85815000D01*
X142323690Y-85815000D01*
X142113600Y-85902022D01*
X142113600Y-84597713D01*
X143345797Y-83365517D01*
X143443744Y-83385000D01*
X143736256Y-83385000D01*
X144169418Y-83298839D01*
X144660625Y-82970625D01*
X144860000Y-82672239D01*
X145059375Y-82970625D01*
X145550582Y-83298839D01*
X145983744Y-83385000D01*
X146276256Y-83385000D01*
X146709418Y-83298839D01*
X147200625Y-82970625D01*
X147400000Y-82672239D01*
X147599375Y-82970625D01*
X148090582Y-83298839D01*
X148523744Y-83385000D01*
X148816256Y-83385000D01*
X149249418Y-83298839D01*
X149740625Y-82970625D01*
X149940000Y-82672239D01*
X150139375Y-82970625D01*
X150630582Y-83298839D01*
X151063744Y-83385000D01*
X151356256Y-83385000D01*
X151789418Y-83298839D01*
X152280625Y-82970625D01*
X152480000Y-82672239D01*
X152679375Y-82970625D01*
X153170582Y-83298839D01*
X153603744Y-83385000D01*
X153896256Y-83385000D01*
X154329418Y-83298839D01*
X154820625Y-82970625D01*
X155020000Y-82672239D01*
X155219375Y-82970625D01*
X155710582Y-83298839D01*
X156143744Y-83385000D01*
X156436256Y-83385000D01*
X156869418Y-83298839D01*
X157360625Y-82970625D01*
X157560000Y-82672239D01*
X157759375Y-82970625D01*
X158250582Y-83298839D01*
X158683744Y-83385000D01*
X158976256Y-83385000D01*
X159409418Y-83298839D01*
X159900625Y-82970625D01*
X160100000Y-82672239D01*
X160299375Y-82970625D01*
X160790582Y-83298839D01*
X161223744Y-83385000D01*
X161516256Y-83385000D01*
X161949418Y-83298839D01*
X162440625Y-82970625D01*
X162452816Y-82952381D01*
X162461843Y-82997765D01*
X162602191Y-83207809D01*
X162812235Y-83348157D01*
X163060000Y-83397440D01*
X164760000Y-83397440D01*
X165007765Y-83348157D01*
X165217809Y-83207809D01*
X165358157Y-82997765D01*
X165407440Y-82750000D01*
X165407440Y-81050000D01*
X165358157Y-80802235D01*
X165217809Y-80592191D01*
X165007765Y-80451843D01*
X164760000Y-80402560D01*
X163060000Y-80402560D01*
X162812235Y-80451843D01*
X162602191Y-80592191D01*
X162461843Y-80802235D01*
X162452816Y-80847619D01*
X162440625Y-80829375D01*
X161949418Y-80501161D01*
X161516256Y-80415000D01*
X161223744Y-80415000D01*
X160790582Y-80501161D01*
X160299375Y-80829375D01*
X160100000Y-81127761D01*
X159900625Y-80829375D01*
X159409418Y-80501161D01*
X158976256Y-80415000D01*
X158683744Y-80415000D01*
X158250582Y-80501161D01*
X157759375Y-80829375D01*
X157560000Y-81127761D01*
X157360625Y-80829375D01*
X156869418Y-80501161D01*
X156436256Y-80415000D01*
X156143744Y-80415000D01*
X155710582Y-80501161D01*
X155219375Y-80829375D01*
X155020000Y-81127761D01*
X154820625Y-80829375D01*
X154329418Y-80501161D01*
X153896256Y-80415000D01*
X153603744Y-80415000D01*
X153170582Y-80501161D01*
X152679375Y-80829375D01*
X152480000Y-81127761D01*
X152280625Y-80829375D01*
X151789418Y-80501161D01*
X151356256Y-80415000D01*
X151063744Y-80415000D01*
X150630582Y-80501161D01*
X150139375Y-80829375D01*
X149940000Y-81127761D01*
X149740625Y-80829375D01*
X149249418Y-80501161D01*
X148816256Y-80415000D01*
X148523744Y-80415000D01*
X148090582Y-80501161D01*
X147599375Y-80829375D01*
X147400000Y-81127761D01*
X147200625Y-80829375D01*
X146709418Y-80501161D01*
X146276256Y-80415000D01*
X145983744Y-80415000D01*
X145550582Y-80501161D01*
X145059375Y-80829375D01*
X144860000Y-81127761D01*
X144660625Y-80829375D01*
X144169418Y-80501161D01*
X143736256Y-80415000D01*
X143443744Y-80415000D01*
X143010582Y-80501161D01*
X142519375Y-80829375D01*
X142306157Y-81148478D01*
X142245183Y-81018642D01*
X141816924Y-80628355D01*
X141406890Y-80458524D01*
X141177000Y-80579845D01*
X141177000Y-81773000D01*
X141197000Y-81773000D01*
X141197000Y-82027000D01*
X141177000Y-82027000D01*
X141177000Y-82047000D01*
X140923000Y-82047000D01*
X140923000Y-82027000D01*
X139729181Y-82027000D01*
X139608514Y-82256892D01*
X139854817Y-82781358D01*
X140283076Y-83171645D01*
X140693110Y-83341476D01*
X140922998Y-83220156D01*
X140922998Y-83345689D01*
X140699489Y-83569198D01*
X140627380Y-83617380D01*
X140436507Y-83903041D01*
X140386400Y-84154948D01*
X140386400Y-84154951D01*
X140369483Y-84240000D01*
X140386400Y-84325049D01*
X140386401Y-89292286D01*
X140342287Y-89336400D01*
X138685000Y-89336400D01*
X138685000Y-88235750D01*
X138526250Y-88077000D01*
X137377000Y-88077000D01*
X137377000Y-88097000D01*
X137123000Y-88097000D01*
X137123000Y-88077000D01*
X135973750Y-88077000D01*
X135815000Y-88235750D01*
X135815000Y-89561730D01*
X135791578Y-89577380D01*
X135743400Y-89649484D01*
X135049486Y-90343399D01*
X134977381Y-90391578D01*
X134929202Y-90463683D01*
X134786507Y-90677239D01*
X134719483Y-91014198D01*
X134736401Y-91099252D01*
X134736400Y-94602560D01*
X134700000Y-94602560D01*
X134452235Y-94651843D01*
X134242191Y-94792191D01*
X134101843Y-95002235D01*
X134052560Y-95250000D01*
X134052560Y-101050000D01*
X134101843Y-101297765D01*
X134242191Y-101507809D01*
X134452235Y-101648157D01*
X134700000Y-101697440D01*
X141100000Y-101697440D01*
X141347765Y-101648157D01*
X141557809Y-101507809D01*
X141698157Y-101297765D01*
X141747440Y-101050000D01*
X141747440Y-100715750D01*
X142465000Y-100715750D01*
X142465000Y-101156310D01*
X142561673Y-101389699D01*
X142740302Y-101568327D01*
X142973691Y-101665000D01*
X143914250Y-101665000D01*
X144073000Y-101506250D01*
X144073000Y-100557000D01*
X142623750Y-100557000D01*
X142465000Y-100715750D01*
X141747440Y-100715750D01*
X141747440Y-99013600D01*
X143948089Y-99013600D01*
X144129489Y-99195000D01*
X144072998Y-99195000D01*
X144072998Y-99353748D01*
X143914250Y-99195000D01*
X142973691Y-99195000D01*
X142740302Y-99291673D01*
X142561673Y-99470301D01*
X142465000Y-99703690D01*
X142465000Y-100144250D01*
X142623750Y-100303000D01*
X144073000Y-100303000D01*
X144073000Y-100283000D01*
X144327000Y-100283000D01*
X144327000Y-100303000D01*
X144347000Y-100303000D01*
X144347000Y-100557000D01*
X144327000Y-100557000D01*
X144327000Y-101506250D01*
X144485750Y-101665000D01*
X145426309Y-101665000D01*
X145535124Y-101619927D01*
X145501843Y-101669735D01*
X145452560Y-101917500D01*
X145452560Y-103312500D01*
X145501843Y-103560265D01*
X145642191Y-103770309D01*
X145852235Y-103910657D01*
X146100000Y-103959940D01*
X147900000Y-103959940D01*
X148147765Y-103910657D01*
X148261905Y-103834391D01*
X148402235Y-103928157D01*
X148650000Y-103977440D01*
X150450000Y-103977440D01*
X150697765Y-103928157D01*
X150786905Y-103868595D01*
X150902235Y-103945657D01*
X151150000Y-103994940D01*
X152739966Y-103994940D01*
X152705330Y-104046776D01*
X152412046Y-104340060D01*
X151150000Y-104340060D01*
X150902235Y-104389343D01*
X150821389Y-104443363D01*
X150809699Y-104431673D01*
X150576310Y-104335000D01*
X149835750Y-104335000D01*
X149677000Y-104493750D01*
X149677000Y-105540500D01*
X149697000Y-105540500D01*
X149697000Y-105794500D01*
X149677000Y-105794500D01*
X149677000Y-105814500D01*
X149423000Y-105814500D01*
X149423000Y-105794500D01*
X149403000Y-105794500D01*
X149403000Y-105540500D01*
X149423000Y-105540500D01*
X149423000Y-104493750D01*
X149264250Y-104335000D01*
X148523690Y-104335000D01*
X148290301Y-104431673D01*
X148279565Y-104442409D01*
X148147765Y-104354343D01*
X147900000Y-104305060D01*
X146100000Y-104305060D01*
X145852235Y-104354343D01*
X145642191Y-104494691D01*
X145501843Y-104704735D01*
X145452560Y-104952500D01*
X145452560Y-106347500D01*
X145501843Y-106595265D01*
X145642191Y-106805309D01*
X145852235Y-106945657D01*
X146100000Y-106994940D01*
X146161801Y-106994940D01*
X146161801Y-107342446D01*
X146145380Y-107425000D01*
X146210434Y-107752049D01*
X146395692Y-108029308D01*
X146465678Y-108076071D01*
X146896150Y-108506543D01*
X146877560Y-108600000D01*
X146877560Y-108836852D01*
X146865699Y-108824991D01*
X146485293Y-108667422D01*
X146073545Y-108667422D01*
X145693139Y-108824991D01*
X145401988Y-109116142D01*
X145244419Y-109496548D01*
X145244419Y-109908296D01*
X145401988Y-110288702D01*
X145602092Y-110488806D01*
X145602092Y-110502510D01*
X144534801Y-110502510D01*
X144495570Y-110463279D01*
X144147440Y-110319079D01*
X144147440Y-102525000D01*
X144098157Y-102277235D01*
X143957809Y-102067191D01*
X143747765Y-101926843D01*
X143500000Y-101877560D01*
X141500000Y-101877560D01*
X141252235Y-101926843D01*
X141042191Y-102067191D01*
X140901843Y-102277235D01*
X140852560Y-102525000D01*
X140852560Y-105036066D01*
X139782172Y-103965679D01*
X139735408Y-103895692D01*
X139458149Y-103710433D01*
X139213654Y-103661800D01*
X139213649Y-103661800D01*
X139131100Y-103645380D01*
X139048551Y-103661800D01*
X137612440Y-103661800D01*
X137612440Y-103600000D01*
X137563157Y-103352235D01*
X137422809Y-103142191D01*
X137212765Y-103001843D01*
X136965000Y-102952560D01*
X135570000Y-102952560D01*
X135322235Y-103001843D01*
X135112191Y-103142191D01*
X134971843Y-103352235D01*
X134922560Y-103600000D01*
X134922560Y-105400000D01*
X134971843Y-105647765D01*
X135031405Y-105736905D01*
X134954343Y-105852235D01*
X134905060Y-106100000D01*
X134905060Y-107159546D01*
X134547500Y-107517106D01*
X134547500Y-107285750D01*
X134388750Y-107127000D01*
X133342000Y-107127000D01*
X133342000Y-107147000D01*
X133088000Y-107147000D01*
X133088000Y-107127000D01*
X133068000Y-107127000D01*
X133068000Y-106873000D01*
X133088000Y-106873000D01*
X133088000Y-105893750D01*
X133105500Y-105876250D01*
X133105500Y-105623750D01*
X133342000Y-105623750D01*
X133342000Y-106873000D01*
X134388750Y-106873000D01*
X134547500Y-106714250D01*
X134547500Y-105973690D01*
X134461634Y-105766392D01*
X134468327Y-105759699D01*
X134565000Y-105526310D01*
X134565000Y-104785750D01*
X134406250Y-104627000D01*
X133359500Y-104627000D01*
X133359500Y-105606250D01*
X133342000Y-105623750D01*
X133105500Y-105623750D01*
X133105500Y-104627000D01*
X133085500Y-104627000D01*
X133085500Y-104373000D01*
X133105500Y-104373000D01*
X133105500Y-103123750D01*
X133359500Y-103123750D01*
X133359500Y-104373000D01*
X134406250Y-104373000D01*
X134565000Y-104214250D01*
X134565000Y-103473690D01*
X134468327Y-103240301D01*
X134289698Y-103061673D01*
X134056309Y-102965000D01*
X133518250Y-102965000D01*
X133359500Y-103123750D01*
X133105500Y-103123750D01*
X132946750Y-102965000D01*
X132408691Y-102965000D01*
X132175302Y-103061673D01*
X132127000Y-103109975D01*
X132127000Y-86323691D01*
X135815000Y-86323691D01*
X135815000Y-87664250D01*
X135973750Y-87823000D01*
X137123000Y-87823000D01*
X137123000Y-85973750D01*
X137377000Y-85973750D01*
X137377000Y-87823000D01*
X138526250Y-87823000D01*
X138685000Y-87664250D01*
X138685000Y-86323691D01*
X138588327Y-86090302D01*
X138409699Y-85911673D01*
X138176310Y-85815000D01*
X137535750Y-85815000D01*
X137377000Y-85973750D01*
X137123000Y-85973750D01*
X136964250Y-85815000D01*
X136323690Y-85815000D01*
X136090301Y-85911673D01*
X135911673Y-86090302D01*
X135815000Y-86323691D01*
X132127000Y-86323691D01*
X132127000Y-81543108D01*
X139608514Y-81543108D01*
X139729181Y-81773000D01*
X140923000Y-81773000D01*
X140923000Y-80579845D01*
X140693110Y-80458524D01*
X140283076Y-80628355D01*
X139854817Y-81018642D01*
X139608514Y-81543108D01*
X132127000Y-81543108D01*
X132127000Y-77527000D01*
X171873000Y-77527000D01*
X171873000Y-106651686D01*
G36*
X168929375Y-100470625D02*
X169227761Y-100670000D01*
X169015542Y-100811800D01*
X166516933Y-100811800D01*
X166392926Y-100687793D01*
X165999908Y-100525000D01*
X166392926Y-100362207D01*
X166516933Y-100238200D01*
X168774074Y-100238200D01*
X168929375Y-100470625D01*
X168929375Y-100470625D01*
G37*
X168929375Y-100470625D02*
X169227761Y-100670000D01*
X169015542Y-100811800D01*
X166516933Y-100811800D01*
X166392926Y-100687793D01*
X165999908Y-100525000D01*
X166392926Y-100362207D01*
X166516933Y-100238200D01*
X168774074Y-100238200D01*
X168929375Y-100470625D01*
G36*
X165056668Y-100311801D02*
X162776371Y-100311801D01*
X162702770Y-100238200D01*
X164983067Y-100238200D01*
X165056668Y-100311801D01*
X165056668Y-100311801D01*
G37*
X165056668Y-100311801D02*
X162776371Y-100311801D01*
X162702770Y-100238200D01*
X164983067Y-100238200D01*
X165056668Y-100311801D01*
G36*
X147926843Y-96042765D02*
X147979768Y-96121972D01*
X147890000Y-96338690D01*
X147890000Y-96479250D01*
X148048750Y-96638000D01*
X149173000Y-96638000D01*
X149173000Y-96618000D01*
X149427000Y-96618000D01*
X149427000Y-96638000D01*
X149447000Y-96638000D01*
X149447000Y-96892000D01*
X149427000Y-96892000D01*
X149427000Y-96912000D01*
X149173000Y-96912000D01*
X149173000Y-96892000D01*
X148048750Y-96892000D01*
X147890000Y-97050750D01*
X147890000Y-97189848D01*
X147730840Y-97221507D01*
X147445180Y-97412380D01*
X147397002Y-97484483D01*
X146449488Y-98431999D01*
X146419402Y-98452102D01*
X146419402Y-97401911D01*
X147670798Y-96150517D01*
X147670802Y-96150511D01*
X147902240Y-95919074D01*
X147926843Y-96042765D01*
X147926843Y-96042765D01*
G37*
X147926843Y-96042765D02*
X147979768Y-96121972D01*
X147890000Y-96338690D01*
X147890000Y-96479250D01*
X148048750Y-96638000D01*
X149173000Y-96638000D01*
X149173000Y-96618000D01*
X149427000Y-96618000D01*
X149427000Y-96638000D01*
X149447000Y-96638000D01*
X149447000Y-96892000D01*
X149427000Y-96892000D01*
X149427000Y-96912000D01*
X149173000Y-96912000D01*
X149173000Y-96892000D01*
X148048750Y-96892000D01*
X147890000Y-97050750D01*
X147890000Y-97189848D01*
X147730840Y-97221507D01*
X147445180Y-97412380D01*
X147397002Y-97484483D01*
X146449488Y-98431999D01*
X146419402Y-98452102D01*
X146419402Y-97401911D01*
X147670798Y-96150517D01*
X147670802Y-96150511D01*
X147902240Y-95919074D01*
X147926843Y-96042765D01*
G04 #@! TD*
M02*
