G04 #@! TF.GenerationSoftware,KiCad,Pcbnew,(5.0.0)*
G04 #@! TF.CreationDate,2018-10-11T21:50:58+05:00*
G04 #@! TF.ProjectId,Dev Board,44657620426F6172642E6B696361645F,rev?*
G04 #@! TF.SameCoordinates,Original*
G04 #@! TF.FileFunction,Soldermask,Bot*
G04 #@! TF.FilePolarity,Negative*
%FSLAX46Y46*%
G04 Gerber Fmt 4.6, Leading zero omitted, Abs format (unit mm)*
G04 Created by KiCad (PCBNEW (5.0.0)) date 10/11/18 21:50:58*
%MOMM*%
%LPD*%
G01*
G04 APERTURE LIST*
%ADD10C,4.200000*%
%ADD11R,2.100000X2.100000*%
%ADD12O,2.100000X2.100000*%
G04 APERTURE END LIST*
D10*
G04 #@! TO.C,*
X174500000Y-149900000D03*
G04 #@! TD*
G04 #@! TO.C,*
X174500000Y-74900000D03*
G04 #@! TD*
G04 #@! TO.C,*
X129500000Y-74900000D03*
G04 #@! TD*
G04 #@! TO.C,*
X129500000Y-149900000D03*
G04 #@! TD*
D11*
G04 #@! TO.C,J1*
X143050000Y-145400000D03*
D12*
X145590000Y-145400000D03*
X148130000Y-145400000D03*
X150670000Y-145400000D03*
X153210000Y-145400000D03*
X155750000Y-145400000D03*
X158290000Y-145400000D03*
X160830000Y-145400000D03*
G04 #@! TD*
G04 #@! TO.C,J2*
X170000000Y-130020000D03*
X170000000Y-127480000D03*
X170000000Y-124940000D03*
D11*
X170000000Y-122400000D03*
G04 #@! TD*
G04 #@! TO.C,J3*
X170000000Y-133900000D03*
D12*
X170000000Y-136440000D03*
X170000000Y-138980000D03*
X170000000Y-141520000D03*
G04 #@! TD*
D11*
G04 #@! TO.C,J4*
X170000000Y-105820000D03*
D12*
X170000000Y-108360000D03*
X170000000Y-110900000D03*
X170000000Y-113440000D03*
X170000000Y-115980000D03*
X170000000Y-118520000D03*
G04 #@! TD*
D11*
G04 #@! TO.C,J5*
X170000000Y-94320000D03*
D12*
X170000000Y-96860000D03*
X170000000Y-99400000D03*
X170000000Y-101940000D03*
G04 #@! TD*
D11*
G04 #@! TO.C,J6*
X163910000Y-81900000D03*
D12*
X161370000Y-81900000D03*
X158830000Y-81900000D03*
X156290000Y-81900000D03*
X153750000Y-81900000D03*
X151210000Y-81900000D03*
X148670000Y-81900000D03*
X146130000Y-81900000D03*
X143590000Y-81900000D03*
X141050000Y-81900000D03*
G04 #@! TD*
M02*
