M48
;DRILL file {KiCad (5.0.0)} date 10/11/18 21:51:43
;FORMAT={-:-/ absolute / inch / decimal}
FMAT,2
INCH,TZ
T1C0.0177
T2C0.0394
T3C0.0866
%
G90
G05
M72
T1
X5.2205Y-4.0315
X5.2756Y-4.0315
X5.2992Y-4.2205
X5.2992Y-4.4646
X5.3051Y-4.3209
X5.4252Y-4.4803
X5.4291Y-3.8642
X5.4803Y-4.0394
X5.5413Y-4.6555
X5.5807Y-4.4094
X5.5984Y-3.3701
X5.6657Y-4.3835
X5.759Y-4.319
X5.7677Y-4.4193
X5.7731Y-4.3537
X5.8031Y-3.811
X5.9055Y-4.2775
X5.9055Y-4.315
X5.9055Y-4.4331
X5.9055Y-4.5276
X5.9134Y-3.5276
X5.9213Y-3.9528
X5.9213Y-4.2283
X5.9449Y-4.5354
X5.9449Y-4.6024
X5.9606Y-3.9685
X5.984Y-4.5827
X6.0402Y-4.3737
X6.0435Y-4.5433
X6.0454Y-4.6439
X6.0514Y-4.4095
X6.0551Y-4.2205
X6.0787Y-3.9685
X6.189Y-4.4331
X6.1909Y-4.5728
X6.1909Y-4.6103
X6.1969Y-4.315
X6.2612Y-4.4029
X6.2835Y-3.874
X6.315Y-4.2441
X6.315Y-4.2835
X6.315Y-4.3228
X6.315Y-4.3622
X6.315Y-4.4016
X6.3228Y-3.874
X6.3543Y-4.2441
X6.3543Y-4.2835
X6.3543Y-4.3228
X6.3543Y-4.3622
X6.3543Y-4.4016
X6.378Y-3.8819
X6.3874Y-5.4488
X6.3937Y-4.2441
X6.3937Y-4.2835
X6.3937Y-4.3228
X6.3937Y-4.3622
X6.3937Y-4.4016
X6.4173Y-3.8819
X6.4331Y-3.9449
X6.4331Y-4.2441
X6.4331Y-4.2835
X6.4331Y-4.3228
X6.4331Y-4.3622
X6.4409Y-4.5118
X6.4469Y-4.6024
X6.4488Y-4.0236
X6.4567Y-3.8819
X6.4567Y-5.4587
X6.4724Y-3.9449
X6.4724Y-4.2047
X6.4724Y-4.2441
X6.4724Y-4.2835
X6.4724Y-4.3228
X6.5118Y-4.2047
X6.5118Y-4.2441
X6.5118Y-4.2835
X6.5512Y-4.2047
X6.5512Y-4.2441
X6.5748Y-3.9449
X6.5748Y-4.0315
X6.6142Y-3.9449
X6.6142Y-4.0315
T2
X6.6929Y-4.8189
X6.6929Y-4.9189
X6.6929Y-5.0189
X6.6929Y-5.1189
X6.6929Y-4.1661
X6.6929Y-4.2661
X6.6929Y-4.3661
X6.6929Y-4.4661
X6.6929Y-4.5661
X6.6929Y-4.6661
X6.6929Y-3.7134
X6.6929Y-3.8134
X6.6929Y-3.9134
X6.6929Y-4.0134
X5.6319Y-5.7244
X5.7319Y-5.7244
X5.8319Y-5.7244
X5.9319Y-5.7244
X6.0319Y-5.7244
X6.1319Y-5.7244
X6.2319Y-5.7244
X6.3319Y-5.7244
X5.5531Y-3.2244
X5.6531Y-3.2244
X5.7531Y-3.2244
X5.8531Y-3.2244
X5.9531Y-3.2244
X6.0531Y-3.2244
X6.1531Y-3.2244
X6.2531Y-3.2244
X6.3531Y-3.2244
X6.4531Y-3.2244
X6.6929Y-5.2717
X6.6929Y-5.3717
X6.6929Y-5.4717
X6.6929Y-5.5717
T3
X6.8701Y-2.9488
X5.0984Y-2.9488
X5.0984Y-5.9016
X6.8701Y-5.9016
T0
M30
