G04 #@! TF.GenerationSoftware,KiCad,Pcbnew,(5.0.0)*
G04 #@! TF.CreationDate,2018-10-11T21:50:58+05:00*
G04 #@! TF.ProjectId,Dev Board,44657620426F6172642E6B696361645F,rev?*
G04 #@! TF.SameCoordinates,Original*
G04 #@! TF.FileFunction,Legend,Top*
G04 #@! TF.FilePolarity,Positive*
%FSLAX46Y46*%
G04 Gerber Fmt 4.6, Leading zero omitted, Abs format (unit mm)*
G04 Created by KiCad (PCBNEW (5.0.0)) date 10/11/18 21:50:58*
%MOMM*%
%LPD*%
G01*
G04 APERTURE LIST*
%ADD10C,0.250000*%
%ADD11C,0.225000*%
%ADD12C,0.120000*%
%ADD13C,0.150000*%
G04 APERTURE END LIST*
D10*
X164452380Y-79316666D02*
X163976190Y-79650000D01*
X164452380Y-79888095D02*
X163452380Y-79888095D01*
X163452380Y-79507142D01*
X163500000Y-79411904D01*
X163547619Y-79364285D01*
X163642857Y-79316666D01*
X163785714Y-79316666D01*
X163880952Y-79364285D01*
X163928571Y-79411904D01*
X163976190Y-79507142D01*
X163976190Y-79888095D01*
X163928571Y-78554761D02*
X163976190Y-78411904D01*
X164023809Y-78364285D01*
X164119047Y-78316666D01*
X164261904Y-78316666D01*
X164357142Y-78364285D01*
X164404761Y-78411904D01*
X164452380Y-78507142D01*
X164452380Y-78888095D01*
X163452380Y-78888095D01*
X163452380Y-78554761D01*
X163500000Y-78459523D01*
X163547619Y-78411904D01*
X163642857Y-78364285D01*
X163738095Y-78364285D01*
X163833333Y-78411904D01*
X163880952Y-78459523D01*
X163928571Y-78554761D01*
X163928571Y-78888095D01*
X163452380Y-77697619D02*
X163452380Y-77602380D01*
X163500000Y-77507142D01*
X163547619Y-77459523D01*
X163642857Y-77411904D01*
X163833333Y-77364285D01*
X164071428Y-77364285D01*
X164261904Y-77411904D01*
X164357142Y-77459523D01*
X164404761Y-77507142D01*
X164452380Y-77602380D01*
X164452380Y-77697619D01*
X164404761Y-77792857D01*
X164357142Y-77840476D01*
X164261904Y-77888095D01*
X164071428Y-77935714D01*
X163833333Y-77935714D01*
X163642857Y-77888095D01*
X163547619Y-77840476D01*
X163500000Y-77792857D01*
X163452380Y-77697619D01*
X161952380Y-79316666D02*
X161476190Y-79650000D01*
X161952380Y-79888095D02*
X160952380Y-79888095D01*
X160952380Y-79507142D01*
X161000000Y-79411904D01*
X161047619Y-79364285D01*
X161142857Y-79316666D01*
X161285714Y-79316666D01*
X161380952Y-79364285D01*
X161428571Y-79411904D01*
X161476190Y-79507142D01*
X161476190Y-79888095D01*
X161428571Y-78554761D02*
X161476190Y-78411904D01*
X161523809Y-78364285D01*
X161619047Y-78316666D01*
X161761904Y-78316666D01*
X161857142Y-78364285D01*
X161904761Y-78411904D01*
X161952380Y-78507142D01*
X161952380Y-78888095D01*
X160952380Y-78888095D01*
X160952380Y-78554761D01*
X161000000Y-78459523D01*
X161047619Y-78411904D01*
X161142857Y-78364285D01*
X161238095Y-78364285D01*
X161333333Y-78411904D01*
X161380952Y-78459523D01*
X161428571Y-78554761D01*
X161428571Y-78888095D01*
X161952380Y-77364285D02*
X161952380Y-77935714D01*
X161952380Y-77650000D02*
X160952380Y-77650000D01*
X161095238Y-77745238D01*
X161190476Y-77840476D01*
X161238095Y-77935714D01*
X159452380Y-79316666D02*
X158976190Y-79650000D01*
X159452380Y-79888095D02*
X158452380Y-79888095D01*
X158452380Y-79507142D01*
X158500000Y-79411904D01*
X158547619Y-79364285D01*
X158642857Y-79316666D01*
X158785714Y-79316666D01*
X158880952Y-79364285D01*
X158928571Y-79411904D01*
X158976190Y-79507142D01*
X158976190Y-79888095D01*
X158928571Y-78554761D02*
X158976190Y-78411904D01*
X159023809Y-78364285D01*
X159119047Y-78316666D01*
X159261904Y-78316666D01*
X159357142Y-78364285D01*
X159404761Y-78411904D01*
X159452380Y-78507142D01*
X159452380Y-78888095D01*
X158452380Y-78888095D01*
X158452380Y-78554761D01*
X158500000Y-78459523D01*
X158547619Y-78411904D01*
X158642857Y-78364285D01*
X158738095Y-78364285D01*
X158833333Y-78411904D01*
X158880952Y-78459523D01*
X158928571Y-78554761D01*
X158928571Y-78888095D01*
X158785714Y-77459523D02*
X159452380Y-77459523D01*
X158404761Y-77697619D02*
X159119047Y-77935714D01*
X159119047Y-77316666D01*
X156416666Y-79888095D02*
X156416666Y-79411904D01*
X156702380Y-79983333D02*
X155702380Y-79650000D01*
X156702380Y-79316666D01*
X156702380Y-78983333D02*
X155702380Y-78983333D01*
X156702380Y-78411904D01*
X155702380Y-78411904D01*
X155702380Y-77745238D02*
X155702380Y-77650000D01*
X155750000Y-77554761D01*
X155797619Y-77507142D01*
X155892857Y-77459523D01*
X156083333Y-77411904D01*
X156321428Y-77411904D01*
X156511904Y-77459523D01*
X156607142Y-77507142D01*
X156654761Y-77554761D01*
X156702380Y-77650000D01*
X156702380Y-77745238D01*
X156654761Y-77840476D01*
X156607142Y-77888095D01*
X156511904Y-77935714D01*
X156321428Y-77983333D01*
X156083333Y-77983333D01*
X155892857Y-77935714D01*
X155797619Y-77888095D01*
X155750000Y-77840476D01*
X155702380Y-77745238D01*
X153916666Y-79888095D02*
X153916666Y-79411904D01*
X154202380Y-79983333D02*
X153202380Y-79650000D01*
X154202380Y-79316666D01*
X154202380Y-78983333D02*
X153202380Y-78983333D01*
X154202380Y-78411904D01*
X153202380Y-78411904D01*
X154202380Y-77411904D02*
X154202380Y-77983333D01*
X154202380Y-77697619D02*
X153202380Y-77697619D01*
X153345238Y-77792857D01*
X153440476Y-77888095D01*
X153488095Y-77983333D01*
X151416666Y-79888095D02*
X151416666Y-79411904D01*
X151702380Y-79983333D02*
X150702380Y-79650000D01*
X151702380Y-79316666D01*
X151702380Y-78983333D02*
X150702380Y-78983333D01*
X151702380Y-78411904D01*
X150702380Y-78411904D01*
X150797619Y-77983333D02*
X150750000Y-77935714D01*
X150702380Y-77840476D01*
X150702380Y-77602380D01*
X150750000Y-77507142D01*
X150797619Y-77459523D01*
X150892857Y-77411904D01*
X150988095Y-77411904D01*
X151130952Y-77459523D01*
X151702380Y-78030952D01*
X151702380Y-77411904D01*
X148916666Y-79888095D02*
X148916666Y-79411904D01*
X149202380Y-79983333D02*
X148202380Y-79650000D01*
X149202380Y-79316666D01*
X149202380Y-78983333D02*
X148202380Y-78983333D01*
X149202380Y-78411904D01*
X148202380Y-78411904D01*
X148202380Y-78030952D02*
X148202380Y-77411904D01*
X148583333Y-77745238D01*
X148583333Y-77602380D01*
X148630952Y-77507142D01*
X148678571Y-77459523D01*
X148773809Y-77411904D01*
X149011904Y-77411904D01*
X149107142Y-77459523D01*
X149154761Y-77507142D01*
X149202380Y-77602380D01*
X149202380Y-77888095D01*
X149154761Y-77983333D01*
X149107142Y-78030952D01*
X146166666Y-79888095D02*
X146166666Y-79411904D01*
X146452380Y-79983333D02*
X145452380Y-79650000D01*
X146452380Y-79316666D01*
X146452380Y-78983333D02*
X145452380Y-78983333D01*
X146452380Y-78411904D01*
X145452380Y-78411904D01*
X145785714Y-77507142D02*
X146452380Y-77507142D01*
X145404761Y-77745238D02*
X146119047Y-77983333D01*
X146119047Y-77364285D01*
X143202380Y-79983333D02*
X144202380Y-79650000D01*
X143202380Y-79316666D01*
X144107142Y-78411904D02*
X144154761Y-78459523D01*
X144202380Y-78602380D01*
X144202380Y-78697619D01*
X144154761Y-78840476D01*
X144059523Y-78935714D01*
X143964285Y-78983333D01*
X143773809Y-79030952D01*
X143630952Y-79030952D01*
X143440476Y-78983333D01*
X143345238Y-78935714D01*
X143250000Y-78840476D01*
X143202380Y-78697619D01*
X143202380Y-78602380D01*
X143250000Y-78459523D01*
X143297619Y-78411904D01*
X144107142Y-77411904D02*
X144154761Y-77459523D01*
X144202380Y-77602380D01*
X144202380Y-77697619D01*
X144154761Y-77840476D01*
X144059523Y-77935714D01*
X143964285Y-77983333D01*
X143773809Y-78030952D01*
X143630952Y-78030952D01*
X143440476Y-77983333D01*
X143345238Y-77935714D01*
X143250000Y-77840476D01*
X143202380Y-77697619D01*
X143202380Y-77602380D01*
X143250000Y-77459523D01*
X143297619Y-77411904D01*
X140500000Y-79411904D02*
X140452380Y-79507142D01*
X140452380Y-79650000D01*
X140500000Y-79792857D01*
X140595238Y-79888095D01*
X140690476Y-79935714D01*
X140880952Y-79983333D01*
X141023809Y-79983333D01*
X141214285Y-79935714D01*
X141309523Y-79888095D01*
X141404761Y-79792857D01*
X141452380Y-79650000D01*
X141452380Y-79554761D01*
X141404761Y-79411904D01*
X141357142Y-79364285D01*
X141023809Y-79364285D01*
X141023809Y-79554761D01*
X141452380Y-78935714D02*
X140452380Y-78935714D01*
X141452380Y-78364285D01*
X140452380Y-78364285D01*
X141452380Y-77888095D02*
X140452380Y-77888095D01*
X140452380Y-77650000D01*
X140500000Y-77507142D01*
X140595238Y-77411904D01*
X140690476Y-77364285D01*
X140880952Y-77316666D01*
X141023809Y-77316666D01*
X141214285Y-77364285D01*
X141309523Y-77411904D01*
X141404761Y-77507142D01*
X141452380Y-77650000D01*
X141452380Y-77888095D01*
X153702380Y-150411904D02*
X152702380Y-150411904D01*
X152702380Y-150030952D01*
X152750000Y-149935714D01*
X152797619Y-149888095D01*
X152892857Y-149840476D01*
X153035714Y-149840476D01*
X153130952Y-149888095D01*
X153178571Y-149935714D01*
X153226190Y-150030952D01*
X153226190Y-150411904D01*
X152750000Y-148888095D02*
X152702380Y-148983333D01*
X152702380Y-149126190D01*
X152750000Y-149269047D01*
X152845238Y-149364285D01*
X152940476Y-149411904D01*
X153130952Y-149459523D01*
X153273809Y-149459523D01*
X153464285Y-149411904D01*
X153559523Y-149364285D01*
X153654761Y-149269047D01*
X153702380Y-149126190D01*
X153702380Y-149030952D01*
X153654761Y-148888095D01*
X153607142Y-148840476D01*
X153273809Y-148840476D01*
X153273809Y-149030952D01*
X153607142Y-147840476D02*
X153654761Y-147888095D01*
X153702380Y-148030952D01*
X153702380Y-148126190D01*
X153654761Y-148269047D01*
X153559523Y-148364285D01*
X153464285Y-148411904D01*
X153273809Y-148459523D01*
X153130952Y-148459523D01*
X152940476Y-148411904D01*
X152845238Y-148364285D01*
X152750000Y-148269047D01*
X152702380Y-148126190D01*
X152702380Y-148030952D01*
X152750000Y-147888095D01*
X152797619Y-147840476D01*
X151202380Y-150411904D02*
X150202380Y-150411904D01*
X150202380Y-150030952D01*
X150250000Y-149935714D01*
X150297619Y-149888095D01*
X150392857Y-149840476D01*
X150535714Y-149840476D01*
X150630952Y-149888095D01*
X150678571Y-149935714D01*
X150726190Y-150030952D01*
X150726190Y-150411904D01*
X150250000Y-148888095D02*
X150202380Y-148983333D01*
X150202380Y-149126190D01*
X150250000Y-149269047D01*
X150345238Y-149364285D01*
X150440476Y-149411904D01*
X150630952Y-149459523D01*
X150773809Y-149459523D01*
X150964285Y-149411904D01*
X151059523Y-149364285D01*
X151154761Y-149269047D01*
X151202380Y-149126190D01*
X151202380Y-149030952D01*
X151154761Y-148888095D01*
X151107142Y-148840476D01*
X150773809Y-148840476D01*
X150773809Y-149030952D01*
X151202380Y-148411904D02*
X150202380Y-148411904D01*
X150202380Y-148173809D01*
X150250000Y-148030952D01*
X150345238Y-147935714D01*
X150440476Y-147888095D01*
X150630952Y-147840476D01*
X150773809Y-147840476D01*
X150964285Y-147888095D01*
X151059523Y-147935714D01*
X151154761Y-148030952D01*
X151202380Y-148173809D01*
X151202380Y-148411904D01*
X147750000Y-149911904D02*
X147702380Y-150007142D01*
X147702380Y-150150000D01*
X147750000Y-150292857D01*
X147845238Y-150388095D01*
X147940476Y-150435714D01*
X148130952Y-150483333D01*
X148273809Y-150483333D01*
X148464285Y-150435714D01*
X148559523Y-150388095D01*
X148654761Y-150292857D01*
X148702380Y-150150000D01*
X148702380Y-150054761D01*
X148654761Y-149911904D01*
X148607142Y-149864285D01*
X148273809Y-149864285D01*
X148273809Y-150054761D01*
X148702380Y-149435714D02*
X147702380Y-149435714D01*
X148702380Y-148864285D01*
X147702380Y-148864285D01*
X148702380Y-148388095D02*
X147702380Y-148388095D01*
X147702380Y-148150000D01*
X147750000Y-148007142D01*
X147845238Y-147911904D01*
X147940476Y-147864285D01*
X148130952Y-147816666D01*
X148273809Y-147816666D01*
X148464285Y-147864285D01*
X148559523Y-147911904D01*
X148654761Y-148007142D01*
X148702380Y-148150000D01*
X148702380Y-148388095D01*
X145202380Y-148840476D02*
X145202380Y-149316666D01*
X145678571Y-149364285D01*
X145630952Y-149316666D01*
X145583333Y-149221428D01*
X145583333Y-148983333D01*
X145630952Y-148888095D01*
X145678571Y-148840476D01*
X145773809Y-148792857D01*
X146011904Y-148792857D01*
X146107142Y-148840476D01*
X146154761Y-148888095D01*
X146202380Y-148983333D01*
X146202380Y-149221428D01*
X146154761Y-149316666D01*
X146107142Y-149364285D01*
X145202380Y-148507142D02*
X146202380Y-148173809D01*
X145202380Y-147840476D01*
X142205000Y-151626190D02*
X142205000Y-150483333D01*
X143702380Y-151388095D02*
X142702380Y-151388095D01*
X143416666Y-151054761D01*
X142702380Y-150721428D01*
X143702380Y-150721428D01*
X142205000Y-150483333D02*
X142205000Y-149483333D01*
X143607142Y-149673809D02*
X143654761Y-149721428D01*
X143702380Y-149864285D01*
X143702380Y-149959523D01*
X143654761Y-150102380D01*
X143559523Y-150197619D01*
X143464285Y-150245238D01*
X143273809Y-150292857D01*
X143130952Y-150292857D01*
X142940476Y-150245238D01*
X142845238Y-150197619D01*
X142750000Y-150102380D01*
X142702380Y-149959523D01*
X142702380Y-149864285D01*
X142750000Y-149721428D01*
X142797619Y-149673809D01*
X142205000Y-149483333D02*
X142205000Y-148673809D01*
X143702380Y-148769047D02*
X143702380Y-149245238D01*
X142702380Y-149245238D01*
X142205000Y-148673809D02*
X142205000Y-147673809D01*
X143702380Y-147864285D02*
X143226190Y-148197619D01*
X143702380Y-148435714D02*
X142702380Y-148435714D01*
X142702380Y-148054761D01*
X142750000Y-147959523D01*
X142797619Y-147911904D01*
X142892857Y-147864285D01*
X143035714Y-147864285D01*
X143130952Y-147911904D01*
X143178571Y-147959523D01*
X143226190Y-148054761D01*
X143226190Y-148435714D01*
X172857142Y-142102380D02*
X172523809Y-141626190D01*
X172285714Y-142102380D02*
X172285714Y-141102380D01*
X172666666Y-141102380D01*
X172761904Y-141150000D01*
X172809523Y-141197619D01*
X172857142Y-141292857D01*
X172857142Y-141435714D01*
X172809523Y-141530952D01*
X172761904Y-141578571D01*
X172666666Y-141626190D01*
X172285714Y-141626190D01*
X173190476Y-141102380D02*
X173857142Y-142102380D01*
X173857142Y-141102380D02*
X173190476Y-142102380D01*
X174761904Y-142102380D02*
X174190476Y-142102380D01*
X174476190Y-142102380D02*
X174476190Y-141102380D01*
X174380952Y-141245238D01*
X174285714Y-141340476D01*
X174190476Y-141388095D01*
X172261904Y-138602380D02*
X172833333Y-138602380D01*
X172547619Y-139602380D02*
X172547619Y-138602380D01*
X173071428Y-138602380D02*
X173738095Y-139602380D01*
X173738095Y-138602380D02*
X173071428Y-139602380D01*
X174642857Y-139602380D02*
X174071428Y-139602380D01*
X174357142Y-139602380D02*
X174357142Y-138602380D01*
X174261904Y-138745238D01*
X174166666Y-138840476D01*
X174071428Y-138888095D01*
X172738095Y-135900000D02*
X172642857Y-135852380D01*
X172500000Y-135852380D01*
X172357142Y-135900000D01*
X172261904Y-135995238D01*
X172214285Y-136090476D01*
X172166666Y-136280952D01*
X172166666Y-136423809D01*
X172214285Y-136614285D01*
X172261904Y-136709523D01*
X172357142Y-136804761D01*
X172500000Y-136852380D01*
X172595238Y-136852380D01*
X172738095Y-136804761D01*
X172785714Y-136757142D01*
X172785714Y-136423809D01*
X172595238Y-136423809D01*
X173214285Y-136852380D02*
X173214285Y-135852380D01*
X173785714Y-136852380D01*
X173785714Y-135852380D01*
X174261904Y-136852380D02*
X174261904Y-135852380D01*
X174500000Y-135852380D01*
X174642857Y-135900000D01*
X174738095Y-135995238D01*
X174785714Y-136090476D01*
X174833333Y-136280952D01*
X174833333Y-136423809D01*
X174785714Y-136614285D01*
X174738095Y-136709523D01*
X174642857Y-136804761D01*
X174500000Y-136852380D01*
X174261904Y-136852380D01*
X172559523Y-133352380D02*
X172083333Y-133352380D01*
X172035714Y-133828571D01*
X172083333Y-133780952D01*
X172178571Y-133733333D01*
X172416666Y-133733333D01*
X172511904Y-133780952D01*
X172559523Y-133828571D01*
X172607142Y-133923809D01*
X172607142Y-134161904D01*
X172559523Y-134257142D01*
X172511904Y-134304761D01*
X172416666Y-134352380D01*
X172178571Y-134352380D01*
X172083333Y-134304761D01*
X172035714Y-134257142D01*
X172892857Y-133352380D02*
X173226190Y-134352380D01*
X173559523Y-133352380D01*
X172285714Y-130554761D02*
X172428571Y-130602380D01*
X172666666Y-130602380D01*
X172761904Y-130554761D01*
X172809523Y-130507142D01*
X172857142Y-130411904D01*
X172857142Y-130316666D01*
X172809523Y-130221428D01*
X172761904Y-130173809D01*
X172666666Y-130126190D01*
X172476190Y-130078571D01*
X172380952Y-130030952D01*
X172333333Y-129983333D01*
X172285714Y-129888095D01*
X172285714Y-129792857D01*
X172333333Y-129697619D01*
X172380952Y-129650000D01*
X172476190Y-129602380D01*
X172714285Y-129602380D01*
X172857142Y-129650000D01*
X173285714Y-130602380D02*
X173285714Y-129602380D01*
X173523809Y-129602380D01*
X173666666Y-129650000D01*
X173761904Y-129745238D01*
X173809523Y-129840476D01*
X173857142Y-130030952D01*
X173857142Y-130173809D01*
X173809523Y-130364285D01*
X173761904Y-130459523D01*
X173666666Y-130554761D01*
X173523809Y-130602380D01*
X173285714Y-130602380D01*
X174238095Y-130316666D02*
X174714285Y-130316666D01*
X174142857Y-130602380D02*
X174476190Y-129602380D01*
X174809523Y-130602380D01*
X172309523Y-127804761D02*
X172452380Y-127852380D01*
X172690476Y-127852380D01*
X172785714Y-127804761D01*
X172833333Y-127757142D01*
X172880952Y-127661904D01*
X172880952Y-127566666D01*
X172833333Y-127471428D01*
X172785714Y-127423809D01*
X172690476Y-127376190D01*
X172500000Y-127328571D01*
X172404761Y-127280952D01*
X172357142Y-127233333D01*
X172309523Y-127138095D01*
X172309523Y-127042857D01*
X172357142Y-126947619D01*
X172404761Y-126900000D01*
X172500000Y-126852380D01*
X172738095Y-126852380D01*
X172880952Y-126900000D01*
X173880952Y-127757142D02*
X173833333Y-127804761D01*
X173690476Y-127852380D01*
X173595238Y-127852380D01*
X173452380Y-127804761D01*
X173357142Y-127709523D01*
X173309523Y-127614285D01*
X173261904Y-127423809D01*
X173261904Y-127280952D01*
X173309523Y-127090476D01*
X173357142Y-126995238D01*
X173452380Y-126900000D01*
X173595238Y-126852380D01*
X173690476Y-126852380D01*
X173833333Y-126900000D01*
X173880952Y-126947619D01*
X174785714Y-127852380D02*
X174309523Y-127852380D01*
X174309523Y-126852380D01*
X172738095Y-124400000D02*
X172642857Y-124352380D01*
X172500000Y-124352380D01*
X172357142Y-124400000D01*
X172261904Y-124495238D01*
X172214285Y-124590476D01*
X172166666Y-124780952D01*
X172166666Y-124923809D01*
X172214285Y-125114285D01*
X172261904Y-125209523D01*
X172357142Y-125304761D01*
X172500000Y-125352380D01*
X172595238Y-125352380D01*
X172738095Y-125304761D01*
X172785714Y-125257142D01*
X172785714Y-124923809D01*
X172595238Y-124923809D01*
X173214285Y-125352380D02*
X173214285Y-124352380D01*
X173785714Y-125352380D01*
X173785714Y-124352380D01*
X174261904Y-125352380D02*
X174261904Y-124352380D01*
X174500000Y-124352380D01*
X174642857Y-124400000D01*
X174738095Y-124495238D01*
X174785714Y-124590476D01*
X174833333Y-124780952D01*
X174833333Y-124923809D01*
X174785714Y-125114285D01*
X174738095Y-125209523D01*
X174642857Y-125304761D01*
X174500000Y-125352380D01*
X174261904Y-125352380D01*
X172559523Y-121852380D02*
X172083333Y-121852380D01*
X172035714Y-122328571D01*
X172083333Y-122280952D01*
X172178571Y-122233333D01*
X172416666Y-122233333D01*
X172511904Y-122280952D01*
X172559523Y-122328571D01*
X172607142Y-122423809D01*
X172607142Y-122661904D01*
X172559523Y-122757142D01*
X172511904Y-122804761D01*
X172416666Y-122852380D01*
X172178571Y-122852380D01*
X172083333Y-122804761D01*
X172035714Y-122757142D01*
X172892857Y-121852380D02*
X173226190Y-122852380D01*
X173559523Y-121852380D01*
X172047619Y-117855000D02*
X173000000Y-117855000D01*
X172238095Y-119304761D02*
X172380952Y-119352380D01*
X172619047Y-119352380D01*
X172714285Y-119304761D01*
X172761904Y-119257142D01*
X172809523Y-119161904D01*
X172809523Y-119066666D01*
X172761904Y-118971428D01*
X172714285Y-118923809D01*
X172619047Y-118876190D01*
X172428571Y-118828571D01*
X172333333Y-118780952D01*
X172285714Y-118733333D01*
X172238095Y-118638095D01*
X172238095Y-118542857D01*
X172285714Y-118447619D01*
X172333333Y-118400000D01*
X172428571Y-118352380D01*
X172666666Y-118352380D01*
X172809523Y-118400000D01*
X173000000Y-117855000D02*
X173952380Y-117855000D01*
X173190476Y-119304761D02*
X173333333Y-119352380D01*
X173571428Y-119352380D01*
X173666666Y-119304761D01*
X173714285Y-119257142D01*
X173761904Y-119161904D01*
X173761904Y-119066666D01*
X173714285Y-118971428D01*
X173666666Y-118923809D01*
X173571428Y-118876190D01*
X173380952Y-118828571D01*
X173285714Y-118780952D01*
X173238095Y-118733333D01*
X173190476Y-118638095D01*
X173190476Y-118542857D01*
X173238095Y-118447619D01*
X173285714Y-118400000D01*
X173380952Y-118352380D01*
X173619047Y-118352380D01*
X173761904Y-118400000D01*
X172190476Y-116554761D02*
X172333333Y-116602380D01*
X172571428Y-116602380D01*
X172666666Y-116554761D01*
X172714285Y-116507142D01*
X172761904Y-116411904D01*
X172761904Y-116316666D01*
X172714285Y-116221428D01*
X172666666Y-116173809D01*
X172571428Y-116126190D01*
X172380952Y-116078571D01*
X172285714Y-116030952D01*
X172238095Y-115983333D01*
X172190476Y-115888095D01*
X172190476Y-115792857D01*
X172238095Y-115697619D01*
X172285714Y-115650000D01*
X172380952Y-115602380D01*
X172619047Y-115602380D01*
X172761904Y-115650000D01*
X173190476Y-116602380D02*
X173190476Y-115602380D01*
X173428571Y-115602380D01*
X173571428Y-115650000D01*
X173666666Y-115745238D01*
X173714285Y-115840476D01*
X173761904Y-116030952D01*
X173761904Y-116173809D01*
X173714285Y-116364285D01*
X173666666Y-116459523D01*
X173571428Y-116554761D01*
X173428571Y-116602380D01*
X173190476Y-116602380D01*
X174380952Y-115602380D02*
X174571428Y-115602380D01*
X174666666Y-115650000D01*
X174761904Y-115745238D01*
X174809523Y-115935714D01*
X174809523Y-116269047D01*
X174761904Y-116459523D01*
X174666666Y-116554761D01*
X174571428Y-116602380D01*
X174380952Y-116602380D01*
X174285714Y-116554761D01*
X174190476Y-116459523D01*
X174142857Y-116269047D01*
X174142857Y-115935714D01*
X174190476Y-115745238D01*
X174285714Y-115650000D01*
X174380952Y-115602380D01*
X172226190Y-113804761D02*
X172369047Y-113852380D01*
X172607142Y-113852380D01*
X172702380Y-113804761D01*
X172750000Y-113757142D01*
X172797619Y-113661904D01*
X172797619Y-113566666D01*
X172750000Y-113471428D01*
X172702380Y-113423809D01*
X172607142Y-113376190D01*
X172416666Y-113328571D01*
X172321428Y-113280952D01*
X172273809Y-113233333D01*
X172226190Y-113138095D01*
X172226190Y-113042857D01*
X172273809Y-112947619D01*
X172321428Y-112900000D01*
X172416666Y-112852380D01*
X172654761Y-112852380D01*
X172797619Y-112900000D01*
X173226190Y-113852380D02*
X173226190Y-112852380D01*
X173464285Y-112852380D01*
X173607142Y-112900000D01*
X173702380Y-112995238D01*
X173750000Y-113090476D01*
X173797619Y-113280952D01*
X173797619Y-113423809D01*
X173750000Y-113614285D01*
X173702380Y-113709523D01*
X173607142Y-113804761D01*
X173464285Y-113852380D01*
X173226190Y-113852380D01*
X174226190Y-113852380D02*
X174226190Y-112852380D01*
X172214285Y-111304761D02*
X172357142Y-111352380D01*
X172595238Y-111352380D01*
X172690476Y-111304761D01*
X172738095Y-111257142D01*
X172785714Y-111161904D01*
X172785714Y-111066666D01*
X172738095Y-110971428D01*
X172690476Y-110923809D01*
X172595238Y-110876190D01*
X172404761Y-110828571D01*
X172309523Y-110780952D01*
X172261904Y-110733333D01*
X172214285Y-110638095D01*
X172214285Y-110542857D01*
X172261904Y-110447619D01*
X172309523Y-110400000D01*
X172404761Y-110352380D01*
X172642857Y-110352380D01*
X172785714Y-110400000D01*
X173785714Y-111257142D02*
X173738095Y-111304761D01*
X173595238Y-111352380D01*
X173500000Y-111352380D01*
X173357142Y-111304761D01*
X173261904Y-111209523D01*
X173214285Y-111114285D01*
X173166666Y-110923809D01*
X173166666Y-110780952D01*
X173214285Y-110590476D01*
X173261904Y-110495238D01*
X173357142Y-110400000D01*
X173500000Y-110352380D01*
X173595238Y-110352380D01*
X173738095Y-110400000D01*
X173785714Y-110447619D01*
X174214285Y-111352380D02*
X174214285Y-110352380D01*
X174785714Y-111352380D02*
X174357142Y-110780952D01*
X174785714Y-110352380D02*
X174214285Y-110923809D01*
X172738095Y-107900000D02*
X172642857Y-107852380D01*
X172500000Y-107852380D01*
X172357142Y-107900000D01*
X172261904Y-107995238D01*
X172214285Y-108090476D01*
X172166666Y-108280952D01*
X172166666Y-108423809D01*
X172214285Y-108614285D01*
X172261904Y-108709523D01*
X172357142Y-108804761D01*
X172500000Y-108852380D01*
X172595238Y-108852380D01*
X172738095Y-108804761D01*
X172785714Y-108757142D01*
X172785714Y-108423809D01*
X172595238Y-108423809D01*
X173214285Y-108852380D02*
X173214285Y-107852380D01*
X173785714Y-108852380D01*
X173785714Y-107852380D01*
X174261904Y-108852380D02*
X174261904Y-107852380D01*
X174500000Y-107852380D01*
X174642857Y-107900000D01*
X174738095Y-107995238D01*
X174785714Y-108090476D01*
X174833333Y-108280952D01*
X174833333Y-108423809D01*
X174785714Y-108614285D01*
X174738095Y-108709523D01*
X174642857Y-108804761D01*
X174500000Y-108852380D01*
X174261904Y-108852380D01*
X172559523Y-105602380D02*
X172083333Y-105602380D01*
X172035714Y-106078571D01*
X172083333Y-106030952D01*
X172178571Y-105983333D01*
X172416666Y-105983333D01*
X172511904Y-106030952D01*
X172559523Y-106078571D01*
X172607142Y-106173809D01*
X172607142Y-106411904D01*
X172559523Y-106507142D01*
X172511904Y-106554761D01*
X172416666Y-106602380D01*
X172178571Y-106602380D01*
X172083333Y-106554761D01*
X172035714Y-106507142D01*
X172892857Y-105602380D02*
X173226190Y-106602380D01*
X173559523Y-105602380D01*
X172821428Y-102507142D02*
X172773809Y-102554761D01*
X172630952Y-102602380D01*
X172535714Y-102602380D01*
X172392857Y-102554761D01*
X172297619Y-102459523D01*
X172250000Y-102364285D01*
X172202380Y-102173809D01*
X172202380Y-102030952D01*
X172250000Y-101840476D01*
X172297619Y-101745238D01*
X172392857Y-101650000D01*
X172535714Y-101602380D01*
X172630952Y-101602380D01*
X172773809Y-101650000D01*
X172821428Y-101697619D01*
X173202380Y-102316666D02*
X173678571Y-102316666D01*
X173107142Y-102602380D02*
X173440476Y-101602380D01*
X173773809Y-102602380D01*
X174107142Y-102602380D02*
X174107142Y-101602380D01*
X174678571Y-102602380D01*
X174678571Y-101602380D01*
X174916666Y-102697619D02*
X175678571Y-102697619D01*
X176392857Y-102602380D02*
X175916666Y-102602380D01*
X175916666Y-101602380D01*
X172702380Y-100007142D02*
X172654761Y-100054761D01*
X172511904Y-100102380D01*
X172416666Y-100102380D01*
X172273809Y-100054761D01*
X172178571Y-99959523D01*
X172130952Y-99864285D01*
X172083333Y-99673809D01*
X172083333Y-99530952D01*
X172130952Y-99340476D01*
X172178571Y-99245238D01*
X172273809Y-99150000D01*
X172416666Y-99102380D01*
X172511904Y-99102380D01*
X172654761Y-99150000D01*
X172702380Y-99197619D01*
X173083333Y-99816666D02*
X173559523Y-99816666D01*
X172988095Y-100102380D02*
X173321428Y-99102380D01*
X173654761Y-100102380D01*
X173988095Y-100102380D02*
X173988095Y-99102380D01*
X174559523Y-100102380D01*
X174559523Y-99102380D01*
X174797619Y-100197619D02*
X175559523Y-100197619D01*
X175797619Y-100102380D02*
X175797619Y-99102380D01*
X175797619Y-99578571D02*
X176369047Y-99578571D01*
X176369047Y-100102380D02*
X176369047Y-99102380D01*
X172738095Y-96400000D02*
X172642857Y-96352380D01*
X172500000Y-96352380D01*
X172357142Y-96400000D01*
X172261904Y-96495238D01*
X172214285Y-96590476D01*
X172166666Y-96780952D01*
X172166666Y-96923809D01*
X172214285Y-97114285D01*
X172261904Y-97209523D01*
X172357142Y-97304761D01*
X172500000Y-97352380D01*
X172595238Y-97352380D01*
X172738095Y-97304761D01*
X172785714Y-97257142D01*
X172785714Y-96923809D01*
X172595238Y-96923809D01*
X173214285Y-97352380D02*
X173214285Y-96352380D01*
X173785714Y-97352380D01*
X173785714Y-96352380D01*
X174261904Y-97352380D02*
X174261904Y-96352380D01*
X174500000Y-96352380D01*
X174642857Y-96400000D01*
X174738095Y-96495238D01*
X174785714Y-96590476D01*
X174833333Y-96780952D01*
X174833333Y-96923809D01*
X174785714Y-97114285D01*
X174738095Y-97209523D01*
X174642857Y-97304761D01*
X174500000Y-97352380D01*
X174261904Y-97352380D01*
X172630952Y-94852380D02*
X172059523Y-94852380D01*
X172345238Y-94852380D02*
X172345238Y-93852380D01*
X172250000Y-93995238D01*
X172154761Y-94090476D01*
X172059523Y-94138095D01*
X173011904Y-93947619D02*
X173059523Y-93900000D01*
X173154761Y-93852380D01*
X173392857Y-93852380D01*
X173488095Y-93900000D01*
X173535714Y-93947619D01*
X173583333Y-94042857D01*
X173583333Y-94138095D01*
X173535714Y-94280952D01*
X172964285Y-94852380D01*
X173583333Y-94852380D01*
X173869047Y-93852380D02*
X174202380Y-94852380D01*
X174535714Y-93852380D01*
X138000000Y-74382142D02*
X137952380Y-74429761D01*
X137809523Y-74477380D01*
X137714285Y-74477380D01*
X137571428Y-74429761D01*
X137476190Y-74334523D01*
X137428571Y-74239285D01*
X137380952Y-74048809D01*
X137380952Y-73905952D01*
X137428571Y-73715476D01*
X137476190Y-73620238D01*
X137571428Y-73525000D01*
X137714285Y-73477380D01*
X137809523Y-73477380D01*
X137952380Y-73525000D01*
X138000000Y-73572619D01*
X138380952Y-74191666D02*
X138857142Y-74191666D01*
X138285714Y-74477380D02*
X138619047Y-73477380D01*
X138952380Y-74477380D01*
X139285714Y-74477380D02*
X139285714Y-73477380D01*
X139857142Y-74477380D01*
X139857142Y-73477380D01*
X140952380Y-73477380D02*
X141523809Y-73477380D01*
X141238095Y-74477380D02*
X141238095Y-73477380D01*
X141857142Y-74477380D02*
X141857142Y-73810714D01*
X141857142Y-74001190D02*
X141904761Y-73905952D01*
X141952380Y-73858333D01*
X142047619Y-73810714D01*
X142142857Y-73810714D01*
X142904761Y-74477380D02*
X142904761Y-73953571D01*
X142857142Y-73858333D01*
X142761904Y-73810714D01*
X142571428Y-73810714D01*
X142476190Y-73858333D01*
X142904761Y-74429761D02*
X142809523Y-74477380D01*
X142571428Y-74477380D01*
X142476190Y-74429761D01*
X142428571Y-74334523D01*
X142428571Y-74239285D01*
X142476190Y-74144047D01*
X142571428Y-74096428D01*
X142809523Y-74096428D01*
X142904761Y-74048809D01*
X143380952Y-73810714D02*
X143380952Y-74477380D01*
X143380952Y-73905952D02*
X143428571Y-73858333D01*
X143523809Y-73810714D01*
X143666666Y-73810714D01*
X143761904Y-73858333D01*
X143809523Y-73953571D01*
X143809523Y-74477380D01*
X144238095Y-74429761D02*
X144333333Y-74477380D01*
X144523809Y-74477380D01*
X144619047Y-74429761D01*
X144666666Y-74334523D01*
X144666666Y-74286904D01*
X144619047Y-74191666D01*
X144523809Y-74144047D01*
X144380952Y-74144047D01*
X144285714Y-74096428D01*
X144238095Y-74001190D01*
X144238095Y-73953571D01*
X144285714Y-73858333D01*
X144380952Y-73810714D01*
X144523809Y-73810714D01*
X144619047Y-73858333D01*
X145523809Y-74429761D02*
X145428571Y-74477380D01*
X145238095Y-74477380D01*
X145142857Y-74429761D01*
X145095238Y-74382142D01*
X145047619Y-74286904D01*
X145047619Y-74001190D01*
X145095238Y-73905952D01*
X145142857Y-73858333D01*
X145238095Y-73810714D01*
X145428571Y-73810714D01*
X145523809Y-73858333D01*
X146333333Y-74429761D02*
X146238095Y-74477380D01*
X146047619Y-74477380D01*
X145952380Y-74429761D01*
X145904761Y-74334523D01*
X145904761Y-73953571D01*
X145952380Y-73858333D01*
X146047619Y-73810714D01*
X146238095Y-73810714D01*
X146333333Y-73858333D01*
X146380952Y-73953571D01*
X146380952Y-74048809D01*
X145904761Y-74144047D01*
X146809523Y-74477380D02*
X146809523Y-73810714D01*
X146809523Y-73477380D02*
X146761904Y-73525000D01*
X146809523Y-73572619D01*
X146857142Y-73525000D01*
X146809523Y-73477380D01*
X146809523Y-73572619D01*
X147190476Y-73810714D02*
X147428571Y-74477380D01*
X147666666Y-73810714D01*
X148428571Y-74429761D02*
X148333333Y-74477380D01*
X148142857Y-74477380D01*
X148047619Y-74429761D01*
X148000000Y-74334523D01*
X148000000Y-73953571D01*
X148047619Y-73858333D01*
X148142857Y-73810714D01*
X148333333Y-73810714D01*
X148428571Y-73858333D01*
X148476190Y-73953571D01*
X148476190Y-74048809D01*
X148000000Y-74144047D01*
X148904761Y-74477380D02*
X148904761Y-73810714D01*
X148904761Y-74001190D02*
X148952380Y-73905952D01*
X149000000Y-73858333D01*
X149095238Y-73810714D01*
X149190476Y-73810714D01*
X150190476Y-73810714D02*
X150380952Y-74477380D01*
X150571428Y-74001190D01*
X150761904Y-74477380D01*
X150952380Y-73810714D01*
X151333333Y-74477380D02*
X151333333Y-73810714D01*
X151333333Y-73477380D02*
X151285714Y-73525000D01*
X151333333Y-73572619D01*
X151380952Y-73525000D01*
X151333333Y-73477380D01*
X151333333Y-73572619D01*
X151666666Y-73810714D02*
X152047619Y-73810714D01*
X151809523Y-73477380D02*
X151809523Y-74334523D01*
X151857142Y-74429761D01*
X151952380Y-74477380D01*
X152047619Y-74477380D01*
X152380952Y-74477380D02*
X152380952Y-73477380D01*
X152809523Y-74477380D02*
X152809523Y-73953571D01*
X152761904Y-73858333D01*
X152666666Y-73810714D01*
X152523809Y-73810714D01*
X152428571Y-73858333D01*
X152380952Y-73905952D01*
X154047619Y-74477380D02*
X154047619Y-73477380D01*
X154428571Y-73477380D01*
X154523809Y-73525000D01*
X154571428Y-73572619D01*
X154619047Y-73667857D01*
X154619047Y-73810714D01*
X154571428Y-73905952D01*
X154523809Y-73953571D01*
X154428571Y-74001190D01*
X154047619Y-74001190D01*
X155047619Y-74477380D02*
X155047619Y-73477380D01*
X156095238Y-74382142D02*
X156047619Y-74429761D01*
X155904761Y-74477380D01*
X155809523Y-74477380D01*
X155666666Y-74429761D01*
X155571428Y-74334523D01*
X155523809Y-74239285D01*
X155476190Y-74048809D01*
X155476190Y-73905952D01*
X155523809Y-73715476D01*
X155571428Y-73620238D01*
X155666666Y-73525000D01*
X155809523Y-73477380D01*
X155904761Y-73477380D01*
X156047619Y-73525000D01*
X156095238Y-73572619D01*
X157047619Y-74477380D02*
X156476190Y-74477380D01*
X156761904Y-74477380D02*
X156761904Y-73477380D01*
X156666666Y-73620238D01*
X156571428Y-73715476D01*
X156476190Y-73763095D01*
X157619047Y-73905952D02*
X157523809Y-73858333D01*
X157476190Y-73810714D01*
X157428571Y-73715476D01*
X157428571Y-73667857D01*
X157476190Y-73572619D01*
X157523809Y-73525000D01*
X157619047Y-73477380D01*
X157809523Y-73477380D01*
X157904761Y-73525000D01*
X157952380Y-73572619D01*
X157999999Y-73667857D01*
X157999999Y-73715476D01*
X157952380Y-73810714D01*
X157904761Y-73858333D01*
X157809523Y-73905952D01*
X157619047Y-73905952D01*
X157523809Y-73953571D01*
X157476190Y-74001190D01*
X157428571Y-74096428D01*
X157428571Y-74286904D01*
X157476190Y-74382142D01*
X157523809Y-74429761D01*
X157619047Y-74477380D01*
X157809523Y-74477380D01*
X157904761Y-74429761D01*
X157952380Y-74382142D01*
X157999999Y-74286904D01*
X157999999Y-74096428D01*
X157952380Y-74001190D01*
X157904761Y-73953571D01*
X157809523Y-73905952D01*
X158761904Y-73953571D02*
X158428571Y-73953571D01*
X158428571Y-74477380D02*
X158428571Y-73477380D01*
X158904761Y-73477380D01*
X159238095Y-73572619D02*
X159285714Y-73525000D01*
X159380952Y-73477380D01*
X159619047Y-73477380D01*
X159714285Y-73525000D01*
X159761904Y-73572619D01*
X159809523Y-73667857D01*
X159809523Y-73763095D01*
X159761904Y-73905952D01*
X159190476Y-74477380D01*
X159809523Y-74477380D01*
X160714285Y-73477380D02*
X160238095Y-73477380D01*
X160190476Y-73953571D01*
X160238095Y-73905952D01*
X160333333Y-73858333D01*
X160571428Y-73858333D01*
X160666666Y-73905952D01*
X160714285Y-73953571D01*
X160761904Y-74048809D01*
X160761904Y-74286904D01*
X160714285Y-74382142D01*
X160666666Y-74429761D01*
X160571428Y-74477380D01*
X160333333Y-74477380D01*
X160238095Y-74429761D01*
X160190476Y-74382142D01*
X161333333Y-73905952D02*
X161238095Y-73858333D01*
X161190476Y-73810714D01*
X161142857Y-73715476D01*
X161142857Y-73667857D01*
X161190476Y-73572619D01*
X161238095Y-73525000D01*
X161333333Y-73477380D01*
X161523809Y-73477380D01*
X161619047Y-73525000D01*
X161666666Y-73572619D01*
X161714285Y-73667857D01*
X161714285Y-73715476D01*
X161666666Y-73810714D01*
X161619047Y-73858333D01*
X161523809Y-73905952D01*
X161333333Y-73905952D01*
X161238095Y-73953571D01*
X161190476Y-74001190D01*
X161142857Y-74096428D01*
X161142857Y-74286904D01*
X161190476Y-74382142D01*
X161238095Y-74429761D01*
X161333333Y-74477380D01*
X161523809Y-74477380D01*
X161619047Y-74429761D01*
X161666666Y-74382142D01*
X161714285Y-74286904D01*
X161714285Y-74096428D01*
X161666666Y-74001190D01*
X161619047Y-73953571D01*
X161523809Y-73905952D01*
X162333333Y-73477380D02*
X162428571Y-73477380D01*
X162523809Y-73525000D01*
X162571428Y-73572619D01*
X162619047Y-73667857D01*
X162666666Y-73858333D01*
X162666666Y-74096428D01*
X162619047Y-74286904D01*
X162571428Y-74382142D01*
X162523809Y-74429761D01*
X162428571Y-74477380D01*
X162333333Y-74477380D01*
X162238095Y-74429761D01*
X162190476Y-74382142D01*
X162142857Y-74286904D01*
X162095238Y-74096428D01*
X162095238Y-73858333D01*
X162142857Y-73667857D01*
X162190476Y-73572619D01*
X162238095Y-73525000D01*
X162333333Y-73477380D01*
X163857142Y-74477380D02*
X163857142Y-73477380D01*
X164190476Y-74191666D01*
X164523809Y-73477380D01*
X164523809Y-74477380D01*
X165571428Y-74382142D02*
X165523809Y-74429761D01*
X165380952Y-74477380D01*
X165285714Y-74477380D01*
X165142857Y-74429761D01*
X165047619Y-74334523D01*
X164999999Y-74239285D01*
X164952380Y-74048809D01*
X164952380Y-73905952D01*
X164999999Y-73715476D01*
X165047619Y-73620238D01*
X165142857Y-73525000D01*
X165285714Y-73477380D01*
X165380952Y-73477380D01*
X165523809Y-73525000D01*
X165571428Y-73572619D01*
X165999999Y-73477380D02*
X165999999Y-74286904D01*
X166047619Y-74382142D01*
X166095238Y-74429761D01*
X166190476Y-74477380D01*
X166380952Y-74477380D01*
X166476190Y-74429761D01*
X166523809Y-74382142D01*
X166571428Y-74286904D01*
X166571428Y-73477380D01*
X141857142Y-76227380D02*
X141857142Y-75227380D01*
X142095238Y-75227380D01*
X142238095Y-75275000D01*
X142333333Y-75370238D01*
X142380952Y-75465476D01*
X142428571Y-75655952D01*
X142428571Y-75798809D01*
X142380952Y-75989285D01*
X142333333Y-76084523D01*
X142238095Y-76179761D01*
X142095238Y-76227380D01*
X141857142Y-76227380D01*
X143238095Y-76179761D02*
X143142857Y-76227380D01*
X142952380Y-76227380D01*
X142857142Y-76179761D01*
X142809523Y-76084523D01*
X142809523Y-75703571D01*
X142857142Y-75608333D01*
X142952380Y-75560714D01*
X143142857Y-75560714D01*
X143238095Y-75608333D01*
X143285714Y-75703571D01*
X143285714Y-75798809D01*
X142809523Y-75894047D01*
X143666666Y-76179761D02*
X143761904Y-76227380D01*
X143952380Y-76227380D01*
X144047619Y-76179761D01*
X144095238Y-76084523D01*
X144095238Y-76036904D01*
X144047619Y-75941666D01*
X143952380Y-75894047D01*
X143809523Y-75894047D01*
X143714285Y-75846428D01*
X143666666Y-75751190D01*
X143666666Y-75703571D01*
X143714285Y-75608333D01*
X143809523Y-75560714D01*
X143952380Y-75560714D01*
X144047619Y-75608333D01*
X144523809Y-76227380D02*
X144523809Y-75560714D01*
X144523809Y-75227380D02*
X144476190Y-75275000D01*
X144523809Y-75322619D01*
X144571428Y-75275000D01*
X144523809Y-75227380D01*
X144523809Y-75322619D01*
X145428571Y-75560714D02*
X145428571Y-76370238D01*
X145380952Y-76465476D01*
X145333333Y-76513095D01*
X145238095Y-76560714D01*
X145095238Y-76560714D01*
X145000000Y-76513095D01*
X145428571Y-76179761D02*
X145333333Y-76227380D01*
X145142857Y-76227380D01*
X145047619Y-76179761D01*
X145000000Y-76132142D01*
X144952380Y-76036904D01*
X144952380Y-75751190D01*
X145000000Y-75655952D01*
X145047619Y-75608333D01*
X145142857Y-75560714D01*
X145333333Y-75560714D01*
X145428571Y-75608333D01*
X145904761Y-75560714D02*
X145904761Y-76227380D01*
X145904761Y-75655952D02*
X145952380Y-75608333D01*
X146047619Y-75560714D01*
X146190476Y-75560714D01*
X146285714Y-75608333D01*
X146333333Y-75703571D01*
X146333333Y-76227380D01*
X147190476Y-76179761D02*
X147095238Y-76227380D01*
X146904761Y-76227380D01*
X146809523Y-76179761D01*
X146761904Y-76084523D01*
X146761904Y-75703571D01*
X146809523Y-75608333D01*
X146904761Y-75560714D01*
X147095238Y-75560714D01*
X147190476Y-75608333D01*
X147238095Y-75703571D01*
X147238095Y-75798809D01*
X146761904Y-75894047D01*
X148095238Y-76227380D02*
X148095238Y-75227380D01*
X148095238Y-76179761D02*
X148000000Y-76227380D01*
X147809523Y-76227380D01*
X147714285Y-76179761D01*
X147666666Y-76132142D01*
X147619047Y-76036904D01*
X147619047Y-75751190D01*
X147666666Y-75655952D01*
X147714285Y-75608333D01*
X147809523Y-75560714D01*
X148000000Y-75560714D01*
X148095238Y-75608333D01*
X149666666Y-75703571D02*
X149809523Y-75751190D01*
X149857142Y-75798809D01*
X149904761Y-75894047D01*
X149904761Y-76036904D01*
X149857142Y-76132142D01*
X149809523Y-76179761D01*
X149714285Y-76227380D01*
X149333333Y-76227380D01*
X149333333Y-75227380D01*
X149666666Y-75227380D01*
X149761904Y-75275000D01*
X149809523Y-75322619D01*
X149857142Y-75417857D01*
X149857142Y-75513095D01*
X149809523Y-75608333D01*
X149761904Y-75655952D01*
X149666666Y-75703571D01*
X149333333Y-75703571D01*
X150238095Y-75560714D02*
X150476190Y-76227380D01*
X150714285Y-75560714D02*
X150476190Y-76227380D01*
X150380952Y-76465476D01*
X150333333Y-76513095D01*
X150238095Y-76560714D01*
X151095238Y-76132142D02*
X151142857Y-76179761D01*
X151095238Y-76227380D01*
X151047619Y-76179761D01*
X151095238Y-76132142D01*
X151095238Y-76227380D01*
X151095238Y-75608333D02*
X151142857Y-75655952D01*
X151095238Y-75703571D01*
X151047619Y-75655952D01*
X151095238Y-75608333D01*
X151095238Y-75703571D01*
X152523809Y-75751190D02*
X152523809Y-76227380D01*
X152190476Y-75227380D02*
X152523809Y-75751190D01*
X152857142Y-75227380D01*
X153619047Y-76227380D02*
X153619047Y-75703571D01*
X153571428Y-75608333D01*
X153476190Y-75560714D01*
X153285714Y-75560714D01*
X153190476Y-75608333D01*
X153619047Y-76179761D02*
X153523809Y-76227380D01*
X153285714Y-76227380D01*
X153190476Y-76179761D01*
X153142857Y-76084523D01*
X153142857Y-75989285D01*
X153190476Y-75894047D01*
X153285714Y-75846428D01*
X153523809Y-75846428D01*
X153619047Y-75798809D01*
X154047619Y-76179761D02*
X154142857Y-76227380D01*
X154333333Y-76227380D01*
X154428571Y-76179761D01*
X154476190Y-76084523D01*
X154476190Y-76036904D01*
X154428571Y-75941666D01*
X154333333Y-75894047D01*
X154190476Y-75894047D01*
X154095238Y-75846428D01*
X154047619Y-75751190D01*
X154047619Y-75703571D01*
X154095238Y-75608333D01*
X154190476Y-75560714D01*
X154333333Y-75560714D01*
X154428571Y-75608333D01*
X154904761Y-76227380D02*
X154904761Y-75560714D01*
X154904761Y-75227380D02*
X154857142Y-75275000D01*
X154904761Y-75322619D01*
X154952380Y-75275000D01*
X154904761Y-75227380D01*
X154904761Y-75322619D01*
X155380952Y-76227380D02*
X155380952Y-75560714D01*
X155380952Y-75751190D02*
X155428571Y-75655952D01*
X155476190Y-75608333D01*
X155571428Y-75560714D01*
X155666666Y-75560714D01*
X156761904Y-76227380D02*
X156761904Y-75227380D01*
X156761904Y-75703571D02*
X157333333Y-75703571D01*
X157333333Y-76227380D02*
X157333333Y-75227380D01*
X158238095Y-76227380D02*
X158238095Y-75703571D01*
X158190476Y-75608333D01*
X158095238Y-75560714D01*
X157904761Y-75560714D01*
X157809523Y-75608333D01*
X158238095Y-76179761D02*
X158142857Y-76227380D01*
X157904761Y-76227380D01*
X157809523Y-76179761D01*
X157761904Y-76084523D01*
X157761904Y-75989285D01*
X157809523Y-75894047D01*
X157904761Y-75846428D01*
X158142857Y-75846428D01*
X158238095Y-75798809D01*
X158666666Y-76179761D02*
X158761904Y-76227380D01*
X158952380Y-76227380D01*
X159047619Y-76179761D01*
X159095238Y-76084523D01*
X159095238Y-76036904D01*
X159047619Y-75941666D01*
X158952380Y-75894047D01*
X158809523Y-75894047D01*
X158714285Y-75846428D01*
X158666666Y-75751190D01*
X158666666Y-75703571D01*
X158714285Y-75608333D01*
X158809523Y-75560714D01*
X158952380Y-75560714D01*
X159047619Y-75608333D01*
X159476190Y-76179761D02*
X159571428Y-76227380D01*
X159761904Y-76227380D01*
X159857142Y-76179761D01*
X159904761Y-76084523D01*
X159904761Y-76036904D01*
X159857142Y-75941666D01*
X159761904Y-75894047D01*
X159619047Y-75894047D01*
X159523809Y-75846428D01*
X159476190Y-75751190D01*
X159476190Y-75703571D01*
X159523809Y-75608333D01*
X159619047Y-75560714D01*
X159761904Y-75560714D01*
X159857142Y-75608333D01*
X160761904Y-76227380D02*
X160761904Y-75703571D01*
X160714285Y-75608333D01*
X160619047Y-75560714D01*
X160428571Y-75560714D01*
X160333333Y-75608333D01*
X160761904Y-76179761D02*
X160666666Y-76227380D01*
X160428571Y-76227380D01*
X160333333Y-76179761D01*
X160285714Y-76084523D01*
X160285714Y-75989285D01*
X160333333Y-75894047D01*
X160428571Y-75846428D01*
X160666666Y-75846428D01*
X160761904Y-75798809D01*
X161238095Y-75560714D02*
X161238095Y-76227380D01*
X161238095Y-75655952D02*
X161285714Y-75608333D01*
X161380952Y-75560714D01*
X161523809Y-75560714D01*
X161619047Y-75608333D01*
X161666666Y-75703571D01*
X161666666Y-76227380D01*
X162142857Y-76132142D02*
X162190476Y-76179761D01*
X162142857Y-76227380D01*
X162095238Y-76179761D01*
X162142857Y-76132142D01*
X162142857Y-76227380D01*
D11*
X129907142Y-147285714D02*
X129007142Y-147285714D01*
X129007142Y-147071428D01*
X129050000Y-146942857D01*
X129135714Y-146857142D01*
X129221428Y-146814285D01*
X129392857Y-146771428D01*
X129521428Y-146771428D01*
X129692857Y-146814285D01*
X129778571Y-146857142D01*
X129864285Y-146942857D01*
X129907142Y-147071428D01*
X129907142Y-147285714D01*
X129864285Y-146042857D02*
X129907142Y-146128571D01*
X129907142Y-146299999D01*
X129864285Y-146385714D01*
X129778571Y-146428571D01*
X129435714Y-146428571D01*
X129350000Y-146385714D01*
X129307142Y-146299999D01*
X129307142Y-146128571D01*
X129350000Y-146042857D01*
X129435714Y-145999999D01*
X129521428Y-145999999D01*
X129607142Y-146428571D01*
X129864285Y-145657142D02*
X129907142Y-145571428D01*
X129907142Y-145399999D01*
X129864285Y-145314285D01*
X129778571Y-145271428D01*
X129735714Y-145271428D01*
X129650000Y-145314285D01*
X129607142Y-145399999D01*
X129607142Y-145528571D01*
X129564285Y-145614285D01*
X129478571Y-145657142D01*
X129435714Y-145657142D01*
X129350000Y-145614285D01*
X129307142Y-145528571D01*
X129307142Y-145399999D01*
X129350000Y-145314285D01*
X129907142Y-144885714D02*
X129307142Y-144885714D01*
X129007142Y-144885714D02*
X129050000Y-144928571D01*
X129092857Y-144885714D01*
X129050000Y-144842857D01*
X129007142Y-144885714D01*
X129092857Y-144885714D01*
X129307142Y-144071428D02*
X130035714Y-144071428D01*
X130121428Y-144114285D01*
X130164285Y-144157142D01*
X130207142Y-144242857D01*
X130207142Y-144371428D01*
X130164285Y-144457142D01*
X129864285Y-144071428D02*
X129907142Y-144157142D01*
X129907142Y-144328571D01*
X129864285Y-144414285D01*
X129821428Y-144457142D01*
X129735714Y-144499999D01*
X129478571Y-144499999D01*
X129392857Y-144457142D01*
X129350000Y-144414285D01*
X129307142Y-144328571D01*
X129307142Y-144157142D01*
X129350000Y-144071428D01*
X129307142Y-143642857D02*
X129907142Y-143642857D01*
X129392857Y-143642857D02*
X129350000Y-143599999D01*
X129307142Y-143514285D01*
X129307142Y-143385714D01*
X129350000Y-143299999D01*
X129435714Y-143257142D01*
X129907142Y-143257142D01*
X129435714Y-141842857D02*
X129435714Y-142142857D01*
X129907142Y-142142857D02*
X129007142Y-142142857D01*
X129007142Y-141714285D01*
X129907142Y-141371428D02*
X129307142Y-141371428D01*
X129007142Y-141371428D02*
X129050000Y-141414285D01*
X129092857Y-141371428D01*
X129050000Y-141328571D01*
X129007142Y-141371428D01*
X129092857Y-141371428D01*
X129907142Y-140814285D02*
X129864285Y-140899999D01*
X129778571Y-140942857D01*
X129007142Y-140942857D01*
X129864285Y-140128571D02*
X129907142Y-140214285D01*
X129907142Y-140385714D01*
X129864285Y-140471428D01*
X129778571Y-140514285D01*
X129435714Y-140514285D01*
X129350000Y-140471428D01*
X129307142Y-140385714D01*
X129307142Y-140214285D01*
X129350000Y-140128571D01*
X129435714Y-140085714D01*
X129521428Y-140085714D01*
X129607142Y-140514285D01*
X129864285Y-139742857D02*
X129907142Y-139657142D01*
X129907142Y-139485714D01*
X129864285Y-139399999D01*
X129778571Y-139357142D01*
X129735714Y-139357142D01*
X129650000Y-139399999D01*
X129607142Y-139485714D01*
X129607142Y-139614285D01*
X129564285Y-139699999D01*
X129478571Y-139742857D01*
X129435714Y-139742857D01*
X129350000Y-139699999D01*
X129307142Y-139614285D01*
X129307142Y-139485714D01*
X129350000Y-139399999D01*
X129821428Y-138971428D02*
X129864285Y-138928571D01*
X129907142Y-138971428D01*
X129864285Y-139014285D01*
X129821428Y-138971428D01*
X129907142Y-138971428D01*
X129350000Y-138971428D02*
X129392857Y-138928571D01*
X129435714Y-138971428D01*
X129392857Y-139014285D01*
X129350000Y-138971428D01*
X129435714Y-138971428D01*
X129907142Y-137857142D02*
X129007142Y-137857142D01*
X129907142Y-137471428D02*
X129435714Y-137471428D01*
X129350000Y-137514285D01*
X129307142Y-137599999D01*
X129307142Y-137728571D01*
X129350000Y-137814285D01*
X129392857Y-137857142D01*
X129307142Y-137171428D02*
X129307142Y-136828571D01*
X129007142Y-137042857D02*
X129778571Y-137042857D01*
X129864285Y-136999999D01*
X129907142Y-136914285D01*
X129907142Y-136828571D01*
X129307142Y-136657142D02*
X129307142Y-136314285D01*
X129007142Y-136528571D02*
X129778571Y-136528571D01*
X129864285Y-136485714D01*
X129907142Y-136399999D01*
X129907142Y-136314285D01*
X129307142Y-136014285D02*
X130207142Y-136014285D01*
X129350000Y-136014285D02*
X129307142Y-135928571D01*
X129307142Y-135757142D01*
X129350000Y-135671428D01*
X129392857Y-135628571D01*
X129478571Y-135585714D01*
X129735714Y-135585714D01*
X129821428Y-135628571D01*
X129864285Y-135671428D01*
X129907142Y-135757142D01*
X129907142Y-135928571D01*
X129864285Y-136014285D01*
X129864285Y-135242857D02*
X129907142Y-135157142D01*
X129907142Y-134985714D01*
X129864285Y-134899999D01*
X129778571Y-134857142D01*
X129735714Y-134857142D01*
X129650000Y-134899999D01*
X129607142Y-134985714D01*
X129607142Y-135114285D01*
X129564285Y-135199999D01*
X129478571Y-135242857D01*
X129435714Y-135242857D01*
X129350000Y-135199999D01*
X129307142Y-135114285D01*
X129307142Y-134985714D01*
X129350000Y-134899999D01*
X129821428Y-134471428D02*
X129864285Y-134428571D01*
X129907142Y-134471428D01*
X129864285Y-134514285D01*
X129821428Y-134471428D01*
X129907142Y-134471428D01*
X129350000Y-134471428D02*
X129392857Y-134428571D01*
X129435714Y-134471428D01*
X129392857Y-134514285D01*
X129350000Y-134471428D01*
X129435714Y-134471428D01*
X128964285Y-133399999D02*
X130121428Y-134171428D01*
X128964285Y-132457142D02*
X130121428Y-133228571D01*
X129307142Y-131771428D02*
X130035714Y-131771428D01*
X130121428Y-131814285D01*
X130164285Y-131857142D01*
X130207142Y-131942857D01*
X130207142Y-132071428D01*
X130164285Y-132157142D01*
X129864285Y-131771428D02*
X129907142Y-131857142D01*
X129907142Y-132028571D01*
X129864285Y-132114285D01*
X129821428Y-132157142D01*
X129735714Y-132199999D01*
X129478571Y-132199999D01*
X129392857Y-132157142D01*
X129350000Y-132114285D01*
X129307142Y-132028571D01*
X129307142Y-131857142D01*
X129350000Y-131771428D01*
X129907142Y-131342857D02*
X129307142Y-131342857D01*
X129007142Y-131342857D02*
X129050000Y-131385714D01*
X129092857Y-131342857D01*
X129050000Y-131299999D01*
X129007142Y-131342857D01*
X129092857Y-131342857D01*
X129307142Y-131042857D02*
X129307142Y-130699999D01*
X129007142Y-130914285D02*
X129778571Y-130914285D01*
X129864285Y-130871428D01*
X129907142Y-130785714D01*
X129907142Y-130699999D01*
X129907142Y-130399999D02*
X129007142Y-130399999D01*
X129907142Y-130014285D02*
X129435714Y-130014285D01*
X129350000Y-130057142D01*
X129307142Y-130142857D01*
X129307142Y-130271428D01*
X129350000Y-130357142D01*
X129392857Y-130399999D01*
X129307142Y-129199999D02*
X129907142Y-129199999D01*
X129307142Y-129585714D02*
X129778571Y-129585714D01*
X129864285Y-129542857D01*
X129907142Y-129457142D01*
X129907142Y-129328571D01*
X129864285Y-129242857D01*
X129821428Y-129199999D01*
X129907142Y-128771428D02*
X129007142Y-128771428D01*
X129350000Y-128771428D02*
X129307142Y-128685714D01*
X129307142Y-128514285D01*
X129350000Y-128428571D01*
X129392857Y-128385714D01*
X129478571Y-128342857D01*
X129735714Y-128342857D01*
X129821428Y-128385714D01*
X129864285Y-128428571D01*
X129907142Y-128514285D01*
X129907142Y-128685714D01*
X129864285Y-128771428D01*
X129821428Y-127957142D02*
X129864285Y-127914285D01*
X129907142Y-127957142D01*
X129864285Y-127999999D01*
X129821428Y-127957142D01*
X129907142Y-127957142D01*
X129864285Y-127142857D02*
X129907142Y-127228571D01*
X129907142Y-127399999D01*
X129864285Y-127485714D01*
X129821428Y-127528571D01*
X129735714Y-127571428D01*
X129478571Y-127571428D01*
X129392857Y-127528571D01*
X129350000Y-127485714D01*
X129307142Y-127399999D01*
X129307142Y-127228571D01*
X129350000Y-127142857D01*
X129907142Y-126628571D02*
X129864285Y-126714285D01*
X129821428Y-126757142D01*
X129735714Y-126799999D01*
X129478571Y-126799999D01*
X129392857Y-126757142D01*
X129350000Y-126714285D01*
X129307142Y-126628571D01*
X129307142Y-126499999D01*
X129350000Y-126414285D01*
X129392857Y-126371428D01*
X129478571Y-126328571D01*
X129735714Y-126328571D01*
X129821428Y-126371428D01*
X129864285Y-126414285D01*
X129907142Y-126499999D01*
X129907142Y-126628571D01*
X129907142Y-125942857D02*
X129307142Y-125942857D01*
X129392857Y-125942857D02*
X129350000Y-125899999D01*
X129307142Y-125814285D01*
X129307142Y-125685714D01*
X129350000Y-125599999D01*
X129435714Y-125557142D01*
X129907142Y-125557142D01*
X129435714Y-125557142D02*
X129350000Y-125514285D01*
X129307142Y-125428571D01*
X129307142Y-125299999D01*
X129350000Y-125214285D01*
X129435714Y-125171428D01*
X129907142Y-125171428D01*
X128964285Y-124099999D02*
X130121428Y-124871428D01*
X129307142Y-123885714D02*
X129907142Y-123671428D01*
X129307142Y-123457142D02*
X129907142Y-123671428D01*
X130121428Y-123757142D01*
X130164285Y-123799999D01*
X130207142Y-123885714D01*
X129907142Y-122728571D02*
X129435714Y-122728571D01*
X129350000Y-122771428D01*
X129307142Y-122857142D01*
X129307142Y-123028571D01*
X129350000Y-123114285D01*
X129864285Y-122728571D02*
X129907142Y-122814285D01*
X129907142Y-123028571D01*
X129864285Y-123114285D01*
X129778571Y-123157142D01*
X129692857Y-123157142D01*
X129607142Y-123114285D01*
X129564285Y-123028571D01*
X129564285Y-122814285D01*
X129521428Y-122728571D01*
X129864285Y-122342857D02*
X129907142Y-122257142D01*
X129907142Y-122085714D01*
X129864285Y-121999999D01*
X129778571Y-121957142D01*
X129735714Y-121957142D01*
X129650000Y-121999999D01*
X129607142Y-122085714D01*
X129607142Y-122214285D01*
X129564285Y-122299999D01*
X129478571Y-122342857D01*
X129435714Y-122342857D01*
X129350000Y-122299999D01*
X129307142Y-122214285D01*
X129307142Y-122085714D01*
X129350000Y-121999999D01*
X129907142Y-121571428D02*
X129307142Y-121571428D01*
X129007142Y-121571428D02*
X129050000Y-121614285D01*
X129092857Y-121571428D01*
X129050000Y-121528571D01*
X129007142Y-121571428D01*
X129092857Y-121571428D01*
X129907142Y-121142857D02*
X129307142Y-121142857D01*
X129478571Y-121142857D02*
X129392857Y-121099999D01*
X129350000Y-121057142D01*
X129307142Y-120971428D01*
X129307142Y-120885714D01*
X129564285Y-120585714D02*
X129564285Y-119899999D01*
X129907142Y-119471428D02*
X129007142Y-119471428D01*
X129564285Y-119385714D02*
X129907142Y-119128571D01*
X129307142Y-119128571D02*
X129650000Y-119471428D01*
X129907142Y-118742857D02*
X129007142Y-118742857D01*
X129907142Y-118357142D02*
X129435714Y-118357142D01*
X129350000Y-118399999D01*
X129307142Y-118485714D01*
X129307142Y-118614285D01*
X129350000Y-118699999D01*
X129392857Y-118742857D01*
X129907142Y-117928571D02*
X129307142Y-117928571D01*
X129007142Y-117928571D02*
X129050000Y-117971428D01*
X129092857Y-117928571D01*
X129050000Y-117885714D01*
X129007142Y-117928571D01*
X129092857Y-117928571D01*
X129907142Y-117371428D02*
X129864285Y-117457142D01*
X129778571Y-117499999D01*
X129007142Y-117499999D01*
X129307142Y-117028571D02*
X130078571Y-117028571D01*
X130164285Y-117071428D01*
X130207142Y-117157142D01*
X130207142Y-117199999D01*
X129007142Y-117028571D02*
X129050000Y-117071428D01*
X129092857Y-117028571D01*
X129050000Y-116985714D01*
X129007142Y-117028571D01*
X129092857Y-117028571D01*
X129907142Y-116599999D02*
X129307142Y-116599999D01*
X129007142Y-116599999D02*
X129050000Y-116642857D01*
X129092857Y-116599999D01*
X129050000Y-116557142D01*
X129007142Y-116599999D01*
X129092857Y-116599999D01*
X129564285Y-116171428D02*
X129564285Y-115485714D01*
X129007142Y-114671428D02*
X129007142Y-114842857D01*
X129050000Y-114928571D01*
X129092857Y-114971428D01*
X129221428Y-115057142D01*
X129392857Y-115099999D01*
X129735714Y-115099999D01*
X129821428Y-115057142D01*
X129864285Y-115014285D01*
X129907142Y-114928571D01*
X129907142Y-114757142D01*
X129864285Y-114671428D01*
X129821428Y-114628571D01*
X129735714Y-114585714D01*
X129521428Y-114585714D01*
X129435714Y-114628571D01*
X129392857Y-114671428D01*
X129350000Y-114757142D01*
X129350000Y-114928571D01*
X129392857Y-115014285D01*
X129435714Y-115057142D01*
X129521428Y-115099999D01*
X129307142Y-113814285D02*
X129907142Y-113814285D01*
X128964285Y-114028571D02*
X129607142Y-114242857D01*
X129607142Y-113685714D01*
X128964285Y-112699999D02*
X130121428Y-113471428D01*
X129821428Y-111885714D02*
X129864285Y-111928571D01*
X129907142Y-112057142D01*
X129907142Y-112142857D01*
X129864285Y-112271428D01*
X129778571Y-112357142D01*
X129692857Y-112399999D01*
X129521428Y-112442857D01*
X129392857Y-112442857D01*
X129221428Y-112399999D01*
X129135714Y-112357142D01*
X129050000Y-112271428D01*
X129007142Y-112142857D01*
X129007142Y-112057142D01*
X129050000Y-111928571D01*
X129092857Y-111885714D01*
X129650000Y-111542857D02*
X129650000Y-111114285D01*
X129907142Y-111628571D02*
X129007142Y-111328571D01*
X129907142Y-111028571D01*
X129907142Y-110728571D02*
X129007142Y-110728571D01*
X129907142Y-110214285D01*
X129007142Y-110214285D01*
X129564285Y-109785714D02*
X129564285Y-109099999D01*
X129007142Y-108799999D02*
X129007142Y-108285714D01*
X129907142Y-108542857D02*
X129007142Y-108542857D01*
X129907142Y-107985714D02*
X129307142Y-107985714D01*
X129478571Y-107985714D02*
X129392857Y-107942857D01*
X129350000Y-107899999D01*
X129307142Y-107814285D01*
X129307142Y-107728571D01*
X129907142Y-107042857D02*
X129435714Y-107042857D01*
X129350000Y-107085714D01*
X129307142Y-107171428D01*
X129307142Y-107342857D01*
X129350000Y-107428571D01*
X129864285Y-107042857D02*
X129907142Y-107128571D01*
X129907142Y-107342857D01*
X129864285Y-107428571D01*
X129778571Y-107471428D01*
X129692857Y-107471428D01*
X129607142Y-107428571D01*
X129564285Y-107342857D01*
X129564285Y-107128571D01*
X129521428Y-107042857D01*
X129307142Y-106614285D02*
X129907142Y-106614285D01*
X129392857Y-106614285D02*
X129350000Y-106571428D01*
X129307142Y-106485714D01*
X129307142Y-106357142D01*
X129350000Y-106271428D01*
X129435714Y-106228571D01*
X129907142Y-106228571D01*
X129864285Y-105842857D02*
X129907142Y-105757142D01*
X129907142Y-105585714D01*
X129864285Y-105499999D01*
X129778571Y-105457142D01*
X129735714Y-105457142D01*
X129650000Y-105499999D01*
X129607142Y-105585714D01*
X129607142Y-105714285D01*
X129564285Y-105799999D01*
X129478571Y-105842857D01*
X129435714Y-105842857D01*
X129350000Y-105799999D01*
X129307142Y-105714285D01*
X129307142Y-105585714D01*
X129350000Y-105499999D01*
X129864285Y-104685714D02*
X129907142Y-104771428D01*
X129907142Y-104942857D01*
X129864285Y-105028571D01*
X129821428Y-105071428D01*
X129735714Y-105114285D01*
X129478571Y-105114285D01*
X129392857Y-105071428D01*
X129350000Y-105028571D01*
X129307142Y-104942857D01*
X129307142Y-104771428D01*
X129350000Y-104685714D01*
X129864285Y-103957142D02*
X129907142Y-104042857D01*
X129907142Y-104214285D01*
X129864285Y-104299999D01*
X129778571Y-104342857D01*
X129435714Y-104342857D01*
X129350000Y-104299999D01*
X129307142Y-104214285D01*
X129307142Y-104042857D01*
X129350000Y-103957142D01*
X129435714Y-103914285D01*
X129521428Y-103914285D01*
X129607142Y-104342857D01*
X129907142Y-103528571D02*
X129307142Y-103528571D01*
X129007142Y-103528571D02*
X129050000Y-103571428D01*
X129092857Y-103528571D01*
X129050000Y-103485714D01*
X129007142Y-103528571D01*
X129092857Y-103528571D01*
X129307142Y-103185714D02*
X129907142Y-102971428D01*
X129307142Y-102757142D01*
X129864285Y-102071428D02*
X129907142Y-102157142D01*
X129907142Y-102328571D01*
X129864285Y-102414285D01*
X129778571Y-102457142D01*
X129435714Y-102457142D01*
X129350000Y-102414285D01*
X129307142Y-102328571D01*
X129307142Y-102157142D01*
X129350000Y-102071428D01*
X129435714Y-102028571D01*
X129521428Y-102028571D01*
X129607142Y-102457142D01*
X129907142Y-101642857D02*
X129307142Y-101642857D01*
X129478571Y-101642857D02*
X129392857Y-101599999D01*
X129350000Y-101557142D01*
X129307142Y-101471428D01*
X129307142Y-101385714D01*
X129564285Y-101085714D02*
X129564285Y-100399999D01*
X129307142Y-100057142D02*
X129907142Y-99885714D01*
X129478571Y-99714285D01*
X129907142Y-99542857D01*
X129307142Y-99371428D01*
X129907142Y-99028571D02*
X129307142Y-99028571D01*
X129007142Y-99028571D02*
X129050000Y-99071428D01*
X129092857Y-99028571D01*
X129050000Y-98985714D01*
X129007142Y-99028571D01*
X129092857Y-99028571D01*
X129307142Y-98728571D02*
X129307142Y-98385714D01*
X129007142Y-98599999D02*
X129778571Y-98599999D01*
X129864285Y-98557142D01*
X129907142Y-98471428D01*
X129907142Y-98385714D01*
X129907142Y-98085714D02*
X129007142Y-98085714D01*
X129907142Y-97699999D02*
X129435714Y-97699999D01*
X129350000Y-97742857D01*
X129307142Y-97828571D01*
X129307142Y-97957142D01*
X129350000Y-98042857D01*
X129392857Y-98085714D01*
X129564285Y-97271428D02*
X129564285Y-96585714D01*
X129907142Y-96157142D02*
X129007142Y-96157142D01*
X129007142Y-95814285D01*
X129050000Y-95728571D01*
X129092857Y-95685714D01*
X129178571Y-95642857D01*
X129307142Y-95642857D01*
X129392857Y-95685714D01*
X129435714Y-95728571D01*
X129478571Y-95814285D01*
X129478571Y-96157142D01*
X129907142Y-95257142D02*
X129007142Y-95257142D01*
X129821428Y-94314285D02*
X129864285Y-94357142D01*
X129907142Y-94485714D01*
X129907142Y-94571428D01*
X129864285Y-94699999D01*
X129778571Y-94785714D01*
X129692857Y-94828571D01*
X129521428Y-94871428D01*
X129392857Y-94871428D01*
X129221428Y-94828571D01*
X129135714Y-94785714D01*
X129050000Y-94699999D01*
X129007142Y-94571428D01*
X129007142Y-94485714D01*
X129050000Y-94357142D01*
X129092857Y-94314285D01*
X129907142Y-93457142D02*
X129907142Y-93971428D01*
X129907142Y-93714285D02*
X129007142Y-93714285D01*
X129135714Y-93799999D01*
X129221428Y-93885714D01*
X129264285Y-93971428D01*
X129392857Y-92942857D02*
X129350000Y-93028571D01*
X129307142Y-93071428D01*
X129221428Y-93114285D01*
X129178571Y-93114285D01*
X129092857Y-93071428D01*
X129050000Y-93028571D01*
X129007142Y-92942857D01*
X129007142Y-92771428D01*
X129050000Y-92685714D01*
X129092857Y-92642857D01*
X129178571Y-92599999D01*
X129221428Y-92599999D01*
X129307142Y-92642857D01*
X129350000Y-92685714D01*
X129392857Y-92771428D01*
X129392857Y-92942857D01*
X129435714Y-93028571D01*
X129478571Y-93071428D01*
X129564285Y-93114285D01*
X129735714Y-93114285D01*
X129821428Y-93071428D01*
X129864285Y-93028571D01*
X129907142Y-92942857D01*
X129907142Y-92771428D01*
X129864285Y-92685714D01*
X129821428Y-92642857D01*
X129735714Y-92599999D01*
X129564285Y-92599999D01*
X129478571Y-92642857D01*
X129435714Y-92685714D01*
X129392857Y-92771428D01*
X129435714Y-91914285D02*
X129435714Y-92214285D01*
X129907142Y-92214285D02*
X129007142Y-92214285D01*
X129007142Y-91785714D01*
X129092857Y-91485714D02*
X129050000Y-91442857D01*
X129007142Y-91357142D01*
X129007142Y-91142857D01*
X129050000Y-91057142D01*
X129092857Y-91014285D01*
X129178571Y-90971428D01*
X129264285Y-90971428D01*
X129392857Y-91014285D01*
X129907142Y-91528571D01*
X129907142Y-90971428D01*
X129007142Y-90157142D02*
X129007142Y-90585714D01*
X129435714Y-90628571D01*
X129392857Y-90585714D01*
X129350000Y-90499999D01*
X129350000Y-90285714D01*
X129392857Y-90199999D01*
X129435714Y-90157142D01*
X129521428Y-90114285D01*
X129735714Y-90114285D01*
X129821428Y-90157142D01*
X129864285Y-90199999D01*
X129907142Y-90285714D01*
X129907142Y-90499999D01*
X129864285Y-90585714D01*
X129821428Y-90628571D01*
X129392857Y-89599999D02*
X129350000Y-89685714D01*
X129307142Y-89728571D01*
X129221428Y-89771428D01*
X129178571Y-89771428D01*
X129092857Y-89728571D01*
X129050000Y-89685714D01*
X129007142Y-89599999D01*
X129007142Y-89428571D01*
X129050000Y-89342857D01*
X129092857Y-89299999D01*
X129178571Y-89257142D01*
X129221428Y-89257142D01*
X129307142Y-89299999D01*
X129350000Y-89342857D01*
X129392857Y-89428571D01*
X129392857Y-89599999D01*
X129435714Y-89685714D01*
X129478571Y-89728571D01*
X129564285Y-89771428D01*
X129735714Y-89771428D01*
X129821428Y-89728571D01*
X129864285Y-89685714D01*
X129907142Y-89599999D01*
X129907142Y-89428571D01*
X129864285Y-89342857D01*
X129821428Y-89299999D01*
X129735714Y-89257142D01*
X129564285Y-89257142D01*
X129478571Y-89299999D01*
X129435714Y-89342857D01*
X129392857Y-89428571D01*
X129007142Y-88699999D02*
X129007142Y-88614285D01*
X129050000Y-88528571D01*
X129092857Y-88485714D01*
X129178571Y-88442857D01*
X129350000Y-88399999D01*
X129564285Y-88399999D01*
X129735714Y-88442857D01*
X129821428Y-88485714D01*
X129864285Y-88528571D01*
X129907142Y-88614285D01*
X129907142Y-88699999D01*
X129864285Y-88785714D01*
X129821428Y-88828571D01*
X129735714Y-88871428D01*
X129564285Y-88914285D01*
X129350000Y-88914285D01*
X129178571Y-88871428D01*
X129092857Y-88828571D01*
X129050000Y-88785714D01*
X129007142Y-88699999D01*
X129564285Y-88014285D02*
X129564285Y-87328571D01*
X129907142Y-86514285D02*
X129435714Y-86514285D01*
X129350000Y-86557142D01*
X129307142Y-86642857D01*
X129307142Y-86814285D01*
X129350000Y-86899999D01*
X129864285Y-86514285D02*
X129907142Y-86599999D01*
X129907142Y-86814285D01*
X129864285Y-86899999D01*
X129778571Y-86942857D01*
X129692857Y-86942857D01*
X129607142Y-86899999D01*
X129564285Y-86814285D01*
X129564285Y-86599999D01*
X129521428Y-86514285D01*
X129307142Y-86085714D02*
X129907142Y-86085714D01*
X129392857Y-86085714D02*
X129350000Y-86042857D01*
X129307142Y-85957142D01*
X129307142Y-85828571D01*
X129350000Y-85742857D01*
X129435714Y-85699999D01*
X129907142Y-85699999D01*
X129907142Y-84885714D02*
X129007142Y-84885714D01*
X129864285Y-84885714D02*
X129907142Y-84971428D01*
X129907142Y-85142857D01*
X129864285Y-85228571D01*
X129821428Y-85271428D01*
X129735714Y-85314285D01*
X129478571Y-85314285D01*
X129392857Y-85271428D01*
X129350000Y-85228571D01*
X129307142Y-85142857D01*
X129307142Y-84971428D01*
X129350000Y-84885714D01*
X129564285Y-84457142D02*
X129564285Y-83771428D01*
X129907142Y-83342857D02*
X129007142Y-83342857D01*
X129650000Y-83042857D01*
X129007142Y-82742857D01*
X129907142Y-82742857D01*
X129821428Y-81799999D02*
X129864285Y-81842857D01*
X129907142Y-81971428D01*
X129907142Y-82057142D01*
X129864285Y-82185714D01*
X129778571Y-82271428D01*
X129692857Y-82314285D01*
X129521428Y-82357142D01*
X129392857Y-82357142D01*
X129221428Y-82314285D01*
X129135714Y-82271428D01*
X129050000Y-82185714D01*
X129007142Y-82057142D01*
X129007142Y-81971428D01*
X129050000Y-81842857D01*
X129092857Y-81799999D01*
X129907142Y-81414285D02*
X129007142Y-81414285D01*
X129007142Y-81071428D01*
X129050000Y-80985714D01*
X129092857Y-80942857D01*
X129178571Y-80899999D01*
X129307142Y-80899999D01*
X129392857Y-80942857D01*
X129435714Y-80985714D01*
X129478571Y-81071428D01*
X129478571Y-81414285D01*
X129092857Y-80557142D02*
X129050000Y-80514285D01*
X129007142Y-80428571D01*
X129007142Y-80214285D01*
X129050000Y-80128571D01*
X129092857Y-80085714D01*
X129178571Y-80042857D01*
X129264285Y-80042857D01*
X129392857Y-80085714D01*
X129907142Y-80599999D01*
X129907142Y-80042857D01*
X129007142Y-79228571D02*
X129007142Y-79657142D01*
X129435714Y-79699999D01*
X129392857Y-79657142D01*
X129350000Y-79571428D01*
X129350000Y-79357142D01*
X129392857Y-79271428D01*
X129435714Y-79228571D01*
X129521428Y-79185714D01*
X129735714Y-79185714D01*
X129821428Y-79228571D01*
X129864285Y-79271428D01*
X129907142Y-79357142D01*
X129907142Y-79571428D01*
X129864285Y-79657142D01*
X129821428Y-79699999D01*
X129007142Y-78371428D02*
X129007142Y-78799999D01*
X129435714Y-78842857D01*
X129392857Y-78799999D01*
X129350000Y-78714285D01*
X129350000Y-78499999D01*
X129392857Y-78414285D01*
X129435714Y-78371428D01*
X129521428Y-78328571D01*
X129735714Y-78328571D01*
X129821428Y-78371428D01*
X129864285Y-78414285D01*
X129907142Y-78499999D01*
X129907142Y-78714285D01*
X129864285Y-78799999D01*
X129821428Y-78842857D01*
X129907142Y-77471428D02*
X129907142Y-77985714D01*
X129907142Y-77728571D02*
X129007142Y-77728571D01*
X129135714Y-77814285D01*
X129221428Y-77899999D01*
X129264285Y-77985714D01*
D10*
X154583333Y-131352380D02*
X154250000Y-130876190D01*
X154011904Y-131352380D02*
X154011904Y-130352380D01*
X154392857Y-130352380D01*
X154488095Y-130400000D01*
X154535714Y-130447619D01*
X154583333Y-130542857D01*
X154583333Y-130685714D01*
X154535714Y-130780952D01*
X154488095Y-130828571D01*
X154392857Y-130876190D01*
X154011904Y-130876190D01*
X155345238Y-130828571D02*
X155488095Y-130876190D01*
X155535714Y-130923809D01*
X155583333Y-131019047D01*
X155583333Y-131161904D01*
X155535714Y-131257142D01*
X155488095Y-131304761D01*
X155392857Y-131352380D01*
X155011904Y-131352380D01*
X155011904Y-130352380D01*
X155345238Y-130352380D01*
X155440476Y-130400000D01*
X155488095Y-130447619D01*
X155535714Y-130542857D01*
X155535714Y-130638095D01*
X155488095Y-130733333D01*
X155440476Y-130780952D01*
X155345238Y-130828571D01*
X155011904Y-130828571D01*
X156440476Y-130685714D02*
X156440476Y-131352380D01*
X156202380Y-130304761D02*
X155964285Y-131019047D01*
X156583333Y-131019047D01*
X151583333Y-131352380D02*
X151250000Y-130876190D01*
X151011904Y-131352380D02*
X151011904Y-130352380D01*
X151392857Y-130352380D01*
X151488095Y-130400000D01*
X151535714Y-130447619D01*
X151583333Y-130542857D01*
X151583333Y-130685714D01*
X151535714Y-130780952D01*
X151488095Y-130828571D01*
X151392857Y-130876190D01*
X151011904Y-130876190D01*
X152345238Y-130828571D02*
X152488095Y-130876190D01*
X152535714Y-130923809D01*
X152583333Y-131019047D01*
X152583333Y-131161904D01*
X152535714Y-131257142D01*
X152488095Y-131304761D01*
X152392857Y-131352380D01*
X152011904Y-131352380D01*
X152011904Y-130352380D01*
X152345238Y-130352380D01*
X152440476Y-130400000D01*
X152488095Y-130447619D01*
X152535714Y-130542857D01*
X152535714Y-130638095D01*
X152488095Y-130733333D01*
X152440476Y-130780952D01*
X152345238Y-130828571D01*
X152011904Y-130828571D01*
X153535714Y-131352380D02*
X152964285Y-131352380D01*
X153250000Y-131352380D02*
X153250000Y-130352380D01*
X153154761Y-130495238D01*
X153059523Y-130590476D01*
X152964285Y-130638095D01*
X148333333Y-131352380D02*
X148000000Y-130876190D01*
X147761904Y-131352380D02*
X147761904Y-130352380D01*
X148142857Y-130352380D01*
X148238095Y-130400000D01*
X148285714Y-130447619D01*
X148333333Y-130542857D01*
X148333333Y-130685714D01*
X148285714Y-130780952D01*
X148238095Y-130828571D01*
X148142857Y-130876190D01*
X147761904Y-130876190D01*
X149095238Y-130828571D02*
X149238095Y-130876190D01*
X149285714Y-130923809D01*
X149333333Y-131019047D01*
X149333333Y-131161904D01*
X149285714Y-131257142D01*
X149238095Y-131304761D01*
X149142857Y-131352380D01*
X148761904Y-131352380D01*
X148761904Y-130352380D01*
X149095238Y-130352380D01*
X149190476Y-130400000D01*
X149238095Y-130447619D01*
X149285714Y-130542857D01*
X149285714Y-130638095D01*
X149238095Y-130733333D01*
X149190476Y-130780952D01*
X149095238Y-130828571D01*
X148761904Y-130828571D01*
X149952380Y-130352380D02*
X150047619Y-130352380D01*
X150142857Y-130400000D01*
X150190476Y-130447619D01*
X150238095Y-130542857D01*
X150285714Y-130733333D01*
X150285714Y-130971428D01*
X150238095Y-131161904D01*
X150190476Y-131257142D01*
X150142857Y-131304761D01*
X150047619Y-131352380D01*
X149952380Y-131352380D01*
X149857142Y-131304761D01*
X149809523Y-131257142D01*
X149761904Y-131161904D01*
X149714285Y-130971428D01*
X149714285Y-130733333D01*
X149761904Y-130542857D01*
X149809523Y-130447619D01*
X149857142Y-130400000D01*
X149952380Y-130352380D01*
D12*
G04 #@! TO.C,C1*
X135267500Y-115410000D02*
X134267500Y-115410000D01*
X135267500Y-113590000D02*
X134267500Y-113590000D01*
G04 #@! TO.C,C2*
X148640000Y-103650000D02*
X148640000Y-104650000D01*
X150460000Y-103650000D02*
X150460000Y-104650000D01*
G04 #@! TO.C,C3*
X135267500Y-118590000D02*
X134267500Y-118590000D01*
X135267500Y-120410000D02*
X134267500Y-120410000D01*
G04 #@! TO.C,C4*
X135267500Y-117910000D02*
X134267500Y-117910000D01*
X135267500Y-116090000D02*
X134267500Y-116090000D01*
G04 #@! TO.C,C5*
X156140000Y-104667500D02*
X156140000Y-103667500D01*
X157960000Y-104667500D02*
X157960000Y-103667500D01*
G04 #@! TO.C,C6*
X158640000Y-104667500D02*
X158640000Y-103667500D01*
X160460000Y-104667500D02*
X160460000Y-103667500D01*
G04 #@! TO.C,C7*
X135250000Y-103590000D02*
X134250000Y-103590000D01*
X135250000Y-105410000D02*
X134250000Y-105410000D01*
G04 #@! TO.C,C8*
X135232500Y-106090000D02*
X134232500Y-106090000D01*
X135232500Y-107910000D02*
X134232500Y-107910000D01*
G04 #@! TO.C,C9*
X151160000Y-90167500D02*
X151160000Y-89167500D01*
X149340000Y-90167500D02*
X149340000Y-89167500D01*
G04 #@! TO.C,C10*
X135252500Y-93462500D02*
X135877500Y-93462500D01*
X135565000Y-93775000D02*
X135565000Y-93150000D01*
X138945563Y-92910000D02*
X140010000Y-91845563D01*
X135554437Y-92910000D02*
X134490000Y-91845563D01*
X135554437Y-92910000D02*
X136190000Y-92910000D01*
X138945563Y-92910000D02*
X138310000Y-92910000D01*
X140010000Y-91845563D02*
X140010000Y-87390000D01*
X134490000Y-91845563D02*
X134490000Y-87390000D01*
X134490000Y-87390000D02*
X136190000Y-87390000D01*
X140010000Y-87390000D02*
X138310000Y-87390000D01*
G04 #@! TO.C,C11*
X146840000Y-90150000D02*
X146840000Y-89150000D01*
X148660000Y-90150000D02*
X148660000Y-89150000D01*
G04 #@! TO.C,C12*
X146010000Y-87390000D02*
X144310000Y-87390000D01*
X140490000Y-87390000D02*
X142190000Y-87390000D01*
X140490000Y-91845563D02*
X140490000Y-87390000D01*
X146010000Y-91845563D02*
X146010000Y-87390000D01*
X144945563Y-92910000D02*
X144310000Y-92910000D01*
X141554437Y-92910000D02*
X142190000Y-92910000D01*
X141554437Y-92910000D02*
X140490000Y-91845563D01*
X144945563Y-92910000D02*
X146010000Y-91845563D01*
X141565000Y-93775000D02*
X141565000Y-93150000D01*
X141252500Y-93462500D02*
X141877500Y-93462500D01*
G04 #@! TO.C,D1*
X147840000Y-120480000D02*
X147840000Y-124380000D01*
X147840000Y-124380000D02*
X150160000Y-124380000D01*
X150160000Y-124380000D02*
X150160000Y-120480000D01*
G04 #@! TO.C,D2*
X153160000Y-124380000D02*
X153160000Y-120480000D01*
X150840000Y-124380000D02*
X153160000Y-124380000D01*
X150840000Y-120480000D02*
X150840000Y-124380000D01*
G04 #@! TO.C,D3*
X153840000Y-120480000D02*
X153840000Y-124380000D01*
X153840000Y-124380000D02*
X156160000Y-124380000D01*
X156160000Y-124380000D02*
X156160000Y-120480000D01*
G04 #@! TO.C,J1*
X162160000Y-146730000D02*
X162160000Y-144070000D01*
X144320000Y-146730000D02*
X162160000Y-146730000D01*
X144320000Y-144070000D02*
X162160000Y-144070000D01*
X144320000Y-146730000D02*
X144320000Y-144070000D01*
X143050000Y-146730000D02*
X141720000Y-146730000D01*
X141720000Y-146730000D02*
X141720000Y-145400000D01*
G04 #@! TO.C,J2*
X168670000Y-121070000D02*
X170000000Y-121070000D01*
X168670000Y-122400000D02*
X168670000Y-121070000D01*
X168670000Y-123670000D02*
X171330000Y-123670000D01*
X171330000Y-123670000D02*
X171330000Y-131350000D01*
X168670000Y-123670000D02*
X168670000Y-131350000D01*
X168670000Y-131350000D02*
X171330000Y-131350000D01*
G04 #@! TO.C,J3*
X168670000Y-142850000D02*
X171330000Y-142850000D01*
X168670000Y-135170000D02*
X168670000Y-142850000D01*
X171330000Y-135170000D02*
X171330000Y-142850000D01*
X168670000Y-135170000D02*
X171330000Y-135170000D01*
X168670000Y-133900000D02*
X168670000Y-132570000D01*
X168670000Y-132570000D02*
X170000000Y-132570000D01*
G04 #@! TO.C,J4*
X168670000Y-119850000D02*
X171330000Y-119850000D01*
X168670000Y-107090000D02*
X168670000Y-119850000D01*
X171330000Y-107090000D02*
X171330000Y-119850000D01*
X168670000Y-107090000D02*
X171330000Y-107090000D01*
X168670000Y-105820000D02*
X168670000Y-104490000D01*
X168670000Y-104490000D02*
X170000000Y-104490000D01*
G04 #@! TO.C,J5*
X168670000Y-103270000D02*
X171330000Y-103270000D01*
X168670000Y-95590000D02*
X168670000Y-103270000D01*
X171330000Y-95590000D02*
X171330000Y-103270000D01*
X168670000Y-95590000D02*
X171330000Y-95590000D01*
X168670000Y-94320000D02*
X168670000Y-92990000D01*
X168670000Y-92990000D02*
X170000000Y-92990000D01*
G04 #@! TO.C,R1*
X162910000Y-103632500D02*
X162910000Y-104632500D01*
X161090000Y-103632500D02*
X161090000Y-104632500D01*
G04 #@! TO.C,R2*
X155460000Y-103667500D02*
X155460000Y-104667500D01*
X153640000Y-103667500D02*
X153640000Y-104667500D01*
G04 #@! TO.C,R3*
X151140000Y-103667500D02*
X151140000Y-104667500D01*
X152960000Y-103667500D02*
X152960000Y-104667500D01*
G04 #@! TO.C,R4*
X134250000Y-108590000D02*
X135250000Y-108590000D01*
X134250000Y-110410000D02*
X135250000Y-110410000D01*
G04 #@! TO.C,R5*
X149910000Y-127882500D02*
X149910000Y-126882500D01*
X148090000Y-127882500D02*
X148090000Y-126882500D01*
G04 #@! TO.C,R6*
X152910000Y-127917500D02*
X152910000Y-126917500D01*
X151090000Y-127917500D02*
X151090000Y-126917500D01*
G04 #@! TO.C,R7*
X154090000Y-127917500D02*
X154090000Y-126917500D01*
X155910000Y-127917500D02*
X155910000Y-126917500D01*
G04 #@! TO.C,R8*
X146090000Y-103632500D02*
X146090000Y-104632500D01*
X147910000Y-103632500D02*
X147910000Y-104632500D01*
G04 #@! TO.C,TP1*
X141950000Y-140400000D02*
G75*
G03X141950000Y-140400000I-700000J0D01*
G01*
G04 #@! TO.C,TP2*
X151450000Y-140400000D02*
G75*
G03X151450000Y-140400000I-700000J0D01*
G01*
G04 #@! TO.C,TP3*
X154450000Y-140400000D02*
G75*
G03X154450000Y-140400000I-700000J0D01*
G01*
G04 #@! TO.C,TP5*
X166450000Y-99400000D02*
G75*
G03X166450000Y-99400000I-700000J0D01*
G01*
G04 #@! TO.C,TP6*
X166450000Y-101650000D02*
G75*
G03X166450000Y-101650000I-700000J0D01*
G01*
G04 #@! TO.C,TP7*
X155950000Y-91900000D02*
G75*
G03X155950000Y-91900000I-700000J0D01*
G01*
G04 #@! TO.C,TP8*
X157450000Y-93900000D02*
G75*
G03X157450000Y-93900000I-700000J0D01*
G01*
G04 #@! TO.C,TP9*
X165700000Y-128650000D02*
G75*
G03X165700000Y-128650000I-700000J0D01*
G01*
G04 #@! TO.C,TP10*
X165700000Y-130900000D02*
G75*
G03X165700000Y-130900000I-700000J0D01*
G01*
G04 #@! TO.C,TP11*
X165700000Y-139900000D02*
G75*
G03X165700000Y-139900000I-700000J0D01*
G01*
G04 #@! TO.C,TP12*
X165700000Y-142150000D02*
G75*
G03X165700000Y-142150000I-700000J0D01*
G01*
G04 #@! TO.C,TP13*
X166200000Y-112650000D02*
G75*
G03X166200000Y-112650000I-700000J0D01*
G01*
G04 #@! TO.C,TP14*
X166200000Y-114900000D02*
G75*
G03X166200000Y-114900000I-700000J0D01*
G01*
G04 #@! TO.C,TP15*
X166200000Y-117150000D02*
G75*
G03X166200000Y-117150000I-700000J0D01*
G01*
G04 #@! TO.C,TP16*
X166200000Y-119400000D02*
G75*
G03X166200000Y-119400000I-700000J0D01*
G01*
G04 #@! TO.C,TP17*
X145450000Y-140400000D02*
G75*
G03X145450000Y-140400000I-700000J0D01*
G01*
G04 #@! TO.C,TP18*
X148450000Y-140400000D02*
G75*
G03X148450000Y-140400000I-700000J0D01*
G01*
D13*
G04 #@! TO.C,U1*
X149925000Y-94825000D02*
X149925000Y-94875000D01*
X154075000Y-94825000D02*
X154075000Y-94970000D01*
X154075000Y-99975000D02*
X154075000Y-99830000D01*
X149925000Y-99975000D02*
X149925000Y-99830000D01*
X149925000Y-94825000D02*
X154075000Y-94825000D01*
X149925000Y-99975000D02*
X154075000Y-99975000D01*
X149925000Y-94875000D02*
X148525000Y-94875000D01*
G04 #@! TO.C,U2*
X149125000Y-107075000D02*
X149125000Y-107650000D01*
X154875000Y-107075000D02*
X154875000Y-107725000D01*
X154875000Y-117725000D02*
X154875000Y-117075000D01*
X149125000Y-117725000D02*
X149125000Y-117075000D01*
X149125000Y-107075000D02*
X154875000Y-107075000D01*
X149125000Y-117725000D02*
X154875000Y-117725000D01*
X149125000Y-107650000D02*
X147525000Y-107650000D01*
D12*
G04 #@! TO.C,U3*
X140970000Y-101600000D02*
X142470000Y-101600000D01*
X142470000Y-101600000D02*
X142470000Y-101330000D01*
X142470000Y-101330000D02*
X145300000Y-101330000D01*
X140970000Y-94700000D02*
X142470000Y-94700000D01*
X142470000Y-94700000D02*
X142470000Y-94970000D01*
X142470000Y-94970000D02*
X143570000Y-94970000D01*
G04 #@! TO.C,Y1*
X145050000Y-118300000D02*
X145050000Y-102325000D01*
X145050000Y-102325000D02*
X139950000Y-102325000D01*
X139950000Y-102325000D02*
X139950000Y-118300000D01*
G04 #@! TO.C,C13*
X135267500Y-112910000D02*
X134267500Y-112910000D01*
X135267500Y-111090000D02*
X134267500Y-111090000D01*
G04 #@! TO.C,D4*
X151750000Y-91900000D02*
X153750000Y-91900000D01*
X153750000Y-91900000D02*
X153750000Y-88000000D01*
X151750000Y-91900000D02*
X151750000Y-88000000D01*
G04 #@! TO.C,J6*
X139720000Y-80570000D02*
X139720000Y-83230000D01*
X162640000Y-80570000D02*
X139720000Y-80570000D01*
X162640000Y-83230000D02*
X139720000Y-83230000D01*
X162640000Y-80570000D02*
X162640000Y-83230000D01*
X163910000Y-80570000D02*
X165240000Y-80570000D01*
X165240000Y-80570000D02*
X165240000Y-81900000D01*
G04 #@! TO.C,*
D13*
G04 #@! TO.C,C1*
X138100833Y-114607142D02*
X138053214Y-114654761D01*
X137910357Y-114702380D01*
X137815119Y-114702380D01*
X137672261Y-114654761D01*
X137577023Y-114559523D01*
X137529404Y-114464285D01*
X137481785Y-114273809D01*
X137481785Y-114130952D01*
X137529404Y-113940476D01*
X137577023Y-113845238D01*
X137672261Y-113750000D01*
X137815119Y-113702380D01*
X137910357Y-113702380D01*
X138053214Y-113750000D01*
X138100833Y-113797619D01*
X139053214Y-114702380D02*
X138481785Y-114702380D01*
X138767500Y-114702380D02*
X138767500Y-113702380D01*
X138672261Y-113845238D01*
X138577023Y-113940476D01*
X138481785Y-113988095D01*
G04 #@! TO.C,C2*
X149133333Y-101257142D02*
X149085714Y-101304761D01*
X148942857Y-101352380D01*
X148847619Y-101352380D01*
X148704761Y-101304761D01*
X148609523Y-101209523D01*
X148561904Y-101114285D01*
X148514285Y-100923809D01*
X148514285Y-100780952D01*
X148561904Y-100590476D01*
X148609523Y-100495238D01*
X148704761Y-100400000D01*
X148847619Y-100352380D01*
X148942857Y-100352380D01*
X149085714Y-100400000D01*
X149133333Y-100447619D01*
X149514285Y-100447619D02*
X149561904Y-100400000D01*
X149657142Y-100352380D01*
X149895238Y-100352380D01*
X149990476Y-100400000D01*
X150038095Y-100447619D01*
X150085714Y-100542857D01*
X150085714Y-100638095D01*
X150038095Y-100780952D01*
X149466666Y-101352380D01*
X150085714Y-101352380D01*
G04 #@! TO.C,C3*
X138083333Y-119857142D02*
X138035714Y-119904761D01*
X137892857Y-119952380D01*
X137797619Y-119952380D01*
X137654761Y-119904761D01*
X137559523Y-119809523D01*
X137511904Y-119714285D01*
X137464285Y-119523809D01*
X137464285Y-119380952D01*
X137511904Y-119190476D01*
X137559523Y-119095238D01*
X137654761Y-119000000D01*
X137797619Y-118952380D01*
X137892857Y-118952380D01*
X138035714Y-119000000D01*
X138083333Y-119047619D01*
X138416666Y-118952380D02*
X139035714Y-118952380D01*
X138702380Y-119333333D01*
X138845238Y-119333333D01*
X138940476Y-119380952D01*
X138988095Y-119428571D01*
X139035714Y-119523809D01*
X139035714Y-119761904D01*
X138988095Y-119857142D01*
X138940476Y-119904761D01*
X138845238Y-119952380D01*
X138559523Y-119952380D01*
X138464285Y-119904761D01*
X138416666Y-119857142D01*
G04 #@! TO.C,C4*
X138100833Y-117357142D02*
X138053214Y-117404761D01*
X137910357Y-117452380D01*
X137815119Y-117452380D01*
X137672261Y-117404761D01*
X137577023Y-117309523D01*
X137529404Y-117214285D01*
X137481785Y-117023809D01*
X137481785Y-116880952D01*
X137529404Y-116690476D01*
X137577023Y-116595238D01*
X137672261Y-116500000D01*
X137815119Y-116452380D01*
X137910357Y-116452380D01*
X138053214Y-116500000D01*
X138100833Y-116547619D01*
X138957976Y-116785714D02*
X138957976Y-117452380D01*
X138719880Y-116404761D02*
X138481785Y-117119047D01*
X139100833Y-117119047D01*
G04 #@! TO.C,C5*
X156883333Y-101257142D02*
X156835714Y-101304761D01*
X156692857Y-101352380D01*
X156597619Y-101352380D01*
X156454761Y-101304761D01*
X156359523Y-101209523D01*
X156311904Y-101114285D01*
X156264285Y-100923809D01*
X156264285Y-100780952D01*
X156311904Y-100590476D01*
X156359523Y-100495238D01*
X156454761Y-100400000D01*
X156597619Y-100352380D01*
X156692857Y-100352380D01*
X156835714Y-100400000D01*
X156883333Y-100447619D01*
X157788095Y-100352380D02*
X157311904Y-100352380D01*
X157264285Y-100828571D01*
X157311904Y-100780952D01*
X157407142Y-100733333D01*
X157645238Y-100733333D01*
X157740476Y-100780952D01*
X157788095Y-100828571D01*
X157835714Y-100923809D01*
X157835714Y-101161904D01*
X157788095Y-101257142D01*
X157740476Y-101304761D01*
X157645238Y-101352380D01*
X157407142Y-101352380D01*
X157311904Y-101304761D01*
X157264285Y-101257142D01*
G04 #@! TO.C,C6*
X159383333Y-101257142D02*
X159335714Y-101304761D01*
X159192857Y-101352380D01*
X159097619Y-101352380D01*
X158954761Y-101304761D01*
X158859523Y-101209523D01*
X158811904Y-101114285D01*
X158764285Y-100923809D01*
X158764285Y-100780952D01*
X158811904Y-100590476D01*
X158859523Y-100495238D01*
X158954761Y-100400000D01*
X159097619Y-100352380D01*
X159192857Y-100352380D01*
X159335714Y-100400000D01*
X159383333Y-100447619D01*
X160240476Y-100352380D02*
X160050000Y-100352380D01*
X159954761Y-100400000D01*
X159907142Y-100447619D01*
X159811904Y-100590476D01*
X159764285Y-100780952D01*
X159764285Y-101161904D01*
X159811904Y-101257142D01*
X159859523Y-101304761D01*
X159954761Y-101352380D01*
X160145238Y-101352380D01*
X160240476Y-101304761D01*
X160288095Y-101257142D01*
X160335714Y-101161904D01*
X160335714Y-100923809D01*
X160288095Y-100828571D01*
X160240476Y-100780952D01*
X160145238Y-100733333D01*
X159954761Y-100733333D01*
X159859523Y-100780952D01*
X159811904Y-100828571D01*
X159764285Y-100923809D01*
G04 #@! TO.C,C7*
X138065833Y-104857142D02*
X138018214Y-104904761D01*
X137875357Y-104952380D01*
X137780119Y-104952380D01*
X137637261Y-104904761D01*
X137542023Y-104809523D01*
X137494404Y-104714285D01*
X137446785Y-104523809D01*
X137446785Y-104380952D01*
X137494404Y-104190476D01*
X137542023Y-104095238D01*
X137637261Y-104000000D01*
X137780119Y-103952380D01*
X137875357Y-103952380D01*
X138018214Y-104000000D01*
X138065833Y-104047619D01*
X138399166Y-103952380D02*
X139065833Y-103952380D01*
X138637261Y-104952380D01*
G04 #@! TO.C,C8*
X138065833Y-107357142D02*
X138018214Y-107404761D01*
X137875357Y-107452380D01*
X137780119Y-107452380D01*
X137637261Y-107404761D01*
X137542023Y-107309523D01*
X137494404Y-107214285D01*
X137446785Y-107023809D01*
X137446785Y-106880952D01*
X137494404Y-106690476D01*
X137542023Y-106595238D01*
X137637261Y-106500000D01*
X137780119Y-106452380D01*
X137875357Y-106452380D01*
X138018214Y-106500000D01*
X138065833Y-106547619D01*
X138637261Y-106880952D02*
X138542023Y-106833333D01*
X138494404Y-106785714D01*
X138446785Y-106690476D01*
X138446785Y-106642857D01*
X138494404Y-106547619D01*
X138542023Y-106500000D01*
X138637261Y-106452380D01*
X138827738Y-106452380D01*
X138922976Y-106500000D01*
X138970595Y-106547619D01*
X139018214Y-106642857D01*
X139018214Y-106690476D01*
X138970595Y-106785714D01*
X138922976Y-106833333D01*
X138827738Y-106880952D01*
X138637261Y-106880952D01*
X138542023Y-106928571D01*
X138494404Y-106976190D01*
X138446785Y-107071428D01*
X138446785Y-107261904D01*
X138494404Y-107357142D01*
X138542023Y-107404761D01*
X138637261Y-107452380D01*
X138827738Y-107452380D01*
X138922976Y-107404761D01*
X138970595Y-107357142D01*
X139018214Y-107261904D01*
X139018214Y-107071428D01*
X138970595Y-106976190D01*
X138922976Y-106928571D01*
X138827738Y-106880952D01*
G04 #@! TO.C,C9*
X150607142Y-86316666D02*
X150654761Y-86364285D01*
X150702380Y-86507142D01*
X150702380Y-86602380D01*
X150654761Y-86745238D01*
X150559523Y-86840476D01*
X150464285Y-86888095D01*
X150273809Y-86935714D01*
X150130952Y-86935714D01*
X149940476Y-86888095D01*
X149845238Y-86840476D01*
X149750000Y-86745238D01*
X149702380Y-86602380D01*
X149702380Y-86507142D01*
X149750000Y-86364285D01*
X149797619Y-86316666D01*
X150702380Y-85840476D02*
X150702380Y-85650000D01*
X150654761Y-85554761D01*
X150607142Y-85507142D01*
X150464285Y-85411904D01*
X150273809Y-85364285D01*
X149892857Y-85364285D01*
X149797619Y-85411904D01*
X149750000Y-85459523D01*
X149702380Y-85554761D01*
X149702380Y-85745238D01*
X149750000Y-85840476D01*
X149797619Y-85888095D01*
X149892857Y-85935714D01*
X150130952Y-85935714D01*
X150226190Y-85888095D01*
X150273809Y-85840476D01*
X150321428Y-85745238D01*
X150321428Y-85554761D01*
X150273809Y-85459523D01*
X150226190Y-85411904D01*
X150130952Y-85364285D01*
G04 #@! TO.C,C10*
X139607142Y-86292857D02*
X139654761Y-86340476D01*
X139702380Y-86483333D01*
X139702380Y-86578571D01*
X139654761Y-86721428D01*
X139559523Y-86816666D01*
X139464285Y-86864285D01*
X139273809Y-86911904D01*
X139130952Y-86911904D01*
X138940476Y-86864285D01*
X138845238Y-86816666D01*
X138750000Y-86721428D01*
X138702380Y-86578571D01*
X138702380Y-86483333D01*
X138750000Y-86340476D01*
X138797619Y-86292857D01*
X139702380Y-85340476D02*
X139702380Y-85911904D01*
X139702380Y-85626190D02*
X138702380Y-85626190D01*
X138845238Y-85721428D01*
X138940476Y-85816666D01*
X138988095Y-85911904D01*
X138702380Y-84721428D02*
X138702380Y-84626190D01*
X138750000Y-84530952D01*
X138797619Y-84483333D01*
X138892857Y-84435714D01*
X139083333Y-84388095D01*
X139321428Y-84388095D01*
X139511904Y-84435714D01*
X139607142Y-84483333D01*
X139654761Y-84530952D01*
X139702380Y-84626190D01*
X139702380Y-84721428D01*
X139654761Y-84816666D01*
X139607142Y-84864285D01*
X139511904Y-84911904D01*
X139321428Y-84959523D01*
X139083333Y-84959523D01*
X138892857Y-84911904D01*
X138797619Y-84864285D01*
X138750000Y-84816666D01*
X138702380Y-84721428D01*
G04 #@! TO.C,C11*
X148107142Y-86292857D02*
X148154761Y-86340476D01*
X148202380Y-86483333D01*
X148202380Y-86578571D01*
X148154761Y-86721428D01*
X148059523Y-86816666D01*
X147964285Y-86864285D01*
X147773809Y-86911904D01*
X147630952Y-86911904D01*
X147440476Y-86864285D01*
X147345238Y-86816666D01*
X147250000Y-86721428D01*
X147202380Y-86578571D01*
X147202380Y-86483333D01*
X147250000Y-86340476D01*
X147297619Y-86292857D01*
X148202380Y-85340476D02*
X148202380Y-85911904D01*
X148202380Y-85626190D02*
X147202380Y-85626190D01*
X147345238Y-85721428D01*
X147440476Y-85816666D01*
X147488095Y-85911904D01*
X148202380Y-84388095D02*
X148202380Y-84959523D01*
X148202380Y-84673809D02*
X147202380Y-84673809D01*
X147345238Y-84769047D01*
X147440476Y-84864285D01*
X147488095Y-84959523D01*
G04 #@! TO.C,C12*
X141607142Y-86292857D02*
X141654761Y-86340476D01*
X141702380Y-86483333D01*
X141702380Y-86578571D01*
X141654761Y-86721428D01*
X141559523Y-86816666D01*
X141464285Y-86864285D01*
X141273809Y-86911904D01*
X141130952Y-86911904D01*
X140940476Y-86864285D01*
X140845238Y-86816666D01*
X140750000Y-86721428D01*
X140702380Y-86578571D01*
X140702380Y-86483333D01*
X140750000Y-86340476D01*
X140797619Y-86292857D01*
X141702380Y-85340476D02*
X141702380Y-85911904D01*
X141702380Y-85626190D02*
X140702380Y-85626190D01*
X140845238Y-85721428D01*
X140940476Y-85816666D01*
X140988095Y-85911904D01*
X140797619Y-84959523D02*
X140750000Y-84911904D01*
X140702380Y-84816666D01*
X140702380Y-84578571D01*
X140750000Y-84483333D01*
X140797619Y-84435714D01*
X140892857Y-84388095D01*
X140988095Y-84388095D01*
X141130952Y-84435714D01*
X141702380Y-85007142D01*
X141702380Y-84388095D01*
G04 #@! TO.C,D1*
X148261904Y-119602380D02*
X148261904Y-118602380D01*
X148500000Y-118602380D01*
X148642857Y-118650000D01*
X148738095Y-118745238D01*
X148785714Y-118840476D01*
X148833333Y-119030952D01*
X148833333Y-119173809D01*
X148785714Y-119364285D01*
X148738095Y-119459523D01*
X148642857Y-119554761D01*
X148500000Y-119602380D01*
X148261904Y-119602380D01*
X149785714Y-119602380D02*
X149214285Y-119602380D01*
X149500000Y-119602380D02*
X149500000Y-118602380D01*
X149404761Y-118745238D01*
X149309523Y-118840476D01*
X149214285Y-118888095D01*
G04 #@! TO.C,D2*
X151261904Y-119602380D02*
X151261904Y-118602380D01*
X151500000Y-118602380D01*
X151642857Y-118650000D01*
X151738095Y-118745238D01*
X151785714Y-118840476D01*
X151833333Y-119030952D01*
X151833333Y-119173809D01*
X151785714Y-119364285D01*
X151738095Y-119459523D01*
X151642857Y-119554761D01*
X151500000Y-119602380D01*
X151261904Y-119602380D01*
X152214285Y-118697619D02*
X152261904Y-118650000D01*
X152357142Y-118602380D01*
X152595238Y-118602380D01*
X152690476Y-118650000D01*
X152738095Y-118697619D01*
X152785714Y-118792857D01*
X152785714Y-118888095D01*
X152738095Y-119030952D01*
X152166666Y-119602380D01*
X152785714Y-119602380D01*
G04 #@! TO.C,D3*
X154261904Y-119602380D02*
X154261904Y-118602380D01*
X154500000Y-118602380D01*
X154642857Y-118650000D01*
X154738095Y-118745238D01*
X154785714Y-118840476D01*
X154833333Y-119030952D01*
X154833333Y-119173809D01*
X154785714Y-119364285D01*
X154738095Y-119459523D01*
X154642857Y-119554761D01*
X154500000Y-119602380D01*
X154261904Y-119602380D01*
X155166666Y-118602380D02*
X155785714Y-118602380D01*
X155452380Y-118983333D01*
X155595238Y-118983333D01*
X155690476Y-119030952D01*
X155738095Y-119078571D01*
X155785714Y-119173809D01*
X155785714Y-119411904D01*
X155738095Y-119507142D01*
X155690476Y-119554761D01*
X155595238Y-119602380D01*
X155309523Y-119602380D01*
X155214285Y-119554761D01*
X155166666Y-119507142D01*
G04 #@! TO.C,J1*
X140166666Y-143602380D02*
X140166666Y-144316666D01*
X140119047Y-144459523D01*
X140023809Y-144554761D01*
X139880952Y-144602380D01*
X139785714Y-144602380D01*
X141166666Y-144602380D02*
X140595238Y-144602380D01*
X140880952Y-144602380D02*
X140880952Y-143602380D01*
X140785714Y-143745238D01*
X140690476Y-143840476D01*
X140595238Y-143888095D01*
G04 #@! TO.C,J2*
X172416666Y-120602380D02*
X172416666Y-121316666D01*
X172369047Y-121459523D01*
X172273809Y-121554761D01*
X172130952Y-121602380D01*
X172035714Y-121602380D01*
X172845238Y-120697619D02*
X172892857Y-120650000D01*
X172988095Y-120602380D01*
X173226190Y-120602380D01*
X173321428Y-120650000D01*
X173369047Y-120697619D01*
X173416666Y-120792857D01*
X173416666Y-120888095D01*
X173369047Y-121030952D01*
X172797619Y-121602380D01*
X173416666Y-121602380D01*
G04 #@! TO.C,J3*
X172416666Y-132102380D02*
X172416666Y-132816666D01*
X172369047Y-132959523D01*
X172273809Y-133054761D01*
X172130952Y-133102380D01*
X172035714Y-133102380D01*
X172797619Y-132102380D02*
X173416666Y-132102380D01*
X173083333Y-132483333D01*
X173226190Y-132483333D01*
X173321428Y-132530952D01*
X173369047Y-132578571D01*
X173416666Y-132673809D01*
X173416666Y-132911904D01*
X173369047Y-133007142D01*
X173321428Y-133054761D01*
X173226190Y-133102380D01*
X172940476Y-133102380D01*
X172845238Y-133054761D01*
X172797619Y-133007142D01*
G04 #@! TO.C,J4*
X172416666Y-104102380D02*
X172416666Y-104816666D01*
X172369047Y-104959523D01*
X172273809Y-105054761D01*
X172130952Y-105102380D01*
X172035714Y-105102380D01*
X173321428Y-104435714D02*
X173321428Y-105102380D01*
X173083333Y-104054761D02*
X172845238Y-104769047D01*
X173464285Y-104769047D01*
G04 #@! TO.C,J5*
X172416666Y-92602380D02*
X172416666Y-93316666D01*
X172369047Y-93459523D01*
X172273809Y-93554761D01*
X172130952Y-93602380D01*
X172035714Y-93602380D01*
X173369047Y-92602380D02*
X172892857Y-92602380D01*
X172845238Y-93078571D01*
X172892857Y-93030952D01*
X172988095Y-92983333D01*
X173226190Y-92983333D01*
X173321428Y-93030952D01*
X173369047Y-93078571D01*
X173416666Y-93173809D01*
X173416666Y-93411904D01*
X173369047Y-93507142D01*
X173321428Y-93554761D01*
X173226190Y-93602380D01*
X172988095Y-93602380D01*
X172892857Y-93554761D01*
X172845238Y-93507142D01*
G04 #@! TO.C,R1*
X161833333Y-101352380D02*
X161500000Y-100876190D01*
X161261904Y-101352380D02*
X161261904Y-100352380D01*
X161642857Y-100352380D01*
X161738095Y-100400000D01*
X161785714Y-100447619D01*
X161833333Y-100542857D01*
X161833333Y-100685714D01*
X161785714Y-100780952D01*
X161738095Y-100828571D01*
X161642857Y-100876190D01*
X161261904Y-100876190D01*
X162785714Y-101352380D02*
X162214285Y-101352380D01*
X162500000Y-101352380D02*
X162500000Y-100352380D01*
X162404761Y-100495238D01*
X162309523Y-100590476D01*
X162214285Y-100638095D01*
G04 #@! TO.C,R2*
X154133333Y-101352380D02*
X153800000Y-100876190D01*
X153561904Y-101352380D02*
X153561904Y-100352380D01*
X153942857Y-100352380D01*
X154038095Y-100400000D01*
X154085714Y-100447619D01*
X154133333Y-100542857D01*
X154133333Y-100685714D01*
X154085714Y-100780952D01*
X154038095Y-100828571D01*
X153942857Y-100876190D01*
X153561904Y-100876190D01*
X154514285Y-100447619D02*
X154561904Y-100400000D01*
X154657142Y-100352380D01*
X154895238Y-100352380D01*
X154990476Y-100400000D01*
X155038095Y-100447619D01*
X155085714Y-100542857D01*
X155085714Y-100638095D01*
X155038095Y-100780952D01*
X154466666Y-101352380D01*
X155085714Y-101352380D01*
G04 #@! TO.C,R3*
X151633333Y-101352380D02*
X151300000Y-100876190D01*
X151061904Y-101352380D02*
X151061904Y-100352380D01*
X151442857Y-100352380D01*
X151538095Y-100400000D01*
X151585714Y-100447619D01*
X151633333Y-100542857D01*
X151633333Y-100685714D01*
X151585714Y-100780952D01*
X151538095Y-100828571D01*
X151442857Y-100876190D01*
X151061904Y-100876190D01*
X151966666Y-100352380D02*
X152585714Y-100352380D01*
X152252380Y-100733333D01*
X152395238Y-100733333D01*
X152490476Y-100780952D01*
X152538095Y-100828571D01*
X152585714Y-100923809D01*
X152585714Y-101161904D01*
X152538095Y-101257142D01*
X152490476Y-101304761D01*
X152395238Y-101352380D01*
X152109523Y-101352380D01*
X152014285Y-101304761D01*
X151966666Y-101257142D01*
G04 #@! TO.C,R4*
X138065833Y-109952380D02*
X137732500Y-109476190D01*
X137494404Y-109952380D02*
X137494404Y-108952380D01*
X137875357Y-108952380D01*
X137970595Y-109000000D01*
X138018214Y-109047619D01*
X138065833Y-109142857D01*
X138065833Y-109285714D01*
X138018214Y-109380952D01*
X137970595Y-109428571D01*
X137875357Y-109476190D01*
X137494404Y-109476190D01*
X138922976Y-109285714D02*
X138922976Y-109952380D01*
X138684880Y-108904761D02*
X138446785Y-109619047D01*
X139065833Y-109619047D01*
G04 #@! TO.C,R5*
X148833333Y-127852380D02*
X148500000Y-127376190D01*
X148261904Y-127852380D02*
X148261904Y-126852380D01*
X148642857Y-126852380D01*
X148738095Y-126900000D01*
X148785714Y-126947619D01*
X148833333Y-127042857D01*
X148833333Y-127185714D01*
X148785714Y-127280952D01*
X148738095Y-127328571D01*
X148642857Y-127376190D01*
X148261904Y-127376190D01*
X149738095Y-126852380D02*
X149261904Y-126852380D01*
X149214285Y-127328571D01*
X149261904Y-127280952D01*
X149357142Y-127233333D01*
X149595238Y-127233333D01*
X149690476Y-127280952D01*
X149738095Y-127328571D01*
X149785714Y-127423809D01*
X149785714Y-127661904D01*
X149738095Y-127757142D01*
X149690476Y-127804761D01*
X149595238Y-127852380D01*
X149357142Y-127852380D01*
X149261904Y-127804761D01*
X149214285Y-127757142D01*
G04 #@! TO.C,R6*
X151833333Y-127852380D02*
X151500000Y-127376190D01*
X151261904Y-127852380D02*
X151261904Y-126852380D01*
X151642857Y-126852380D01*
X151738095Y-126900000D01*
X151785714Y-126947619D01*
X151833333Y-127042857D01*
X151833333Y-127185714D01*
X151785714Y-127280952D01*
X151738095Y-127328571D01*
X151642857Y-127376190D01*
X151261904Y-127376190D01*
X152690476Y-126852380D02*
X152500000Y-126852380D01*
X152404761Y-126900000D01*
X152357142Y-126947619D01*
X152261904Y-127090476D01*
X152214285Y-127280952D01*
X152214285Y-127661904D01*
X152261904Y-127757142D01*
X152309523Y-127804761D01*
X152404761Y-127852380D01*
X152595238Y-127852380D01*
X152690476Y-127804761D01*
X152738095Y-127757142D01*
X152785714Y-127661904D01*
X152785714Y-127423809D01*
X152738095Y-127328571D01*
X152690476Y-127280952D01*
X152595238Y-127233333D01*
X152404761Y-127233333D01*
X152309523Y-127280952D01*
X152261904Y-127328571D01*
X152214285Y-127423809D01*
G04 #@! TO.C,R7*
X154833333Y-127852380D02*
X154500000Y-127376190D01*
X154261904Y-127852380D02*
X154261904Y-126852380D01*
X154642857Y-126852380D01*
X154738095Y-126900000D01*
X154785714Y-126947619D01*
X154833333Y-127042857D01*
X154833333Y-127185714D01*
X154785714Y-127280952D01*
X154738095Y-127328571D01*
X154642857Y-127376190D01*
X154261904Y-127376190D01*
X155166666Y-126852380D02*
X155833333Y-126852380D01*
X155404761Y-127852380D01*
G04 #@! TO.C,R8*
X146833333Y-101352380D02*
X146500000Y-100876190D01*
X146261904Y-101352380D02*
X146261904Y-100352380D01*
X146642857Y-100352380D01*
X146738095Y-100400000D01*
X146785714Y-100447619D01*
X146833333Y-100542857D01*
X146833333Y-100685714D01*
X146785714Y-100780952D01*
X146738095Y-100828571D01*
X146642857Y-100876190D01*
X146261904Y-100876190D01*
X147404761Y-100780952D02*
X147309523Y-100733333D01*
X147261904Y-100685714D01*
X147214285Y-100590476D01*
X147214285Y-100542857D01*
X147261904Y-100447619D01*
X147309523Y-100400000D01*
X147404761Y-100352380D01*
X147595238Y-100352380D01*
X147690476Y-100400000D01*
X147738095Y-100447619D01*
X147785714Y-100542857D01*
X147785714Y-100590476D01*
X147738095Y-100685714D01*
X147690476Y-100733333D01*
X147595238Y-100780952D01*
X147404761Y-100780952D01*
X147309523Y-100828571D01*
X147261904Y-100876190D01*
X147214285Y-100971428D01*
X147214285Y-101161904D01*
X147261904Y-101257142D01*
X147309523Y-101304761D01*
X147404761Y-101352380D01*
X147595238Y-101352380D01*
X147690476Y-101304761D01*
X147738095Y-101257142D01*
X147785714Y-101161904D01*
X147785714Y-100971428D01*
X147738095Y-100876190D01*
X147690476Y-100828571D01*
X147595238Y-100780952D01*
G04 #@! TO.C,U1*
X151238095Y-96827379D02*
X151238095Y-97636903D01*
X151285714Y-97732141D01*
X151333333Y-97779760D01*
X151428571Y-97827379D01*
X151619047Y-97827379D01*
X151714285Y-97779760D01*
X151761904Y-97732141D01*
X151809523Y-97636903D01*
X151809523Y-96827379D01*
X152809523Y-97827379D02*
X152238095Y-97827379D01*
X152523809Y-97827379D02*
X152523809Y-96827379D01*
X152428571Y-96970237D01*
X152333333Y-97065475D01*
X152238095Y-97113094D01*
G04 #@! TO.C,U2*
X151238095Y-111852380D02*
X151238095Y-112661904D01*
X151285714Y-112757142D01*
X151333333Y-112804761D01*
X151428571Y-112852380D01*
X151619047Y-112852380D01*
X151714285Y-112804761D01*
X151761904Y-112757142D01*
X151809523Y-112661904D01*
X151809523Y-111852380D01*
X152238095Y-111947619D02*
X152285714Y-111900000D01*
X152380952Y-111852380D01*
X152619047Y-111852380D01*
X152714285Y-111900000D01*
X152761904Y-111947619D01*
X152809523Y-112042857D01*
X152809523Y-112138095D01*
X152761904Y-112280952D01*
X152190476Y-112852380D01*
X152809523Y-112852380D01*
G04 #@! TO.C,U3*
X142952380Y-98911904D02*
X143761904Y-98911904D01*
X143857142Y-98864285D01*
X143904761Y-98816666D01*
X143952380Y-98721428D01*
X143952380Y-98530952D01*
X143904761Y-98435714D01*
X143857142Y-98388095D01*
X143761904Y-98340476D01*
X142952380Y-98340476D01*
X142952380Y-97959523D02*
X142952380Y-97340476D01*
X143333333Y-97673809D01*
X143333333Y-97530952D01*
X143380952Y-97435714D01*
X143428571Y-97388095D01*
X143523809Y-97340476D01*
X143761904Y-97340476D01*
X143857142Y-97388095D01*
X143904761Y-97435714D01*
X143952380Y-97530952D01*
X143952380Y-97816666D01*
X143904761Y-97911904D01*
X143857142Y-97959523D01*
G04 #@! TO.C,Y1*
X142476190Y-112876190D02*
X142952380Y-112876190D01*
X141952380Y-113209523D02*
X142476190Y-112876190D01*
X141952380Y-112542857D01*
X142952380Y-111685714D02*
X142952380Y-112257142D01*
X142952380Y-111971428D02*
X141952380Y-111971428D01*
X142095238Y-112066666D01*
X142190476Y-112161904D01*
X142238095Y-112257142D01*
G04 #@! TO.C,C13*
X137874642Y-112607142D02*
X137827023Y-112654761D01*
X137684166Y-112702380D01*
X137588928Y-112702380D01*
X137446071Y-112654761D01*
X137350833Y-112559523D01*
X137303214Y-112464285D01*
X137255595Y-112273809D01*
X137255595Y-112130952D01*
X137303214Y-111940476D01*
X137350833Y-111845238D01*
X137446071Y-111750000D01*
X137588928Y-111702380D01*
X137684166Y-111702380D01*
X137827023Y-111750000D01*
X137874642Y-111797619D01*
X138827023Y-112702380D02*
X138255595Y-112702380D01*
X138541309Y-112702380D02*
X138541309Y-111702380D01*
X138446071Y-111845238D01*
X138350833Y-111940476D01*
X138255595Y-111988095D01*
X139160357Y-111702380D02*
X139779404Y-111702380D01*
X139446071Y-112083333D01*
X139588928Y-112083333D01*
X139684166Y-112130952D01*
X139731785Y-112178571D01*
X139779404Y-112273809D01*
X139779404Y-112511904D01*
X139731785Y-112607142D01*
X139684166Y-112654761D01*
X139588928Y-112702380D01*
X139303214Y-112702380D01*
X139207976Y-112654761D01*
X139160357Y-112607142D01*
G04 #@! TO.C,D4*
X153202380Y-86888095D02*
X152202380Y-86888095D01*
X152202380Y-86650000D01*
X152250000Y-86507142D01*
X152345238Y-86411904D01*
X152440476Y-86364285D01*
X152630952Y-86316666D01*
X152773809Y-86316666D01*
X152964285Y-86364285D01*
X153059523Y-86411904D01*
X153154761Y-86507142D01*
X153202380Y-86650000D01*
X153202380Y-86888095D01*
X152535714Y-85459523D02*
X153202380Y-85459523D01*
X152154761Y-85697619D02*
X152869047Y-85935714D01*
X152869047Y-85316666D01*
G04 #@! TO.C,J6*
X166326666Y-82602380D02*
X166326666Y-83316666D01*
X166279047Y-83459523D01*
X166183809Y-83554761D01*
X166040952Y-83602380D01*
X165945714Y-83602380D01*
X167231428Y-82602380D02*
X167040952Y-82602380D01*
X166945714Y-82650000D01*
X166898095Y-82697619D01*
X166802857Y-82840476D01*
X166755238Y-83030952D01*
X166755238Y-83411904D01*
X166802857Y-83507142D01*
X166850476Y-83554761D01*
X166945714Y-83602380D01*
X167136190Y-83602380D01*
X167231428Y-83554761D01*
X167279047Y-83507142D01*
X167326666Y-83411904D01*
X167326666Y-83173809D01*
X167279047Y-83078571D01*
X167231428Y-83030952D01*
X167136190Y-82983333D01*
X166945714Y-82983333D01*
X166850476Y-83030952D01*
X166802857Y-83078571D01*
X166755238Y-83173809D01*
G04 #@! TD*
M02*
