G04 #@! TF.GenerationSoftware,KiCad,Pcbnew,(5.0.0)*
G04 #@! TF.CreationDate,2018-10-11T21:50:58+05:00*
G04 #@! TF.ProjectId,Dev Board,44657620426F6172642E6B696361645F,rev?*
G04 #@! TF.SameCoordinates,Original*
G04 #@! TF.FileFunction,Soldermask,Top*
G04 #@! TF.FilePolarity,Negative*
%FSLAX46Y46*%
G04 Gerber Fmt 4.6, Leading zero omitted, Abs format (unit mm)*
G04 Created by KiCad (PCBNEW (5.0.0)) date 10/11/18 21:50:58*
%MOMM*%
%LPD*%
G01*
G04 APERTURE LIST*
%ADD10C,4.200000*%
%ADD11R,1.795000X2.200000*%
%ADD12R,2.200000X1.795000*%
%ADD13R,2.000000X3.400000*%
%ADD14R,2.200000X1.620000*%
%ADD15R,2.100000X2.100000*%
%ADD16O,2.100000X2.100000*%
%ADD17C,1.400000*%
%ADD18R,1.950000X1.000000*%
%ADD19R,2.150000X0.850000*%
%ADD20R,2.600000X1.600000*%
%ADD21R,6.800000X6.200000*%
%ADD22R,2.400000X8.275000*%
%ADD23R,1.600000X1.300000*%
G04 APERTURE END LIST*
D10*
G04 #@! TO.C,*
X174500000Y-149900000D03*
G04 #@! TD*
G04 #@! TO.C,*
X174500000Y-74900000D03*
G04 #@! TD*
G04 #@! TO.C,*
X129500000Y-74900000D03*
G04 #@! TD*
G04 #@! TO.C,*
X129500000Y-149900000D03*
G04 #@! TD*
D11*
G04 #@! TO.C,C1*
X136285000Y-114500000D03*
X133250000Y-114500000D03*
G04 #@! TD*
D12*
G04 #@! TO.C,C2*
X149550000Y-105667500D03*
X149550000Y-102632500D03*
G04 #@! TD*
D11*
G04 #@! TO.C,C3*
X133250000Y-119500000D03*
X136285000Y-119500000D03*
G04 #@! TD*
G04 #@! TO.C,C4*
X136285000Y-117000000D03*
X133250000Y-117000000D03*
G04 #@! TD*
D12*
G04 #@! TO.C,C5*
X157050000Y-105685000D03*
X157050000Y-102650000D03*
G04 #@! TD*
G04 #@! TO.C,C6*
X159550000Y-105685000D03*
X159550000Y-102650000D03*
G04 #@! TD*
D11*
G04 #@! TO.C,C7*
X133232500Y-104500000D03*
X136267500Y-104500000D03*
G04 #@! TD*
G04 #@! TO.C,C8*
X133215000Y-107000000D03*
X136250000Y-107000000D03*
G04 #@! TD*
D12*
G04 #@! TO.C,C9*
X150250000Y-88150000D03*
X150250000Y-91185000D03*
G04 #@! TD*
D13*
G04 #@! TO.C,C10*
X137250000Y-87950000D03*
X137250000Y-92350000D03*
G04 #@! TD*
D12*
G04 #@! TO.C,C11*
X147750000Y-91167500D03*
X147750000Y-88132500D03*
G04 #@! TD*
D13*
G04 #@! TO.C,C12*
X143250000Y-92350000D03*
X143250000Y-87950000D03*
G04 #@! TD*
D14*
G04 #@! TO.C,D1*
X149000000Y-123510000D03*
X149000000Y-120650000D03*
G04 #@! TD*
G04 #@! TO.C,D2*
X152000000Y-120650000D03*
X152000000Y-123510000D03*
G04 #@! TD*
G04 #@! TO.C,D3*
X155000000Y-123510000D03*
X155000000Y-120650000D03*
G04 #@! TD*
D15*
G04 #@! TO.C,J1*
X143050000Y-145400000D03*
D16*
X145590000Y-145400000D03*
X148130000Y-145400000D03*
X150670000Y-145400000D03*
X153210000Y-145400000D03*
X155750000Y-145400000D03*
X158290000Y-145400000D03*
X160830000Y-145400000D03*
G04 #@! TD*
G04 #@! TO.C,J2*
X170000000Y-130020000D03*
X170000000Y-127480000D03*
X170000000Y-124940000D03*
D15*
X170000000Y-122400000D03*
G04 #@! TD*
G04 #@! TO.C,J3*
X170000000Y-133900000D03*
D16*
X170000000Y-136440000D03*
X170000000Y-138980000D03*
X170000000Y-141520000D03*
G04 #@! TD*
D15*
G04 #@! TO.C,J4*
X170000000Y-105820000D03*
D16*
X170000000Y-108360000D03*
X170000000Y-110900000D03*
X170000000Y-113440000D03*
X170000000Y-115980000D03*
X170000000Y-118520000D03*
G04 #@! TD*
D15*
G04 #@! TO.C,J5*
X170000000Y-94320000D03*
D16*
X170000000Y-96860000D03*
X170000000Y-99400000D03*
X170000000Y-101940000D03*
G04 #@! TD*
D12*
G04 #@! TO.C,R1*
X162000000Y-102615000D03*
X162000000Y-105650000D03*
G04 #@! TD*
G04 #@! TO.C,R2*
X154550000Y-102650000D03*
X154550000Y-105685000D03*
G04 #@! TD*
G04 #@! TO.C,R3*
X152050000Y-105685000D03*
X152050000Y-102650000D03*
G04 #@! TD*
D11*
G04 #@! TO.C,R4*
X133232500Y-109500000D03*
X136267500Y-109500000D03*
G04 #@! TD*
D12*
G04 #@! TO.C,R5*
X149000000Y-125865000D03*
X149000000Y-128900000D03*
G04 #@! TD*
G04 #@! TO.C,R6*
X152000000Y-125900000D03*
X152000000Y-128935000D03*
G04 #@! TD*
G04 #@! TO.C,R7*
X155000000Y-128935000D03*
X155000000Y-125900000D03*
G04 #@! TD*
G04 #@! TO.C,R8*
X147000000Y-105650000D03*
X147000000Y-102615000D03*
G04 #@! TD*
D17*
G04 #@! TO.C,TP1*
X141250000Y-140400000D03*
G04 #@! TD*
G04 #@! TO.C,TP2*
X150750000Y-140400000D03*
G04 #@! TD*
G04 #@! TO.C,TP3*
X153750000Y-140400000D03*
G04 #@! TD*
G04 #@! TO.C,TP5*
X165750000Y-99400000D03*
G04 #@! TD*
G04 #@! TO.C,TP6*
X165750000Y-101650000D03*
G04 #@! TD*
G04 #@! TO.C,TP7*
X155250000Y-91900000D03*
G04 #@! TD*
G04 #@! TO.C,TP8*
X156750000Y-93900000D03*
G04 #@! TD*
G04 #@! TO.C,TP9*
X165000000Y-128650000D03*
G04 #@! TD*
G04 #@! TO.C,TP10*
X165000000Y-130900000D03*
G04 #@! TD*
G04 #@! TO.C,TP11*
X165000000Y-139900000D03*
G04 #@! TD*
G04 #@! TO.C,TP12*
X165000000Y-142150000D03*
G04 #@! TD*
G04 #@! TO.C,TP13*
X165500000Y-112650000D03*
G04 #@! TD*
G04 #@! TO.C,TP14*
X165500000Y-114900000D03*
G04 #@! TD*
G04 #@! TO.C,TP15*
X165500000Y-117150000D03*
G04 #@! TD*
G04 #@! TO.C,TP16*
X165500000Y-119400000D03*
G04 #@! TD*
G04 #@! TO.C,TP17*
X144750000Y-140400000D03*
G04 #@! TD*
G04 #@! TO.C,TP18*
X147750000Y-140400000D03*
G04 #@! TD*
D18*
G04 #@! TO.C,U1*
X149300000Y-95495000D03*
X149300000Y-96765000D03*
X149300000Y-98035000D03*
X149300000Y-99305000D03*
X154700000Y-99305000D03*
X154700000Y-98035000D03*
X154700000Y-96765000D03*
X154700000Y-95495000D03*
G04 #@! TD*
D19*
G04 #@! TO.C,U2*
X148400000Y-108175000D03*
X148400000Y-108825000D03*
X148400000Y-109475000D03*
X148400000Y-110125000D03*
X148400000Y-110775000D03*
X148400000Y-111425000D03*
X148400000Y-112075000D03*
X148400000Y-112725000D03*
X148400000Y-113375000D03*
X148400000Y-114025000D03*
X148400000Y-114675000D03*
X148400000Y-115325000D03*
X148400000Y-115975000D03*
X148400000Y-116625000D03*
X155600000Y-116625000D03*
X155600000Y-115975000D03*
X155600000Y-115325000D03*
X155600000Y-114675000D03*
X155600000Y-114025000D03*
X155600000Y-113375000D03*
X155600000Y-112725000D03*
X155600000Y-112075000D03*
X155600000Y-111425000D03*
X155600000Y-110775000D03*
X155600000Y-110125000D03*
X155600000Y-109475000D03*
X155600000Y-108825000D03*
X155600000Y-108175000D03*
G04 #@! TD*
D20*
G04 #@! TO.C,U3*
X144200000Y-100430000D03*
X144200000Y-95870000D03*
D21*
X137900000Y-98150000D03*
G04 #@! TD*
D22*
G04 #@! TO.C,Y1*
X142500000Y-106462500D03*
X142500000Y-118337500D03*
G04 #@! TD*
D11*
G04 #@! TO.C,C13*
X136285000Y-112000000D03*
X133250000Y-112000000D03*
G04 #@! TD*
D23*
G04 #@! TO.C,D4*
X152750000Y-91300000D03*
X152750000Y-88000000D03*
G04 #@! TD*
D15*
G04 #@! TO.C,J6*
X163910000Y-81900000D03*
D16*
X161370000Y-81900000D03*
X158830000Y-81900000D03*
X156290000Y-81900000D03*
X153750000Y-81900000D03*
X151210000Y-81900000D03*
X148670000Y-81900000D03*
X146130000Y-81900000D03*
X143590000Y-81900000D03*
X141050000Y-81900000D03*
G04 #@! TD*
M02*
