%TF.GenerationSoftware,KiCad,Pcbnew,(5.0.0)*%
%TF.CreationDate,2018-11-18T02:02:32+05:00*%
%TF.ProjectId,Dev Board,44657620426F6172642E6B696361645F,rev?*%
%TF.SameCoordinates,Original*%
%TF.FileFunction,Soldermask,Top*%
%TF.FilePolarity,Negative*%
%FSLAX46Y46*%
G04 Gerber Fmt 4.6, Leading zero omitted, Abs format (unit mm)*
G04 Created by KiCad (PCBNEW (5.0.0)) date 11/18/18 02:02:32*
%MOMM*%
%LPD*%
G01*
G04 APERTURE LIST*
%ADD10R,2.100000X2.100000*%
%ADD11O,2.100000X2.100000*%
%ADD12R,1.795000X2.200000*%
%ADD13C,4.200000*%
%ADD14R,2.200000X1.795000*%
%ADD15R,2.000000X3.400000*%
%ADD16R,1.600000X1.300000*%
%ADD17R,1.950000X1.000000*%
%ADD18R,2.150000X0.850000*%
%ADD19R,2.600000X1.600000*%
%ADD20R,6.800000X6.200000*%
%ADD21R,2.400000X8.275000*%
%ADD22R,2.200000X1.620000*%
%ADD23C,1.400000*%
G04 APERTURE END LIST*
D10*
X98100000Y-131160000D03*
D11*
X98100000Y-128620000D03*
X98100000Y-126080000D03*
X98100000Y-123540000D03*
X98100000Y-121000000D03*
X98100000Y-118460000D03*
X98100000Y-115920000D03*
X98100000Y-113380000D03*
X98100000Y-110840000D03*
X98100000Y-108300000D03*
D12*
X100250000Y-92500000D03*
X97215000Y-92500000D03*
D13*
X137500000Y-62500000D03*
X92500000Y-62500000D03*
X92500000Y-137500000D03*
X137500000Y-137500000D03*
D14*
X113000000Y-93000000D03*
X113000000Y-89965000D03*
D12*
X100250000Y-100000000D03*
X97215000Y-100000000D03*
X97215000Y-102500000D03*
X100250000Y-102500000D03*
D14*
X121250000Y-93000000D03*
X121250000Y-89965000D03*
D12*
X100250000Y-105000000D03*
X97215000Y-105000000D03*
D14*
X124000000Y-90000000D03*
X124000000Y-93035000D03*
D12*
X97215000Y-97500000D03*
X100250000Y-97500000D03*
X97215000Y-90000000D03*
X100250000Y-90000000D03*
D14*
X112000000Y-77285000D03*
X112000000Y-74250000D03*
D15*
X105250000Y-78250000D03*
X105250000Y-73850000D03*
D14*
X114500000Y-77285000D03*
X114500000Y-74250000D03*
D15*
X98750000Y-73800000D03*
X98750000Y-78200000D03*
D16*
X109500000Y-74000000D03*
X109500000Y-77300000D03*
D11*
X105630000Y-128500000D03*
X108170000Y-128500000D03*
X110710000Y-128500000D03*
X113250000Y-128500000D03*
X115790000Y-128500000D03*
X118330000Y-128500000D03*
X120870000Y-128500000D03*
D10*
X123410000Y-128500000D03*
X132750000Y-112880000D03*
D11*
X132750000Y-115420000D03*
X132750000Y-117960000D03*
X132750000Y-120500000D03*
X132750000Y-132790000D03*
X132750000Y-130250000D03*
X132750000Y-127710000D03*
D10*
X132750000Y-125170000D03*
X132750000Y-95550000D03*
D11*
X132750000Y-98090000D03*
X132750000Y-100630000D03*
X132750000Y-103170000D03*
X132750000Y-105710000D03*
X132750000Y-108250000D03*
D10*
X132750000Y-83130000D03*
D11*
X132750000Y-85670000D03*
X132750000Y-88210000D03*
X132750000Y-90750000D03*
D10*
X129000000Y-110500000D03*
D11*
X129000000Y-113040000D03*
D14*
X126750000Y-89965000D03*
X126750000Y-93000000D03*
X110250000Y-89982500D03*
X110250000Y-93017500D03*
X118500000Y-89965000D03*
X118500000Y-93000000D03*
X115750000Y-93000000D03*
X115750000Y-89965000D03*
D12*
X100250000Y-95000000D03*
X97215000Y-95000000D03*
D17*
X113800000Y-82595000D03*
X113800000Y-83865000D03*
X113800000Y-85135000D03*
X113800000Y-86405000D03*
X119200000Y-86405000D03*
X119200000Y-85135000D03*
X119200000Y-83865000D03*
X119200000Y-82595000D03*
D18*
X111400000Y-95775000D03*
X111400000Y-96425000D03*
X111400000Y-97075000D03*
X111400000Y-97725000D03*
X111400000Y-98375000D03*
X111400000Y-99025000D03*
X111400000Y-99675000D03*
X111400000Y-100325000D03*
X111400000Y-100975000D03*
X111400000Y-101625000D03*
X111400000Y-102275000D03*
X111400000Y-102925000D03*
X111400000Y-103575000D03*
X111400000Y-104225000D03*
X118600000Y-104225000D03*
X118600000Y-103575000D03*
X118600000Y-102925000D03*
X118600000Y-102275000D03*
X118600000Y-101625000D03*
X118600000Y-100975000D03*
X118600000Y-100325000D03*
X118600000Y-99675000D03*
X118600000Y-99025000D03*
X118600000Y-98375000D03*
X118600000Y-97725000D03*
X118600000Y-97075000D03*
X118600000Y-96425000D03*
X118600000Y-95775000D03*
D19*
X106050000Y-86530000D03*
X106050000Y-81970000D03*
D20*
X99750000Y-84250000D03*
D21*
X105500000Y-93062500D03*
X105500000Y-104937500D03*
D10*
X105000000Y-68500000D03*
D11*
X107540000Y-68500000D03*
X110080000Y-68500000D03*
X112620000Y-68500000D03*
X115160000Y-68500000D03*
X117700000Y-68500000D03*
X120240000Y-68500000D03*
X122780000Y-68500000D03*
D22*
X123250000Y-110250000D03*
X123250000Y-113110000D03*
X120500000Y-113110000D03*
X120500000Y-110250000D03*
X117750000Y-110250000D03*
X117750000Y-113110000D03*
X115000000Y-113110000D03*
X115000000Y-110250000D03*
X112250000Y-113110000D03*
X112250000Y-110250000D03*
X109500000Y-110250000D03*
X109500000Y-113110000D03*
X106750000Y-113110000D03*
X106750000Y-110250000D03*
X104000000Y-110250000D03*
X104000000Y-113110000D03*
D14*
X126000000Y-110215000D03*
X126000000Y-113250000D03*
D23*
X105750000Y-124000000D03*
X113750000Y-124000000D03*
X116250000Y-124000000D03*
X123750000Y-84000000D03*
X123750000Y-86250000D03*
X119750000Y-78500000D03*
X121250000Y-80250000D03*
X128250000Y-118000000D03*
X128250000Y-120500000D03*
X128250000Y-128000000D03*
X128250000Y-130250000D03*
X128500000Y-105250000D03*
X128500000Y-103000000D03*
X128500000Y-100750000D03*
X128500000Y-107500000D03*
X108500000Y-124000000D03*
X111250000Y-124000000D03*
M02*
