%TF.GenerationSoftware,KiCad,Pcbnew,(5.0.0)*%
%TF.CreationDate,2018-11-18T02:02:32+05:00*%
%TF.ProjectId,Dev Board,44657620426F6172642E6B696361645F,rev?*%
%TF.SameCoordinates,Original*%
%TF.FileFunction,Copper,L1,Top,Signal*%
%TF.FilePolarity,Positive*%
%FSLAX46Y46*%
G04 Gerber Fmt 4.6, Leading zero omitted, Abs format (unit mm)*
G04 Created by KiCad (PCBNEW (5.0.0)) date 11/18/18 02:02:32*
%MOMM*%
%LPD*%
G01*
G04 APERTURE LIST*
%ADD10R,1.700000X1.700000*%
%ADD11O,1.700000X1.700000*%
%ADD12R,1.395000X1.800000*%
%ADD13C,3.800000*%
%ADD14R,1.800000X1.395000*%
%ADD15R,1.600000X3.000000*%
%ADD16R,1.200000X0.900000*%
%ADD17R,1.550000X0.600000*%
%ADD18R,1.750000X0.450000*%
%ADD19R,2.200000X1.200000*%
%ADD20R,6.400000X5.800000*%
%ADD21R,2.000000X7.875000*%
%ADD22R,1.800000X1.220000*%
%ADD23C,1.000000*%
%ADD24C,0.800000*%
%ADD25C,0.508000*%
%ADD26C,0.457200*%
%ADD27C,0.406400*%
%ADD28C,0.254000*%
G04 APERTURE END LIST*
D10*
X98100000Y-131160000D03*
D11*
X98100000Y-128620000D03*
X98100000Y-126080000D03*
X98100000Y-123540000D03*
X98100000Y-121000000D03*
X98100000Y-118460000D03*
X98100000Y-115920000D03*
X98100000Y-113380000D03*
X98100000Y-110840000D03*
X98100000Y-108300000D03*
D12*
X100250000Y-92500000D03*
X97215000Y-92500000D03*
D13*
X137500000Y-62500000D03*
X92500000Y-62500000D03*
X92500000Y-137500000D03*
X137500000Y-137500000D03*
D14*
X113000000Y-93000000D03*
X113000000Y-89965000D03*
D12*
X100250000Y-100000000D03*
X97215000Y-100000000D03*
X97215000Y-102500000D03*
X100250000Y-102500000D03*
D14*
X121250000Y-93000000D03*
X121250000Y-89965000D03*
D12*
X100250000Y-105000000D03*
X97215000Y-105000000D03*
D14*
X124000000Y-90000000D03*
X124000000Y-93035000D03*
D12*
X97215000Y-97500000D03*
X100250000Y-97500000D03*
X97215000Y-90000000D03*
X100250000Y-90000000D03*
D14*
X112000000Y-77285000D03*
X112000000Y-74250000D03*
D15*
X105250000Y-78250000D03*
X105250000Y-73850000D03*
D14*
X114500000Y-77285000D03*
X114500000Y-74250000D03*
D15*
X98750000Y-73800000D03*
X98750000Y-78200000D03*
D16*
X109500000Y-74000000D03*
X109500000Y-77300000D03*
D11*
X105630000Y-128500000D03*
X108170000Y-128500000D03*
X110710000Y-128500000D03*
X113250000Y-128500000D03*
X115790000Y-128500000D03*
X118330000Y-128500000D03*
X120870000Y-128500000D03*
D10*
X123410000Y-128500000D03*
X132750000Y-112880000D03*
D11*
X132750000Y-115420000D03*
X132750000Y-117960000D03*
X132750000Y-120500000D03*
X132750000Y-132790000D03*
X132750000Y-130250000D03*
X132750000Y-127710000D03*
D10*
X132750000Y-125170000D03*
X132750000Y-95550000D03*
D11*
X132750000Y-98090000D03*
X132750000Y-100630000D03*
X132750000Y-103170000D03*
X132750000Y-105710000D03*
X132750000Y-108250000D03*
D10*
X132750000Y-83130000D03*
D11*
X132750000Y-85670000D03*
X132750000Y-88210000D03*
X132750000Y-90750000D03*
D10*
X129000000Y-110500000D03*
D11*
X129000000Y-113040000D03*
D14*
X126750000Y-89965000D03*
X126750000Y-93000000D03*
X110250000Y-89982500D03*
X110250000Y-93017500D03*
X118500000Y-89965000D03*
X118500000Y-93000000D03*
X115750000Y-93000000D03*
X115750000Y-89965000D03*
D12*
X100250000Y-95000000D03*
X97215000Y-95000000D03*
D17*
X113800000Y-82595000D03*
X113800000Y-83865000D03*
X113800000Y-85135000D03*
X113800000Y-86405000D03*
X119200000Y-86405000D03*
X119200000Y-85135000D03*
X119200000Y-83865000D03*
X119200000Y-82595000D03*
D18*
X111400000Y-95775000D03*
X111400000Y-96425000D03*
X111400000Y-97075000D03*
X111400000Y-97725000D03*
X111400000Y-98375000D03*
X111400000Y-99025000D03*
X111400000Y-99675000D03*
X111400000Y-100325000D03*
X111400000Y-100975000D03*
X111400000Y-101625000D03*
X111400000Y-102275000D03*
X111400000Y-102925000D03*
X111400000Y-103575000D03*
X111400000Y-104225000D03*
X118600000Y-104225000D03*
X118600000Y-103575000D03*
X118600000Y-102925000D03*
X118600000Y-102275000D03*
X118600000Y-101625000D03*
X118600000Y-100975000D03*
X118600000Y-100325000D03*
X118600000Y-99675000D03*
X118600000Y-99025000D03*
X118600000Y-98375000D03*
X118600000Y-97725000D03*
X118600000Y-97075000D03*
X118600000Y-96425000D03*
X118600000Y-95775000D03*
D19*
X106050000Y-86530000D03*
X106050000Y-81970000D03*
D20*
X99750000Y-84250000D03*
D21*
X105500000Y-93062500D03*
X105500000Y-104937500D03*
D10*
X105000000Y-68500000D03*
D11*
X107540000Y-68500000D03*
X110080000Y-68500000D03*
X112620000Y-68500000D03*
X115160000Y-68500000D03*
X117700000Y-68500000D03*
X120240000Y-68500000D03*
X122780000Y-68500000D03*
D22*
X123250000Y-110250000D03*
X123250000Y-113110000D03*
X120500000Y-113110000D03*
X120500000Y-110250000D03*
X117750000Y-110250000D03*
X117750000Y-113110000D03*
X115000000Y-113110000D03*
X115000000Y-110250000D03*
X112250000Y-113110000D03*
X112250000Y-110250000D03*
X109500000Y-110250000D03*
X109500000Y-113110000D03*
X106750000Y-113110000D03*
X106750000Y-110250000D03*
X104000000Y-110250000D03*
X104000000Y-113110000D03*
D14*
X126000000Y-110215000D03*
X126000000Y-113250000D03*
D23*
X105750000Y-124000000D03*
X113750000Y-124000000D03*
X116250000Y-124000000D03*
X123750000Y-84000000D03*
X123750000Y-86250000D03*
X119750000Y-78500000D03*
X121250000Y-80250000D03*
X128250000Y-118000000D03*
X128250000Y-120500000D03*
X128250000Y-128000000D03*
X128250000Y-130250000D03*
X128500000Y-105250000D03*
X128500000Y-103000000D03*
X128500000Y-100750000D03*
X128500000Y-107500000D03*
X108500000Y-124000000D03*
X111250000Y-124000000D03*
D24*
X113000000Y-100500000D03*
X110750000Y-85500000D03*
X95750000Y-86500000D03*
X97500000Y-88250000D03*
X98750000Y-100000000D03*
X121750000Y-102250000D03*
X102500000Y-109000000D03*
X103500000Y-102250000D03*
X102250000Y-74750000D03*
X98750000Y-98000000D03*
X98750000Y-88250000D03*
X112750000Y-88500000D03*
X122750000Y-102750000D03*
X103250000Y-98250000D03*
X106956090Y-97793910D03*
X102500000Y-93000000D03*
X102500000Y-95755600D03*
X120000000Y-108750000D03*
X116124399Y-107850331D03*
X120250000Y-99202403D03*
X112250000Y-83000000D03*
X114159290Y-108340710D03*
X114750000Y-87750000D03*
X120250000Y-98250000D03*
X112500000Y-108500000D03*
X109500000Y-107755600D03*
X108477302Y-107000000D03*
X107721702Y-106042447D03*
X108250000Y-105250000D03*
X103750000Y-103750000D03*
X106500000Y-84750000D03*
X111000000Y-84000000D03*
X111500000Y-94500000D03*
X103750000Y-100000000D03*
X109761201Y-104494400D03*
X118764051Y-105494400D03*
X122500000Y-108250000D03*
X122500000Y-116250000D03*
X121500241Y-107995472D03*
X120250000Y-104738800D03*
X109005601Y-103005601D03*
X113000000Y-96250000D03*
X113000000Y-97250000D03*
X109064410Y-97000000D03*
X108750000Y-98000000D03*
X109750000Y-99780600D03*
X115994400Y-87750000D03*
X118500000Y-87750000D03*
D25*
X111400000Y-100325000D02*
X112825000Y-100325000D01*
X112825000Y-100325000D02*
X113000000Y-100500000D01*
D26*
X106050000Y-86530000D02*
X109720000Y-86530000D01*
X109720000Y-86530000D02*
X110750000Y-85500000D01*
X112385000Y-83865000D02*
X110750000Y-85500000D01*
X113800000Y-83865000D02*
X112385000Y-83865000D01*
X97215000Y-92500000D02*
X97215000Y-90000000D01*
X95750000Y-87035802D02*
X95750000Y-86500000D01*
X97215000Y-90000000D02*
X97215000Y-88500802D01*
X97215000Y-88500802D02*
X95750000Y-87035802D01*
X97215000Y-90000000D02*
X97215000Y-88535000D01*
X97215000Y-88535000D02*
X97500000Y-88250000D01*
X98750000Y-100000000D02*
X97215000Y-100000000D01*
X97215000Y-97500000D02*
X97215000Y-100000000D01*
X97215000Y-100000000D02*
X97215000Y-102500000D01*
X97215000Y-102500000D02*
X97215000Y-105000000D01*
X118600000Y-101625000D02*
X121125000Y-101625000D01*
X121125000Y-101625000D02*
X121750000Y-102250000D01*
X110710000Y-124540000D02*
X111250000Y-124000000D01*
X110710000Y-128500000D02*
X110710000Y-124540000D01*
X110710000Y-129790000D02*
X110710000Y-128500000D01*
X110500000Y-130000000D02*
X110710000Y-129790000D01*
X98100000Y-128620000D02*
X99480000Y-130000000D01*
X99480000Y-130000000D02*
X110500000Y-130000000D01*
X103100001Y-102649999D02*
X103500000Y-102250000D01*
X102899999Y-102850001D02*
X103100001Y-102649999D01*
X102899999Y-108600001D02*
X102899999Y-102850001D01*
X102500000Y-109000000D02*
X102899999Y-108600001D01*
D25*
X99750000Y-84250000D02*
X98750000Y-83250000D01*
X98750000Y-83250000D02*
X98750000Y-78200000D01*
X110267500Y-89965000D02*
X110250000Y-89982500D01*
X113000000Y-89965000D02*
X110267500Y-89965000D01*
X110250000Y-89982500D02*
X109982500Y-89982500D01*
X109982500Y-89982500D02*
X108250000Y-88250000D01*
X100050000Y-84250000D02*
X99750000Y-84250000D01*
X104050000Y-88250000D02*
X100050000Y-84250000D01*
X108250000Y-88250000D02*
X104050000Y-88250000D01*
X109402000Y-88250000D02*
X108250000Y-88250000D01*
X112517000Y-85135000D02*
X109402000Y-88250000D01*
X113800000Y-85135000D02*
X112517000Y-85135000D01*
X100058000Y-78200000D02*
X98750000Y-78200000D01*
X102076901Y-76181099D02*
X100058000Y-78200000D01*
X113193599Y-76181099D02*
X102076901Y-76181099D01*
X114297500Y-77285000D02*
X113193599Y-76181099D01*
X114500000Y-77285000D02*
X114297500Y-77285000D01*
X102250000Y-76008000D02*
X102076901Y-76181099D01*
X102250000Y-74750000D02*
X102250000Y-76008000D01*
X100250000Y-105000000D02*
X100250000Y-102500000D01*
X100250000Y-100000000D02*
X100250000Y-102500000D01*
X100250000Y-100000000D02*
X98750000Y-98500000D01*
X98750000Y-98500000D02*
X98750000Y-98000000D01*
X98750000Y-85250000D02*
X99750000Y-84250000D01*
X98750000Y-88250000D02*
X98750000Y-85250000D01*
X113000000Y-89965000D02*
X113000000Y-88750000D01*
X113000000Y-88750000D02*
X112750000Y-88500000D01*
D26*
X118600000Y-100975000D02*
X119975000Y-100975000D01*
X119975000Y-100975000D02*
X121725000Y-100975000D01*
X121725000Y-100975000D02*
X122531001Y-101781001D01*
X122531001Y-101781001D02*
X122750000Y-102000000D01*
X122750000Y-102000000D02*
X122750000Y-102750000D01*
X108170000Y-124330000D02*
X108500000Y-124000000D01*
X108170000Y-128500000D02*
X108170000Y-124330000D01*
D27*
X121250000Y-93000000D02*
X118500000Y-93000000D01*
X123797500Y-93035000D02*
X124000000Y-93035000D01*
X122693600Y-91931100D02*
X123797500Y-93035000D01*
X117021400Y-91931100D02*
X122693600Y-91931100D01*
X115952500Y-93000000D02*
X117021400Y-91931100D01*
X115750000Y-93000000D02*
X115952500Y-93000000D01*
X100250000Y-97500000D02*
X102500000Y-97500000D01*
X102500000Y-97500000D02*
X103250000Y-98250000D01*
X108187180Y-99025000D02*
X109500000Y-99025000D01*
X106956090Y-97793910D02*
X108187180Y-99025000D01*
X109237180Y-99025000D02*
X109500000Y-99025000D01*
X109500000Y-99025000D02*
X111400000Y-99025000D01*
X105500000Y-96356400D02*
X105500000Y-93062500D01*
X103562500Y-95000000D02*
X105500000Y-93062500D01*
X100250000Y-95000000D02*
X103562500Y-95000000D01*
X102437500Y-90000000D02*
X105500000Y-93062500D01*
X100250000Y-90000000D02*
X102437500Y-90000000D01*
X105500000Y-97406400D02*
X105500000Y-93062500D01*
X109068600Y-100975000D02*
X105500000Y-97406400D01*
X111400000Y-100975000D02*
X109068600Y-100975000D01*
X105500000Y-104250000D02*
X105500000Y-104937500D01*
X111400000Y-101625000D02*
X108125000Y-101625000D01*
X108125000Y-101625000D02*
X105500000Y-104250000D01*
X99512500Y-92500000D02*
X100250000Y-92500000D01*
X97215000Y-94797500D02*
X99512500Y-92500000D01*
X97215000Y-95000000D02*
X97215000Y-94797500D01*
X100250000Y-92500000D02*
X102000000Y-92500000D01*
X102000000Y-92500000D02*
X102500000Y-93000000D01*
X105500000Y-98755600D02*
X105500000Y-104937500D01*
X102500000Y-95755600D02*
X105500000Y-98755600D01*
D25*
X108550000Y-78250000D02*
X109500000Y-77300000D01*
X105250000Y-78250000D02*
X108550000Y-78250000D01*
X111985000Y-77300000D02*
X112000000Y-77285000D01*
X109500000Y-77300000D02*
X111985000Y-77300000D01*
X106050000Y-79050000D02*
X105250000Y-78250000D01*
X106050000Y-81970000D02*
X106050000Y-79050000D01*
X109350000Y-74000000D02*
X105000000Y-69650000D01*
X109500000Y-74000000D02*
X109350000Y-74000000D01*
X105000000Y-69650000D02*
X105000000Y-68500000D01*
D27*
X104000000Y-113110000D02*
X106750000Y-113110000D01*
X106750000Y-113110000D02*
X109500000Y-113110000D01*
X109500000Y-113110000D02*
X112250000Y-113110000D01*
X112250000Y-113110000D02*
X115000000Y-113110000D01*
X115000000Y-113110000D02*
X117750000Y-113110000D01*
X117750000Y-113110000D02*
X120500000Y-113110000D01*
X120500000Y-113110000D02*
X123250000Y-113110000D01*
X123540000Y-113110000D02*
X123250000Y-113110000D01*
X125250000Y-111400000D02*
X123540000Y-113110000D01*
X125250000Y-111250000D02*
X125250000Y-111400000D01*
X126000000Y-110215000D02*
X126000000Y-110500000D01*
X126000000Y-110500000D02*
X125250000Y-111250000D01*
X122960000Y-110250000D02*
X123250000Y-110250000D01*
X121460000Y-108750000D02*
X122210000Y-109500000D01*
X120000000Y-108750000D02*
X121460000Y-108750000D01*
X122210000Y-109500000D02*
X122960000Y-110250000D01*
X118600000Y-100325000D02*
X122325000Y-100325000D01*
X123250000Y-109233600D02*
X123250000Y-110250000D01*
X123505601Y-108977999D02*
X123250000Y-109233600D01*
X123505601Y-101505601D02*
X123505601Y-108977999D01*
X122325000Y-100325000D02*
X123505601Y-101505601D01*
X117509918Y-99675000D02*
X118600000Y-99675000D01*
X117108461Y-100076457D02*
X117509918Y-99675000D01*
X116124399Y-107850331D02*
X117108461Y-106866269D01*
X117108461Y-106866269D02*
X117108461Y-100076457D01*
X120210000Y-110250000D02*
X120500000Y-110250000D01*
X118210330Y-108250330D02*
X120210000Y-110250000D01*
X116524398Y-108250330D02*
X118210330Y-108250330D01*
X116124399Y-107850331D02*
X116524398Y-108250330D01*
X115655000Y-82595000D02*
X113800000Y-82595000D01*
X119750000Y-78500000D02*
X115655000Y-82595000D01*
X118600000Y-99025000D02*
X120072597Y-99025000D01*
X120072597Y-99025000D02*
X120250000Y-99202403D01*
X112655000Y-82595000D02*
X112250000Y-83000000D01*
X113800000Y-82595000D02*
X112655000Y-82595000D01*
X117155601Y-99094399D02*
X116549651Y-99700349D01*
X120250000Y-99202403D02*
X120141996Y-99094399D01*
X120141996Y-99094399D02*
X117155601Y-99094399D01*
X117460000Y-110250000D02*
X117750000Y-110250000D01*
X115641420Y-108431420D02*
X117460000Y-110250000D01*
X114250000Y-108431420D02*
X115641420Y-108431420D01*
X114159290Y-108340710D02*
X114250000Y-108431420D01*
X116549651Y-105950349D02*
X114159290Y-108340710D01*
X116549651Y-99700349D02*
X116549651Y-105950349D01*
X114245082Y-86405000D02*
X113800000Y-86405000D01*
X115250000Y-85400082D02*
X114750000Y-85900082D01*
X115250000Y-83790276D02*
X115250000Y-85400082D01*
X118790276Y-80250000D02*
X115250000Y-83790276D01*
X121250000Y-80250000D02*
X118790276Y-80250000D01*
X114930601Y-85719481D02*
X114750000Y-85900082D01*
X114750000Y-85900082D02*
X114245082Y-86405000D01*
X113800000Y-86405000D02*
X113800000Y-86800000D01*
X113800000Y-86800000D02*
X114750000Y-87750000D01*
X120125000Y-98375000D02*
X118600000Y-98375000D01*
X120250000Y-98250000D02*
X120125000Y-98375000D01*
X113250000Y-108500000D02*
X115000000Y-110250000D01*
X112500000Y-108500000D02*
X113250000Y-108500000D01*
X119684315Y-98250000D02*
X120250000Y-98250000D01*
X119628714Y-98305601D02*
X119684315Y-98250000D01*
X116944399Y-98305601D02*
X119628714Y-98305601D01*
X115990841Y-99259159D02*
X116944399Y-98305601D01*
X112500000Y-108500000D02*
X115990841Y-105009159D01*
X115990841Y-105009159D02*
X115990841Y-99259159D01*
X109755600Y-107755600D02*
X112250000Y-110250000D01*
X109500000Y-107755600D02*
X109755600Y-107755600D01*
X111980310Y-107755600D02*
X115432031Y-104303879D01*
X109500000Y-107755600D02*
X111980310Y-107755600D01*
X115432031Y-104303879D02*
X115432031Y-98817969D01*
X116525000Y-97725000D02*
X118600000Y-97725000D01*
X115432031Y-98817969D02*
X116525000Y-97725000D01*
X108477302Y-109227302D02*
X109500000Y-110250000D01*
X108477302Y-107000000D02*
X108477302Y-109227302D01*
X115925000Y-97075000D02*
X118600000Y-97075000D01*
X115675000Y-97075000D02*
X115925000Y-97075000D01*
X114873221Y-97876779D02*
X115675000Y-97075000D01*
X114873221Y-104072413D02*
X114873221Y-97876779D01*
X108477302Y-107000000D02*
X111945634Y-107000000D01*
X111945634Y-107000000D02*
X114873221Y-104072413D01*
X107721702Y-109278298D02*
X106750000Y-110250000D01*
X107721702Y-106042447D02*
X107721702Y-109278298D01*
X117318600Y-96425000D02*
X118600000Y-96425000D01*
X114825000Y-96425000D02*
X117318600Y-96425000D01*
X114314411Y-96935589D02*
X114825000Y-96425000D01*
X114314411Y-103840947D02*
X114314411Y-96935589D01*
X112112911Y-106042447D02*
X114314411Y-103840947D01*
X107721702Y-106042447D02*
X112112911Y-106042447D01*
X115790000Y-124460000D02*
X116250000Y-124000000D01*
X115790000Y-128500000D02*
X115790000Y-124460000D01*
X111290000Y-133000000D02*
X115790000Y-128500000D01*
X96750000Y-133000000D02*
X111290000Y-133000000D01*
X95750000Y-132000000D02*
X96750000Y-133000000D01*
X98100000Y-110840000D02*
X95750000Y-113190000D01*
X95750000Y-113190000D02*
X95750000Y-132000000D01*
X104000000Y-110250000D02*
X104000000Y-109233600D01*
X113755601Y-99529317D02*
X113755601Y-99750000D01*
X113755601Y-99750000D02*
X113755601Y-103609481D01*
X108250000Y-105250000D02*
X112115082Y-105250000D01*
X113755601Y-103609481D02*
X112115082Y-105250000D01*
X114500000Y-95775000D02*
X118600000Y-95775000D01*
X113755601Y-96519399D02*
X114500000Y-95775000D01*
X113755601Y-99750000D02*
X113755601Y-96519399D01*
X103766400Y-104332085D02*
X103766400Y-109000000D01*
X103750000Y-104315685D02*
X103766400Y-104332085D01*
X103750000Y-103750000D02*
X103750000Y-104315685D01*
X104000000Y-109233600D02*
X103766400Y-109000000D01*
X113250001Y-124499999D02*
X113750000Y-124000000D01*
X113250000Y-128500000D02*
X113250001Y-124499999D01*
X110250000Y-93017500D02*
X110250000Y-95250000D01*
X110775000Y-95775000D02*
X111400000Y-95775000D01*
X110250000Y-95250000D02*
X110775000Y-95775000D01*
X106500000Y-84750000D02*
X110250000Y-84750000D01*
X110250000Y-84750000D02*
X111000000Y-84000000D01*
X111500000Y-94267500D02*
X110250000Y-93017500D01*
X111500000Y-94500000D02*
X111500000Y-94267500D01*
X105630000Y-124120000D02*
X105750000Y-124000000D01*
X105630000Y-128500000D02*
X105630000Y-124120000D01*
X105750000Y-124000000D02*
X105750000Y-118750000D01*
X105750000Y-118750000D02*
X100250000Y-113250000D01*
X100250000Y-107500000D02*
X102000000Y-105750000D01*
X100250000Y-107500000D02*
X100250000Y-107250000D01*
X100250000Y-113250000D02*
X100250000Y-107500000D01*
X102000000Y-105750000D02*
X102000000Y-101750000D01*
X102000000Y-101750000D02*
X103750000Y-100000000D01*
X132710000Y-118000000D02*
X132750000Y-117960000D01*
X128250000Y-118000000D02*
X132710000Y-118000000D01*
X111400000Y-104225000D02*
X110030601Y-104225000D01*
X110030601Y-104225000D02*
X109761201Y-104494400D01*
X128960000Y-105710000D02*
X128500000Y-105250000D01*
X132750000Y-105710000D02*
X128960000Y-105710000D01*
X133599999Y-106559999D02*
X132750000Y-105710000D01*
X133955601Y-106915601D02*
X133599999Y-106559999D01*
X133955601Y-116754399D02*
X133955601Y-106915601D01*
X132750000Y-117960000D02*
X133955601Y-116754399D01*
X132580000Y-103000000D02*
X132750000Y-103170000D01*
X128500000Y-103000000D02*
X132580000Y-103000000D01*
X128250000Y-120500000D02*
X132750000Y-120500000D01*
X133599999Y-104019999D02*
X132750000Y-103170000D01*
X134514410Y-104934410D02*
X133599999Y-104019999D01*
X134514410Y-118735590D02*
X134514410Y-104934410D01*
X132750000Y-120500000D02*
X134514410Y-118735590D01*
X118764051Y-104389051D02*
X118600000Y-104225000D01*
X118764051Y-105494400D02*
X118764051Y-104389051D01*
X130210000Y-130250000D02*
X132750000Y-132790000D01*
X128250000Y-130250000D02*
X130210000Y-130250000D01*
X128250000Y-130250000D02*
X122500000Y-124500000D01*
X119881400Y-102275000D02*
X118600000Y-102275000D01*
X120565276Y-102275000D02*
X119881400Y-102275000D01*
X122500000Y-104209724D02*
X120565276Y-102275000D01*
X122500000Y-108250000D02*
X122500000Y-104209724D01*
X122500000Y-124500000D02*
X122500000Y-116250000D01*
X130500000Y-128000000D02*
X132750000Y-130250000D01*
X128250000Y-128000000D02*
X130500000Y-128000000D01*
X118600000Y-102925000D02*
X120425000Y-102925000D01*
X120425000Y-102925000D02*
X121500241Y-104000241D01*
X121500241Y-104000241D02*
X121500241Y-107995472D01*
X132630000Y-100750000D02*
X132750000Y-100630000D01*
X128620000Y-100630000D02*
X128500000Y-100750000D01*
X132750000Y-100630000D02*
X128620000Y-100630000D01*
X119881400Y-103575000D02*
X118600000Y-103575000D01*
X120250000Y-103943600D02*
X119881400Y-103575000D01*
X120250000Y-104738800D02*
X120250000Y-103943600D01*
X132000000Y-107500000D02*
X132750000Y-108250000D01*
X128500000Y-107500000D02*
X132000000Y-107500000D01*
X109575000Y-103575000D02*
X109005601Y-103005601D01*
X111400000Y-103575000D02*
X109575000Y-103575000D01*
X115750000Y-89500000D02*
X115750000Y-89965000D01*
X116750000Y-88500000D02*
X115750000Y-89500000D01*
X116750000Y-85840000D02*
X116750000Y-88500000D01*
X119200000Y-83865000D02*
X118725000Y-83865000D01*
X118725000Y-83865000D02*
X116750000Y-85840000D01*
X123615000Y-83865000D02*
X123750000Y-84000000D01*
X119200000Y-83865000D02*
X123615000Y-83865000D01*
X128540000Y-84000000D02*
X123750000Y-84000000D01*
X132750000Y-88210000D02*
X128540000Y-84000000D01*
X118365000Y-85135000D02*
X117500000Y-86000000D01*
X119200000Y-85135000D02*
X118365000Y-85135000D01*
X118500000Y-88861100D02*
X118500000Y-89965000D01*
X117500000Y-87861100D02*
X118500000Y-88861100D01*
X117500000Y-86000000D02*
X117500000Y-87861100D01*
X122635000Y-85135000D02*
X119200000Y-85135000D01*
X123750000Y-86250000D02*
X122635000Y-85135000D01*
X128250000Y-86250000D02*
X123750000Y-86250000D01*
X132750000Y-90750000D02*
X128250000Y-86250000D01*
X112825000Y-96425000D02*
X111400000Y-96425000D01*
X113000000Y-96250000D02*
X112825000Y-96425000D01*
X111400000Y-97075000D02*
X112825000Y-97075000D01*
X112825000Y-97075000D02*
X113000000Y-97250000D01*
X109789410Y-97725000D02*
X111400000Y-97725000D01*
X109064410Y-97000000D02*
X109789410Y-97725000D01*
X109125000Y-98375000D02*
X111400000Y-98375000D01*
X108750000Y-98000000D02*
X109125000Y-98375000D01*
X111400000Y-99675000D02*
X109855600Y-99675000D01*
X109855600Y-99675000D02*
X109750000Y-99780600D01*
X128790000Y-113250000D02*
X129000000Y-113040000D01*
X126000000Y-113250000D02*
X128790000Y-113250000D01*
X118725000Y-82595000D02*
X116000000Y-85320000D01*
X119200000Y-82595000D02*
X118725000Y-82595000D01*
X116000000Y-85320000D02*
X116000000Y-87744400D01*
X116000000Y-87744400D02*
X115994400Y-87750000D01*
X126750000Y-88861100D02*
X126750000Y-89965000D01*
X125638900Y-87750000D02*
X126750000Y-88861100D01*
X118500000Y-87750000D02*
X125638900Y-87750000D01*
D28*
G36*
X134873000Y-104107606D02*
X134251072Y-103485679D01*
X134251070Y-103485676D01*
X134209558Y-103444164D01*
X134264092Y-103170000D01*
X134148839Y-102590582D01*
X133820625Y-102099375D01*
X133522239Y-101900000D01*
X133820625Y-101700625D01*
X134148839Y-101209418D01*
X134264092Y-100630000D01*
X134148839Y-100050582D01*
X133820625Y-99559375D01*
X133501522Y-99346157D01*
X133631358Y-99285183D01*
X134021645Y-98856924D01*
X134191476Y-98446890D01*
X134070155Y-98217000D01*
X132877000Y-98217000D01*
X132877000Y-98237000D01*
X132623000Y-98237000D01*
X132623000Y-98217000D01*
X131429845Y-98217000D01*
X131308524Y-98446890D01*
X131478355Y-98856924D01*
X131868642Y-99285183D01*
X131998478Y-99346157D01*
X131679375Y-99559375D01*
X131524074Y-99791800D01*
X129146933Y-99791800D01*
X129142926Y-99787793D01*
X128725766Y-99615000D01*
X128274234Y-99615000D01*
X127857074Y-99787793D01*
X127537793Y-100107074D01*
X127365000Y-100524234D01*
X127365000Y-100975766D01*
X127537793Y-101392926D01*
X127857074Y-101712207D01*
X128250092Y-101875000D01*
X127857074Y-102037793D01*
X127537793Y-102357074D01*
X127365000Y-102774234D01*
X127365000Y-103225766D01*
X127537793Y-103642926D01*
X127857074Y-103962207D01*
X128250092Y-104125000D01*
X127857074Y-104287793D01*
X127537793Y-104607074D01*
X127365000Y-105024234D01*
X127365000Y-105475766D01*
X127537793Y-105892926D01*
X127857074Y-106212207D01*
X128250092Y-106375000D01*
X127857074Y-106537793D01*
X127537793Y-106857074D01*
X127365000Y-107274234D01*
X127365000Y-107725766D01*
X127537793Y-108142926D01*
X127857074Y-108462207D01*
X128274234Y-108635000D01*
X128725766Y-108635000D01*
X129142926Y-108462207D01*
X129266933Y-108338200D01*
X131253452Y-108338200D01*
X131351161Y-108829418D01*
X131679375Y-109320625D01*
X132170582Y-109648839D01*
X132603744Y-109735000D01*
X132896256Y-109735000D01*
X133117402Y-109691012D01*
X133117402Y-111382560D01*
X131900000Y-111382560D01*
X131652235Y-111431843D01*
X131442191Y-111572191D01*
X131301843Y-111782235D01*
X131252560Y-112030000D01*
X131252560Y-113730000D01*
X131301843Y-113977765D01*
X131442191Y-114187809D01*
X131652235Y-114328157D01*
X131755708Y-114348739D01*
X131478355Y-114653076D01*
X131308524Y-115063110D01*
X131429845Y-115293000D01*
X132623000Y-115293000D01*
X132623000Y-115273000D01*
X132877000Y-115273000D01*
X132877000Y-115293000D01*
X132897000Y-115293000D01*
X132897000Y-115547000D01*
X132877000Y-115547000D01*
X132877000Y-115567000D01*
X132623000Y-115567000D01*
X132623000Y-115547000D01*
X131429845Y-115547000D01*
X131308524Y-115776890D01*
X131478355Y-116186924D01*
X131868642Y-116615183D01*
X131998478Y-116676157D01*
X131679375Y-116889375D01*
X131497346Y-117161800D01*
X129016933Y-117161800D01*
X128892926Y-117037793D01*
X128475766Y-116865000D01*
X128024234Y-116865000D01*
X127607074Y-117037793D01*
X127287793Y-117357074D01*
X127115000Y-117774234D01*
X127115000Y-118225766D01*
X127287793Y-118642926D01*
X127607074Y-118962207D01*
X128024234Y-119135000D01*
X128475766Y-119135000D01*
X128892926Y-118962207D01*
X129016933Y-118838200D01*
X131550801Y-118838200D01*
X131679375Y-119030625D01*
X131977761Y-119230000D01*
X131679375Y-119429375D01*
X131524074Y-119661800D01*
X129016933Y-119661800D01*
X128892926Y-119537793D01*
X128475766Y-119365000D01*
X128024234Y-119365000D01*
X127607074Y-119537793D01*
X127287793Y-119857074D01*
X127115000Y-120274234D01*
X127115000Y-120725766D01*
X127287793Y-121142926D01*
X127607074Y-121462207D01*
X128024234Y-121635000D01*
X128475766Y-121635000D01*
X128892926Y-121462207D01*
X129016933Y-121338200D01*
X131524074Y-121338200D01*
X131679375Y-121570625D01*
X132170582Y-121898839D01*
X132603744Y-121985000D01*
X132896256Y-121985000D01*
X133329418Y-121898839D01*
X133820625Y-121570625D01*
X134148839Y-121079418D01*
X134264092Y-120500000D01*
X134209558Y-120225836D01*
X134873000Y-119562394D01*
X134873000Y-134873000D01*
X95127000Y-134873000D01*
X95127000Y-132576332D01*
X95145693Y-132604308D01*
X95215676Y-132651070D01*
X96098930Y-133534324D01*
X96145692Y-133604308D01*
X96215676Y-133651070D01*
X96215677Y-133651071D01*
X96422950Y-133789567D01*
X96477907Y-133800498D01*
X96667446Y-133838200D01*
X96667449Y-133838200D01*
X96750000Y-133854620D01*
X96832550Y-133838200D01*
X111207451Y-133838200D01*
X111290000Y-133854620D01*
X111372549Y-133838200D01*
X111372554Y-133838200D01*
X111617049Y-133789567D01*
X111894308Y-133604308D01*
X111941072Y-133534321D01*
X115515836Y-129959558D01*
X115643744Y-129985000D01*
X115936256Y-129985000D01*
X116369418Y-129898839D01*
X116860625Y-129570625D01*
X117060000Y-129272239D01*
X117259375Y-129570625D01*
X117750582Y-129898839D01*
X118183744Y-129985000D01*
X118476256Y-129985000D01*
X118909418Y-129898839D01*
X119400625Y-129570625D01*
X119600000Y-129272239D01*
X119799375Y-129570625D01*
X120290582Y-129898839D01*
X120723744Y-129985000D01*
X121016256Y-129985000D01*
X121449418Y-129898839D01*
X121940625Y-129570625D01*
X121952816Y-129552381D01*
X121961843Y-129597765D01*
X122102191Y-129807809D01*
X122312235Y-129948157D01*
X122560000Y-129997440D01*
X124260000Y-129997440D01*
X124507765Y-129948157D01*
X124717809Y-129807809D01*
X124858157Y-129597765D01*
X124907440Y-129350000D01*
X124907440Y-128092834D01*
X127115000Y-130300394D01*
X127115000Y-130475766D01*
X127287793Y-130892926D01*
X127607074Y-131212207D01*
X128024234Y-131385000D01*
X128475766Y-131385000D01*
X128892926Y-131212207D01*
X129016933Y-131088200D01*
X129862807Y-131088200D01*
X131290442Y-132515836D01*
X131235908Y-132790000D01*
X131351161Y-133369418D01*
X131679375Y-133860625D01*
X132170582Y-134188839D01*
X132603744Y-134275000D01*
X132896256Y-134275000D01*
X133329418Y-134188839D01*
X133820625Y-133860625D01*
X134148839Y-133369418D01*
X134264092Y-132790000D01*
X134148839Y-132210582D01*
X133820625Y-131719375D01*
X133522239Y-131520000D01*
X133820625Y-131320625D01*
X134148839Y-130829418D01*
X134264092Y-130250000D01*
X134148839Y-129670582D01*
X133820625Y-129179375D01*
X133501522Y-128966157D01*
X133631358Y-128905183D01*
X134021645Y-128476924D01*
X134191476Y-128066890D01*
X134070155Y-127837000D01*
X132877000Y-127837000D01*
X132877000Y-127857000D01*
X132623000Y-127857000D01*
X132623000Y-127837000D01*
X132603000Y-127837000D01*
X132603000Y-127583000D01*
X132623000Y-127583000D01*
X132623000Y-127563000D01*
X132877000Y-127563000D01*
X132877000Y-127583000D01*
X134070155Y-127583000D01*
X134191476Y-127353110D01*
X134021645Y-126943076D01*
X133744292Y-126638739D01*
X133847765Y-126618157D01*
X134057809Y-126477809D01*
X134198157Y-126267765D01*
X134247440Y-126020000D01*
X134247440Y-124320000D01*
X134198157Y-124072235D01*
X134057809Y-123862191D01*
X133847765Y-123721843D01*
X133600000Y-123672560D01*
X131900000Y-123672560D01*
X131652235Y-123721843D01*
X131442191Y-123862191D01*
X131301843Y-124072235D01*
X131252560Y-124320000D01*
X131252560Y-126020000D01*
X131301843Y-126267765D01*
X131442191Y-126477809D01*
X131652235Y-126618157D01*
X131755708Y-126638739D01*
X131478355Y-126943076D01*
X131308524Y-127353110D01*
X131429844Y-127582998D01*
X131268391Y-127582998D01*
X131151072Y-127465679D01*
X131104308Y-127395692D01*
X130827049Y-127210433D01*
X130582554Y-127161800D01*
X130582549Y-127161800D01*
X130500000Y-127145380D01*
X130417451Y-127161800D01*
X129016933Y-127161800D01*
X128892926Y-127037793D01*
X128475766Y-126865000D01*
X128024234Y-126865000D01*
X127607074Y-127037793D01*
X127287793Y-127357074D01*
X127115000Y-127774234D01*
X127115000Y-127929606D01*
X123338200Y-124152807D01*
X123338200Y-116875511D01*
X123377431Y-116836280D01*
X123535000Y-116455874D01*
X123535000Y-116044126D01*
X123377431Y-115663720D01*
X123086280Y-115372569D01*
X122705874Y-115215000D01*
X122294126Y-115215000D01*
X121913720Y-115372569D01*
X121622569Y-115663720D01*
X121465000Y-116044126D01*
X121465000Y-116455874D01*
X121622569Y-116836280D01*
X121661801Y-116875512D01*
X121661800Y-124417451D01*
X121645380Y-124500000D01*
X121661800Y-124582549D01*
X121661800Y-124582553D01*
X121710433Y-124827048D01*
X121895692Y-125104308D01*
X121965679Y-125151072D01*
X123817167Y-127002560D01*
X122560000Y-127002560D01*
X122312235Y-127051843D01*
X122102191Y-127192191D01*
X121961843Y-127402235D01*
X121952816Y-127447619D01*
X121940625Y-127429375D01*
X121449418Y-127101161D01*
X121016256Y-127015000D01*
X120723744Y-127015000D01*
X120290582Y-127101161D01*
X119799375Y-127429375D01*
X119600000Y-127727761D01*
X119400625Y-127429375D01*
X118909418Y-127101161D01*
X118476256Y-127015000D01*
X118183744Y-127015000D01*
X117750582Y-127101161D01*
X117259375Y-127429375D01*
X117060000Y-127727761D01*
X116860625Y-127429375D01*
X116628200Y-127274074D01*
X116628200Y-125071860D01*
X116892926Y-124962207D01*
X117212207Y-124642926D01*
X117385000Y-124225766D01*
X117385000Y-123774234D01*
X117212207Y-123357074D01*
X116892926Y-123037793D01*
X116475766Y-122865000D01*
X116024234Y-122865000D01*
X115607074Y-123037793D01*
X115287793Y-123357074D01*
X115115000Y-123774234D01*
X115115000Y-123961490D01*
X115000434Y-124132951D01*
X114935380Y-124460000D01*
X114951801Y-124542554D01*
X114951800Y-127274073D01*
X114719375Y-127429375D01*
X114520000Y-127727761D01*
X114320625Y-127429375D01*
X114088200Y-127274073D01*
X114088201Y-125088428D01*
X114392926Y-124962207D01*
X114712207Y-124642926D01*
X114885000Y-124225766D01*
X114885000Y-123774234D01*
X114712207Y-123357074D01*
X114392926Y-123037793D01*
X113975766Y-122865000D01*
X113524234Y-122865000D01*
X113107074Y-123037793D01*
X112787793Y-123357074D01*
X112615000Y-123774234D01*
X112615000Y-123941628D01*
X112598932Y-123965675D01*
X112598930Y-123965677D01*
X112460435Y-124172950D01*
X112395381Y-124499999D01*
X112411802Y-124582553D01*
X112411801Y-127274073D01*
X112179375Y-127429375D01*
X111966157Y-127748478D01*
X111905183Y-127618642D01*
X111476924Y-127228355D01*
X111066890Y-127058524D01*
X110837000Y-127179845D01*
X110837000Y-128373000D01*
X110857000Y-128373000D01*
X110857000Y-128627000D01*
X110837000Y-128627000D01*
X110837000Y-129820155D01*
X111066890Y-129941476D01*
X111476924Y-129771645D01*
X111905183Y-129381358D01*
X111966157Y-129251522D01*
X112179375Y-129570625D01*
X112670582Y-129898839D01*
X113103744Y-129985000D01*
X113119606Y-129985000D01*
X110942807Y-132161800D01*
X99567245Y-132161800D01*
X99597440Y-132010000D01*
X99597440Y-130310000D01*
X99548157Y-130062235D01*
X99407809Y-129852191D01*
X99197765Y-129711843D01*
X99094292Y-129691261D01*
X99371645Y-129386924D01*
X99541476Y-128976890D01*
X99420155Y-128747000D01*
X98227000Y-128747000D01*
X98227000Y-128767000D01*
X97973000Y-128767000D01*
X97973000Y-128747000D01*
X96779845Y-128747000D01*
X96658524Y-128976890D01*
X96828355Y-129386924D01*
X97105708Y-129691261D01*
X97002235Y-129711843D01*
X96792191Y-129852191D01*
X96651843Y-130062235D01*
X96602560Y-130310000D01*
X96602560Y-131667167D01*
X96588200Y-131652807D01*
X96588200Y-126091523D01*
X96701161Y-126659418D01*
X97029375Y-127150625D01*
X97348478Y-127363843D01*
X97218642Y-127424817D01*
X96828355Y-127853076D01*
X96658524Y-128263110D01*
X96779845Y-128493000D01*
X97973000Y-128493000D01*
X97973000Y-128473000D01*
X98227000Y-128473000D01*
X98227000Y-128493000D01*
X99420155Y-128493000D01*
X99541476Y-128263110D01*
X99371645Y-127853076D01*
X98981358Y-127424817D01*
X98851522Y-127363843D01*
X99170625Y-127150625D01*
X99498839Y-126659418D01*
X99614092Y-126080000D01*
X99498839Y-125500582D01*
X99170625Y-125009375D01*
X98872239Y-124810000D01*
X99170625Y-124610625D01*
X99498839Y-124119418D01*
X99614092Y-123540000D01*
X99498839Y-122960582D01*
X99170625Y-122469375D01*
X98872239Y-122270000D01*
X99170625Y-122070625D01*
X99498839Y-121579418D01*
X99614092Y-121000000D01*
X99498839Y-120420582D01*
X99170625Y-119929375D01*
X98872239Y-119730000D01*
X99170625Y-119530625D01*
X99498839Y-119039418D01*
X99614092Y-118460000D01*
X99498839Y-117880582D01*
X99170625Y-117389375D01*
X98872239Y-117190000D01*
X99170625Y-116990625D01*
X99498839Y-116499418D01*
X99614092Y-115920000D01*
X99498839Y-115340582D01*
X99170625Y-114849375D01*
X98872239Y-114650000D01*
X99170625Y-114450625D01*
X99498839Y-113959418D01*
X99548639Y-113709057D01*
X99645692Y-113854308D01*
X99715678Y-113901071D01*
X104911801Y-119097195D01*
X104911800Y-123233067D01*
X104787793Y-123357074D01*
X104615000Y-123774234D01*
X104615000Y-124225766D01*
X104787793Y-124642926D01*
X104791801Y-124646934D01*
X104791800Y-127274073D01*
X104559375Y-127429375D01*
X104231161Y-127920582D01*
X104115908Y-128500000D01*
X104231161Y-129079418D01*
X104559375Y-129570625D01*
X105050582Y-129898839D01*
X105483744Y-129985000D01*
X105776256Y-129985000D01*
X106209418Y-129898839D01*
X106700625Y-129570625D01*
X106900000Y-129272239D01*
X107099375Y-129570625D01*
X107590582Y-129898839D01*
X108023744Y-129985000D01*
X108316256Y-129985000D01*
X108749418Y-129898839D01*
X109240625Y-129570625D01*
X109453843Y-129251522D01*
X109514817Y-129381358D01*
X109943076Y-129771645D01*
X110353110Y-129941476D01*
X110583000Y-129820155D01*
X110583000Y-128627000D01*
X110563000Y-128627000D01*
X110563000Y-128373000D01*
X110583000Y-128373000D01*
X110583000Y-127179845D01*
X110353110Y-127058524D01*
X109943076Y-127228355D01*
X109514817Y-127618642D01*
X109453843Y-127748478D01*
X109240625Y-127429375D01*
X109033600Y-127291045D01*
X109033600Y-125007491D01*
X109142926Y-124962207D01*
X109315029Y-124790104D01*
X110639501Y-124790104D01*
X110676648Y-125005217D01*
X111104972Y-125148112D01*
X111555375Y-125116217D01*
X111823352Y-125005217D01*
X111860499Y-124790104D01*
X111250000Y-124179605D01*
X110639501Y-124790104D01*
X109315029Y-124790104D01*
X109462207Y-124642926D01*
X109635000Y-124225766D01*
X109635000Y-123854972D01*
X110101888Y-123854972D01*
X110133783Y-124305375D01*
X110244783Y-124573352D01*
X110459896Y-124610499D01*
X111070395Y-124000000D01*
X111429605Y-124000000D01*
X112040104Y-124610499D01*
X112255217Y-124573352D01*
X112398112Y-124145028D01*
X112366217Y-123694625D01*
X112255217Y-123426648D01*
X112040104Y-123389501D01*
X111429605Y-124000000D01*
X111070395Y-124000000D01*
X110459896Y-123389501D01*
X110244783Y-123426648D01*
X110101888Y-123854972D01*
X109635000Y-123854972D01*
X109635000Y-123774234D01*
X109462207Y-123357074D01*
X109315029Y-123209896D01*
X110639501Y-123209896D01*
X111250000Y-123820395D01*
X111860499Y-123209896D01*
X111823352Y-122994783D01*
X111395028Y-122851888D01*
X110944625Y-122883783D01*
X110676648Y-122994783D01*
X110639501Y-123209896D01*
X109315029Y-123209896D01*
X109142926Y-123037793D01*
X108725766Y-122865000D01*
X108274234Y-122865000D01*
X107857074Y-123037793D01*
X107537793Y-123357074D01*
X107365000Y-123774234D01*
X107365000Y-123980330D01*
X107356507Y-123993041D01*
X107289483Y-124330000D01*
X107306401Y-124415054D01*
X107306400Y-127291045D01*
X107099375Y-127429375D01*
X106900000Y-127727761D01*
X106700625Y-127429375D01*
X106468200Y-127274074D01*
X106468200Y-124886933D01*
X106712207Y-124642926D01*
X106885000Y-124225766D01*
X106885000Y-123774234D01*
X106712207Y-123357074D01*
X106588200Y-123233067D01*
X106588200Y-118832550D01*
X106604620Y-118750000D01*
X106588200Y-118667449D01*
X106588200Y-118667446D01*
X106550498Y-118477907D01*
X106539567Y-118422950D01*
X106401071Y-118215677D01*
X106401070Y-118215676D01*
X106354308Y-118145692D01*
X106284324Y-118098930D01*
X101088200Y-112902807D01*
X101088200Y-107847193D01*
X102534325Y-106401069D01*
X102604308Y-106354308D01*
X102651309Y-106283967D01*
X102759151Y-106122569D01*
X102789567Y-106077049D01*
X102838200Y-105832554D01*
X102838200Y-105832549D01*
X102854620Y-105750000D01*
X102838200Y-105667451D01*
X102838200Y-104253306D01*
X102872569Y-104336280D01*
X102906158Y-104369869D01*
X102911800Y-104398234D01*
X102911800Y-104398239D01*
X102928200Y-104480688D01*
X102928201Y-108917446D01*
X102911780Y-109000000D01*
X102917520Y-109028857D01*
X102852235Y-109041843D01*
X102642191Y-109182191D01*
X102501843Y-109392235D01*
X102452560Y-109640000D01*
X102452560Y-110860000D01*
X102501843Y-111107765D01*
X102642191Y-111317809D01*
X102852235Y-111458157D01*
X103100000Y-111507440D01*
X104900000Y-111507440D01*
X105147765Y-111458157D01*
X105357809Y-111317809D01*
X105375000Y-111292081D01*
X105392191Y-111317809D01*
X105602235Y-111458157D01*
X105850000Y-111507440D01*
X107650000Y-111507440D01*
X107897765Y-111458157D01*
X108107809Y-111317809D01*
X108125000Y-111292081D01*
X108142191Y-111317809D01*
X108352235Y-111458157D01*
X108600000Y-111507440D01*
X110400000Y-111507440D01*
X110647765Y-111458157D01*
X110857809Y-111317809D01*
X110875000Y-111292081D01*
X110892191Y-111317809D01*
X111102235Y-111458157D01*
X111350000Y-111507440D01*
X113150000Y-111507440D01*
X113397765Y-111458157D01*
X113607809Y-111317809D01*
X113625000Y-111292081D01*
X113642191Y-111317809D01*
X113852235Y-111458157D01*
X114100000Y-111507440D01*
X115900000Y-111507440D01*
X116147765Y-111458157D01*
X116357809Y-111317809D01*
X116375000Y-111292081D01*
X116392191Y-111317809D01*
X116602235Y-111458157D01*
X116850000Y-111507440D01*
X118650000Y-111507440D01*
X118897765Y-111458157D01*
X119107809Y-111317809D01*
X119125000Y-111292081D01*
X119142191Y-111317809D01*
X119352235Y-111458157D01*
X119600000Y-111507440D01*
X121400000Y-111507440D01*
X121647765Y-111458157D01*
X121857809Y-111317809D01*
X121875000Y-111292081D01*
X121892191Y-111317809D01*
X122102235Y-111458157D01*
X122350000Y-111507440D01*
X123957166Y-111507440D01*
X123612047Y-111852560D01*
X122350000Y-111852560D01*
X122102235Y-111901843D01*
X121892191Y-112042191D01*
X121875000Y-112067919D01*
X121857809Y-112042191D01*
X121647765Y-111901843D01*
X121400000Y-111852560D01*
X119600000Y-111852560D01*
X119352235Y-111901843D01*
X119142191Y-112042191D01*
X119125000Y-112067919D01*
X119107809Y-112042191D01*
X118897765Y-111901843D01*
X118650000Y-111852560D01*
X116850000Y-111852560D01*
X116602235Y-111901843D01*
X116392191Y-112042191D01*
X116375000Y-112067919D01*
X116357809Y-112042191D01*
X116147765Y-111901843D01*
X115900000Y-111852560D01*
X114100000Y-111852560D01*
X113852235Y-111901843D01*
X113642191Y-112042191D01*
X113625000Y-112067919D01*
X113607809Y-112042191D01*
X113397765Y-111901843D01*
X113150000Y-111852560D01*
X111350000Y-111852560D01*
X111102235Y-111901843D01*
X110892191Y-112042191D01*
X110875000Y-112067919D01*
X110857809Y-112042191D01*
X110647765Y-111901843D01*
X110400000Y-111852560D01*
X108600000Y-111852560D01*
X108352235Y-111901843D01*
X108142191Y-112042191D01*
X108125000Y-112067919D01*
X108107809Y-112042191D01*
X107897765Y-111901843D01*
X107650000Y-111852560D01*
X105850000Y-111852560D01*
X105602235Y-111901843D01*
X105392191Y-112042191D01*
X105375000Y-112067919D01*
X105357809Y-112042191D01*
X105147765Y-111901843D01*
X104900000Y-111852560D01*
X103100000Y-111852560D01*
X102852235Y-111901843D01*
X102642191Y-112042191D01*
X102501843Y-112252235D01*
X102452560Y-112500000D01*
X102452560Y-113720000D01*
X102501843Y-113967765D01*
X102642191Y-114177809D01*
X102852235Y-114318157D01*
X103100000Y-114367440D01*
X104900000Y-114367440D01*
X105147765Y-114318157D01*
X105357809Y-114177809D01*
X105375000Y-114152081D01*
X105392191Y-114177809D01*
X105602235Y-114318157D01*
X105850000Y-114367440D01*
X107650000Y-114367440D01*
X107897765Y-114318157D01*
X108107809Y-114177809D01*
X108125000Y-114152081D01*
X108142191Y-114177809D01*
X108352235Y-114318157D01*
X108600000Y-114367440D01*
X110400000Y-114367440D01*
X110647765Y-114318157D01*
X110857809Y-114177809D01*
X110875000Y-114152081D01*
X110892191Y-114177809D01*
X111102235Y-114318157D01*
X111350000Y-114367440D01*
X113150000Y-114367440D01*
X113397765Y-114318157D01*
X113607809Y-114177809D01*
X113625000Y-114152081D01*
X113642191Y-114177809D01*
X113852235Y-114318157D01*
X114100000Y-114367440D01*
X115900000Y-114367440D01*
X116147765Y-114318157D01*
X116357809Y-114177809D01*
X116375000Y-114152081D01*
X116392191Y-114177809D01*
X116602235Y-114318157D01*
X116850000Y-114367440D01*
X118650000Y-114367440D01*
X118897765Y-114318157D01*
X119107809Y-114177809D01*
X119125000Y-114152081D01*
X119142191Y-114177809D01*
X119352235Y-114318157D01*
X119600000Y-114367440D01*
X121400000Y-114367440D01*
X121647765Y-114318157D01*
X121857809Y-114177809D01*
X121875000Y-114152081D01*
X121892191Y-114177809D01*
X122102235Y-114318157D01*
X122350000Y-114367440D01*
X124150000Y-114367440D01*
X124397765Y-114318157D01*
X124526487Y-114232147D01*
X124642191Y-114405309D01*
X124852235Y-114545657D01*
X125100000Y-114594940D01*
X126900000Y-114594940D01*
X127147765Y-114545657D01*
X127357809Y-114405309D01*
X127498157Y-114195265D01*
X127519453Y-114088200D01*
X127914391Y-114088200D01*
X127929375Y-114110625D01*
X128420582Y-114438839D01*
X128853744Y-114525000D01*
X129146256Y-114525000D01*
X129579418Y-114438839D01*
X130070625Y-114110625D01*
X130398839Y-113619418D01*
X130514092Y-113040000D01*
X130398839Y-112460582D01*
X130070625Y-111969375D01*
X130048967Y-111954904D01*
X130209698Y-111888327D01*
X130388327Y-111709699D01*
X130485000Y-111476310D01*
X130485000Y-110785750D01*
X130326250Y-110627000D01*
X129127000Y-110627000D01*
X129127000Y-110647000D01*
X128873000Y-110647000D01*
X128873000Y-110627000D01*
X128853000Y-110627000D01*
X128853000Y-110373000D01*
X128873000Y-110373000D01*
X128873000Y-109173750D01*
X129127000Y-109173750D01*
X129127000Y-110373000D01*
X130326250Y-110373000D01*
X130485000Y-110214250D01*
X130485000Y-109523690D01*
X130388327Y-109290301D01*
X130209698Y-109111673D01*
X129976309Y-109015000D01*
X129285750Y-109015000D01*
X129127000Y-109173750D01*
X128873000Y-109173750D01*
X128714250Y-109015000D01*
X128023691Y-109015000D01*
X127790302Y-109111673D01*
X127611673Y-109290301D01*
X127537748Y-109468772D01*
X127498157Y-109269735D01*
X127357809Y-109059691D01*
X127147765Y-108919343D01*
X126900000Y-108870060D01*
X125100000Y-108870060D01*
X124852235Y-108919343D01*
X124642191Y-109059691D01*
X124574991Y-109160262D01*
X124397765Y-109041843D01*
X124349434Y-109032229D01*
X124360221Y-108978000D01*
X124343801Y-108895451D01*
X124343801Y-101588150D01*
X124360221Y-101505601D01*
X124343801Y-101423052D01*
X124343801Y-101423047D01*
X124295168Y-101178552D01*
X124217072Y-101061673D01*
X124156672Y-100971278D01*
X124156671Y-100971277D01*
X124109909Y-100901293D01*
X124039925Y-100854532D01*
X122976072Y-99790679D01*
X122929308Y-99720692D01*
X122652049Y-99535433D01*
X122407554Y-99486800D01*
X122407549Y-99486800D01*
X122325000Y-99470380D01*
X122242451Y-99486800D01*
X121252475Y-99486800D01*
X121285000Y-99408277D01*
X121285000Y-98996529D01*
X121173027Y-98726202D01*
X121285000Y-98455874D01*
X121285000Y-98044126D01*
X121127431Y-97663720D01*
X120836280Y-97372569D01*
X120455874Y-97215000D01*
X120122440Y-97215000D01*
X120122440Y-96850000D01*
X120102549Y-96750000D01*
X120122440Y-96650000D01*
X120122440Y-96200000D01*
X120102549Y-96100000D01*
X120122440Y-96000000D01*
X120122440Y-95550000D01*
X120073157Y-95302235D01*
X119932809Y-95092191D01*
X119722765Y-94951843D01*
X119475000Y-94902560D01*
X117725000Y-94902560D01*
X117552862Y-94936800D01*
X114582548Y-94936800D01*
X114499999Y-94920380D01*
X114417450Y-94936800D01*
X114417446Y-94936800D01*
X114172951Y-94985433D01*
X114172949Y-94985434D01*
X114172950Y-94985434D01*
X113965677Y-95123929D01*
X113965676Y-95123930D01*
X113895692Y-95170692D01*
X113848930Y-95240676D01*
X113651659Y-95437948D01*
X113586280Y-95372569D01*
X113205874Y-95215000D01*
X112814868Y-95215000D01*
X112732809Y-95092191D01*
X112522765Y-94951843D01*
X112439941Y-94935368D01*
X112535000Y-94705874D01*
X112535000Y-94700000D01*
X131252560Y-94700000D01*
X131252560Y-96400000D01*
X131301843Y-96647765D01*
X131442191Y-96857809D01*
X131652235Y-96998157D01*
X131755708Y-97018739D01*
X131478355Y-97323076D01*
X131308524Y-97733110D01*
X131429845Y-97963000D01*
X132623000Y-97963000D01*
X132623000Y-97943000D01*
X132877000Y-97943000D01*
X132877000Y-97963000D01*
X134070155Y-97963000D01*
X134191476Y-97733110D01*
X134021645Y-97323076D01*
X133744292Y-97018739D01*
X133847765Y-96998157D01*
X134057809Y-96857809D01*
X134198157Y-96647765D01*
X134247440Y-96400000D01*
X134247440Y-94700000D01*
X134198157Y-94452235D01*
X134057809Y-94242191D01*
X133847765Y-94101843D01*
X133600000Y-94052560D01*
X131900000Y-94052560D01*
X131652235Y-94101843D01*
X131442191Y-94242191D01*
X131301843Y-94452235D01*
X131252560Y-94700000D01*
X112535000Y-94700000D01*
X112535000Y-94332500D01*
X112714250Y-94332500D01*
X112873000Y-94173750D01*
X112873000Y-93127000D01*
X112853000Y-93127000D01*
X112853000Y-92873000D01*
X112873000Y-92873000D01*
X112873000Y-91826250D01*
X112714250Y-91667500D01*
X111973690Y-91667500D01*
X111740301Y-91764173D01*
X111621618Y-91882857D01*
X111607809Y-91862191D01*
X111397765Y-91721843D01*
X111150000Y-91672560D01*
X109350000Y-91672560D01*
X109102235Y-91721843D01*
X108892191Y-91862191D01*
X108751843Y-92072235D01*
X108702560Y-92320000D01*
X108702560Y-93715000D01*
X108751843Y-93962765D01*
X108892191Y-94172809D01*
X109102235Y-94313157D01*
X109350000Y-94362440D01*
X109411801Y-94362440D01*
X109411801Y-95167446D01*
X109395380Y-95250000D01*
X109460434Y-95577049D01*
X109598929Y-95784322D01*
X109598931Y-95784324D01*
X109645693Y-95854308D01*
X109715677Y-95901070D01*
X109893191Y-96078584D01*
X109897451Y-96100000D01*
X109877560Y-96200000D01*
X109877560Y-96349439D01*
X109650690Y-96122569D01*
X109270284Y-95965000D01*
X108858536Y-95965000D01*
X108478130Y-96122569D01*
X108186979Y-96413720D01*
X108029410Y-96794126D01*
X108029410Y-97205874D01*
X108044349Y-97241940D01*
X107905320Y-97380969D01*
X107833521Y-97207630D01*
X107542370Y-96916479D01*
X107161964Y-96758910D01*
X107147440Y-96758910D01*
X107147440Y-89139000D01*
X107881765Y-89139000D01*
X108702560Y-89959796D01*
X108702560Y-90680000D01*
X108751843Y-90927765D01*
X108892191Y-91137809D01*
X109102235Y-91278157D01*
X109350000Y-91327440D01*
X111150000Y-91327440D01*
X111397765Y-91278157D01*
X111607809Y-91137809D01*
X111630847Y-91103331D01*
X111642191Y-91120309D01*
X111852235Y-91260657D01*
X112100000Y-91309940D01*
X113900000Y-91309940D01*
X114147765Y-91260657D01*
X114357809Y-91120309D01*
X114375000Y-91094581D01*
X114392191Y-91120309D01*
X114602235Y-91260657D01*
X114850000Y-91309940D01*
X116442313Y-91309940D01*
X116417092Y-91326792D01*
X116370330Y-91396776D01*
X116112046Y-91655060D01*
X114850000Y-91655060D01*
X114602235Y-91704343D01*
X114392191Y-91844691D01*
X114371373Y-91875847D01*
X114259699Y-91764173D01*
X114026310Y-91667500D01*
X113285750Y-91667500D01*
X113127000Y-91826250D01*
X113127000Y-92873000D01*
X113147000Y-92873000D01*
X113147000Y-93127000D01*
X113127000Y-93127000D01*
X113127000Y-94173750D01*
X113285750Y-94332500D01*
X114026310Y-94332500D01*
X114259699Y-94235827D01*
X114371373Y-94124153D01*
X114392191Y-94155309D01*
X114602235Y-94295657D01*
X114850000Y-94344940D01*
X116650000Y-94344940D01*
X116897765Y-94295657D01*
X117107809Y-94155309D01*
X117125000Y-94129581D01*
X117142191Y-94155309D01*
X117352235Y-94295657D01*
X117600000Y-94344940D01*
X119400000Y-94344940D01*
X119647765Y-94295657D01*
X119857809Y-94155309D01*
X119875000Y-94129581D01*
X119892191Y-94155309D01*
X120102235Y-94295657D01*
X120350000Y-94344940D01*
X122150000Y-94344940D01*
X122397765Y-94295657D01*
X122607809Y-94155309D01*
X122613307Y-94147081D01*
X122642191Y-94190309D01*
X122852235Y-94330657D01*
X123100000Y-94379940D01*
X124900000Y-94379940D01*
X125147765Y-94330657D01*
X125357809Y-94190309D01*
X125392646Y-94138172D01*
X125490301Y-94235827D01*
X125723690Y-94332500D01*
X126464250Y-94332500D01*
X126623000Y-94173750D01*
X126623000Y-93127000D01*
X126877000Y-93127000D01*
X126877000Y-94173750D01*
X127035750Y-94332500D01*
X127776310Y-94332500D01*
X128009699Y-94235827D01*
X128188327Y-94057198D01*
X128285000Y-93823809D01*
X128285000Y-93285750D01*
X128126250Y-93127000D01*
X126877000Y-93127000D01*
X126623000Y-93127000D01*
X126603000Y-93127000D01*
X126603000Y-92873000D01*
X126623000Y-92873000D01*
X126623000Y-91826250D01*
X126877000Y-91826250D01*
X126877000Y-92873000D01*
X128126250Y-92873000D01*
X128285000Y-92714250D01*
X128285000Y-92176191D01*
X128188327Y-91942802D01*
X128009699Y-91764173D01*
X127776310Y-91667500D01*
X127035750Y-91667500D01*
X126877000Y-91826250D01*
X126623000Y-91826250D01*
X126464250Y-91667500D01*
X125723690Y-91667500D01*
X125490301Y-91764173D01*
X125364608Y-91889867D01*
X125357809Y-91879691D01*
X125147765Y-91739343D01*
X124900000Y-91690060D01*
X123637953Y-91690060D01*
X123344672Y-91396779D01*
X123301722Y-91332500D01*
X123714250Y-91332500D01*
X123873000Y-91173750D01*
X123873000Y-90127000D01*
X122661250Y-90127000D01*
X122626250Y-90092000D01*
X121377000Y-90092000D01*
X121377000Y-90112000D01*
X121123000Y-90112000D01*
X121123000Y-90092000D01*
X121103000Y-90092000D01*
X121103000Y-89838000D01*
X121123000Y-89838000D01*
X121123000Y-88791250D01*
X121377000Y-88791250D01*
X121377000Y-89838000D01*
X122588750Y-89838000D01*
X122623750Y-89873000D01*
X123873000Y-89873000D01*
X123873000Y-88826250D01*
X123714250Y-88667500D01*
X122973690Y-88667500D01*
X122740301Y-88764173D01*
X122642500Y-88861975D01*
X122509699Y-88729173D01*
X122276310Y-88632500D01*
X121535750Y-88632500D01*
X121377000Y-88791250D01*
X121123000Y-88791250D01*
X120964250Y-88632500D01*
X120223690Y-88632500D01*
X119990301Y-88729173D01*
X119878627Y-88840847D01*
X119857809Y-88809691D01*
X119647765Y-88669343D01*
X119400000Y-88620060D01*
X119306675Y-88620060D01*
X119300338Y-88588200D01*
X125291707Y-88588200D01*
X125464729Y-88761222D01*
X125392191Y-88809691D01*
X125357354Y-88861828D01*
X125259699Y-88764173D01*
X125026310Y-88667500D01*
X124285750Y-88667500D01*
X124127000Y-88826250D01*
X124127000Y-89873000D01*
X124147000Y-89873000D01*
X124147000Y-90127000D01*
X124127000Y-90127000D01*
X124127000Y-91173750D01*
X124285750Y-91332500D01*
X125026310Y-91332500D01*
X125259699Y-91235827D01*
X125385392Y-91110133D01*
X125392191Y-91120309D01*
X125602235Y-91260657D01*
X125850000Y-91309940D01*
X127650000Y-91309940D01*
X127897765Y-91260657D01*
X128107809Y-91120309D01*
X128248157Y-90910265D01*
X128297440Y-90662500D01*
X128297440Y-89267500D01*
X128248157Y-89019735D01*
X128107809Y-88809691D01*
X127897765Y-88669343D01*
X127650000Y-88620060D01*
X127556675Y-88620060D01*
X127539567Y-88534051D01*
X127452088Y-88403130D01*
X127401071Y-88326777D01*
X127401070Y-88326776D01*
X127354308Y-88256792D01*
X127284324Y-88210031D01*
X126289971Y-87215678D01*
X126243208Y-87145692D01*
X126157165Y-87088200D01*
X127902807Y-87088200D01*
X131290442Y-90475836D01*
X131235908Y-90750000D01*
X131351161Y-91329418D01*
X131679375Y-91820625D01*
X132170582Y-92148839D01*
X132603744Y-92235000D01*
X132896256Y-92235000D01*
X133329418Y-92148839D01*
X133820625Y-91820625D01*
X134148839Y-91329418D01*
X134264092Y-90750000D01*
X134148839Y-90170582D01*
X133820625Y-89679375D01*
X133522239Y-89480000D01*
X133820625Y-89280625D01*
X134148839Y-88789418D01*
X134264092Y-88210000D01*
X134148839Y-87630582D01*
X133820625Y-87139375D01*
X133501522Y-86926157D01*
X133631358Y-86865183D01*
X134021645Y-86436924D01*
X134191476Y-86026890D01*
X134070155Y-85797000D01*
X132877000Y-85797000D01*
X132877000Y-85817000D01*
X132623000Y-85817000D01*
X132623000Y-85797000D01*
X132603000Y-85797000D01*
X132603000Y-85543000D01*
X132623000Y-85543000D01*
X132623000Y-85523000D01*
X132877000Y-85523000D01*
X132877000Y-85543000D01*
X134070155Y-85543000D01*
X134191476Y-85313110D01*
X134021645Y-84903076D01*
X133744292Y-84598739D01*
X133847765Y-84578157D01*
X134057809Y-84437809D01*
X134198157Y-84227765D01*
X134247440Y-83980000D01*
X134247440Y-82280000D01*
X134198157Y-82032235D01*
X134057809Y-81822191D01*
X133847765Y-81681843D01*
X133600000Y-81632560D01*
X131900000Y-81632560D01*
X131652235Y-81681843D01*
X131442191Y-81822191D01*
X131301843Y-82032235D01*
X131252560Y-82280000D01*
X131252560Y-83980000D01*
X131301843Y-84227765D01*
X131442191Y-84437809D01*
X131652235Y-84578157D01*
X131755708Y-84598739D01*
X131478355Y-84903076D01*
X131308524Y-85313110D01*
X131429844Y-85542998D01*
X131268392Y-85542998D01*
X129191071Y-83465678D01*
X129144308Y-83395692D01*
X128867049Y-83210433D01*
X128622554Y-83161800D01*
X128622549Y-83161800D01*
X128540000Y-83145380D01*
X128457451Y-83161800D01*
X124516933Y-83161800D01*
X124392926Y-83037793D01*
X123975766Y-82865000D01*
X123524234Y-82865000D01*
X123133614Y-83026800D01*
X120596224Y-83026800D01*
X120622440Y-82895000D01*
X120622440Y-82295000D01*
X120573157Y-82047235D01*
X120432809Y-81837191D01*
X120222765Y-81696843D01*
X119975000Y-81647560D01*
X118578110Y-81647560D01*
X119137470Y-81088200D01*
X120483067Y-81088200D01*
X120607074Y-81212207D01*
X121024234Y-81385000D01*
X121475766Y-81385000D01*
X121892926Y-81212207D01*
X122212207Y-80892926D01*
X122385000Y-80475766D01*
X122385000Y-80024234D01*
X122212207Y-79607074D01*
X121892926Y-79287793D01*
X121475766Y-79115000D01*
X121024234Y-79115000D01*
X120607074Y-79287793D01*
X120483067Y-79411800D01*
X120443333Y-79411800D01*
X120712207Y-79142926D01*
X120885000Y-78725766D01*
X120885000Y-78274234D01*
X120712207Y-77857074D01*
X120392926Y-77537793D01*
X119975766Y-77365000D01*
X119524234Y-77365000D01*
X119107074Y-77537793D01*
X118787793Y-77857074D01*
X118615000Y-78274234D01*
X118615000Y-78449606D01*
X115307807Y-81756800D01*
X114912496Y-81756800D01*
X114822765Y-81696843D01*
X114575000Y-81647560D01*
X113025000Y-81647560D01*
X112777235Y-81696843D01*
X112698984Y-81749129D01*
X112654999Y-81740380D01*
X112572450Y-81756800D01*
X112572446Y-81756800D01*
X112327951Y-81805433D01*
X112089143Y-81965000D01*
X112044126Y-81965000D01*
X111663720Y-82122569D01*
X111372569Y-82413720D01*
X111215000Y-82794126D01*
X111215000Y-82968780D01*
X111205874Y-82965000D01*
X110794126Y-82965000D01*
X110413720Y-83122569D01*
X110122569Y-83413720D01*
X109965000Y-83794126D01*
X109965000Y-83849607D01*
X109902807Y-83911800D01*
X107125511Y-83911800D01*
X107086280Y-83872569D01*
X106705874Y-83715000D01*
X106294126Y-83715000D01*
X105913720Y-83872569D01*
X105622569Y-84163720D01*
X105465000Y-84544126D01*
X105465000Y-84955874D01*
X105605470Y-85295000D01*
X104823691Y-85295000D01*
X104590302Y-85391673D01*
X104411673Y-85570301D01*
X104315000Y-85803690D01*
X104315000Y-86244250D01*
X104473750Y-86403000D01*
X105923000Y-86403000D01*
X105923000Y-86383000D01*
X106177000Y-86383000D01*
X106177000Y-86403000D01*
X107626250Y-86403000D01*
X107785000Y-86244250D01*
X107785000Y-85803690D01*
X107695741Y-85588200D01*
X110167451Y-85588200D01*
X110250000Y-85604620D01*
X110332549Y-85588200D01*
X110332554Y-85588200D01*
X110577049Y-85539567D01*
X110854308Y-85354308D01*
X110901072Y-85284322D01*
X111150393Y-85035000D01*
X111205874Y-85035000D01*
X111468581Y-84926184D01*
X109033765Y-87361000D01*
X108337555Y-87361000D01*
X108250000Y-87343584D01*
X108162445Y-87361000D01*
X107741636Y-87361000D01*
X107785000Y-87256310D01*
X107785000Y-86815750D01*
X107626250Y-86657000D01*
X106177000Y-86657000D01*
X106177000Y-86677000D01*
X105923000Y-86677000D01*
X105923000Y-86657000D01*
X104473750Y-86657000D01*
X104315000Y-86815750D01*
X104315000Y-87256310D01*
X104316028Y-87258792D01*
X103597440Y-86540204D01*
X103597440Y-81350000D01*
X103548157Y-81102235D01*
X103407809Y-80892191D01*
X103197765Y-80751843D01*
X102950000Y-80702560D01*
X99639000Y-80702560D01*
X99639000Y-80329737D01*
X99797765Y-80298157D01*
X100007809Y-80157809D01*
X100148157Y-79947765D01*
X100197440Y-79700000D01*
X100197440Y-79078680D01*
X100404870Y-79037419D01*
X100698933Y-78840933D01*
X100748531Y-78766704D01*
X102445137Y-77070099D01*
X103802560Y-77070099D01*
X103802560Y-79750000D01*
X103851843Y-79997765D01*
X103992191Y-80207809D01*
X104202235Y-80348157D01*
X104450000Y-80397440D01*
X105161001Y-80397440D01*
X105161000Y-80722560D01*
X104950000Y-80722560D01*
X104702235Y-80771843D01*
X104492191Y-80912191D01*
X104351843Y-81122235D01*
X104302560Y-81370000D01*
X104302560Y-82570000D01*
X104351843Y-82817765D01*
X104492191Y-83027809D01*
X104702235Y-83168157D01*
X104950000Y-83217440D01*
X107150000Y-83217440D01*
X107397765Y-83168157D01*
X107607809Y-83027809D01*
X107748157Y-82817765D01*
X107797440Y-82570000D01*
X107797440Y-81370000D01*
X107748157Y-81122235D01*
X107607809Y-80912191D01*
X107397765Y-80771843D01*
X107150000Y-80722560D01*
X106939000Y-80722560D01*
X106939000Y-79139000D01*
X108462445Y-79139000D01*
X108550000Y-79156416D01*
X108637555Y-79139000D01*
X108637556Y-79139000D01*
X108896870Y-79087419D01*
X109190933Y-78890933D01*
X109240531Y-78816704D01*
X109659796Y-78397440D01*
X110100000Y-78397440D01*
X110347765Y-78348157D01*
X110508744Y-78240593D01*
X110642191Y-78440309D01*
X110852235Y-78580657D01*
X111100000Y-78629940D01*
X112900000Y-78629940D01*
X113147765Y-78580657D01*
X113250000Y-78512345D01*
X113352235Y-78580657D01*
X113600000Y-78629940D01*
X115400000Y-78629940D01*
X115647765Y-78580657D01*
X115857809Y-78440309D01*
X115998157Y-78230265D01*
X116047440Y-77982500D01*
X116047440Y-76587500D01*
X115998157Y-76339735D01*
X115857809Y-76129691D01*
X115647765Y-75989343D01*
X115400000Y-75940060D01*
X114209795Y-75940060D01*
X113884130Y-75614395D01*
X113862819Y-75582500D01*
X114214250Y-75582500D01*
X114373000Y-75423750D01*
X114373000Y-74377000D01*
X114627000Y-74377000D01*
X114627000Y-75423750D01*
X114785750Y-75582500D01*
X115526310Y-75582500D01*
X115759699Y-75485827D01*
X115938327Y-75307198D01*
X116035000Y-75073809D01*
X116035000Y-74535750D01*
X115876250Y-74377000D01*
X114627000Y-74377000D01*
X114373000Y-74377000D01*
X112127000Y-74377000D01*
X112127000Y-74397000D01*
X111873000Y-74397000D01*
X111873000Y-74377000D01*
X111853000Y-74377000D01*
X111853000Y-74123000D01*
X111873000Y-74123000D01*
X111873000Y-73076250D01*
X112127000Y-73076250D01*
X112127000Y-74123000D01*
X114373000Y-74123000D01*
X114373000Y-73076250D01*
X114627000Y-73076250D01*
X114627000Y-74123000D01*
X115876250Y-74123000D01*
X116035000Y-73964250D01*
X116035000Y-73426191D01*
X115938327Y-73192802D01*
X115759699Y-73014173D01*
X115526310Y-72917500D01*
X114785750Y-72917500D01*
X114627000Y-73076250D01*
X114373000Y-73076250D01*
X114214250Y-72917500D01*
X113473690Y-72917500D01*
X113250000Y-73010156D01*
X113026310Y-72917500D01*
X112285750Y-72917500D01*
X112127000Y-73076250D01*
X111873000Y-73076250D01*
X111714250Y-72917500D01*
X110973690Y-72917500D01*
X110740301Y-73014173D01*
X110599656Y-73154819D01*
X110557809Y-73092191D01*
X110347765Y-72951843D01*
X110100000Y-72902560D01*
X109509796Y-72902560D01*
X106350762Y-69743526D01*
X106448157Y-69597765D01*
X106457184Y-69552381D01*
X106469375Y-69570625D01*
X106960582Y-69898839D01*
X107393744Y-69985000D01*
X107686256Y-69985000D01*
X108119418Y-69898839D01*
X108610625Y-69570625D01*
X108823843Y-69251522D01*
X108884817Y-69381358D01*
X109313076Y-69771645D01*
X109723110Y-69941476D01*
X109953000Y-69820155D01*
X109953000Y-68627000D01*
X109933000Y-68627000D01*
X109933000Y-68373000D01*
X109953000Y-68373000D01*
X109953000Y-67179845D01*
X110207000Y-67179845D01*
X110207000Y-68373000D01*
X110227000Y-68373000D01*
X110227000Y-68627000D01*
X110207000Y-68627000D01*
X110207000Y-69820155D01*
X110436890Y-69941476D01*
X110846924Y-69771645D01*
X111275183Y-69381358D01*
X111336157Y-69251522D01*
X111549375Y-69570625D01*
X112040582Y-69898839D01*
X112473744Y-69985000D01*
X112766256Y-69985000D01*
X113199418Y-69898839D01*
X113690625Y-69570625D01*
X113890000Y-69272239D01*
X114089375Y-69570625D01*
X114580582Y-69898839D01*
X115013744Y-69985000D01*
X115306256Y-69985000D01*
X115739418Y-69898839D01*
X116230625Y-69570625D01*
X116430000Y-69272239D01*
X116629375Y-69570625D01*
X117120582Y-69898839D01*
X117553744Y-69985000D01*
X117846256Y-69985000D01*
X118279418Y-69898839D01*
X118770625Y-69570625D01*
X118970000Y-69272239D01*
X119169375Y-69570625D01*
X119660582Y-69898839D01*
X120093744Y-69985000D01*
X120386256Y-69985000D01*
X120819418Y-69898839D01*
X121310625Y-69570625D01*
X121510000Y-69272239D01*
X121709375Y-69570625D01*
X122200582Y-69898839D01*
X122633744Y-69985000D01*
X122926256Y-69985000D01*
X123359418Y-69898839D01*
X123850625Y-69570625D01*
X124178839Y-69079418D01*
X124294092Y-68500000D01*
X124178839Y-67920582D01*
X123850625Y-67429375D01*
X123359418Y-67101161D01*
X122926256Y-67015000D01*
X122633744Y-67015000D01*
X122200582Y-67101161D01*
X121709375Y-67429375D01*
X121510000Y-67727761D01*
X121310625Y-67429375D01*
X120819418Y-67101161D01*
X120386256Y-67015000D01*
X120093744Y-67015000D01*
X119660582Y-67101161D01*
X119169375Y-67429375D01*
X118970000Y-67727761D01*
X118770625Y-67429375D01*
X118279418Y-67101161D01*
X117846256Y-67015000D01*
X117553744Y-67015000D01*
X117120582Y-67101161D01*
X116629375Y-67429375D01*
X116430000Y-67727761D01*
X116230625Y-67429375D01*
X115739418Y-67101161D01*
X115306256Y-67015000D01*
X115013744Y-67015000D01*
X114580582Y-67101161D01*
X114089375Y-67429375D01*
X113890000Y-67727761D01*
X113690625Y-67429375D01*
X113199418Y-67101161D01*
X112766256Y-67015000D01*
X112473744Y-67015000D01*
X112040582Y-67101161D01*
X111549375Y-67429375D01*
X111336157Y-67748478D01*
X111275183Y-67618642D01*
X110846924Y-67228355D01*
X110436890Y-67058524D01*
X110207000Y-67179845D01*
X109953000Y-67179845D01*
X109723110Y-67058524D01*
X109313076Y-67228355D01*
X108884817Y-67618642D01*
X108823843Y-67748478D01*
X108610625Y-67429375D01*
X108119418Y-67101161D01*
X107686256Y-67015000D01*
X107393744Y-67015000D01*
X106960582Y-67101161D01*
X106469375Y-67429375D01*
X106457184Y-67447619D01*
X106448157Y-67402235D01*
X106307809Y-67192191D01*
X106097765Y-67051843D01*
X105850000Y-67002560D01*
X104150000Y-67002560D01*
X103902235Y-67051843D01*
X103692191Y-67192191D01*
X103551843Y-67402235D01*
X103502560Y-67650000D01*
X103502560Y-69350000D01*
X103551843Y-69597765D01*
X103692191Y-69807809D01*
X103902235Y-69948157D01*
X104150000Y-69997440D01*
X104162963Y-69997440D01*
X104359067Y-70290933D01*
X104433296Y-70340531D01*
X105807765Y-71715000D01*
X105535750Y-71715000D01*
X105377000Y-71873750D01*
X105377000Y-73723000D01*
X106526250Y-73723000D01*
X106685000Y-73564250D01*
X106685000Y-72592236D01*
X108252560Y-74159796D01*
X108252560Y-74450000D01*
X108301843Y-74697765D01*
X108442191Y-74907809D01*
X108652235Y-75048157D01*
X108900000Y-75097440D01*
X110100000Y-75097440D01*
X110347765Y-75048157D01*
X110465000Y-74969822D01*
X110465000Y-75073809D01*
X110555419Y-75292099D01*
X106685000Y-75292099D01*
X106685000Y-74135750D01*
X106526250Y-73977000D01*
X105377000Y-73977000D01*
X105377000Y-73997000D01*
X105123000Y-73997000D01*
X105123000Y-73977000D01*
X103973750Y-73977000D01*
X103815000Y-74135750D01*
X103815000Y-75292099D01*
X103145731Y-75292099D01*
X103285000Y-74955874D01*
X103285000Y-74544126D01*
X103127431Y-74163720D01*
X102836280Y-73872569D01*
X102455874Y-73715000D01*
X102044126Y-73715000D01*
X101663720Y-73872569D01*
X101372569Y-74163720D01*
X101215000Y-74544126D01*
X101215000Y-74955874D01*
X101361000Y-75308351D01*
X101361001Y-75639763D01*
X100197440Y-76803325D01*
X100197440Y-76700000D01*
X100148157Y-76452235D01*
X100007809Y-76242191D01*
X99797765Y-76101843D01*
X99550000Y-76052560D01*
X97950000Y-76052560D01*
X97702235Y-76101843D01*
X97492191Y-76242191D01*
X97351843Y-76452235D01*
X97302560Y-76700000D01*
X97302560Y-79700000D01*
X97351843Y-79947765D01*
X97492191Y-80157809D01*
X97702235Y-80298157D01*
X97861001Y-80329737D01*
X97861001Y-80702560D01*
X96550000Y-80702560D01*
X96302235Y-80751843D01*
X96092191Y-80892191D01*
X95951843Y-81102235D01*
X95902560Y-81350000D01*
X95902560Y-87150000D01*
X95951843Y-87397765D01*
X96092191Y-87607809D01*
X96302235Y-87748157D01*
X96550000Y-87797440D01*
X97817180Y-87797440D01*
X97715000Y-88044126D01*
X97715000Y-88455874D01*
X97718780Y-88465000D01*
X97500750Y-88465000D01*
X97342000Y-88623750D01*
X97342000Y-89873000D01*
X98388750Y-89873000D01*
X98547500Y-89714250D01*
X98547500Y-89285000D01*
X98905060Y-89285000D01*
X98905060Y-90900000D01*
X98954343Y-91147765D01*
X99022655Y-91250000D01*
X98954343Y-91352235D01*
X98905060Y-91600000D01*
X98905060Y-91900379D01*
X98861430Y-91965676D01*
X98454108Y-92372998D01*
X98388752Y-92372998D01*
X98547500Y-92214250D01*
X98547500Y-91473690D01*
X98454844Y-91250000D01*
X98547500Y-91026310D01*
X98547500Y-90285750D01*
X98388750Y-90127000D01*
X97342000Y-90127000D01*
X97342000Y-92373000D01*
X97362000Y-92373000D01*
X97362000Y-92627000D01*
X97342000Y-92627000D01*
X97342000Y-92647000D01*
X97088000Y-92647000D01*
X97088000Y-92627000D01*
X96041250Y-92627000D01*
X95882500Y-92785750D01*
X95882500Y-93526310D01*
X95979173Y-93759699D01*
X95980373Y-93760899D01*
X95919343Y-93852235D01*
X95870060Y-94100000D01*
X95870060Y-95900000D01*
X95919343Y-96147765D01*
X95980373Y-96239101D01*
X95979173Y-96240301D01*
X95882500Y-96473690D01*
X95882500Y-97214250D01*
X96041250Y-97373000D01*
X97088000Y-97373000D01*
X97088000Y-97353000D01*
X97342000Y-97353000D01*
X97342000Y-97373000D01*
X97362000Y-97373000D01*
X97362000Y-97627000D01*
X97342000Y-97627000D01*
X97342000Y-99873000D01*
X98388750Y-99873000D01*
X98547500Y-99714250D01*
X98547500Y-99554735D01*
X98905060Y-99912296D01*
X98905060Y-100900000D01*
X98954343Y-101147765D01*
X99022655Y-101250000D01*
X98954343Y-101352235D01*
X98905060Y-101600000D01*
X98905060Y-103400000D01*
X98954343Y-103647765D01*
X99022655Y-103750000D01*
X98954343Y-103852235D01*
X98905060Y-104100000D01*
X98905060Y-105900000D01*
X98954343Y-106147765D01*
X99094691Y-106357809D01*
X99304735Y-106498157D01*
X99552500Y-106547440D01*
X99792737Y-106547440D01*
X99645692Y-106645692D01*
X99460433Y-106922951D01*
X99411800Y-107167446D01*
X99411800Y-107417451D01*
X99395380Y-107500000D01*
X99411800Y-107582549D01*
X99411800Y-107582553D01*
X99411801Y-107582558D01*
X99411801Y-107590320D01*
X99170625Y-107229375D01*
X98679418Y-106901161D01*
X98246256Y-106815000D01*
X97953744Y-106815000D01*
X97520582Y-106901161D01*
X97029375Y-107229375D01*
X96701161Y-107720582D01*
X96585908Y-108300000D01*
X96701161Y-108879418D01*
X97029375Y-109370625D01*
X97327761Y-109570000D01*
X97029375Y-109769375D01*
X96701161Y-110260582D01*
X96585908Y-110840000D01*
X96640442Y-111114164D01*
X95215679Y-112538928D01*
X95145692Y-112585692D01*
X95127000Y-112613667D01*
X95127000Y-105285750D01*
X95882500Y-105285750D01*
X95882500Y-106026310D01*
X95979173Y-106259699D01*
X96157802Y-106438327D01*
X96391191Y-106535000D01*
X96929250Y-106535000D01*
X97088000Y-106376250D01*
X97088000Y-105127000D01*
X97342000Y-105127000D01*
X97342000Y-106376250D01*
X97500750Y-106535000D01*
X98038809Y-106535000D01*
X98272198Y-106438327D01*
X98450827Y-106259699D01*
X98547500Y-106026310D01*
X98547500Y-105285750D01*
X98388750Y-105127000D01*
X97342000Y-105127000D01*
X97088000Y-105127000D01*
X96041250Y-105127000D01*
X95882500Y-105285750D01*
X95127000Y-105285750D01*
X95127000Y-102785750D01*
X95882500Y-102785750D01*
X95882500Y-103526310D01*
X95975156Y-103750000D01*
X95882500Y-103973690D01*
X95882500Y-104714250D01*
X96041250Y-104873000D01*
X97088000Y-104873000D01*
X97088000Y-102627000D01*
X97342000Y-102627000D01*
X97342000Y-104873000D01*
X98388750Y-104873000D01*
X98547500Y-104714250D01*
X98547500Y-103973690D01*
X98454844Y-103750000D01*
X98547500Y-103526310D01*
X98547500Y-102785750D01*
X98388750Y-102627000D01*
X97342000Y-102627000D01*
X97088000Y-102627000D01*
X96041250Y-102627000D01*
X95882500Y-102785750D01*
X95127000Y-102785750D01*
X95127000Y-100285750D01*
X95882500Y-100285750D01*
X95882500Y-101026310D01*
X95975156Y-101250000D01*
X95882500Y-101473690D01*
X95882500Y-102214250D01*
X96041250Y-102373000D01*
X97088000Y-102373000D01*
X97088000Y-100127000D01*
X97342000Y-100127000D01*
X97342000Y-102373000D01*
X98388750Y-102373000D01*
X98547500Y-102214250D01*
X98547500Y-101473690D01*
X98454844Y-101250000D01*
X98547500Y-101026310D01*
X98547500Y-100285750D01*
X98388750Y-100127000D01*
X97342000Y-100127000D01*
X97088000Y-100127000D01*
X96041250Y-100127000D01*
X95882500Y-100285750D01*
X95127000Y-100285750D01*
X95127000Y-97785750D01*
X95882500Y-97785750D01*
X95882500Y-98526310D01*
X95975156Y-98750000D01*
X95882500Y-98973690D01*
X95882500Y-99714250D01*
X96041250Y-99873000D01*
X97088000Y-99873000D01*
X97088000Y-97627000D01*
X96041250Y-97627000D01*
X95882500Y-97785750D01*
X95127000Y-97785750D01*
X95127000Y-90285750D01*
X95882500Y-90285750D01*
X95882500Y-91026310D01*
X95975156Y-91250000D01*
X95882500Y-91473690D01*
X95882500Y-92214250D01*
X96041250Y-92373000D01*
X97088000Y-92373000D01*
X97088000Y-90127000D01*
X96041250Y-90127000D01*
X95882500Y-90285750D01*
X95127000Y-90285750D01*
X95127000Y-88973690D01*
X95882500Y-88973690D01*
X95882500Y-89714250D01*
X96041250Y-89873000D01*
X97088000Y-89873000D01*
X97088000Y-88623750D01*
X96929250Y-88465000D01*
X96391191Y-88465000D01*
X96157802Y-88561673D01*
X95979173Y-88740301D01*
X95882500Y-88973690D01*
X95127000Y-88973690D01*
X95127000Y-74085750D01*
X97315000Y-74085750D01*
X97315000Y-75426309D01*
X97411673Y-75659698D01*
X97590301Y-75838327D01*
X97823690Y-75935000D01*
X98464250Y-75935000D01*
X98623000Y-75776250D01*
X98623000Y-73927000D01*
X98877000Y-73927000D01*
X98877000Y-75776250D01*
X99035750Y-75935000D01*
X99676310Y-75935000D01*
X99909699Y-75838327D01*
X100088327Y-75659698D01*
X100185000Y-75426309D01*
X100185000Y-74085750D01*
X100026250Y-73927000D01*
X98877000Y-73927000D01*
X98623000Y-73927000D01*
X97473750Y-73927000D01*
X97315000Y-74085750D01*
X95127000Y-74085750D01*
X95127000Y-72173691D01*
X97315000Y-72173691D01*
X97315000Y-73514250D01*
X97473750Y-73673000D01*
X98623000Y-73673000D01*
X98623000Y-71823750D01*
X98877000Y-71823750D01*
X98877000Y-73673000D01*
X100026250Y-73673000D01*
X100185000Y-73514250D01*
X100185000Y-72223691D01*
X103815000Y-72223691D01*
X103815000Y-73564250D01*
X103973750Y-73723000D01*
X105123000Y-73723000D01*
X105123000Y-71873750D01*
X104964250Y-71715000D01*
X104323690Y-71715000D01*
X104090301Y-71811673D01*
X103911673Y-71990302D01*
X103815000Y-72223691D01*
X100185000Y-72223691D01*
X100185000Y-72173691D01*
X100088327Y-71940302D01*
X99909699Y-71761673D01*
X99676310Y-71665000D01*
X99035750Y-71665000D01*
X98877000Y-71823750D01*
X98623000Y-71823750D01*
X98464250Y-71665000D01*
X97823690Y-71665000D01*
X97590301Y-71761673D01*
X97411673Y-71940302D01*
X97315000Y-72173691D01*
X95127000Y-72173691D01*
X95127000Y-65127000D01*
X134873000Y-65127000D01*
X134873000Y-104107606D01*
X134873000Y-104107606D01*
G37*
X134873000Y-104107606D02*
X134251072Y-103485679D01*
X134251070Y-103485676D01*
X134209558Y-103444164D01*
X134264092Y-103170000D01*
X134148839Y-102590582D01*
X133820625Y-102099375D01*
X133522239Y-101900000D01*
X133820625Y-101700625D01*
X134148839Y-101209418D01*
X134264092Y-100630000D01*
X134148839Y-100050582D01*
X133820625Y-99559375D01*
X133501522Y-99346157D01*
X133631358Y-99285183D01*
X134021645Y-98856924D01*
X134191476Y-98446890D01*
X134070155Y-98217000D01*
X132877000Y-98217000D01*
X132877000Y-98237000D01*
X132623000Y-98237000D01*
X132623000Y-98217000D01*
X131429845Y-98217000D01*
X131308524Y-98446890D01*
X131478355Y-98856924D01*
X131868642Y-99285183D01*
X131998478Y-99346157D01*
X131679375Y-99559375D01*
X131524074Y-99791800D01*
X129146933Y-99791800D01*
X129142926Y-99787793D01*
X128725766Y-99615000D01*
X128274234Y-99615000D01*
X127857074Y-99787793D01*
X127537793Y-100107074D01*
X127365000Y-100524234D01*
X127365000Y-100975766D01*
X127537793Y-101392926D01*
X127857074Y-101712207D01*
X128250092Y-101875000D01*
X127857074Y-102037793D01*
X127537793Y-102357074D01*
X127365000Y-102774234D01*
X127365000Y-103225766D01*
X127537793Y-103642926D01*
X127857074Y-103962207D01*
X128250092Y-104125000D01*
X127857074Y-104287793D01*
X127537793Y-104607074D01*
X127365000Y-105024234D01*
X127365000Y-105475766D01*
X127537793Y-105892926D01*
X127857074Y-106212207D01*
X128250092Y-106375000D01*
X127857074Y-106537793D01*
X127537793Y-106857074D01*
X127365000Y-107274234D01*
X127365000Y-107725766D01*
X127537793Y-108142926D01*
X127857074Y-108462207D01*
X128274234Y-108635000D01*
X128725766Y-108635000D01*
X129142926Y-108462207D01*
X129266933Y-108338200D01*
X131253452Y-108338200D01*
X131351161Y-108829418D01*
X131679375Y-109320625D01*
X132170582Y-109648839D01*
X132603744Y-109735000D01*
X132896256Y-109735000D01*
X133117402Y-109691012D01*
X133117402Y-111382560D01*
X131900000Y-111382560D01*
X131652235Y-111431843D01*
X131442191Y-111572191D01*
X131301843Y-111782235D01*
X131252560Y-112030000D01*
X131252560Y-113730000D01*
X131301843Y-113977765D01*
X131442191Y-114187809D01*
X131652235Y-114328157D01*
X131755708Y-114348739D01*
X131478355Y-114653076D01*
X131308524Y-115063110D01*
X131429845Y-115293000D01*
X132623000Y-115293000D01*
X132623000Y-115273000D01*
X132877000Y-115273000D01*
X132877000Y-115293000D01*
X132897000Y-115293000D01*
X132897000Y-115547000D01*
X132877000Y-115547000D01*
X132877000Y-115567000D01*
X132623000Y-115567000D01*
X132623000Y-115547000D01*
X131429845Y-115547000D01*
X131308524Y-115776890D01*
X131478355Y-116186924D01*
X131868642Y-116615183D01*
X131998478Y-116676157D01*
X131679375Y-116889375D01*
X131497346Y-117161800D01*
X129016933Y-117161800D01*
X128892926Y-117037793D01*
X128475766Y-116865000D01*
X128024234Y-116865000D01*
X127607074Y-117037793D01*
X127287793Y-117357074D01*
X127115000Y-117774234D01*
X127115000Y-118225766D01*
X127287793Y-118642926D01*
X127607074Y-118962207D01*
X128024234Y-119135000D01*
X128475766Y-119135000D01*
X128892926Y-118962207D01*
X129016933Y-118838200D01*
X131550801Y-118838200D01*
X131679375Y-119030625D01*
X131977761Y-119230000D01*
X131679375Y-119429375D01*
X131524074Y-119661800D01*
X129016933Y-119661800D01*
X128892926Y-119537793D01*
X128475766Y-119365000D01*
X128024234Y-119365000D01*
X127607074Y-119537793D01*
X127287793Y-119857074D01*
X127115000Y-120274234D01*
X127115000Y-120725766D01*
X127287793Y-121142926D01*
X127607074Y-121462207D01*
X128024234Y-121635000D01*
X128475766Y-121635000D01*
X128892926Y-121462207D01*
X129016933Y-121338200D01*
X131524074Y-121338200D01*
X131679375Y-121570625D01*
X132170582Y-121898839D01*
X132603744Y-121985000D01*
X132896256Y-121985000D01*
X133329418Y-121898839D01*
X133820625Y-121570625D01*
X134148839Y-121079418D01*
X134264092Y-120500000D01*
X134209558Y-120225836D01*
X134873000Y-119562394D01*
X134873000Y-134873000D01*
X95127000Y-134873000D01*
X95127000Y-132576332D01*
X95145693Y-132604308D01*
X95215676Y-132651070D01*
X96098930Y-133534324D01*
X96145692Y-133604308D01*
X96215676Y-133651070D01*
X96215677Y-133651071D01*
X96422950Y-133789567D01*
X96477907Y-133800498D01*
X96667446Y-133838200D01*
X96667449Y-133838200D01*
X96750000Y-133854620D01*
X96832550Y-133838200D01*
X111207451Y-133838200D01*
X111290000Y-133854620D01*
X111372549Y-133838200D01*
X111372554Y-133838200D01*
X111617049Y-133789567D01*
X111894308Y-133604308D01*
X111941072Y-133534321D01*
X115515836Y-129959558D01*
X115643744Y-129985000D01*
X115936256Y-129985000D01*
X116369418Y-129898839D01*
X116860625Y-129570625D01*
X117060000Y-129272239D01*
X117259375Y-129570625D01*
X117750582Y-129898839D01*
X118183744Y-129985000D01*
X118476256Y-129985000D01*
X118909418Y-129898839D01*
X119400625Y-129570625D01*
X119600000Y-129272239D01*
X119799375Y-129570625D01*
X120290582Y-129898839D01*
X120723744Y-129985000D01*
X121016256Y-129985000D01*
X121449418Y-129898839D01*
X121940625Y-129570625D01*
X121952816Y-129552381D01*
X121961843Y-129597765D01*
X122102191Y-129807809D01*
X122312235Y-129948157D01*
X122560000Y-129997440D01*
X124260000Y-129997440D01*
X124507765Y-129948157D01*
X124717809Y-129807809D01*
X124858157Y-129597765D01*
X124907440Y-129350000D01*
X124907440Y-128092834D01*
X127115000Y-130300394D01*
X127115000Y-130475766D01*
X127287793Y-130892926D01*
X127607074Y-131212207D01*
X128024234Y-131385000D01*
X128475766Y-131385000D01*
X128892926Y-131212207D01*
X129016933Y-131088200D01*
X129862807Y-131088200D01*
X131290442Y-132515836D01*
X131235908Y-132790000D01*
X131351161Y-133369418D01*
X131679375Y-133860625D01*
X132170582Y-134188839D01*
X132603744Y-134275000D01*
X132896256Y-134275000D01*
X133329418Y-134188839D01*
X133820625Y-133860625D01*
X134148839Y-133369418D01*
X134264092Y-132790000D01*
X134148839Y-132210582D01*
X133820625Y-131719375D01*
X133522239Y-131520000D01*
X133820625Y-131320625D01*
X134148839Y-130829418D01*
X134264092Y-130250000D01*
X134148839Y-129670582D01*
X133820625Y-129179375D01*
X133501522Y-128966157D01*
X133631358Y-128905183D01*
X134021645Y-128476924D01*
X134191476Y-128066890D01*
X134070155Y-127837000D01*
X132877000Y-127837000D01*
X132877000Y-127857000D01*
X132623000Y-127857000D01*
X132623000Y-127837000D01*
X132603000Y-127837000D01*
X132603000Y-127583000D01*
X132623000Y-127583000D01*
X132623000Y-127563000D01*
X132877000Y-127563000D01*
X132877000Y-127583000D01*
X134070155Y-127583000D01*
X134191476Y-127353110D01*
X134021645Y-126943076D01*
X133744292Y-126638739D01*
X133847765Y-126618157D01*
X134057809Y-126477809D01*
X134198157Y-126267765D01*
X134247440Y-126020000D01*
X134247440Y-124320000D01*
X134198157Y-124072235D01*
X134057809Y-123862191D01*
X133847765Y-123721843D01*
X133600000Y-123672560D01*
X131900000Y-123672560D01*
X131652235Y-123721843D01*
X131442191Y-123862191D01*
X131301843Y-124072235D01*
X131252560Y-124320000D01*
X131252560Y-126020000D01*
X131301843Y-126267765D01*
X131442191Y-126477809D01*
X131652235Y-126618157D01*
X131755708Y-126638739D01*
X131478355Y-126943076D01*
X131308524Y-127353110D01*
X131429844Y-127582998D01*
X131268391Y-127582998D01*
X131151072Y-127465679D01*
X131104308Y-127395692D01*
X130827049Y-127210433D01*
X130582554Y-127161800D01*
X130582549Y-127161800D01*
X130500000Y-127145380D01*
X130417451Y-127161800D01*
X129016933Y-127161800D01*
X128892926Y-127037793D01*
X128475766Y-126865000D01*
X128024234Y-126865000D01*
X127607074Y-127037793D01*
X127287793Y-127357074D01*
X127115000Y-127774234D01*
X127115000Y-127929606D01*
X123338200Y-124152807D01*
X123338200Y-116875511D01*
X123377431Y-116836280D01*
X123535000Y-116455874D01*
X123535000Y-116044126D01*
X123377431Y-115663720D01*
X123086280Y-115372569D01*
X122705874Y-115215000D01*
X122294126Y-115215000D01*
X121913720Y-115372569D01*
X121622569Y-115663720D01*
X121465000Y-116044126D01*
X121465000Y-116455874D01*
X121622569Y-116836280D01*
X121661801Y-116875512D01*
X121661800Y-124417451D01*
X121645380Y-124500000D01*
X121661800Y-124582549D01*
X121661800Y-124582553D01*
X121710433Y-124827048D01*
X121895692Y-125104308D01*
X121965679Y-125151072D01*
X123817167Y-127002560D01*
X122560000Y-127002560D01*
X122312235Y-127051843D01*
X122102191Y-127192191D01*
X121961843Y-127402235D01*
X121952816Y-127447619D01*
X121940625Y-127429375D01*
X121449418Y-127101161D01*
X121016256Y-127015000D01*
X120723744Y-127015000D01*
X120290582Y-127101161D01*
X119799375Y-127429375D01*
X119600000Y-127727761D01*
X119400625Y-127429375D01*
X118909418Y-127101161D01*
X118476256Y-127015000D01*
X118183744Y-127015000D01*
X117750582Y-127101161D01*
X117259375Y-127429375D01*
X117060000Y-127727761D01*
X116860625Y-127429375D01*
X116628200Y-127274074D01*
X116628200Y-125071860D01*
X116892926Y-124962207D01*
X117212207Y-124642926D01*
X117385000Y-124225766D01*
X117385000Y-123774234D01*
X117212207Y-123357074D01*
X116892926Y-123037793D01*
X116475766Y-122865000D01*
X116024234Y-122865000D01*
X115607074Y-123037793D01*
X115287793Y-123357074D01*
X115115000Y-123774234D01*
X115115000Y-123961490D01*
X115000434Y-124132951D01*
X114935380Y-124460000D01*
X114951801Y-124542554D01*
X114951800Y-127274073D01*
X114719375Y-127429375D01*
X114520000Y-127727761D01*
X114320625Y-127429375D01*
X114088200Y-127274073D01*
X114088201Y-125088428D01*
X114392926Y-124962207D01*
X114712207Y-124642926D01*
X114885000Y-124225766D01*
X114885000Y-123774234D01*
X114712207Y-123357074D01*
X114392926Y-123037793D01*
X113975766Y-122865000D01*
X113524234Y-122865000D01*
X113107074Y-123037793D01*
X112787793Y-123357074D01*
X112615000Y-123774234D01*
X112615000Y-123941628D01*
X112598932Y-123965675D01*
X112598930Y-123965677D01*
X112460435Y-124172950D01*
X112395381Y-124499999D01*
X112411802Y-124582553D01*
X112411801Y-127274073D01*
X112179375Y-127429375D01*
X111966157Y-127748478D01*
X111905183Y-127618642D01*
X111476924Y-127228355D01*
X111066890Y-127058524D01*
X110837000Y-127179845D01*
X110837000Y-128373000D01*
X110857000Y-128373000D01*
X110857000Y-128627000D01*
X110837000Y-128627000D01*
X110837000Y-129820155D01*
X111066890Y-129941476D01*
X111476924Y-129771645D01*
X111905183Y-129381358D01*
X111966157Y-129251522D01*
X112179375Y-129570625D01*
X112670582Y-129898839D01*
X113103744Y-129985000D01*
X113119606Y-129985000D01*
X110942807Y-132161800D01*
X99567245Y-132161800D01*
X99597440Y-132010000D01*
X99597440Y-130310000D01*
X99548157Y-130062235D01*
X99407809Y-129852191D01*
X99197765Y-129711843D01*
X99094292Y-129691261D01*
X99371645Y-129386924D01*
X99541476Y-128976890D01*
X99420155Y-128747000D01*
X98227000Y-128747000D01*
X98227000Y-128767000D01*
X97973000Y-128767000D01*
X97973000Y-128747000D01*
X96779845Y-128747000D01*
X96658524Y-128976890D01*
X96828355Y-129386924D01*
X97105708Y-129691261D01*
X97002235Y-129711843D01*
X96792191Y-129852191D01*
X96651843Y-130062235D01*
X96602560Y-130310000D01*
X96602560Y-131667167D01*
X96588200Y-131652807D01*
X96588200Y-126091523D01*
X96701161Y-126659418D01*
X97029375Y-127150625D01*
X97348478Y-127363843D01*
X97218642Y-127424817D01*
X96828355Y-127853076D01*
X96658524Y-128263110D01*
X96779845Y-128493000D01*
X97973000Y-128493000D01*
X97973000Y-128473000D01*
X98227000Y-128473000D01*
X98227000Y-128493000D01*
X99420155Y-128493000D01*
X99541476Y-128263110D01*
X99371645Y-127853076D01*
X98981358Y-127424817D01*
X98851522Y-127363843D01*
X99170625Y-127150625D01*
X99498839Y-126659418D01*
X99614092Y-126080000D01*
X99498839Y-125500582D01*
X99170625Y-125009375D01*
X98872239Y-124810000D01*
X99170625Y-124610625D01*
X99498839Y-124119418D01*
X99614092Y-123540000D01*
X99498839Y-122960582D01*
X99170625Y-122469375D01*
X98872239Y-122270000D01*
X99170625Y-122070625D01*
X99498839Y-121579418D01*
X99614092Y-121000000D01*
X99498839Y-120420582D01*
X99170625Y-119929375D01*
X98872239Y-119730000D01*
X99170625Y-119530625D01*
X99498839Y-119039418D01*
X99614092Y-118460000D01*
X99498839Y-117880582D01*
X99170625Y-117389375D01*
X98872239Y-117190000D01*
X99170625Y-116990625D01*
X99498839Y-116499418D01*
X99614092Y-115920000D01*
X99498839Y-115340582D01*
X99170625Y-114849375D01*
X98872239Y-114650000D01*
X99170625Y-114450625D01*
X99498839Y-113959418D01*
X99548639Y-113709057D01*
X99645692Y-113854308D01*
X99715678Y-113901071D01*
X104911801Y-119097195D01*
X104911800Y-123233067D01*
X104787793Y-123357074D01*
X104615000Y-123774234D01*
X104615000Y-124225766D01*
X104787793Y-124642926D01*
X104791801Y-124646934D01*
X104791800Y-127274073D01*
X104559375Y-127429375D01*
X104231161Y-127920582D01*
X104115908Y-128500000D01*
X104231161Y-129079418D01*
X104559375Y-129570625D01*
X105050582Y-129898839D01*
X105483744Y-129985000D01*
X105776256Y-129985000D01*
X106209418Y-129898839D01*
X106700625Y-129570625D01*
X106900000Y-129272239D01*
X107099375Y-129570625D01*
X107590582Y-129898839D01*
X108023744Y-129985000D01*
X108316256Y-129985000D01*
X108749418Y-129898839D01*
X109240625Y-129570625D01*
X109453843Y-129251522D01*
X109514817Y-129381358D01*
X109943076Y-129771645D01*
X110353110Y-129941476D01*
X110583000Y-129820155D01*
X110583000Y-128627000D01*
X110563000Y-128627000D01*
X110563000Y-128373000D01*
X110583000Y-128373000D01*
X110583000Y-127179845D01*
X110353110Y-127058524D01*
X109943076Y-127228355D01*
X109514817Y-127618642D01*
X109453843Y-127748478D01*
X109240625Y-127429375D01*
X109033600Y-127291045D01*
X109033600Y-125007491D01*
X109142926Y-124962207D01*
X109315029Y-124790104D01*
X110639501Y-124790104D01*
X110676648Y-125005217D01*
X111104972Y-125148112D01*
X111555375Y-125116217D01*
X111823352Y-125005217D01*
X111860499Y-124790104D01*
X111250000Y-124179605D01*
X110639501Y-124790104D01*
X109315029Y-124790104D01*
X109462207Y-124642926D01*
X109635000Y-124225766D01*
X109635000Y-123854972D01*
X110101888Y-123854972D01*
X110133783Y-124305375D01*
X110244783Y-124573352D01*
X110459896Y-124610499D01*
X111070395Y-124000000D01*
X111429605Y-124000000D01*
X112040104Y-124610499D01*
X112255217Y-124573352D01*
X112398112Y-124145028D01*
X112366217Y-123694625D01*
X112255217Y-123426648D01*
X112040104Y-123389501D01*
X111429605Y-124000000D01*
X111070395Y-124000000D01*
X110459896Y-123389501D01*
X110244783Y-123426648D01*
X110101888Y-123854972D01*
X109635000Y-123854972D01*
X109635000Y-123774234D01*
X109462207Y-123357074D01*
X109315029Y-123209896D01*
X110639501Y-123209896D01*
X111250000Y-123820395D01*
X111860499Y-123209896D01*
X111823352Y-122994783D01*
X111395028Y-122851888D01*
X110944625Y-122883783D01*
X110676648Y-122994783D01*
X110639501Y-123209896D01*
X109315029Y-123209896D01*
X109142926Y-123037793D01*
X108725766Y-122865000D01*
X108274234Y-122865000D01*
X107857074Y-123037793D01*
X107537793Y-123357074D01*
X107365000Y-123774234D01*
X107365000Y-123980330D01*
X107356507Y-123993041D01*
X107289483Y-124330000D01*
X107306401Y-124415054D01*
X107306400Y-127291045D01*
X107099375Y-127429375D01*
X106900000Y-127727761D01*
X106700625Y-127429375D01*
X106468200Y-127274074D01*
X106468200Y-124886933D01*
X106712207Y-124642926D01*
X106885000Y-124225766D01*
X106885000Y-123774234D01*
X106712207Y-123357074D01*
X106588200Y-123233067D01*
X106588200Y-118832550D01*
X106604620Y-118750000D01*
X106588200Y-118667449D01*
X106588200Y-118667446D01*
X106550498Y-118477907D01*
X106539567Y-118422950D01*
X106401071Y-118215677D01*
X106401070Y-118215676D01*
X106354308Y-118145692D01*
X106284324Y-118098930D01*
X101088200Y-112902807D01*
X101088200Y-107847193D01*
X102534325Y-106401069D01*
X102604308Y-106354308D01*
X102651309Y-106283967D01*
X102759151Y-106122569D01*
X102789567Y-106077049D01*
X102838200Y-105832554D01*
X102838200Y-105832549D01*
X102854620Y-105750000D01*
X102838200Y-105667451D01*
X102838200Y-104253306D01*
X102872569Y-104336280D01*
X102906158Y-104369869D01*
X102911800Y-104398234D01*
X102911800Y-104398239D01*
X102928200Y-104480688D01*
X102928201Y-108917446D01*
X102911780Y-109000000D01*
X102917520Y-109028857D01*
X102852235Y-109041843D01*
X102642191Y-109182191D01*
X102501843Y-109392235D01*
X102452560Y-109640000D01*
X102452560Y-110860000D01*
X102501843Y-111107765D01*
X102642191Y-111317809D01*
X102852235Y-111458157D01*
X103100000Y-111507440D01*
X104900000Y-111507440D01*
X105147765Y-111458157D01*
X105357809Y-111317809D01*
X105375000Y-111292081D01*
X105392191Y-111317809D01*
X105602235Y-111458157D01*
X105850000Y-111507440D01*
X107650000Y-111507440D01*
X107897765Y-111458157D01*
X108107809Y-111317809D01*
X108125000Y-111292081D01*
X108142191Y-111317809D01*
X108352235Y-111458157D01*
X108600000Y-111507440D01*
X110400000Y-111507440D01*
X110647765Y-111458157D01*
X110857809Y-111317809D01*
X110875000Y-111292081D01*
X110892191Y-111317809D01*
X111102235Y-111458157D01*
X111350000Y-111507440D01*
X113150000Y-111507440D01*
X113397765Y-111458157D01*
X113607809Y-111317809D01*
X113625000Y-111292081D01*
X113642191Y-111317809D01*
X113852235Y-111458157D01*
X114100000Y-111507440D01*
X115900000Y-111507440D01*
X116147765Y-111458157D01*
X116357809Y-111317809D01*
X116375000Y-111292081D01*
X116392191Y-111317809D01*
X116602235Y-111458157D01*
X116850000Y-111507440D01*
X118650000Y-111507440D01*
X118897765Y-111458157D01*
X119107809Y-111317809D01*
X119125000Y-111292081D01*
X119142191Y-111317809D01*
X119352235Y-111458157D01*
X119600000Y-111507440D01*
X121400000Y-111507440D01*
X121647765Y-111458157D01*
X121857809Y-111317809D01*
X121875000Y-111292081D01*
X121892191Y-111317809D01*
X122102235Y-111458157D01*
X122350000Y-111507440D01*
X123957166Y-111507440D01*
X123612047Y-111852560D01*
X122350000Y-111852560D01*
X122102235Y-111901843D01*
X121892191Y-112042191D01*
X121875000Y-112067919D01*
X121857809Y-112042191D01*
X121647765Y-111901843D01*
X121400000Y-111852560D01*
X119600000Y-111852560D01*
X119352235Y-111901843D01*
X119142191Y-112042191D01*
X119125000Y-112067919D01*
X119107809Y-112042191D01*
X118897765Y-111901843D01*
X118650000Y-111852560D01*
X116850000Y-111852560D01*
X116602235Y-111901843D01*
X116392191Y-112042191D01*
X116375000Y-112067919D01*
X116357809Y-112042191D01*
X116147765Y-111901843D01*
X115900000Y-111852560D01*
X114100000Y-111852560D01*
X113852235Y-111901843D01*
X113642191Y-112042191D01*
X113625000Y-112067919D01*
X113607809Y-112042191D01*
X113397765Y-111901843D01*
X113150000Y-111852560D01*
X111350000Y-111852560D01*
X111102235Y-111901843D01*
X110892191Y-112042191D01*
X110875000Y-112067919D01*
X110857809Y-112042191D01*
X110647765Y-111901843D01*
X110400000Y-111852560D01*
X108600000Y-111852560D01*
X108352235Y-111901843D01*
X108142191Y-112042191D01*
X108125000Y-112067919D01*
X108107809Y-112042191D01*
X107897765Y-111901843D01*
X107650000Y-111852560D01*
X105850000Y-111852560D01*
X105602235Y-111901843D01*
X105392191Y-112042191D01*
X105375000Y-112067919D01*
X105357809Y-112042191D01*
X105147765Y-111901843D01*
X104900000Y-111852560D01*
X103100000Y-111852560D01*
X102852235Y-111901843D01*
X102642191Y-112042191D01*
X102501843Y-112252235D01*
X102452560Y-112500000D01*
X102452560Y-113720000D01*
X102501843Y-113967765D01*
X102642191Y-114177809D01*
X102852235Y-114318157D01*
X103100000Y-114367440D01*
X104900000Y-114367440D01*
X105147765Y-114318157D01*
X105357809Y-114177809D01*
X105375000Y-114152081D01*
X105392191Y-114177809D01*
X105602235Y-114318157D01*
X105850000Y-114367440D01*
X107650000Y-114367440D01*
X107897765Y-114318157D01*
X108107809Y-114177809D01*
X108125000Y-114152081D01*
X108142191Y-114177809D01*
X108352235Y-114318157D01*
X108600000Y-114367440D01*
X110400000Y-114367440D01*
X110647765Y-114318157D01*
X110857809Y-114177809D01*
X110875000Y-114152081D01*
X110892191Y-114177809D01*
X111102235Y-114318157D01*
X111350000Y-114367440D01*
X113150000Y-114367440D01*
X113397765Y-114318157D01*
X113607809Y-114177809D01*
X113625000Y-114152081D01*
X113642191Y-114177809D01*
X113852235Y-114318157D01*
X114100000Y-114367440D01*
X115900000Y-114367440D01*
X116147765Y-114318157D01*
X116357809Y-114177809D01*
X116375000Y-114152081D01*
X116392191Y-114177809D01*
X116602235Y-114318157D01*
X116850000Y-114367440D01*
X118650000Y-114367440D01*
X118897765Y-114318157D01*
X119107809Y-114177809D01*
X119125000Y-114152081D01*
X119142191Y-114177809D01*
X119352235Y-114318157D01*
X119600000Y-114367440D01*
X121400000Y-114367440D01*
X121647765Y-114318157D01*
X121857809Y-114177809D01*
X121875000Y-114152081D01*
X121892191Y-114177809D01*
X122102235Y-114318157D01*
X122350000Y-114367440D01*
X124150000Y-114367440D01*
X124397765Y-114318157D01*
X124526487Y-114232147D01*
X124642191Y-114405309D01*
X124852235Y-114545657D01*
X125100000Y-114594940D01*
X126900000Y-114594940D01*
X127147765Y-114545657D01*
X127357809Y-114405309D01*
X127498157Y-114195265D01*
X127519453Y-114088200D01*
X127914391Y-114088200D01*
X127929375Y-114110625D01*
X128420582Y-114438839D01*
X128853744Y-114525000D01*
X129146256Y-114525000D01*
X129579418Y-114438839D01*
X130070625Y-114110625D01*
X130398839Y-113619418D01*
X130514092Y-113040000D01*
X130398839Y-112460582D01*
X130070625Y-111969375D01*
X130048967Y-111954904D01*
X130209698Y-111888327D01*
X130388327Y-111709699D01*
X130485000Y-111476310D01*
X130485000Y-110785750D01*
X130326250Y-110627000D01*
X129127000Y-110627000D01*
X129127000Y-110647000D01*
X128873000Y-110647000D01*
X128873000Y-110627000D01*
X128853000Y-110627000D01*
X128853000Y-110373000D01*
X128873000Y-110373000D01*
X128873000Y-109173750D01*
X129127000Y-109173750D01*
X129127000Y-110373000D01*
X130326250Y-110373000D01*
X130485000Y-110214250D01*
X130485000Y-109523690D01*
X130388327Y-109290301D01*
X130209698Y-109111673D01*
X129976309Y-109015000D01*
X129285750Y-109015000D01*
X129127000Y-109173750D01*
X128873000Y-109173750D01*
X128714250Y-109015000D01*
X128023691Y-109015000D01*
X127790302Y-109111673D01*
X127611673Y-109290301D01*
X127537748Y-109468772D01*
X127498157Y-109269735D01*
X127357809Y-109059691D01*
X127147765Y-108919343D01*
X126900000Y-108870060D01*
X125100000Y-108870060D01*
X124852235Y-108919343D01*
X124642191Y-109059691D01*
X124574991Y-109160262D01*
X124397765Y-109041843D01*
X124349434Y-109032229D01*
X124360221Y-108978000D01*
X124343801Y-108895451D01*
X124343801Y-101588150D01*
X124360221Y-101505601D01*
X124343801Y-101423052D01*
X124343801Y-101423047D01*
X124295168Y-101178552D01*
X124217072Y-101061673D01*
X124156672Y-100971278D01*
X124156671Y-100971277D01*
X124109909Y-100901293D01*
X124039925Y-100854532D01*
X122976072Y-99790679D01*
X122929308Y-99720692D01*
X122652049Y-99535433D01*
X122407554Y-99486800D01*
X122407549Y-99486800D01*
X122325000Y-99470380D01*
X122242451Y-99486800D01*
X121252475Y-99486800D01*
X121285000Y-99408277D01*
X121285000Y-98996529D01*
X121173027Y-98726202D01*
X121285000Y-98455874D01*
X121285000Y-98044126D01*
X121127431Y-97663720D01*
X120836280Y-97372569D01*
X120455874Y-97215000D01*
X120122440Y-97215000D01*
X120122440Y-96850000D01*
X120102549Y-96750000D01*
X120122440Y-96650000D01*
X120122440Y-96200000D01*
X120102549Y-96100000D01*
X120122440Y-96000000D01*
X120122440Y-95550000D01*
X120073157Y-95302235D01*
X119932809Y-95092191D01*
X119722765Y-94951843D01*
X119475000Y-94902560D01*
X117725000Y-94902560D01*
X117552862Y-94936800D01*
X114582548Y-94936800D01*
X114499999Y-94920380D01*
X114417450Y-94936800D01*
X114417446Y-94936800D01*
X114172951Y-94985433D01*
X114172949Y-94985434D01*
X114172950Y-94985434D01*
X113965677Y-95123929D01*
X113965676Y-95123930D01*
X113895692Y-95170692D01*
X113848930Y-95240676D01*
X113651659Y-95437948D01*
X113586280Y-95372569D01*
X113205874Y-95215000D01*
X112814868Y-95215000D01*
X112732809Y-95092191D01*
X112522765Y-94951843D01*
X112439941Y-94935368D01*
X112535000Y-94705874D01*
X112535000Y-94700000D01*
X131252560Y-94700000D01*
X131252560Y-96400000D01*
X131301843Y-96647765D01*
X131442191Y-96857809D01*
X131652235Y-96998157D01*
X131755708Y-97018739D01*
X131478355Y-97323076D01*
X131308524Y-97733110D01*
X131429845Y-97963000D01*
X132623000Y-97963000D01*
X132623000Y-97943000D01*
X132877000Y-97943000D01*
X132877000Y-97963000D01*
X134070155Y-97963000D01*
X134191476Y-97733110D01*
X134021645Y-97323076D01*
X133744292Y-97018739D01*
X133847765Y-96998157D01*
X134057809Y-96857809D01*
X134198157Y-96647765D01*
X134247440Y-96400000D01*
X134247440Y-94700000D01*
X134198157Y-94452235D01*
X134057809Y-94242191D01*
X133847765Y-94101843D01*
X133600000Y-94052560D01*
X131900000Y-94052560D01*
X131652235Y-94101843D01*
X131442191Y-94242191D01*
X131301843Y-94452235D01*
X131252560Y-94700000D01*
X112535000Y-94700000D01*
X112535000Y-94332500D01*
X112714250Y-94332500D01*
X112873000Y-94173750D01*
X112873000Y-93127000D01*
X112853000Y-93127000D01*
X112853000Y-92873000D01*
X112873000Y-92873000D01*
X112873000Y-91826250D01*
X112714250Y-91667500D01*
X111973690Y-91667500D01*
X111740301Y-91764173D01*
X111621618Y-91882857D01*
X111607809Y-91862191D01*
X111397765Y-91721843D01*
X111150000Y-91672560D01*
X109350000Y-91672560D01*
X109102235Y-91721843D01*
X108892191Y-91862191D01*
X108751843Y-92072235D01*
X108702560Y-92320000D01*
X108702560Y-93715000D01*
X108751843Y-93962765D01*
X108892191Y-94172809D01*
X109102235Y-94313157D01*
X109350000Y-94362440D01*
X109411801Y-94362440D01*
X109411801Y-95167446D01*
X109395380Y-95250000D01*
X109460434Y-95577049D01*
X109598929Y-95784322D01*
X109598931Y-95784324D01*
X109645693Y-95854308D01*
X109715677Y-95901070D01*
X109893191Y-96078584D01*
X109897451Y-96100000D01*
X109877560Y-96200000D01*
X109877560Y-96349439D01*
X109650690Y-96122569D01*
X109270284Y-95965000D01*
X108858536Y-95965000D01*
X108478130Y-96122569D01*
X108186979Y-96413720D01*
X108029410Y-96794126D01*
X108029410Y-97205874D01*
X108044349Y-97241940D01*
X107905320Y-97380969D01*
X107833521Y-97207630D01*
X107542370Y-96916479D01*
X107161964Y-96758910D01*
X107147440Y-96758910D01*
X107147440Y-89139000D01*
X107881765Y-89139000D01*
X108702560Y-89959796D01*
X108702560Y-90680000D01*
X108751843Y-90927765D01*
X108892191Y-91137809D01*
X109102235Y-91278157D01*
X109350000Y-91327440D01*
X111150000Y-91327440D01*
X111397765Y-91278157D01*
X111607809Y-91137809D01*
X111630847Y-91103331D01*
X111642191Y-91120309D01*
X111852235Y-91260657D01*
X112100000Y-91309940D01*
X113900000Y-91309940D01*
X114147765Y-91260657D01*
X114357809Y-91120309D01*
X114375000Y-91094581D01*
X114392191Y-91120309D01*
X114602235Y-91260657D01*
X114850000Y-91309940D01*
X116442313Y-91309940D01*
X116417092Y-91326792D01*
X116370330Y-91396776D01*
X116112046Y-91655060D01*
X114850000Y-91655060D01*
X114602235Y-91704343D01*
X114392191Y-91844691D01*
X114371373Y-91875847D01*
X114259699Y-91764173D01*
X114026310Y-91667500D01*
X113285750Y-91667500D01*
X113127000Y-91826250D01*
X113127000Y-92873000D01*
X113147000Y-92873000D01*
X113147000Y-93127000D01*
X113127000Y-93127000D01*
X113127000Y-94173750D01*
X113285750Y-94332500D01*
X114026310Y-94332500D01*
X114259699Y-94235827D01*
X114371373Y-94124153D01*
X114392191Y-94155309D01*
X114602235Y-94295657D01*
X114850000Y-94344940D01*
X116650000Y-94344940D01*
X116897765Y-94295657D01*
X117107809Y-94155309D01*
X117125000Y-94129581D01*
X117142191Y-94155309D01*
X117352235Y-94295657D01*
X117600000Y-94344940D01*
X119400000Y-94344940D01*
X119647765Y-94295657D01*
X119857809Y-94155309D01*
X119875000Y-94129581D01*
X119892191Y-94155309D01*
X120102235Y-94295657D01*
X120350000Y-94344940D01*
X122150000Y-94344940D01*
X122397765Y-94295657D01*
X122607809Y-94155309D01*
X122613307Y-94147081D01*
X122642191Y-94190309D01*
X122852235Y-94330657D01*
X123100000Y-94379940D01*
X124900000Y-94379940D01*
X125147765Y-94330657D01*
X125357809Y-94190309D01*
X125392646Y-94138172D01*
X125490301Y-94235827D01*
X125723690Y-94332500D01*
X126464250Y-94332500D01*
X126623000Y-94173750D01*
X126623000Y-93127000D01*
X126877000Y-93127000D01*
X126877000Y-94173750D01*
X127035750Y-94332500D01*
X127776310Y-94332500D01*
X128009699Y-94235827D01*
X128188327Y-94057198D01*
X128285000Y-93823809D01*
X128285000Y-93285750D01*
X128126250Y-93127000D01*
X126877000Y-93127000D01*
X126623000Y-93127000D01*
X126603000Y-93127000D01*
X126603000Y-92873000D01*
X126623000Y-92873000D01*
X126623000Y-91826250D01*
X126877000Y-91826250D01*
X126877000Y-92873000D01*
X128126250Y-92873000D01*
X128285000Y-92714250D01*
X128285000Y-92176191D01*
X128188327Y-91942802D01*
X128009699Y-91764173D01*
X127776310Y-91667500D01*
X127035750Y-91667500D01*
X126877000Y-91826250D01*
X126623000Y-91826250D01*
X126464250Y-91667500D01*
X125723690Y-91667500D01*
X125490301Y-91764173D01*
X125364608Y-91889867D01*
X125357809Y-91879691D01*
X125147765Y-91739343D01*
X124900000Y-91690060D01*
X123637953Y-91690060D01*
X123344672Y-91396779D01*
X123301722Y-91332500D01*
X123714250Y-91332500D01*
X123873000Y-91173750D01*
X123873000Y-90127000D01*
X122661250Y-90127000D01*
X122626250Y-90092000D01*
X121377000Y-90092000D01*
X121377000Y-90112000D01*
X121123000Y-90112000D01*
X121123000Y-90092000D01*
X121103000Y-90092000D01*
X121103000Y-89838000D01*
X121123000Y-89838000D01*
X121123000Y-88791250D01*
X121377000Y-88791250D01*
X121377000Y-89838000D01*
X122588750Y-89838000D01*
X122623750Y-89873000D01*
X123873000Y-89873000D01*
X123873000Y-88826250D01*
X123714250Y-88667500D01*
X122973690Y-88667500D01*
X122740301Y-88764173D01*
X122642500Y-88861975D01*
X122509699Y-88729173D01*
X122276310Y-88632500D01*
X121535750Y-88632500D01*
X121377000Y-88791250D01*
X121123000Y-88791250D01*
X120964250Y-88632500D01*
X120223690Y-88632500D01*
X119990301Y-88729173D01*
X119878627Y-88840847D01*
X119857809Y-88809691D01*
X119647765Y-88669343D01*
X119400000Y-88620060D01*
X119306675Y-88620060D01*
X119300338Y-88588200D01*
X125291707Y-88588200D01*
X125464729Y-88761222D01*
X125392191Y-88809691D01*
X125357354Y-88861828D01*
X125259699Y-88764173D01*
X125026310Y-88667500D01*
X124285750Y-88667500D01*
X124127000Y-88826250D01*
X124127000Y-89873000D01*
X124147000Y-89873000D01*
X124147000Y-90127000D01*
X124127000Y-90127000D01*
X124127000Y-91173750D01*
X124285750Y-91332500D01*
X125026310Y-91332500D01*
X125259699Y-91235827D01*
X125385392Y-91110133D01*
X125392191Y-91120309D01*
X125602235Y-91260657D01*
X125850000Y-91309940D01*
X127650000Y-91309940D01*
X127897765Y-91260657D01*
X128107809Y-91120309D01*
X128248157Y-90910265D01*
X128297440Y-90662500D01*
X128297440Y-89267500D01*
X128248157Y-89019735D01*
X128107809Y-88809691D01*
X127897765Y-88669343D01*
X127650000Y-88620060D01*
X127556675Y-88620060D01*
X127539567Y-88534051D01*
X127452088Y-88403130D01*
X127401071Y-88326777D01*
X127401070Y-88326776D01*
X127354308Y-88256792D01*
X127284324Y-88210031D01*
X126289971Y-87215678D01*
X126243208Y-87145692D01*
X126157165Y-87088200D01*
X127902807Y-87088200D01*
X131290442Y-90475836D01*
X131235908Y-90750000D01*
X131351161Y-91329418D01*
X131679375Y-91820625D01*
X132170582Y-92148839D01*
X132603744Y-92235000D01*
X132896256Y-92235000D01*
X133329418Y-92148839D01*
X133820625Y-91820625D01*
X134148839Y-91329418D01*
X134264092Y-90750000D01*
X134148839Y-90170582D01*
X133820625Y-89679375D01*
X133522239Y-89480000D01*
X133820625Y-89280625D01*
X134148839Y-88789418D01*
X134264092Y-88210000D01*
X134148839Y-87630582D01*
X133820625Y-87139375D01*
X133501522Y-86926157D01*
X133631358Y-86865183D01*
X134021645Y-86436924D01*
X134191476Y-86026890D01*
X134070155Y-85797000D01*
X132877000Y-85797000D01*
X132877000Y-85817000D01*
X132623000Y-85817000D01*
X132623000Y-85797000D01*
X132603000Y-85797000D01*
X132603000Y-85543000D01*
X132623000Y-85543000D01*
X132623000Y-85523000D01*
X132877000Y-85523000D01*
X132877000Y-85543000D01*
X134070155Y-85543000D01*
X134191476Y-85313110D01*
X134021645Y-84903076D01*
X133744292Y-84598739D01*
X133847765Y-84578157D01*
X134057809Y-84437809D01*
X134198157Y-84227765D01*
X134247440Y-83980000D01*
X134247440Y-82280000D01*
X134198157Y-82032235D01*
X134057809Y-81822191D01*
X133847765Y-81681843D01*
X133600000Y-81632560D01*
X131900000Y-81632560D01*
X131652235Y-81681843D01*
X131442191Y-81822191D01*
X131301843Y-82032235D01*
X131252560Y-82280000D01*
X131252560Y-83980000D01*
X131301843Y-84227765D01*
X131442191Y-84437809D01*
X131652235Y-84578157D01*
X131755708Y-84598739D01*
X131478355Y-84903076D01*
X131308524Y-85313110D01*
X131429844Y-85542998D01*
X131268392Y-85542998D01*
X129191071Y-83465678D01*
X129144308Y-83395692D01*
X128867049Y-83210433D01*
X128622554Y-83161800D01*
X128622549Y-83161800D01*
X128540000Y-83145380D01*
X128457451Y-83161800D01*
X124516933Y-83161800D01*
X124392926Y-83037793D01*
X123975766Y-82865000D01*
X123524234Y-82865000D01*
X123133614Y-83026800D01*
X120596224Y-83026800D01*
X120622440Y-82895000D01*
X120622440Y-82295000D01*
X120573157Y-82047235D01*
X120432809Y-81837191D01*
X120222765Y-81696843D01*
X119975000Y-81647560D01*
X118578110Y-81647560D01*
X119137470Y-81088200D01*
X120483067Y-81088200D01*
X120607074Y-81212207D01*
X121024234Y-81385000D01*
X121475766Y-81385000D01*
X121892926Y-81212207D01*
X122212207Y-80892926D01*
X122385000Y-80475766D01*
X122385000Y-80024234D01*
X122212207Y-79607074D01*
X121892926Y-79287793D01*
X121475766Y-79115000D01*
X121024234Y-79115000D01*
X120607074Y-79287793D01*
X120483067Y-79411800D01*
X120443333Y-79411800D01*
X120712207Y-79142926D01*
X120885000Y-78725766D01*
X120885000Y-78274234D01*
X120712207Y-77857074D01*
X120392926Y-77537793D01*
X119975766Y-77365000D01*
X119524234Y-77365000D01*
X119107074Y-77537793D01*
X118787793Y-77857074D01*
X118615000Y-78274234D01*
X118615000Y-78449606D01*
X115307807Y-81756800D01*
X114912496Y-81756800D01*
X114822765Y-81696843D01*
X114575000Y-81647560D01*
X113025000Y-81647560D01*
X112777235Y-81696843D01*
X112698984Y-81749129D01*
X112654999Y-81740380D01*
X112572450Y-81756800D01*
X112572446Y-81756800D01*
X112327951Y-81805433D01*
X112089143Y-81965000D01*
X112044126Y-81965000D01*
X111663720Y-82122569D01*
X111372569Y-82413720D01*
X111215000Y-82794126D01*
X111215000Y-82968780D01*
X111205874Y-82965000D01*
X110794126Y-82965000D01*
X110413720Y-83122569D01*
X110122569Y-83413720D01*
X109965000Y-83794126D01*
X109965000Y-83849607D01*
X109902807Y-83911800D01*
X107125511Y-83911800D01*
X107086280Y-83872569D01*
X106705874Y-83715000D01*
X106294126Y-83715000D01*
X105913720Y-83872569D01*
X105622569Y-84163720D01*
X105465000Y-84544126D01*
X105465000Y-84955874D01*
X105605470Y-85295000D01*
X104823691Y-85295000D01*
X104590302Y-85391673D01*
X104411673Y-85570301D01*
X104315000Y-85803690D01*
X104315000Y-86244250D01*
X104473750Y-86403000D01*
X105923000Y-86403000D01*
X105923000Y-86383000D01*
X106177000Y-86383000D01*
X106177000Y-86403000D01*
X107626250Y-86403000D01*
X107785000Y-86244250D01*
X107785000Y-85803690D01*
X107695741Y-85588200D01*
X110167451Y-85588200D01*
X110250000Y-85604620D01*
X110332549Y-85588200D01*
X110332554Y-85588200D01*
X110577049Y-85539567D01*
X110854308Y-85354308D01*
X110901072Y-85284322D01*
X111150393Y-85035000D01*
X111205874Y-85035000D01*
X111468581Y-84926184D01*
X109033765Y-87361000D01*
X108337555Y-87361000D01*
X108250000Y-87343584D01*
X108162445Y-87361000D01*
X107741636Y-87361000D01*
X107785000Y-87256310D01*
X107785000Y-86815750D01*
X107626250Y-86657000D01*
X106177000Y-86657000D01*
X106177000Y-86677000D01*
X105923000Y-86677000D01*
X105923000Y-86657000D01*
X104473750Y-86657000D01*
X104315000Y-86815750D01*
X104315000Y-87256310D01*
X104316028Y-87258792D01*
X103597440Y-86540204D01*
X103597440Y-81350000D01*
X103548157Y-81102235D01*
X103407809Y-80892191D01*
X103197765Y-80751843D01*
X102950000Y-80702560D01*
X99639000Y-80702560D01*
X99639000Y-80329737D01*
X99797765Y-80298157D01*
X100007809Y-80157809D01*
X100148157Y-79947765D01*
X100197440Y-79700000D01*
X100197440Y-79078680D01*
X100404870Y-79037419D01*
X100698933Y-78840933D01*
X100748531Y-78766704D01*
X102445137Y-77070099D01*
X103802560Y-77070099D01*
X103802560Y-79750000D01*
X103851843Y-79997765D01*
X103992191Y-80207809D01*
X104202235Y-80348157D01*
X104450000Y-80397440D01*
X105161001Y-80397440D01*
X105161000Y-80722560D01*
X104950000Y-80722560D01*
X104702235Y-80771843D01*
X104492191Y-80912191D01*
X104351843Y-81122235D01*
X104302560Y-81370000D01*
X104302560Y-82570000D01*
X104351843Y-82817765D01*
X104492191Y-83027809D01*
X104702235Y-83168157D01*
X104950000Y-83217440D01*
X107150000Y-83217440D01*
X107397765Y-83168157D01*
X107607809Y-83027809D01*
X107748157Y-82817765D01*
X107797440Y-82570000D01*
X107797440Y-81370000D01*
X107748157Y-81122235D01*
X107607809Y-80912191D01*
X107397765Y-80771843D01*
X107150000Y-80722560D01*
X106939000Y-80722560D01*
X106939000Y-79139000D01*
X108462445Y-79139000D01*
X108550000Y-79156416D01*
X108637555Y-79139000D01*
X108637556Y-79139000D01*
X108896870Y-79087419D01*
X109190933Y-78890933D01*
X109240531Y-78816704D01*
X109659796Y-78397440D01*
X110100000Y-78397440D01*
X110347765Y-78348157D01*
X110508744Y-78240593D01*
X110642191Y-78440309D01*
X110852235Y-78580657D01*
X111100000Y-78629940D01*
X112900000Y-78629940D01*
X113147765Y-78580657D01*
X113250000Y-78512345D01*
X113352235Y-78580657D01*
X113600000Y-78629940D01*
X115400000Y-78629940D01*
X115647765Y-78580657D01*
X115857809Y-78440309D01*
X115998157Y-78230265D01*
X116047440Y-77982500D01*
X116047440Y-76587500D01*
X115998157Y-76339735D01*
X115857809Y-76129691D01*
X115647765Y-75989343D01*
X115400000Y-75940060D01*
X114209795Y-75940060D01*
X113884130Y-75614395D01*
X113862819Y-75582500D01*
X114214250Y-75582500D01*
X114373000Y-75423750D01*
X114373000Y-74377000D01*
X114627000Y-74377000D01*
X114627000Y-75423750D01*
X114785750Y-75582500D01*
X115526310Y-75582500D01*
X115759699Y-75485827D01*
X115938327Y-75307198D01*
X116035000Y-75073809D01*
X116035000Y-74535750D01*
X115876250Y-74377000D01*
X114627000Y-74377000D01*
X114373000Y-74377000D01*
X112127000Y-74377000D01*
X112127000Y-74397000D01*
X111873000Y-74397000D01*
X111873000Y-74377000D01*
X111853000Y-74377000D01*
X111853000Y-74123000D01*
X111873000Y-74123000D01*
X111873000Y-73076250D01*
X112127000Y-73076250D01*
X112127000Y-74123000D01*
X114373000Y-74123000D01*
X114373000Y-73076250D01*
X114627000Y-73076250D01*
X114627000Y-74123000D01*
X115876250Y-74123000D01*
X116035000Y-73964250D01*
X116035000Y-73426191D01*
X115938327Y-73192802D01*
X115759699Y-73014173D01*
X115526310Y-72917500D01*
X114785750Y-72917500D01*
X114627000Y-73076250D01*
X114373000Y-73076250D01*
X114214250Y-72917500D01*
X113473690Y-72917500D01*
X113250000Y-73010156D01*
X113026310Y-72917500D01*
X112285750Y-72917500D01*
X112127000Y-73076250D01*
X111873000Y-73076250D01*
X111714250Y-72917500D01*
X110973690Y-72917500D01*
X110740301Y-73014173D01*
X110599656Y-73154819D01*
X110557809Y-73092191D01*
X110347765Y-72951843D01*
X110100000Y-72902560D01*
X109509796Y-72902560D01*
X106350762Y-69743526D01*
X106448157Y-69597765D01*
X106457184Y-69552381D01*
X106469375Y-69570625D01*
X106960582Y-69898839D01*
X107393744Y-69985000D01*
X107686256Y-69985000D01*
X108119418Y-69898839D01*
X108610625Y-69570625D01*
X108823843Y-69251522D01*
X108884817Y-69381358D01*
X109313076Y-69771645D01*
X109723110Y-69941476D01*
X109953000Y-69820155D01*
X109953000Y-68627000D01*
X109933000Y-68627000D01*
X109933000Y-68373000D01*
X109953000Y-68373000D01*
X109953000Y-67179845D01*
X110207000Y-67179845D01*
X110207000Y-68373000D01*
X110227000Y-68373000D01*
X110227000Y-68627000D01*
X110207000Y-68627000D01*
X110207000Y-69820155D01*
X110436890Y-69941476D01*
X110846924Y-69771645D01*
X111275183Y-69381358D01*
X111336157Y-69251522D01*
X111549375Y-69570625D01*
X112040582Y-69898839D01*
X112473744Y-69985000D01*
X112766256Y-69985000D01*
X113199418Y-69898839D01*
X113690625Y-69570625D01*
X113890000Y-69272239D01*
X114089375Y-69570625D01*
X114580582Y-69898839D01*
X115013744Y-69985000D01*
X115306256Y-69985000D01*
X115739418Y-69898839D01*
X116230625Y-69570625D01*
X116430000Y-69272239D01*
X116629375Y-69570625D01*
X117120582Y-69898839D01*
X117553744Y-69985000D01*
X117846256Y-69985000D01*
X118279418Y-69898839D01*
X118770625Y-69570625D01*
X118970000Y-69272239D01*
X119169375Y-69570625D01*
X119660582Y-69898839D01*
X120093744Y-69985000D01*
X120386256Y-69985000D01*
X120819418Y-69898839D01*
X121310625Y-69570625D01*
X121510000Y-69272239D01*
X121709375Y-69570625D01*
X122200582Y-69898839D01*
X122633744Y-69985000D01*
X122926256Y-69985000D01*
X123359418Y-69898839D01*
X123850625Y-69570625D01*
X124178839Y-69079418D01*
X124294092Y-68500000D01*
X124178839Y-67920582D01*
X123850625Y-67429375D01*
X123359418Y-67101161D01*
X122926256Y-67015000D01*
X122633744Y-67015000D01*
X122200582Y-67101161D01*
X121709375Y-67429375D01*
X121510000Y-67727761D01*
X121310625Y-67429375D01*
X120819418Y-67101161D01*
X120386256Y-67015000D01*
X120093744Y-67015000D01*
X119660582Y-67101161D01*
X119169375Y-67429375D01*
X118970000Y-67727761D01*
X118770625Y-67429375D01*
X118279418Y-67101161D01*
X117846256Y-67015000D01*
X117553744Y-67015000D01*
X117120582Y-67101161D01*
X116629375Y-67429375D01*
X116430000Y-67727761D01*
X116230625Y-67429375D01*
X115739418Y-67101161D01*
X115306256Y-67015000D01*
X115013744Y-67015000D01*
X114580582Y-67101161D01*
X114089375Y-67429375D01*
X113890000Y-67727761D01*
X113690625Y-67429375D01*
X113199418Y-67101161D01*
X112766256Y-67015000D01*
X112473744Y-67015000D01*
X112040582Y-67101161D01*
X111549375Y-67429375D01*
X111336157Y-67748478D01*
X111275183Y-67618642D01*
X110846924Y-67228355D01*
X110436890Y-67058524D01*
X110207000Y-67179845D01*
X109953000Y-67179845D01*
X109723110Y-67058524D01*
X109313076Y-67228355D01*
X108884817Y-67618642D01*
X108823843Y-67748478D01*
X108610625Y-67429375D01*
X108119418Y-67101161D01*
X107686256Y-67015000D01*
X107393744Y-67015000D01*
X106960582Y-67101161D01*
X106469375Y-67429375D01*
X106457184Y-67447619D01*
X106448157Y-67402235D01*
X106307809Y-67192191D01*
X106097765Y-67051843D01*
X105850000Y-67002560D01*
X104150000Y-67002560D01*
X103902235Y-67051843D01*
X103692191Y-67192191D01*
X103551843Y-67402235D01*
X103502560Y-67650000D01*
X103502560Y-69350000D01*
X103551843Y-69597765D01*
X103692191Y-69807809D01*
X103902235Y-69948157D01*
X104150000Y-69997440D01*
X104162963Y-69997440D01*
X104359067Y-70290933D01*
X104433296Y-70340531D01*
X105807765Y-71715000D01*
X105535750Y-71715000D01*
X105377000Y-71873750D01*
X105377000Y-73723000D01*
X106526250Y-73723000D01*
X106685000Y-73564250D01*
X106685000Y-72592236D01*
X108252560Y-74159796D01*
X108252560Y-74450000D01*
X108301843Y-74697765D01*
X108442191Y-74907809D01*
X108652235Y-75048157D01*
X108900000Y-75097440D01*
X110100000Y-75097440D01*
X110347765Y-75048157D01*
X110465000Y-74969822D01*
X110465000Y-75073809D01*
X110555419Y-75292099D01*
X106685000Y-75292099D01*
X106685000Y-74135750D01*
X106526250Y-73977000D01*
X105377000Y-73977000D01*
X105377000Y-73997000D01*
X105123000Y-73997000D01*
X105123000Y-73977000D01*
X103973750Y-73977000D01*
X103815000Y-74135750D01*
X103815000Y-75292099D01*
X103145731Y-75292099D01*
X103285000Y-74955874D01*
X103285000Y-74544126D01*
X103127431Y-74163720D01*
X102836280Y-73872569D01*
X102455874Y-73715000D01*
X102044126Y-73715000D01*
X101663720Y-73872569D01*
X101372569Y-74163720D01*
X101215000Y-74544126D01*
X101215000Y-74955874D01*
X101361000Y-75308351D01*
X101361001Y-75639763D01*
X100197440Y-76803325D01*
X100197440Y-76700000D01*
X100148157Y-76452235D01*
X100007809Y-76242191D01*
X99797765Y-76101843D01*
X99550000Y-76052560D01*
X97950000Y-76052560D01*
X97702235Y-76101843D01*
X97492191Y-76242191D01*
X97351843Y-76452235D01*
X97302560Y-76700000D01*
X97302560Y-79700000D01*
X97351843Y-79947765D01*
X97492191Y-80157809D01*
X97702235Y-80298157D01*
X97861001Y-80329737D01*
X97861001Y-80702560D01*
X96550000Y-80702560D01*
X96302235Y-80751843D01*
X96092191Y-80892191D01*
X95951843Y-81102235D01*
X95902560Y-81350000D01*
X95902560Y-87150000D01*
X95951843Y-87397765D01*
X96092191Y-87607809D01*
X96302235Y-87748157D01*
X96550000Y-87797440D01*
X97817180Y-87797440D01*
X97715000Y-88044126D01*
X97715000Y-88455874D01*
X97718780Y-88465000D01*
X97500750Y-88465000D01*
X97342000Y-88623750D01*
X97342000Y-89873000D01*
X98388750Y-89873000D01*
X98547500Y-89714250D01*
X98547500Y-89285000D01*
X98905060Y-89285000D01*
X98905060Y-90900000D01*
X98954343Y-91147765D01*
X99022655Y-91250000D01*
X98954343Y-91352235D01*
X98905060Y-91600000D01*
X98905060Y-91900379D01*
X98861430Y-91965676D01*
X98454108Y-92372998D01*
X98388752Y-92372998D01*
X98547500Y-92214250D01*
X98547500Y-91473690D01*
X98454844Y-91250000D01*
X98547500Y-91026310D01*
X98547500Y-90285750D01*
X98388750Y-90127000D01*
X97342000Y-90127000D01*
X97342000Y-92373000D01*
X97362000Y-92373000D01*
X97362000Y-92627000D01*
X97342000Y-92627000D01*
X97342000Y-92647000D01*
X97088000Y-92647000D01*
X97088000Y-92627000D01*
X96041250Y-92627000D01*
X95882500Y-92785750D01*
X95882500Y-93526310D01*
X95979173Y-93759699D01*
X95980373Y-93760899D01*
X95919343Y-93852235D01*
X95870060Y-94100000D01*
X95870060Y-95900000D01*
X95919343Y-96147765D01*
X95980373Y-96239101D01*
X95979173Y-96240301D01*
X95882500Y-96473690D01*
X95882500Y-97214250D01*
X96041250Y-97373000D01*
X97088000Y-97373000D01*
X97088000Y-97353000D01*
X97342000Y-97353000D01*
X97342000Y-97373000D01*
X97362000Y-97373000D01*
X97362000Y-97627000D01*
X97342000Y-97627000D01*
X97342000Y-99873000D01*
X98388750Y-99873000D01*
X98547500Y-99714250D01*
X98547500Y-99554735D01*
X98905060Y-99912296D01*
X98905060Y-100900000D01*
X98954343Y-101147765D01*
X99022655Y-101250000D01*
X98954343Y-101352235D01*
X98905060Y-101600000D01*
X98905060Y-103400000D01*
X98954343Y-103647765D01*
X99022655Y-103750000D01*
X98954343Y-103852235D01*
X98905060Y-104100000D01*
X98905060Y-105900000D01*
X98954343Y-106147765D01*
X99094691Y-106357809D01*
X99304735Y-106498157D01*
X99552500Y-106547440D01*
X99792737Y-106547440D01*
X99645692Y-106645692D01*
X99460433Y-106922951D01*
X99411800Y-107167446D01*
X99411800Y-107417451D01*
X99395380Y-107500000D01*
X99411800Y-107582549D01*
X99411800Y-107582553D01*
X99411801Y-107582558D01*
X99411801Y-107590320D01*
X99170625Y-107229375D01*
X98679418Y-106901161D01*
X98246256Y-106815000D01*
X97953744Y-106815000D01*
X97520582Y-106901161D01*
X97029375Y-107229375D01*
X96701161Y-107720582D01*
X96585908Y-108300000D01*
X96701161Y-108879418D01*
X97029375Y-109370625D01*
X97327761Y-109570000D01*
X97029375Y-109769375D01*
X96701161Y-110260582D01*
X96585908Y-110840000D01*
X96640442Y-111114164D01*
X95215679Y-112538928D01*
X95145692Y-112585692D01*
X95127000Y-112613667D01*
X95127000Y-105285750D01*
X95882500Y-105285750D01*
X95882500Y-106026310D01*
X95979173Y-106259699D01*
X96157802Y-106438327D01*
X96391191Y-106535000D01*
X96929250Y-106535000D01*
X97088000Y-106376250D01*
X97088000Y-105127000D01*
X97342000Y-105127000D01*
X97342000Y-106376250D01*
X97500750Y-106535000D01*
X98038809Y-106535000D01*
X98272198Y-106438327D01*
X98450827Y-106259699D01*
X98547500Y-106026310D01*
X98547500Y-105285750D01*
X98388750Y-105127000D01*
X97342000Y-105127000D01*
X97088000Y-105127000D01*
X96041250Y-105127000D01*
X95882500Y-105285750D01*
X95127000Y-105285750D01*
X95127000Y-102785750D01*
X95882500Y-102785750D01*
X95882500Y-103526310D01*
X95975156Y-103750000D01*
X95882500Y-103973690D01*
X95882500Y-104714250D01*
X96041250Y-104873000D01*
X97088000Y-104873000D01*
X97088000Y-102627000D01*
X97342000Y-102627000D01*
X97342000Y-104873000D01*
X98388750Y-104873000D01*
X98547500Y-104714250D01*
X98547500Y-103973690D01*
X98454844Y-103750000D01*
X98547500Y-103526310D01*
X98547500Y-102785750D01*
X98388750Y-102627000D01*
X97342000Y-102627000D01*
X97088000Y-102627000D01*
X96041250Y-102627000D01*
X95882500Y-102785750D01*
X95127000Y-102785750D01*
X95127000Y-100285750D01*
X95882500Y-100285750D01*
X95882500Y-101026310D01*
X95975156Y-101250000D01*
X95882500Y-101473690D01*
X95882500Y-102214250D01*
X96041250Y-102373000D01*
X97088000Y-102373000D01*
X97088000Y-100127000D01*
X97342000Y-100127000D01*
X97342000Y-102373000D01*
X98388750Y-102373000D01*
X98547500Y-102214250D01*
X98547500Y-101473690D01*
X98454844Y-101250000D01*
X98547500Y-101026310D01*
X98547500Y-100285750D01*
X98388750Y-100127000D01*
X97342000Y-100127000D01*
X97088000Y-100127000D01*
X96041250Y-100127000D01*
X95882500Y-100285750D01*
X95127000Y-100285750D01*
X95127000Y-97785750D01*
X95882500Y-97785750D01*
X95882500Y-98526310D01*
X95975156Y-98750000D01*
X95882500Y-98973690D01*
X95882500Y-99714250D01*
X96041250Y-99873000D01*
X97088000Y-99873000D01*
X97088000Y-97627000D01*
X96041250Y-97627000D01*
X95882500Y-97785750D01*
X95127000Y-97785750D01*
X95127000Y-90285750D01*
X95882500Y-90285750D01*
X95882500Y-91026310D01*
X95975156Y-91250000D01*
X95882500Y-91473690D01*
X95882500Y-92214250D01*
X96041250Y-92373000D01*
X97088000Y-92373000D01*
X97088000Y-90127000D01*
X96041250Y-90127000D01*
X95882500Y-90285750D01*
X95127000Y-90285750D01*
X95127000Y-88973690D01*
X95882500Y-88973690D01*
X95882500Y-89714250D01*
X96041250Y-89873000D01*
X97088000Y-89873000D01*
X97088000Y-88623750D01*
X96929250Y-88465000D01*
X96391191Y-88465000D01*
X96157802Y-88561673D01*
X95979173Y-88740301D01*
X95882500Y-88973690D01*
X95127000Y-88973690D01*
X95127000Y-74085750D01*
X97315000Y-74085750D01*
X97315000Y-75426309D01*
X97411673Y-75659698D01*
X97590301Y-75838327D01*
X97823690Y-75935000D01*
X98464250Y-75935000D01*
X98623000Y-75776250D01*
X98623000Y-73927000D01*
X98877000Y-73927000D01*
X98877000Y-75776250D01*
X99035750Y-75935000D01*
X99676310Y-75935000D01*
X99909699Y-75838327D01*
X100088327Y-75659698D01*
X100185000Y-75426309D01*
X100185000Y-74085750D01*
X100026250Y-73927000D01*
X98877000Y-73927000D01*
X98623000Y-73927000D01*
X97473750Y-73927000D01*
X97315000Y-74085750D01*
X95127000Y-74085750D01*
X95127000Y-72173691D01*
X97315000Y-72173691D01*
X97315000Y-73514250D01*
X97473750Y-73673000D01*
X98623000Y-73673000D01*
X98623000Y-71823750D01*
X98877000Y-71823750D01*
X98877000Y-73673000D01*
X100026250Y-73673000D01*
X100185000Y-73514250D01*
X100185000Y-72223691D01*
X103815000Y-72223691D01*
X103815000Y-73564250D01*
X103973750Y-73723000D01*
X105123000Y-73723000D01*
X105123000Y-71873750D01*
X104964250Y-71715000D01*
X104323690Y-71715000D01*
X104090301Y-71811673D01*
X103911673Y-71990302D01*
X103815000Y-72223691D01*
X100185000Y-72223691D01*
X100185000Y-72173691D01*
X100088327Y-71940302D01*
X99909699Y-71761673D01*
X99676310Y-71665000D01*
X99035750Y-71665000D01*
X98877000Y-71823750D01*
X98623000Y-71823750D01*
X98464250Y-71665000D01*
X97823690Y-71665000D01*
X97590301Y-71761673D01*
X97411673Y-71940302D01*
X97315000Y-72173691D01*
X95127000Y-72173691D01*
X95127000Y-65127000D01*
X134873000Y-65127000D01*
X134873000Y-104107606D01*
G36*
X103852560Y-102715000D02*
X103544126Y-102715000D01*
X103163720Y-102872569D01*
X102872569Y-103163720D01*
X102838200Y-103246694D01*
X102838200Y-102097193D01*
X103852560Y-101082834D01*
X103852560Y-102715000D01*
X103852560Y-102715000D01*
G37*
X103852560Y-102715000D02*
X103544126Y-102715000D01*
X103163720Y-102872569D01*
X102872569Y-103163720D01*
X102838200Y-103246694D01*
X102838200Y-102097193D01*
X103852560Y-101082834D01*
X103852560Y-102715000D01*
G36*
X121819800Y-102291115D02*
X121804272Y-102328603D01*
X121314269Y-101838600D01*
X121367286Y-101838600D01*
X121819800Y-102291115D01*
X121819800Y-102291115D01*
G37*
X121819800Y-102291115D02*
X121804272Y-102328603D01*
X121314269Y-101838600D01*
X121367286Y-101838600D01*
X121819800Y-102291115D01*
G36*
X112917401Y-100724668D02*
X112908502Y-100679927D01*
X112910000Y-100676310D01*
X112910000Y-100596250D01*
X112887353Y-100573603D01*
X112873157Y-100502235D01*
X112754731Y-100325000D01*
X112873157Y-100147765D01*
X112887353Y-100076397D01*
X112910000Y-100053750D01*
X112910000Y-99973690D01*
X112908502Y-99970073D01*
X112917401Y-99925333D01*
X112917401Y-100724668D01*
X112917401Y-100724668D01*
G37*
X112917401Y-100724668D02*
X112908502Y-100679927D01*
X112910000Y-100676310D01*
X112910000Y-100596250D01*
X112887353Y-100573603D01*
X112873157Y-100502235D01*
X112754731Y-100325000D01*
X112873157Y-100147765D01*
X112887353Y-100076397D01*
X112910000Y-100053750D01*
X112910000Y-99973690D01*
X112908502Y-99970073D01*
X112917401Y-99925333D01*
X112917401Y-100724668D01*
G36*
X112390000Y-84150750D02*
X112390000Y-84253846D01*
X112170130Y-84297581D01*
X111930766Y-84457519D01*
X112035000Y-84205874D01*
X112035000Y-84031220D01*
X112044126Y-84035000D01*
X112455874Y-84035000D01*
X112541018Y-83999732D01*
X112390000Y-84150750D01*
X112390000Y-84150750D01*
G37*
X112390000Y-84150750D02*
X112390000Y-84253846D01*
X112170130Y-84297581D01*
X111930766Y-84457519D01*
X112035000Y-84205874D01*
X112035000Y-84031220D01*
X112044126Y-84035000D01*
X112455874Y-84035000D01*
X112541018Y-83999732D01*
X112390000Y-84150750D01*
G36*
X113927000Y-83738000D02*
X113947000Y-83738000D01*
X113947000Y-83992000D01*
X113927000Y-83992000D01*
X113927000Y-84012000D01*
X113673000Y-84012000D01*
X113673000Y-83992000D01*
X113653000Y-83992000D01*
X113653000Y-83738000D01*
X113673000Y-83738000D01*
X113673000Y-83718000D01*
X113927000Y-83718000D01*
X113927000Y-83738000D01*
X113927000Y-83738000D01*
G37*
X113927000Y-83738000D02*
X113947000Y-83738000D01*
X113947000Y-83992000D01*
X113927000Y-83992000D01*
X113927000Y-84012000D01*
X113673000Y-84012000D01*
X113673000Y-83992000D01*
X113653000Y-83992000D01*
X113653000Y-83738000D01*
X113673000Y-83738000D01*
X113673000Y-83718000D01*
X113927000Y-83718000D01*
X113927000Y-83738000D01*
M02*
