M48
;DRILL file {KiCad (5.0.0)} date 11/06/18 01:25:58
;FORMAT={-:-/ absolute / inch / decimal}
FMAT,2
INCH,TZ
T1C0.0157
T2C0.0394
T3C0.0866
%
G90
G05
M72
T1
X3.7697Y-3.4055
X3.7697Y-3.4843
X3.8386Y-3.4744
X3.8878Y-3.4744
X3.8878Y-3.8583
X3.8878Y-3.937
X3.9862Y-4.3307
X4.0256Y-2.9429
X4.0354Y-3.6614
X4.0354Y-3.7699
X4.0453Y-4.2126
X4.065Y-3.8681
X4.0846Y-3.937
X4.1929Y-3.3366
X4.2109Y-3.8502
X4.241Y-4.1749
X4.2618Y-4.1437
X4.2708Y-4.2126
X4.2815Y-3.8583
X4.2916Y-4.0553
X4.2939Y-3.8189
X4.311Y-4.2423
X4.3209Y-3.9284
X4.3213Y-4.114
X4.3602Y-3.3661
X4.3701Y-3.3071
X4.3898Y-3.7205
X4.4193Y-3.2677
X4.4291Y-4.2717
X4.439Y-3.4843
X4.4488Y-3.7894
X4.4488Y-3.8287
X4.4488Y-3.9567
X4.4945Y-4.2654
X4.5177Y-3.4547
X4.5667Y-3.4547
X4.5718Y-4.2461
X4.6654Y-3.4547
X4.6758Y-4.1533
X4.7244Y-4.2815
X4.7343Y-3.8681
X4.7343Y-3.9056
X4.7343Y-4.1236
X4.7835Y-4.2518
X4.7933Y-4.0256
X4.8228Y-4.2618
X4.8228Y-4.5177
X4.8327Y-4.0453
T2
X5.2264Y-3.7618
X5.2264Y-3.8618
X5.2264Y-3.9618
X5.2264Y-4.0618
X5.2264Y-4.1618
X5.2264Y-4.2618
X5.2264Y-4.4441
X5.2264Y-4.5441
X5.2264Y-4.6441
X5.2264Y-4.7441
X4.1339Y-2.6969
X4.2339Y-2.6969
X4.3339Y-2.6969
X4.4339Y-2.6969
X4.5339Y-2.6969
X4.6339Y-2.6969
X4.7339Y-2.6969
X4.8339Y-2.6969
X3.8622Y-4.2638
X3.8622Y-4.3638
X3.8622Y-4.4638
X3.8622Y-4.5638
X3.8622Y-4.6638
X3.8622Y-4.7638
X3.8622Y-4.8638
X3.8622Y-4.9638
X3.8622Y-5.0638
X3.8622Y-5.1638
X4.1587Y-5.0591
X4.2587Y-5.0591
X4.3587Y-5.0591
X4.4587Y-5.0591
X4.5587Y-5.0591
X4.6587Y-5.0591
X4.7587Y-5.0591
X4.8587Y-5.0591
X5.0787Y-4.3504
X5.0787Y-4.4504
X5.2264Y-4.928
X5.2264Y-5.028
X5.2264Y-5.128
X5.2264Y-5.228
X5.2264Y-3.2728
X5.2264Y-3.3728
X5.2264Y-3.4728
X5.2264Y-3.5728
T3
X3.6417Y-2.4606
X3.6417Y-5.4134
X5.4134Y-5.4134
X5.4134Y-2.4606
T0
M30
