%TF.GenerationSoftware,KiCad,Pcbnew,(5.0.0)*%
%TF.CreationDate,2018-11-06T01:25:48+05:00*%
%TF.ProjectId,Dev Board,44657620426F6172642E6B696361645F,rev?*%
%TF.SameCoordinates,Original*%
%TF.FileFunction,Copper,L2,Bot,Signal*%
%TF.FilePolarity,Positive*%
%FSLAX46Y46*%
G04 Gerber Fmt 4.6, Leading zero omitted, Abs format (unit mm)*
G04 Created by KiCad (PCBNEW (5.0.0)) date 11/06/18 01:25:48*
%MOMM*%
%LPD*%
G01*
G04 APERTURE LIST*
%ADD10C,3.800000*%
%ADD11O,1.700000X1.700000*%
%ADD12R,1.700000X1.700000*%
%ADD13C,0.800000*%
%ADD14C,0.457200*%
%ADD15C,0.508000*%
%ADD16C,0.406400*%
%ADD17C,0.254000*%
G04 APERTURE END LIST*
D10*
X137500000Y-62500000D03*
X92500000Y-62500000D03*
X92500000Y-137500000D03*
X137500000Y-137500000D03*
D11*
X105630000Y-128500000D03*
X108170000Y-128500000D03*
X110710000Y-128500000D03*
X113250000Y-128500000D03*
X115790000Y-128500000D03*
X118330000Y-128500000D03*
X120870000Y-128500000D03*
D12*
X123410000Y-128500000D03*
X132750000Y-112880000D03*
D11*
X132750000Y-115420000D03*
X132750000Y-117960000D03*
X132750000Y-120500000D03*
X132750000Y-132790000D03*
X132750000Y-130250000D03*
X132750000Y-127710000D03*
D12*
X132750000Y-125170000D03*
X132750000Y-95550000D03*
D11*
X132750000Y-98090000D03*
X132750000Y-100630000D03*
X132750000Y-103170000D03*
X132750000Y-105710000D03*
X132750000Y-108250000D03*
D12*
X132750000Y-83130000D03*
D11*
X132750000Y-85670000D03*
X132750000Y-88210000D03*
X132750000Y-90750000D03*
D12*
X98100000Y-131160000D03*
D11*
X98100000Y-128620000D03*
X98100000Y-126080000D03*
X98100000Y-123540000D03*
X98100000Y-121000000D03*
X98100000Y-118460000D03*
X98100000Y-115920000D03*
X98100000Y-113380000D03*
X98100000Y-110840000D03*
X98100000Y-108300000D03*
D12*
X129000000Y-110500000D03*
D11*
X129000000Y-113040000D03*
D12*
X105000000Y-68500000D03*
D11*
X107540000Y-68500000D03*
X110080000Y-68500000D03*
X112620000Y-68500000D03*
X115160000Y-68500000D03*
X117700000Y-68500000D03*
X120240000Y-68500000D03*
X122780000Y-68500000D03*
D13*
X113000000Y-100500000D03*
X110750000Y-85500000D03*
X95750000Y-86500000D03*
X97500000Y-88250000D03*
X98750000Y-100000000D03*
X121750000Y-102250000D03*
X101250000Y-110000000D03*
X102750000Y-107000000D03*
X103750000Y-100000000D03*
X102250000Y-74750000D03*
X98750000Y-98000000D03*
X98750000Y-88250000D03*
X112750000Y-88500000D03*
X122750000Y-102750000D03*
X103250000Y-98250000D03*
X106956090Y-97793910D03*
X102500000Y-93000000D03*
X102500000Y-95755600D03*
X120000000Y-108750000D03*
X116124399Y-107850331D03*
X120250000Y-99202403D03*
X112250000Y-83000000D03*
X114159290Y-108340710D03*
X114750000Y-87750000D03*
X120250000Y-98250000D03*
X112500000Y-108500000D03*
X109500000Y-107755600D03*
X108477302Y-107000000D03*
X107721702Y-106042447D03*
X108250000Y-105250000D03*
X95750000Y-88500000D03*
X106500000Y-84750000D03*
X111000000Y-84000000D03*
X111500000Y-94500000D03*
X109761201Y-104494400D03*
X118764051Y-105494400D03*
X122500000Y-114750000D03*
X122500000Y-108250000D03*
X121500241Y-107995472D03*
X120250000Y-104738800D03*
X109005601Y-103005601D03*
X113000000Y-96250000D03*
X113000000Y-97250000D03*
X109064410Y-97000000D03*
X108750000Y-98000000D03*
X109750000Y-99780600D03*
X115994400Y-87750000D03*
X118500000Y-87750000D03*
D14*
X97500000Y-88250000D02*
X95750000Y-90000000D01*
X95750000Y-90000000D02*
X95750000Y-99250000D01*
X95750000Y-99250000D02*
X96500000Y-100000000D01*
X96500000Y-100000000D02*
X98750000Y-100000000D01*
X121750000Y-102250000D02*
X121000000Y-101500000D01*
X114000000Y-101500000D02*
X113000000Y-100500000D01*
X121000000Y-101500000D02*
X114000000Y-101500000D01*
X101250000Y-110000000D02*
X101250000Y-108500000D01*
X101250000Y-108500000D02*
X102750000Y-107000000D01*
D15*
X107540000Y-68500000D02*
X102250000Y-73790000D01*
X102250000Y-73790000D02*
X102250000Y-74750000D01*
X98750000Y-98000000D02*
X98750000Y-88250000D01*
D14*
X134057200Y-125170000D02*
X132750000Y-125170000D01*
X134500000Y-125612800D02*
X134057200Y-125170000D01*
X134057200Y-112880000D02*
X132750000Y-112880000D01*
X134500000Y-113322800D02*
X134057200Y-112880000D01*
X134500000Y-125612800D02*
X134500000Y-113322800D01*
X134057200Y-95550000D02*
X132750000Y-95550000D01*
X134500000Y-95992800D02*
X134057200Y-95550000D01*
X134500000Y-113322800D02*
X134500000Y-95992800D01*
X113500000Y-88500000D02*
X112750000Y-88500000D01*
X122750000Y-102094118D02*
X121405882Y-100750000D01*
X121405882Y-100750000D02*
X118133528Y-100750000D01*
X122750000Y-102750000D02*
X122750000Y-102094118D01*
X118133528Y-100750000D02*
X115250000Y-97866472D01*
X115250000Y-97866472D02*
X115250000Y-90250000D01*
X115250000Y-90250000D02*
X113500000Y-88500000D01*
X125550000Y-102750000D02*
X132750000Y-95550000D01*
X122750000Y-102750000D02*
X125550000Y-102750000D01*
X99407200Y-131160000D02*
X103817200Y-126750000D01*
X98100000Y-131160000D02*
X99407200Y-131160000D01*
X106420000Y-126750000D02*
X108170000Y-128500000D01*
X103817200Y-126750000D02*
X106420000Y-126750000D01*
X106420000Y-126750000D02*
X124500000Y-126750000D01*
X133750000Y-134500000D02*
X134500000Y-133750000D01*
X132250000Y-134500000D02*
X133750000Y-134500000D01*
X124500000Y-126750000D02*
X132250000Y-134500000D01*
X134500000Y-133750000D02*
X134500000Y-125612800D01*
D16*
X103250000Y-98250000D02*
X106500000Y-98250000D01*
X106500000Y-98250000D02*
X106956090Y-97793910D01*
X102500000Y-93000000D02*
X102500000Y-95755600D01*
D15*
X132870000Y-83130000D02*
X132750000Y-83130000D01*
X105000000Y-67142000D02*
X106392000Y-65750000D01*
X105000000Y-68500000D02*
X105000000Y-67142000D01*
X133750000Y-65750000D02*
X134500000Y-66500000D01*
X134500000Y-66500000D02*
X134500000Y-81500000D01*
X106392000Y-65750000D02*
X133750000Y-65750000D01*
X134500000Y-81500000D02*
X132870000Y-83130000D01*
D16*
X113806779Y-110373221D02*
X114876779Y-110373221D01*
X98100000Y-126080000D02*
X113806779Y-110373221D01*
X114876779Y-110373221D02*
X118376779Y-110373221D01*
X118376779Y-110373221D02*
X120000000Y-108750000D01*
X111825589Y-109814411D02*
X114185589Y-109814411D01*
X98100000Y-123540000D02*
X111825589Y-109814411D01*
X114185589Y-109814411D02*
X116124399Y-107875601D01*
X116124399Y-107875601D02*
X116124399Y-107850331D01*
X117412127Y-99202403D02*
X120250000Y-99202403D01*
X116000000Y-97790276D02*
X117412127Y-99202403D01*
X116000000Y-90118290D02*
X116000000Y-97790276D01*
X112250000Y-83000000D02*
X112250000Y-86368290D01*
X112250000Y-86368290D02*
X116000000Y-90118290D01*
X109844399Y-109255601D02*
X113244399Y-109255601D01*
X98100000Y-121000000D02*
X109844399Y-109255601D01*
X113244399Y-109255601D02*
X114159290Y-108340710D01*
X114750000Y-87750000D02*
X116750000Y-89750000D01*
X116750000Y-89750000D02*
X116750000Y-97750000D01*
X116750000Y-97750000D02*
X117250000Y-98250000D01*
X117250000Y-98250000D02*
X120250000Y-98250000D01*
X98100000Y-118460000D02*
X107810000Y-108750000D01*
X108048799Y-108511201D02*
X110488799Y-108511201D01*
X107810000Y-108750000D02*
X108048799Y-108511201D01*
X110488799Y-108511201D02*
X110500000Y-108500000D01*
X110500000Y-108500000D02*
X112500000Y-108500000D01*
X98100000Y-115920000D02*
X106020000Y-108000000D01*
X106020000Y-108000000D02*
X106264400Y-107755600D01*
X106264400Y-107755600D02*
X109500000Y-107755600D01*
X108457302Y-106980000D02*
X108477302Y-107000000D01*
X106020000Y-106980000D02*
X108457302Y-106980000D01*
X99620000Y-113380000D02*
X106020000Y-106980000D01*
X98100000Y-113380000D02*
X99620000Y-113380000D01*
X99750000Y-109190000D02*
X98100000Y-110840000D01*
X99750000Y-107500000D02*
X99750000Y-109190000D01*
X101250000Y-106000000D02*
X99750000Y-107500000D01*
X107679255Y-106000000D02*
X101250000Y-106000000D01*
X107721702Y-106042447D02*
X107679255Y-106000000D01*
X99400000Y-107000000D02*
X98100000Y-108300000D01*
X98100000Y-108300000D02*
X99900000Y-106500000D01*
X99900000Y-106500000D02*
X101150000Y-105250000D01*
X101150000Y-105250000D02*
X108250000Y-105250000D01*
X95750000Y-110650000D02*
X98100000Y-108300000D01*
X115790000Y-128500000D02*
X111540000Y-132750000D01*
X97000000Y-132750000D02*
X95750000Y-131500000D01*
X111540000Y-132750000D02*
X97000000Y-132750000D01*
X95750000Y-131500000D02*
X95750000Y-110650000D01*
X95750000Y-88500000D02*
X99500000Y-84750000D01*
X99500000Y-84750000D02*
X106500000Y-84750000D01*
X111000000Y-84000000D02*
X111505601Y-84505601D01*
X111505601Y-94494399D02*
X111500000Y-94500000D01*
X111505601Y-84505601D02*
X111505601Y-94494399D01*
X109761201Y-104494400D02*
X109761201Y-105220925D01*
X109761201Y-105220925D02*
X110790276Y-106250000D01*
X110790276Y-106250000D02*
X119408566Y-106250000D01*
X132210000Y-106250000D02*
X132750000Y-105710000D01*
X119408566Y-106250000D02*
X132210000Y-106250000D01*
X132750000Y-103170000D02*
X130425600Y-105494400D01*
X130425600Y-105494400D02*
X118764051Y-105494400D01*
X122500000Y-114750000D02*
X122500000Y-108250000D01*
X131900001Y-129400001D02*
X132750000Y-130250000D01*
X121500241Y-119000241D02*
X131900001Y-129400001D01*
X121500241Y-107995472D02*
X121500241Y-119000241D01*
X132750000Y-100630000D02*
X128641200Y-104738800D01*
X128641200Y-104738800D02*
X120250000Y-104738800D01*
X131500000Y-107000000D02*
X132750000Y-108250000D01*
X110750000Y-107000000D02*
X131500000Y-107000000D01*
X109005601Y-103005601D02*
X109005601Y-105255601D01*
X109005601Y-105255601D02*
X110750000Y-107000000D01*
X122780000Y-68500000D02*
X109985240Y-81294760D01*
X109985240Y-81294760D02*
X109985240Y-95735240D01*
X109985240Y-95735240D02*
X110500000Y-96250000D01*
X110500000Y-96250000D02*
X113000000Y-96250000D01*
X110432700Y-97250000D02*
X109426430Y-96243730D01*
X113000000Y-97250000D02*
X110432700Y-97250000D01*
X109426430Y-79313570D02*
X120240000Y-68500000D01*
X109426430Y-96243730D02*
X109426430Y-79313570D01*
X117700000Y-68500000D02*
X108867620Y-77332380D01*
X108867620Y-77332380D02*
X108867620Y-96803210D01*
X108867620Y-96803210D02*
X109064410Y-97000000D01*
X115160000Y-68500000D02*
X108308810Y-75351190D01*
X108308810Y-75351190D02*
X108308810Y-97558810D01*
X108308810Y-97558810D02*
X108750000Y-98000000D01*
X109750000Y-99780600D02*
X108530600Y-99780600D01*
X108530600Y-99780600D02*
X107750000Y-99000000D01*
X107750000Y-73370000D02*
X112620000Y-68500000D01*
X107750000Y-99000000D02*
X107750000Y-73370000D01*
X115994400Y-87750000D02*
X118500000Y-87750000D01*
D17*
G36*
X120662042Y-118917687D02*
X120645621Y-119000241D01*
X120710675Y-119327290D01*
X120849170Y-119534563D01*
X120849172Y-119534565D01*
X120895934Y-119604549D01*
X120965918Y-119651311D01*
X131290442Y-129975836D01*
X131235908Y-130250000D01*
X131351161Y-130829418D01*
X131679375Y-131320625D01*
X131977761Y-131520000D01*
X131679375Y-131719375D01*
X131351161Y-132210582D01*
X131323078Y-132351764D01*
X125170802Y-126199489D01*
X125122620Y-126127380D01*
X124836960Y-125936507D01*
X124585053Y-125886400D01*
X124585049Y-125886400D01*
X124500000Y-125869483D01*
X124414951Y-125886400D01*
X106505049Y-125886400D01*
X106420000Y-125869483D01*
X106334951Y-125886400D01*
X103902249Y-125886400D01*
X103817200Y-125869483D01*
X103732151Y-125886400D01*
X103732147Y-125886400D01*
X103480240Y-125936507D01*
X103266684Y-126079201D01*
X103266683Y-126079202D01*
X103194580Y-126127380D01*
X103146402Y-126199483D01*
X99442211Y-129903676D01*
X99407809Y-129852191D01*
X99197765Y-129711843D01*
X99094292Y-129691261D01*
X99371645Y-129386924D01*
X99541476Y-128976890D01*
X99420155Y-128747000D01*
X98227000Y-128747000D01*
X98227000Y-128767000D01*
X97973000Y-128767000D01*
X97973000Y-128747000D01*
X96779845Y-128747000D01*
X96658524Y-128976890D01*
X96828355Y-129386924D01*
X97105708Y-129691261D01*
X97002235Y-129711843D01*
X96792191Y-129852191D01*
X96651843Y-130062235D01*
X96602560Y-130310000D01*
X96602560Y-131167167D01*
X96588200Y-131152807D01*
X96588200Y-126091523D01*
X96701161Y-126659418D01*
X97029375Y-127150625D01*
X97348478Y-127363843D01*
X97218642Y-127424817D01*
X96828355Y-127853076D01*
X96658524Y-128263110D01*
X96779845Y-128493000D01*
X97973000Y-128493000D01*
X97973000Y-128473000D01*
X98227000Y-128473000D01*
X98227000Y-128493000D01*
X99420155Y-128493000D01*
X99541476Y-128263110D01*
X99371645Y-127853076D01*
X98981358Y-127424817D01*
X98851522Y-127363843D01*
X99170625Y-127150625D01*
X99498839Y-126659418D01*
X99614092Y-126080000D01*
X99559557Y-125805836D01*
X114153973Y-111211421D01*
X118294230Y-111211421D01*
X118376779Y-111227841D01*
X118459328Y-111211421D01*
X118459333Y-111211421D01*
X118703828Y-111162788D01*
X118981087Y-110977529D01*
X119027851Y-110907542D01*
X120150394Y-109785000D01*
X120205874Y-109785000D01*
X120586280Y-109627431D01*
X120662041Y-109551670D01*
X120662042Y-118917687D01*
X120662042Y-118917687D01*
G37*
X120662042Y-118917687D02*
X120645621Y-119000241D01*
X120710675Y-119327290D01*
X120849170Y-119534563D01*
X120849172Y-119534565D01*
X120895934Y-119604549D01*
X120965918Y-119651311D01*
X131290442Y-129975836D01*
X131235908Y-130250000D01*
X131351161Y-130829418D01*
X131679375Y-131320625D01*
X131977761Y-131520000D01*
X131679375Y-131719375D01*
X131351161Y-132210582D01*
X131323078Y-132351764D01*
X125170802Y-126199489D01*
X125122620Y-126127380D01*
X124836960Y-125936507D01*
X124585053Y-125886400D01*
X124585049Y-125886400D01*
X124500000Y-125869483D01*
X124414951Y-125886400D01*
X106505049Y-125886400D01*
X106420000Y-125869483D01*
X106334951Y-125886400D01*
X103902249Y-125886400D01*
X103817200Y-125869483D01*
X103732151Y-125886400D01*
X103732147Y-125886400D01*
X103480240Y-125936507D01*
X103266684Y-126079201D01*
X103266683Y-126079202D01*
X103194580Y-126127380D01*
X103146402Y-126199483D01*
X99442211Y-129903676D01*
X99407809Y-129852191D01*
X99197765Y-129711843D01*
X99094292Y-129691261D01*
X99371645Y-129386924D01*
X99541476Y-128976890D01*
X99420155Y-128747000D01*
X98227000Y-128747000D01*
X98227000Y-128767000D01*
X97973000Y-128767000D01*
X97973000Y-128747000D01*
X96779845Y-128747000D01*
X96658524Y-128976890D01*
X96828355Y-129386924D01*
X97105708Y-129691261D01*
X97002235Y-129711843D01*
X96792191Y-129852191D01*
X96651843Y-130062235D01*
X96602560Y-130310000D01*
X96602560Y-131167167D01*
X96588200Y-131152807D01*
X96588200Y-126091523D01*
X96701161Y-126659418D01*
X97029375Y-127150625D01*
X97348478Y-127363843D01*
X97218642Y-127424817D01*
X96828355Y-127853076D01*
X96658524Y-128263110D01*
X96779845Y-128493000D01*
X97973000Y-128493000D01*
X97973000Y-128473000D01*
X98227000Y-128473000D01*
X98227000Y-128493000D01*
X99420155Y-128493000D01*
X99541476Y-128263110D01*
X99371645Y-127853076D01*
X98981358Y-127424817D01*
X98851522Y-127363843D01*
X99170625Y-127150625D01*
X99498839Y-126659418D01*
X99614092Y-126080000D01*
X99559557Y-125805836D01*
X114153973Y-111211421D01*
X118294230Y-111211421D01*
X118376779Y-111227841D01*
X118459328Y-111211421D01*
X118459333Y-111211421D01*
X118703828Y-111162788D01*
X118981087Y-110977529D01*
X119027851Y-110907542D01*
X120150394Y-109785000D01*
X120205874Y-109785000D01*
X120586280Y-109627431D01*
X120662041Y-109551670D01*
X120662042Y-118917687D01*
G36*
X104231161Y-127920582D02*
X104115908Y-128500000D01*
X104231161Y-129079418D01*
X104559375Y-129570625D01*
X105050582Y-129898839D01*
X105483744Y-129985000D01*
X105776256Y-129985000D01*
X106209418Y-129898839D01*
X106700625Y-129570625D01*
X106900000Y-129272239D01*
X107099375Y-129570625D01*
X107590582Y-129898839D01*
X108023744Y-129985000D01*
X108316256Y-129985000D01*
X108749418Y-129898839D01*
X109240625Y-129570625D01*
X109453843Y-129251522D01*
X109514817Y-129381358D01*
X109943076Y-129771645D01*
X110353110Y-129941476D01*
X110583000Y-129820155D01*
X110583000Y-128627000D01*
X110563000Y-128627000D01*
X110563000Y-128373000D01*
X110583000Y-128373000D01*
X110583000Y-128353000D01*
X110837000Y-128353000D01*
X110837000Y-128373000D01*
X110857000Y-128373000D01*
X110857000Y-128627000D01*
X110837000Y-128627000D01*
X110837000Y-129820155D01*
X111066890Y-129941476D01*
X111476924Y-129771645D01*
X111905183Y-129381358D01*
X111966157Y-129251522D01*
X112179375Y-129570625D01*
X112670582Y-129898839D01*
X113103744Y-129985000D01*
X113119606Y-129985000D01*
X111192807Y-131911800D01*
X99836490Y-131911800D01*
X100029820Y-131782620D01*
X100078002Y-131710511D01*
X104174915Y-127613600D01*
X104436280Y-127613600D01*
X104231161Y-127920582D01*
X104231161Y-127920582D01*
G37*
X104231161Y-127920582D02*
X104115908Y-128500000D01*
X104231161Y-129079418D01*
X104559375Y-129570625D01*
X105050582Y-129898839D01*
X105483744Y-129985000D01*
X105776256Y-129985000D01*
X106209418Y-129898839D01*
X106700625Y-129570625D01*
X106900000Y-129272239D01*
X107099375Y-129570625D01*
X107590582Y-129898839D01*
X108023744Y-129985000D01*
X108316256Y-129985000D01*
X108749418Y-129898839D01*
X109240625Y-129570625D01*
X109453843Y-129251522D01*
X109514817Y-129381358D01*
X109943076Y-129771645D01*
X110353110Y-129941476D01*
X110583000Y-129820155D01*
X110583000Y-128627000D01*
X110563000Y-128627000D01*
X110563000Y-128373000D01*
X110583000Y-128373000D01*
X110583000Y-128353000D01*
X110837000Y-128353000D01*
X110837000Y-128373000D01*
X110857000Y-128373000D01*
X110857000Y-128627000D01*
X110837000Y-128627000D01*
X110837000Y-129820155D01*
X111066890Y-129941476D01*
X111476924Y-129771645D01*
X111905183Y-129381358D01*
X111966157Y-129251522D01*
X112179375Y-129570625D01*
X112670582Y-129898839D01*
X113103744Y-129985000D01*
X113119606Y-129985000D01*
X111192807Y-131911800D01*
X99836490Y-131911800D01*
X100029820Y-131782620D01*
X100078002Y-131710511D01*
X104174915Y-127613600D01*
X104436280Y-127613600D01*
X104231161Y-127920582D01*
G36*
X132877000Y-127583000D02*
X132897000Y-127583000D01*
X132897000Y-127837000D01*
X132877000Y-127837000D01*
X132877000Y-127857000D01*
X132623000Y-127857000D01*
X132623000Y-127837000D01*
X132603000Y-127837000D01*
X132603000Y-127583000D01*
X132623000Y-127583000D01*
X132623000Y-127563000D01*
X132877000Y-127563000D01*
X132877000Y-127583000D01*
X132877000Y-127583000D01*
G37*
X132877000Y-127583000D02*
X132897000Y-127583000D01*
X132897000Y-127837000D01*
X132877000Y-127837000D01*
X132877000Y-127857000D01*
X132623000Y-127857000D01*
X132623000Y-127837000D01*
X132603000Y-127837000D01*
X132603000Y-127583000D01*
X132623000Y-127583000D01*
X132623000Y-127563000D01*
X132877000Y-127563000D01*
X132877000Y-127583000D01*
G36*
X131290442Y-107975836D02*
X131235908Y-108250000D01*
X131351161Y-108829418D01*
X131679375Y-109320625D01*
X132170582Y-109648839D01*
X132603744Y-109735000D01*
X132896256Y-109735000D01*
X133329418Y-109648839D01*
X133636400Y-109443720D01*
X133636400Y-111389800D01*
X133600000Y-111382560D01*
X131900000Y-111382560D01*
X131652235Y-111431843D01*
X131442191Y-111572191D01*
X131301843Y-111782235D01*
X131252560Y-112030000D01*
X131252560Y-113730000D01*
X131301843Y-113977765D01*
X131442191Y-114187809D01*
X131652235Y-114328157D01*
X131755708Y-114348739D01*
X131478355Y-114653076D01*
X131308524Y-115063110D01*
X131429845Y-115293000D01*
X132623000Y-115293000D01*
X132623000Y-115273000D01*
X132877000Y-115273000D01*
X132877000Y-115293000D01*
X132897000Y-115293000D01*
X132897000Y-115547000D01*
X132877000Y-115547000D01*
X132877000Y-115567000D01*
X132623000Y-115567000D01*
X132623000Y-115547000D01*
X131429845Y-115547000D01*
X131308524Y-115776890D01*
X131478355Y-116186924D01*
X131868642Y-116615183D01*
X131998478Y-116676157D01*
X131679375Y-116889375D01*
X131351161Y-117380582D01*
X131235908Y-117960000D01*
X131351161Y-118539418D01*
X131679375Y-119030625D01*
X131977761Y-119230000D01*
X131679375Y-119429375D01*
X131351161Y-119920582D01*
X131235908Y-120500000D01*
X131351161Y-121079418D01*
X131679375Y-121570625D01*
X132170582Y-121898839D01*
X132603744Y-121985000D01*
X132896256Y-121985000D01*
X133329418Y-121898839D01*
X133636400Y-121693720D01*
X133636400Y-123679800D01*
X133600000Y-123672560D01*
X131900000Y-123672560D01*
X131652235Y-123721843D01*
X131442191Y-123862191D01*
X131301843Y-124072235D01*
X131252560Y-124320000D01*
X131252560Y-126020000D01*
X131301843Y-126267765D01*
X131442191Y-126477809D01*
X131652235Y-126618157D01*
X131755708Y-126638739D01*
X131478355Y-126943076D01*
X131308524Y-127353110D01*
X131429844Y-127582998D01*
X131268392Y-127582998D01*
X122338441Y-118653048D01*
X122338441Y-115785000D01*
X122705874Y-115785000D01*
X123086280Y-115627431D01*
X123377431Y-115336280D01*
X123535000Y-114955874D01*
X123535000Y-114544126D01*
X123377431Y-114163720D01*
X123338200Y-114124489D01*
X123338200Y-113040000D01*
X127485908Y-113040000D01*
X127601161Y-113619418D01*
X127929375Y-114110625D01*
X128420582Y-114438839D01*
X128853744Y-114525000D01*
X129146256Y-114525000D01*
X129579418Y-114438839D01*
X130070625Y-114110625D01*
X130398839Y-113619418D01*
X130514092Y-113040000D01*
X130398839Y-112460582D01*
X130070625Y-111969375D01*
X130048967Y-111954904D01*
X130209698Y-111888327D01*
X130388327Y-111709699D01*
X130485000Y-111476310D01*
X130485000Y-110785750D01*
X130326250Y-110627000D01*
X129127000Y-110627000D01*
X129127000Y-110647000D01*
X128873000Y-110647000D01*
X128873000Y-110627000D01*
X127673750Y-110627000D01*
X127515000Y-110785750D01*
X127515000Y-111476310D01*
X127611673Y-111709699D01*
X127790302Y-111888327D01*
X127951033Y-111954904D01*
X127929375Y-111969375D01*
X127601161Y-112460582D01*
X127485908Y-113040000D01*
X123338200Y-113040000D01*
X123338200Y-109523690D01*
X127515000Y-109523690D01*
X127515000Y-110214250D01*
X127673750Y-110373000D01*
X128873000Y-110373000D01*
X128873000Y-109173750D01*
X129127000Y-109173750D01*
X129127000Y-110373000D01*
X130326250Y-110373000D01*
X130485000Y-110214250D01*
X130485000Y-109523690D01*
X130388327Y-109290301D01*
X130209698Y-109111673D01*
X129976309Y-109015000D01*
X129285750Y-109015000D01*
X129127000Y-109173750D01*
X128873000Y-109173750D01*
X128714250Y-109015000D01*
X128023691Y-109015000D01*
X127790302Y-109111673D01*
X127611673Y-109290301D01*
X127515000Y-109523690D01*
X123338200Y-109523690D01*
X123338200Y-108875511D01*
X123377431Y-108836280D01*
X123535000Y-108455874D01*
X123535000Y-108044126D01*
X123449703Y-107838200D01*
X131152807Y-107838200D01*
X131290442Y-107975836D01*
X131290442Y-107975836D01*
G37*
X131290442Y-107975836D02*
X131235908Y-108250000D01*
X131351161Y-108829418D01*
X131679375Y-109320625D01*
X132170582Y-109648839D01*
X132603744Y-109735000D01*
X132896256Y-109735000D01*
X133329418Y-109648839D01*
X133636400Y-109443720D01*
X133636400Y-111389800D01*
X133600000Y-111382560D01*
X131900000Y-111382560D01*
X131652235Y-111431843D01*
X131442191Y-111572191D01*
X131301843Y-111782235D01*
X131252560Y-112030000D01*
X131252560Y-113730000D01*
X131301843Y-113977765D01*
X131442191Y-114187809D01*
X131652235Y-114328157D01*
X131755708Y-114348739D01*
X131478355Y-114653076D01*
X131308524Y-115063110D01*
X131429845Y-115293000D01*
X132623000Y-115293000D01*
X132623000Y-115273000D01*
X132877000Y-115273000D01*
X132877000Y-115293000D01*
X132897000Y-115293000D01*
X132897000Y-115547000D01*
X132877000Y-115547000D01*
X132877000Y-115567000D01*
X132623000Y-115567000D01*
X132623000Y-115547000D01*
X131429845Y-115547000D01*
X131308524Y-115776890D01*
X131478355Y-116186924D01*
X131868642Y-116615183D01*
X131998478Y-116676157D01*
X131679375Y-116889375D01*
X131351161Y-117380582D01*
X131235908Y-117960000D01*
X131351161Y-118539418D01*
X131679375Y-119030625D01*
X131977761Y-119230000D01*
X131679375Y-119429375D01*
X131351161Y-119920582D01*
X131235908Y-120500000D01*
X131351161Y-121079418D01*
X131679375Y-121570625D01*
X132170582Y-121898839D01*
X132603744Y-121985000D01*
X132896256Y-121985000D01*
X133329418Y-121898839D01*
X133636400Y-121693720D01*
X133636400Y-123679800D01*
X133600000Y-123672560D01*
X131900000Y-123672560D01*
X131652235Y-123721843D01*
X131442191Y-123862191D01*
X131301843Y-124072235D01*
X131252560Y-124320000D01*
X131252560Y-126020000D01*
X131301843Y-126267765D01*
X131442191Y-126477809D01*
X131652235Y-126618157D01*
X131755708Y-126638739D01*
X131478355Y-126943076D01*
X131308524Y-127353110D01*
X131429844Y-127582998D01*
X131268392Y-127582998D01*
X122338441Y-118653048D01*
X122338441Y-115785000D01*
X122705874Y-115785000D01*
X123086280Y-115627431D01*
X123377431Y-115336280D01*
X123535000Y-114955874D01*
X123535000Y-114544126D01*
X123377431Y-114163720D01*
X123338200Y-114124489D01*
X123338200Y-113040000D01*
X127485908Y-113040000D01*
X127601161Y-113619418D01*
X127929375Y-114110625D01*
X128420582Y-114438839D01*
X128853744Y-114525000D01*
X129146256Y-114525000D01*
X129579418Y-114438839D01*
X130070625Y-114110625D01*
X130398839Y-113619418D01*
X130514092Y-113040000D01*
X130398839Y-112460582D01*
X130070625Y-111969375D01*
X130048967Y-111954904D01*
X130209698Y-111888327D01*
X130388327Y-111709699D01*
X130485000Y-111476310D01*
X130485000Y-110785750D01*
X130326250Y-110627000D01*
X129127000Y-110627000D01*
X129127000Y-110647000D01*
X128873000Y-110647000D01*
X128873000Y-110627000D01*
X127673750Y-110627000D01*
X127515000Y-110785750D01*
X127515000Y-111476310D01*
X127611673Y-111709699D01*
X127790302Y-111888327D01*
X127951033Y-111954904D01*
X127929375Y-111969375D01*
X127601161Y-112460582D01*
X127485908Y-113040000D01*
X123338200Y-113040000D01*
X123338200Y-109523690D01*
X127515000Y-109523690D01*
X127515000Y-110214250D01*
X127673750Y-110373000D01*
X128873000Y-110373000D01*
X128873000Y-109173750D01*
X129127000Y-109173750D01*
X129127000Y-110373000D01*
X130326250Y-110373000D01*
X130485000Y-110214250D01*
X130485000Y-109523690D01*
X130388327Y-109290301D01*
X130209698Y-109111673D01*
X129976309Y-109015000D01*
X129285750Y-109015000D01*
X129127000Y-109173750D01*
X128873000Y-109173750D01*
X128714250Y-109015000D01*
X128023691Y-109015000D01*
X127790302Y-109111673D01*
X127611673Y-109290301D01*
X127515000Y-109523690D01*
X123338200Y-109523690D01*
X123338200Y-108875511D01*
X123377431Y-108836280D01*
X123535000Y-108455874D01*
X123535000Y-108044126D01*
X123449703Y-107838200D01*
X131152807Y-107838200D01*
X131290442Y-107975836D01*
G36*
X99304650Y-112509957D02*
X99170625Y-112309375D01*
X98872239Y-112110000D01*
X99170625Y-111910625D01*
X99498839Y-111419418D01*
X99614092Y-110840000D01*
X99559558Y-110565836D01*
X100284324Y-109841070D01*
X100354308Y-109794308D01*
X100539567Y-109517049D01*
X100588200Y-109272554D01*
X100588200Y-109272550D01*
X100604620Y-109190001D01*
X100588200Y-109107452D01*
X100588200Y-107847193D01*
X101597194Y-106838200D01*
X104976406Y-106838200D01*
X99304650Y-112509957D01*
X99304650Y-112509957D01*
G37*
X99304650Y-112509957D02*
X99170625Y-112309375D01*
X98872239Y-112110000D01*
X99170625Y-111910625D01*
X99498839Y-111419418D01*
X99614092Y-110840000D01*
X99559558Y-110565836D01*
X100284324Y-109841070D01*
X100354308Y-109794308D01*
X100539567Y-109517049D01*
X100588200Y-109272554D01*
X100588200Y-109272550D01*
X100604620Y-109190001D01*
X100588200Y-109107452D01*
X100588200Y-107847193D01*
X101597194Y-106838200D01*
X104976406Y-106838200D01*
X99304650Y-112509957D01*
G36*
X105913720Y-85627431D02*
X106294126Y-85785000D01*
X106705874Y-85785000D01*
X106911801Y-85699703D01*
X106911800Y-96758910D01*
X106750216Y-96758910D01*
X106369810Y-96916479D01*
X106078659Y-97207630D01*
X105994089Y-97411800D01*
X103875511Y-97411800D01*
X103836280Y-97372569D01*
X103455874Y-97215000D01*
X103044126Y-97215000D01*
X102663720Y-97372569D01*
X102372569Y-97663720D01*
X102215000Y-98044126D01*
X102215000Y-98455874D01*
X102372569Y-98836280D01*
X102663720Y-99127431D01*
X103044126Y-99285000D01*
X103455874Y-99285000D01*
X103836280Y-99127431D01*
X103875511Y-99088200D01*
X106417451Y-99088200D01*
X106500000Y-99104620D01*
X106582549Y-99088200D01*
X106582554Y-99088200D01*
X106827049Y-99039567D01*
X106896777Y-98992976D01*
X106895380Y-99000000D01*
X106911800Y-99082549D01*
X106911800Y-99082553D01*
X106960433Y-99327048D01*
X107145692Y-99604308D01*
X107215678Y-99651072D01*
X107879530Y-100314924D01*
X107926292Y-100384908D01*
X107996276Y-100431670D01*
X107996277Y-100431671D01*
X108109845Y-100507555D01*
X108203551Y-100570167D01*
X108448046Y-100618800D01*
X108448050Y-100618800D01*
X108530599Y-100635220D01*
X108613148Y-100618800D01*
X109124489Y-100618800D01*
X109163720Y-100658031D01*
X109544126Y-100815600D01*
X109955874Y-100815600D01*
X110336280Y-100658031D01*
X110627431Y-100366880D01*
X110785000Y-99986474D01*
X110785000Y-99574726D01*
X110627431Y-99194320D01*
X110336280Y-98903169D01*
X109955874Y-98745600D01*
X109544126Y-98745600D01*
X109414360Y-98799351D01*
X109627431Y-98586280D01*
X109785000Y-98205874D01*
X109785000Y-97794126D01*
X109780452Y-97783146D01*
X109781630Y-97784324D01*
X109828392Y-97854308D01*
X109898376Y-97901070D01*
X109898377Y-97901071D01*
X109973887Y-97951525D01*
X110105651Y-98039567D01*
X110350146Y-98088200D01*
X110350151Y-98088200D01*
X110432700Y-98104620D01*
X110515249Y-98088200D01*
X112374489Y-98088200D01*
X112413720Y-98127431D01*
X112794126Y-98285000D01*
X113205874Y-98285000D01*
X113586280Y-98127431D01*
X113877431Y-97836280D01*
X114035000Y-97455874D01*
X114035000Y-97044126D01*
X113913169Y-96750000D01*
X114035000Y-96455874D01*
X114035000Y-96044126D01*
X113877431Y-95663720D01*
X113586280Y-95372569D01*
X113205874Y-95215000D01*
X112794126Y-95215000D01*
X112413720Y-95372569D01*
X112374489Y-95411800D01*
X112003306Y-95411800D01*
X112086280Y-95377431D01*
X112377431Y-95086280D01*
X112535000Y-94705874D01*
X112535000Y-94294126D01*
X112377431Y-93913720D01*
X112343801Y-93880090D01*
X112343801Y-89452023D01*
X112544126Y-89535000D01*
X112955874Y-89535000D01*
X113208886Y-89430199D01*
X114386401Y-90607716D01*
X114386400Y-97781423D01*
X114369483Y-97866472D01*
X114386400Y-97951521D01*
X114386400Y-97951524D01*
X114436507Y-98203431D01*
X114627380Y-98489092D01*
X114699489Y-98537274D01*
X117462730Y-101300517D01*
X117510908Y-101372620D01*
X117796568Y-101563493D01*
X118048475Y-101613600D01*
X118048479Y-101613600D01*
X118133527Y-101630517D01*
X118218575Y-101613600D01*
X121048169Y-101613600D01*
X121792234Y-102357666D01*
X121715000Y-102544126D01*
X121715000Y-102955874D01*
X121872569Y-103336280D01*
X122163720Y-103627431D01*
X122544126Y-103785000D01*
X122955874Y-103785000D01*
X123336280Y-103627431D01*
X123350111Y-103613600D01*
X125464951Y-103613600D01*
X125550000Y-103630517D01*
X125635049Y-103613600D01*
X125635053Y-103613600D01*
X125886960Y-103563493D01*
X126172620Y-103372620D01*
X126220802Y-103300511D01*
X131304312Y-98217002D01*
X131429844Y-98217002D01*
X131308524Y-98446890D01*
X131478355Y-98856924D01*
X131868642Y-99285183D01*
X131998478Y-99346157D01*
X131679375Y-99559375D01*
X131351161Y-100050582D01*
X131235908Y-100630000D01*
X131290442Y-100904164D01*
X128294007Y-103900600D01*
X120875511Y-103900600D01*
X120836280Y-103861369D01*
X120455874Y-103703800D01*
X120044126Y-103703800D01*
X119663720Y-103861369D01*
X119372569Y-104152520D01*
X119215000Y-104532926D01*
X119215000Y-104560913D01*
X118969925Y-104459400D01*
X118558177Y-104459400D01*
X118177771Y-104616969D01*
X117886620Y-104908120D01*
X117729051Y-105288526D01*
X117729051Y-105411800D01*
X111137470Y-105411800D01*
X110687755Y-104962086D01*
X110796201Y-104700274D01*
X110796201Y-104288526D01*
X110638632Y-103908120D01*
X110347481Y-103616969D01*
X109967075Y-103459400D01*
X109937907Y-103459400D01*
X110040601Y-103211475D01*
X110040601Y-102799727D01*
X109883032Y-102419321D01*
X109591881Y-102128170D01*
X109211475Y-101970601D01*
X108799727Y-101970601D01*
X108419321Y-102128170D01*
X108128170Y-102419321D01*
X107970601Y-102799727D01*
X107970601Y-103211475D01*
X108128170Y-103591881D01*
X108167401Y-103631112D01*
X108167402Y-104215000D01*
X108044126Y-104215000D01*
X107663720Y-104372569D01*
X107624489Y-104411800D01*
X101232549Y-104411800D01*
X101150000Y-104395380D01*
X101067451Y-104411800D01*
X101067446Y-104411800D01*
X100822951Y-104460433D01*
X100822949Y-104460434D01*
X100822950Y-104460434D01*
X100615677Y-104598929D01*
X100615676Y-104598930D01*
X100545692Y-104645692D01*
X100498930Y-104715676D01*
X99365680Y-105848927D01*
X99365677Y-105848929D01*
X98374164Y-106840442D01*
X98246256Y-106815000D01*
X97953744Y-106815000D01*
X97520582Y-106901161D01*
X97029375Y-107229375D01*
X96701161Y-107720582D01*
X96585908Y-108300000D01*
X96640442Y-108574164D01*
X95215677Y-109998930D01*
X95145693Y-110045692D01*
X95127000Y-110073668D01*
X95127000Y-89340711D01*
X95163720Y-89377431D01*
X95544126Y-89535000D01*
X95955874Y-89535000D01*
X96336280Y-89377431D01*
X96627431Y-89086280D01*
X96785000Y-88705874D01*
X96785000Y-88650393D01*
X97391267Y-88044126D01*
X97715000Y-88044126D01*
X97715000Y-88455874D01*
X97861001Y-88808352D01*
X97861000Y-97441650D01*
X97715000Y-97794126D01*
X97715000Y-98205874D01*
X97872569Y-98586280D01*
X98163720Y-98877431D01*
X98544126Y-99035000D01*
X98955874Y-99035000D01*
X99336280Y-98877431D01*
X99627431Y-98586280D01*
X99785000Y-98205874D01*
X99785000Y-97794126D01*
X99639000Y-97441650D01*
X99639000Y-92794126D01*
X101465000Y-92794126D01*
X101465000Y-93205874D01*
X101622569Y-93586280D01*
X101661800Y-93625511D01*
X101661801Y-95130088D01*
X101622569Y-95169320D01*
X101465000Y-95549726D01*
X101465000Y-95961474D01*
X101622569Y-96341880D01*
X101913720Y-96633031D01*
X102294126Y-96790600D01*
X102705874Y-96790600D01*
X103086280Y-96633031D01*
X103377431Y-96341880D01*
X103535000Y-95961474D01*
X103535000Y-95549726D01*
X103377431Y-95169320D01*
X103338200Y-95130089D01*
X103338200Y-93625511D01*
X103377431Y-93586280D01*
X103535000Y-93205874D01*
X103535000Y-92794126D01*
X103377431Y-92413720D01*
X103086280Y-92122569D01*
X102705874Y-91965000D01*
X102294126Y-91965000D01*
X101913720Y-92122569D01*
X101622569Y-92413720D01*
X101465000Y-92794126D01*
X99639000Y-92794126D01*
X99639000Y-88808350D01*
X99785000Y-88455874D01*
X99785000Y-88044126D01*
X99627431Y-87663720D01*
X99336280Y-87372569D01*
X98955874Y-87215000D01*
X98544126Y-87215000D01*
X98163720Y-87372569D01*
X97872569Y-87663720D01*
X97715000Y-88044126D01*
X97391267Y-88044126D01*
X99847194Y-85588200D01*
X105874489Y-85588200D01*
X105913720Y-85627431D01*
X105913720Y-85627431D01*
G37*
X105913720Y-85627431D02*
X106294126Y-85785000D01*
X106705874Y-85785000D01*
X106911801Y-85699703D01*
X106911800Y-96758910D01*
X106750216Y-96758910D01*
X106369810Y-96916479D01*
X106078659Y-97207630D01*
X105994089Y-97411800D01*
X103875511Y-97411800D01*
X103836280Y-97372569D01*
X103455874Y-97215000D01*
X103044126Y-97215000D01*
X102663720Y-97372569D01*
X102372569Y-97663720D01*
X102215000Y-98044126D01*
X102215000Y-98455874D01*
X102372569Y-98836280D01*
X102663720Y-99127431D01*
X103044126Y-99285000D01*
X103455874Y-99285000D01*
X103836280Y-99127431D01*
X103875511Y-99088200D01*
X106417451Y-99088200D01*
X106500000Y-99104620D01*
X106582549Y-99088200D01*
X106582554Y-99088200D01*
X106827049Y-99039567D01*
X106896777Y-98992976D01*
X106895380Y-99000000D01*
X106911800Y-99082549D01*
X106911800Y-99082553D01*
X106960433Y-99327048D01*
X107145692Y-99604308D01*
X107215678Y-99651072D01*
X107879530Y-100314924D01*
X107926292Y-100384908D01*
X107996276Y-100431670D01*
X107996277Y-100431671D01*
X108109845Y-100507555D01*
X108203551Y-100570167D01*
X108448046Y-100618800D01*
X108448050Y-100618800D01*
X108530599Y-100635220D01*
X108613148Y-100618800D01*
X109124489Y-100618800D01*
X109163720Y-100658031D01*
X109544126Y-100815600D01*
X109955874Y-100815600D01*
X110336280Y-100658031D01*
X110627431Y-100366880D01*
X110785000Y-99986474D01*
X110785000Y-99574726D01*
X110627431Y-99194320D01*
X110336280Y-98903169D01*
X109955874Y-98745600D01*
X109544126Y-98745600D01*
X109414360Y-98799351D01*
X109627431Y-98586280D01*
X109785000Y-98205874D01*
X109785000Y-97794126D01*
X109780452Y-97783146D01*
X109781630Y-97784324D01*
X109828392Y-97854308D01*
X109898376Y-97901070D01*
X109898377Y-97901071D01*
X109973887Y-97951525D01*
X110105651Y-98039567D01*
X110350146Y-98088200D01*
X110350151Y-98088200D01*
X110432700Y-98104620D01*
X110515249Y-98088200D01*
X112374489Y-98088200D01*
X112413720Y-98127431D01*
X112794126Y-98285000D01*
X113205874Y-98285000D01*
X113586280Y-98127431D01*
X113877431Y-97836280D01*
X114035000Y-97455874D01*
X114035000Y-97044126D01*
X113913169Y-96750000D01*
X114035000Y-96455874D01*
X114035000Y-96044126D01*
X113877431Y-95663720D01*
X113586280Y-95372569D01*
X113205874Y-95215000D01*
X112794126Y-95215000D01*
X112413720Y-95372569D01*
X112374489Y-95411800D01*
X112003306Y-95411800D01*
X112086280Y-95377431D01*
X112377431Y-95086280D01*
X112535000Y-94705874D01*
X112535000Y-94294126D01*
X112377431Y-93913720D01*
X112343801Y-93880090D01*
X112343801Y-89452023D01*
X112544126Y-89535000D01*
X112955874Y-89535000D01*
X113208886Y-89430199D01*
X114386401Y-90607716D01*
X114386400Y-97781423D01*
X114369483Y-97866472D01*
X114386400Y-97951521D01*
X114386400Y-97951524D01*
X114436507Y-98203431D01*
X114627380Y-98489092D01*
X114699489Y-98537274D01*
X117462730Y-101300517D01*
X117510908Y-101372620D01*
X117796568Y-101563493D01*
X118048475Y-101613600D01*
X118048479Y-101613600D01*
X118133527Y-101630517D01*
X118218575Y-101613600D01*
X121048169Y-101613600D01*
X121792234Y-102357666D01*
X121715000Y-102544126D01*
X121715000Y-102955874D01*
X121872569Y-103336280D01*
X122163720Y-103627431D01*
X122544126Y-103785000D01*
X122955874Y-103785000D01*
X123336280Y-103627431D01*
X123350111Y-103613600D01*
X125464951Y-103613600D01*
X125550000Y-103630517D01*
X125635049Y-103613600D01*
X125635053Y-103613600D01*
X125886960Y-103563493D01*
X126172620Y-103372620D01*
X126220802Y-103300511D01*
X131304312Y-98217002D01*
X131429844Y-98217002D01*
X131308524Y-98446890D01*
X131478355Y-98856924D01*
X131868642Y-99285183D01*
X131998478Y-99346157D01*
X131679375Y-99559375D01*
X131351161Y-100050582D01*
X131235908Y-100630000D01*
X131290442Y-100904164D01*
X128294007Y-103900600D01*
X120875511Y-103900600D01*
X120836280Y-103861369D01*
X120455874Y-103703800D01*
X120044126Y-103703800D01*
X119663720Y-103861369D01*
X119372569Y-104152520D01*
X119215000Y-104532926D01*
X119215000Y-104560913D01*
X118969925Y-104459400D01*
X118558177Y-104459400D01*
X118177771Y-104616969D01*
X117886620Y-104908120D01*
X117729051Y-105288526D01*
X117729051Y-105411800D01*
X111137470Y-105411800D01*
X110687755Y-104962086D01*
X110796201Y-104700274D01*
X110796201Y-104288526D01*
X110638632Y-103908120D01*
X110347481Y-103616969D01*
X109967075Y-103459400D01*
X109937907Y-103459400D01*
X110040601Y-103211475D01*
X110040601Y-102799727D01*
X109883032Y-102419321D01*
X109591881Y-102128170D01*
X109211475Y-101970601D01*
X108799727Y-101970601D01*
X108419321Y-102128170D01*
X108128170Y-102419321D01*
X107970601Y-102799727D01*
X107970601Y-103211475D01*
X108128170Y-103591881D01*
X108167401Y-103631112D01*
X108167402Y-104215000D01*
X108044126Y-104215000D01*
X107663720Y-104372569D01*
X107624489Y-104411800D01*
X101232549Y-104411800D01*
X101150000Y-104395380D01*
X101067451Y-104411800D01*
X101067446Y-104411800D01*
X100822951Y-104460433D01*
X100822949Y-104460434D01*
X100822950Y-104460434D01*
X100615677Y-104598929D01*
X100615676Y-104598930D01*
X100545692Y-104645692D01*
X100498930Y-104715676D01*
X99365680Y-105848927D01*
X99365677Y-105848929D01*
X98374164Y-106840442D01*
X98246256Y-106815000D01*
X97953744Y-106815000D01*
X97520582Y-106901161D01*
X97029375Y-107229375D01*
X96701161Y-107720582D01*
X96585908Y-108300000D01*
X96640442Y-108574164D01*
X95215677Y-109998930D01*
X95145693Y-110045692D01*
X95127000Y-110073668D01*
X95127000Y-89340711D01*
X95163720Y-89377431D01*
X95544126Y-89535000D01*
X95955874Y-89535000D01*
X96336280Y-89377431D01*
X96627431Y-89086280D01*
X96785000Y-88705874D01*
X96785000Y-88650393D01*
X97391267Y-88044126D01*
X97715000Y-88044126D01*
X97715000Y-88455874D01*
X97861001Y-88808352D01*
X97861000Y-97441650D01*
X97715000Y-97794126D01*
X97715000Y-98205874D01*
X97872569Y-98586280D01*
X98163720Y-98877431D01*
X98544126Y-99035000D01*
X98955874Y-99035000D01*
X99336280Y-98877431D01*
X99627431Y-98586280D01*
X99785000Y-98205874D01*
X99785000Y-97794126D01*
X99639000Y-97441650D01*
X99639000Y-92794126D01*
X101465000Y-92794126D01*
X101465000Y-93205874D01*
X101622569Y-93586280D01*
X101661800Y-93625511D01*
X101661801Y-95130088D01*
X101622569Y-95169320D01*
X101465000Y-95549726D01*
X101465000Y-95961474D01*
X101622569Y-96341880D01*
X101913720Y-96633031D01*
X102294126Y-96790600D01*
X102705874Y-96790600D01*
X103086280Y-96633031D01*
X103377431Y-96341880D01*
X103535000Y-95961474D01*
X103535000Y-95549726D01*
X103377431Y-95169320D01*
X103338200Y-95130089D01*
X103338200Y-93625511D01*
X103377431Y-93586280D01*
X103535000Y-93205874D01*
X103535000Y-92794126D01*
X103377431Y-92413720D01*
X103086280Y-92122569D01*
X102705874Y-91965000D01*
X102294126Y-91965000D01*
X101913720Y-92122569D01*
X101622569Y-92413720D01*
X101465000Y-92794126D01*
X99639000Y-92794126D01*
X99639000Y-88808350D01*
X99785000Y-88455874D01*
X99785000Y-88044126D01*
X99627431Y-87663720D01*
X99336280Y-87372569D01*
X98955874Y-87215000D01*
X98544126Y-87215000D01*
X98163720Y-87372569D01*
X97872569Y-87663720D01*
X97715000Y-88044126D01*
X97391267Y-88044126D01*
X99847194Y-85588200D01*
X105874489Y-85588200D01*
X105913720Y-85627431D01*
G36*
X133611000Y-66868236D02*
X133611001Y-81131763D01*
X133110204Y-81632560D01*
X131900000Y-81632560D01*
X131652235Y-81681843D01*
X131442191Y-81822191D01*
X131301843Y-82032235D01*
X131252560Y-82280000D01*
X131252560Y-83980000D01*
X131301843Y-84227765D01*
X131442191Y-84437809D01*
X131652235Y-84578157D01*
X131755708Y-84598739D01*
X131478355Y-84903076D01*
X131308524Y-85313110D01*
X131429845Y-85543000D01*
X132623000Y-85543000D01*
X132623000Y-85523000D01*
X132877000Y-85523000D01*
X132877000Y-85543000D01*
X134070155Y-85543000D01*
X134191476Y-85313110D01*
X134021645Y-84903076D01*
X133744292Y-84598739D01*
X133847765Y-84578157D01*
X134057809Y-84437809D01*
X134198157Y-84227765D01*
X134247440Y-83980000D01*
X134247440Y-83009795D01*
X134873000Y-82384236D01*
X134873000Y-95144487D01*
X134728001Y-94999488D01*
X134679820Y-94927380D01*
X134394160Y-94736507D01*
X134247440Y-94707323D01*
X134247440Y-94700000D01*
X134198157Y-94452235D01*
X134057809Y-94242191D01*
X133847765Y-94101843D01*
X133600000Y-94052560D01*
X131900000Y-94052560D01*
X131652235Y-94101843D01*
X131442191Y-94242191D01*
X131301843Y-94452235D01*
X131252560Y-94700000D01*
X131252560Y-95826125D01*
X125192287Y-101886400D01*
X123589201Y-101886400D01*
X123563493Y-101757158D01*
X123467570Y-101613600D01*
X123420799Y-101543602D01*
X123420798Y-101543601D01*
X123372620Y-101471498D01*
X123300517Y-101423320D01*
X122076684Y-100199488D01*
X122028502Y-100127380D01*
X121742842Y-99936507D01*
X121490935Y-99886400D01*
X121490931Y-99886400D01*
X121405882Y-99869483D01*
X121320833Y-99886400D01*
X121029714Y-99886400D01*
X121127431Y-99788683D01*
X121285000Y-99408277D01*
X121285000Y-98996529D01*
X121173027Y-98726202D01*
X121285000Y-98455874D01*
X121285000Y-98044126D01*
X121127431Y-97663720D01*
X120836280Y-97372569D01*
X120455874Y-97215000D01*
X120044126Y-97215000D01*
X119663720Y-97372569D01*
X119624489Y-97411800D01*
X117597193Y-97411800D01*
X117588200Y-97402807D01*
X117588200Y-89832548D01*
X117604620Y-89749999D01*
X117588200Y-89667450D01*
X117588200Y-89667446D01*
X117539567Y-89422951D01*
X117354308Y-89145692D01*
X117284325Y-89098931D01*
X116773594Y-88588200D01*
X117874489Y-88588200D01*
X117913720Y-88627431D01*
X118294126Y-88785000D01*
X118705874Y-88785000D01*
X119086280Y-88627431D01*
X119377431Y-88336280D01*
X119429737Y-88210000D01*
X131235908Y-88210000D01*
X131351161Y-88789418D01*
X131679375Y-89280625D01*
X131977761Y-89480000D01*
X131679375Y-89679375D01*
X131351161Y-90170582D01*
X131235908Y-90750000D01*
X131351161Y-91329418D01*
X131679375Y-91820625D01*
X132170582Y-92148839D01*
X132603744Y-92235000D01*
X132896256Y-92235000D01*
X133329418Y-92148839D01*
X133820625Y-91820625D01*
X134148839Y-91329418D01*
X134264092Y-90750000D01*
X134148839Y-90170582D01*
X133820625Y-89679375D01*
X133522239Y-89480000D01*
X133820625Y-89280625D01*
X134148839Y-88789418D01*
X134264092Y-88210000D01*
X134148839Y-87630582D01*
X133820625Y-87139375D01*
X133501522Y-86926157D01*
X133631358Y-86865183D01*
X134021645Y-86436924D01*
X134191476Y-86026890D01*
X134070155Y-85797000D01*
X132877000Y-85797000D01*
X132877000Y-85817000D01*
X132623000Y-85817000D01*
X132623000Y-85797000D01*
X131429845Y-85797000D01*
X131308524Y-86026890D01*
X131478355Y-86436924D01*
X131868642Y-86865183D01*
X131998478Y-86926157D01*
X131679375Y-87139375D01*
X131351161Y-87630582D01*
X131235908Y-88210000D01*
X119429737Y-88210000D01*
X119535000Y-87955874D01*
X119535000Y-87544126D01*
X119377431Y-87163720D01*
X119086280Y-86872569D01*
X118705874Y-86715000D01*
X118294126Y-86715000D01*
X117913720Y-86872569D01*
X117874489Y-86911800D01*
X116619911Y-86911800D01*
X116580680Y-86872569D01*
X116200274Y-86715000D01*
X115788526Y-86715000D01*
X115408120Y-86872569D01*
X115372200Y-86908489D01*
X115336280Y-86872569D01*
X114955874Y-86715000D01*
X114544126Y-86715000D01*
X114163720Y-86872569D01*
X114051696Y-86984593D01*
X113088200Y-86021097D01*
X113088200Y-83625511D01*
X113127431Y-83586280D01*
X113285000Y-83205874D01*
X113285000Y-82794126D01*
X113127431Y-82413720D01*
X112836280Y-82122569D01*
X112455874Y-81965000D01*
X112044126Y-81965000D01*
X111663720Y-82122569D01*
X111372569Y-82413720D01*
X111215000Y-82794126D01*
X111215000Y-82968780D01*
X111205874Y-82965000D01*
X110823440Y-82965000D01*
X110823440Y-81641953D01*
X122505836Y-69959558D01*
X122633744Y-69985000D01*
X122926256Y-69985000D01*
X123359418Y-69898839D01*
X123850625Y-69570625D01*
X124178839Y-69079418D01*
X124294092Y-68500000D01*
X124178839Y-67920582D01*
X123850625Y-67429375D01*
X123359418Y-67101161D01*
X122926256Y-67015000D01*
X122633744Y-67015000D01*
X122200582Y-67101161D01*
X121709375Y-67429375D01*
X121510000Y-67727761D01*
X121310625Y-67429375D01*
X120819418Y-67101161D01*
X120386256Y-67015000D01*
X120093744Y-67015000D01*
X119660582Y-67101161D01*
X119169375Y-67429375D01*
X118970000Y-67727761D01*
X118770625Y-67429375D01*
X118279418Y-67101161D01*
X117846256Y-67015000D01*
X117553744Y-67015000D01*
X117120582Y-67101161D01*
X116629375Y-67429375D01*
X116430000Y-67727761D01*
X116230625Y-67429375D01*
X115739418Y-67101161D01*
X115306256Y-67015000D01*
X115013744Y-67015000D01*
X114580582Y-67101161D01*
X114089375Y-67429375D01*
X113890000Y-67727761D01*
X113690625Y-67429375D01*
X113199418Y-67101161D01*
X112766256Y-67015000D01*
X112473744Y-67015000D01*
X112040582Y-67101161D01*
X111549375Y-67429375D01*
X111336157Y-67748478D01*
X111275183Y-67618642D01*
X110846924Y-67228355D01*
X110436890Y-67058524D01*
X110207000Y-67179845D01*
X110207000Y-68373000D01*
X110227000Y-68373000D01*
X110227000Y-68627000D01*
X110207000Y-68627000D01*
X110207000Y-68647000D01*
X109953000Y-68647000D01*
X109953000Y-68627000D01*
X109933000Y-68627000D01*
X109933000Y-68373000D01*
X109953000Y-68373000D01*
X109953000Y-67179845D01*
X109723110Y-67058524D01*
X109313076Y-67228355D01*
X108884817Y-67618642D01*
X108823843Y-67748478D01*
X108610625Y-67429375D01*
X108119418Y-67101161D01*
X107686256Y-67015000D01*
X107393744Y-67015000D01*
X106960582Y-67101161D01*
X106469375Y-67429375D01*
X106457184Y-67447619D01*
X106448157Y-67402235D01*
X106307809Y-67192191D01*
X106247405Y-67151830D01*
X106760236Y-66639000D01*
X133381765Y-66639000D01*
X133611000Y-66868236D01*
X133611000Y-66868236D01*
G37*
X133611000Y-66868236D02*
X133611001Y-81131763D01*
X133110204Y-81632560D01*
X131900000Y-81632560D01*
X131652235Y-81681843D01*
X131442191Y-81822191D01*
X131301843Y-82032235D01*
X131252560Y-82280000D01*
X131252560Y-83980000D01*
X131301843Y-84227765D01*
X131442191Y-84437809D01*
X131652235Y-84578157D01*
X131755708Y-84598739D01*
X131478355Y-84903076D01*
X131308524Y-85313110D01*
X131429845Y-85543000D01*
X132623000Y-85543000D01*
X132623000Y-85523000D01*
X132877000Y-85523000D01*
X132877000Y-85543000D01*
X134070155Y-85543000D01*
X134191476Y-85313110D01*
X134021645Y-84903076D01*
X133744292Y-84598739D01*
X133847765Y-84578157D01*
X134057809Y-84437809D01*
X134198157Y-84227765D01*
X134247440Y-83980000D01*
X134247440Y-83009795D01*
X134873000Y-82384236D01*
X134873000Y-95144487D01*
X134728001Y-94999488D01*
X134679820Y-94927380D01*
X134394160Y-94736507D01*
X134247440Y-94707323D01*
X134247440Y-94700000D01*
X134198157Y-94452235D01*
X134057809Y-94242191D01*
X133847765Y-94101843D01*
X133600000Y-94052560D01*
X131900000Y-94052560D01*
X131652235Y-94101843D01*
X131442191Y-94242191D01*
X131301843Y-94452235D01*
X131252560Y-94700000D01*
X131252560Y-95826125D01*
X125192287Y-101886400D01*
X123589201Y-101886400D01*
X123563493Y-101757158D01*
X123467570Y-101613600D01*
X123420799Y-101543602D01*
X123420798Y-101543601D01*
X123372620Y-101471498D01*
X123300517Y-101423320D01*
X122076684Y-100199488D01*
X122028502Y-100127380D01*
X121742842Y-99936507D01*
X121490935Y-99886400D01*
X121490931Y-99886400D01*
X121405882Y-99869483D01*
X121320833Y-99886400D01*
X121029714Y-99886400D01*
X121127431Y-99788683D01*
X121285000Y-99408277D01*
X121285000Y-98996529D01*
X121173027Y-98726202D01*
X121285000Y-98455874D01*
X121285000Y-98044126D01*
X121127431Y-97663720D01*
X120836280Y-97372569D01*
X120455874Y-97215000D01*
X120044126Y-97215000D01*
X119663720Y-97372569D01*
X119624489Y-97411800D01*
X117597193Y-97411800D01*
X117588200Y-97402807D01*
X117588200Y-89832548D01*
X117604620Y-89749999D01*
X117588200Y-89667450D01*
X117588200Y-89667446D01*
X117539567Y-89422951D01*
X117354308Y-89145692D01*
X117284325Y-89098931D01*
X116773594Y-88588200D01*
X117874489Y-88588200D01*
X117913720Y-88627431D01*
X118294126Y-88785000D01*
X118705874Y-88785000D01*
X119086280Y-88627431D01*
X119377431Y-88336280D01*
X119429737Y-88210000D01*
X131235908Y-88210000D01*
X131351161Y-88789418D01*
X131679375Y-89280625D01*
X131977761Y-89480000D01*
X131679375Y-89679375D01*
X131351161Y-90170582D01*
X131235908Y-90750000D01*
X131351161Y-91329418D01*
X131679375Y-91820625D01*
X132170582Y-92148839D01*
X132603744Y-92235000D01*
X132896256Y-92235000D01*
X133329418Y-92148839D01*
X133820625Y-91820625D01*
X134148839Y-91329418D01*
X134264092Y-90750000D01*
X134148839Y-90170582D01*
X133820625Y-89679375D01*
X133522239Y-89480000D01*
X133820625Y-89280625D01*
X134148839Y-88789418D01*
X134264092Y-88210000D01*
X134148839Y-87630582D01*
X133820625Y-87139375D01*
X133501522Y-86926157D01*
X133631358Y-86865183D01*
X134021645Y-86436924D01*
X134191476Y-86026890D01*
X134070155Y-85797000D01*
X132877000Y-85797000D01*
X132877000Y-85817000D01*
X132623000Y-85817000D01*
X132623000Y-85797000D01*
X131429845Y-85797000D01*
X131308524Y-86026890D01*
X131478355Y-86436924D01*
X131868642Y-86865183D01*
X131998478Y-86926157D01*
X131679375Y-87139375D01*
X131351161Y-87630582D01*
X131235908Y-88210000D01*
X119429737Y-88210000D01*
X119535000Y-87955874D01*
X119535000Y-87544126D01*
X119377431Y-87163720D01*
X119086280Y-86872569D01*
X118705874Y-86715000D01*
X118294126Y-86715000D01*
X117913720Y-86872569D01*
X117874489Y-86911800D01*
X116619911Y-86911800D01*
X116580680Y-86872569D01*
X116200274Y-86715000D01*
X115788526Y-86715000D01*
X115408120Y-86872569D01*
X115372200Y-86908489D01*
X115336280Y-86872569D01*
X114955874Y-86715000D01*
X114544126Y-86715000D01*
X114163720Y-86872569D01*
X114051696Y-86984593D01*
X113088200Y-86021097D01*
X113088200Y-83625511D01*
X113127431Y-83586280D01*
X113285000Y-83205874D01*
X113285000Y-82794126D01*
X113127431Y-82413720D01*
X112836280Y-82122569D01*
X112455874Y-81965000D01*
X112044126Y-81965000D01*
X111663720Y-82122569D01*
X111372569Y-82413720D01*
X111215000Y-82794126D01*
X111215000Y-82968780D01*
X111205874Y-82965000D01*
X110823440Y-82965000D01*
X110823440Y-81641953D01*
X122505836Y-69959558D01*
X122633744Y-69985000D01*
X122926256Y-69985000D01*
X123359418Y-69898839D01*
X123850625Y-69570625D01*
X124178839Y-69079418D01*
X124294092Y-68500000D01*
X124178839Y-67920582D01*
X123850625Y-67429375D01*
X123359418Y-67101161D01*
X122926256Y-67015000D01*
X122633744Y-67015000D01*
X122200582Y-67101161D01*
X121709375Y-67429375D01*
X121510000Y-67727761D01*
X121310625Y-67429375D01*
X120819418Y-67101161D01*
X120386256Y-67015000D01*
X120093744Y-67015000D01*
X119660582Y-67101161D01*
X119169375Y-67429375D01*
X118970000Y-67727761D01*
X118770625Y-67429375D01*
X118279418Y-67101161D01*
X117846256Y-67015000D01*
X117553744Y-67015000D01*
X117120582Y-67101161D01*
X116629375Y-67429375D01*
X116430000Y-67727761D01*
X116230625Y-67429375D01*
X115739418Y-67101161D01*
X115306256Y-67015000D01*
X115013744Y-67015000D01*
X114580582Y-67101161D01*
X114089375Y-67429375D01*
X113890000Y-67727761D01*
X113690625Y-67429375D01*
X113199418Y-67101161D01*
X112766256Y-67015000D01*
X112473744Y-67015000D01*
X112040582Y-67101161D01*
X111549375Y-67429375D01*
X111336157Y-67748478D01*
X111275183Y-67618642D01*
X110846924Y-67228355D01*
X110436890Y-67058524D01*
X110207000Y-67179845D01*
X110207000Y-68373000D01*
X110227000Y-68373000D01*
X110227000Y-68627000D01*
X110207000Y-68627000D01*
X110207000Y-68647000D01*
X109953000Y-68647000D01*
X109953000Y-68627000D01*
X109933000Y-68627000D01*
X109933000Y-68373000D01*
X109953000Y-68373000D01*
X109953000Y-67179845D01*
X109723110Y-67058524D01*
X109313076Y-67228355D01*
X108884817Y-67618642D01*
X108823843Y-67748478D01*
X108610625Y-67429375D01*
X108119418Y-67101161D01*
X107686256Y-67015000D01*
X107393744Y-67015000D01*
X106960582Y-67101161D01*
X106469375Y-67429375D01*
X106457184Y-67447619D01*
X106448157Y-67402235D01*
X106307809Y-67192191D01*
X106247405Y-67151830D01*
X106760236Y-66639000D01*
X133381765Y-66639000D01*
X133611000Y-66868236D01*
G36*
X132877000Y-97963000D02*
X132897000Y-97963000D01*
X132897000Y-98217000D01*
X132877000Y-98217000D01*
X132877000Y-98237000D01*
X132623000Y-98237000D01*
X132623000Y-98217000D01*
X132603000Y-98217000D01*
X132603000Y-97963000D01*
X132623000Y-97963000D01*
X132623000Y-97943000D01*
X132877000Y-97943000D01*
X132877000Y-97963000D01*
X132877000Y-97963000D01*
G37*
X132877000Y-97963000D02*
X132897000Y-97963000D01*
X132897000Y-98217000D01*
X132877000Y-98217000D01*
X132877000Y-98237000D01*
X132623000Y-98237000D01*
X132623000Y-98217000D01*
X132603000Y-98217000D01*
X132603000Y-97963000D01*
X132623000Y-97963000D01*
X132623000Y-97943000D01*
X132877000Y-97943000D01*
X132877000Y-97963000D01*
G36*
X105701471Y-65183293D02*
X104433294Y-66451471D01*
X104359068Y-66501067D01*
X104309472Y-66575293D01*
X104309471Y-66575294D01*
X104162582Y-66795130D01*
X104120139Y-67008500D01*
X103902235Y-67051843D01*
X103692191Y-67192191D01*
X103551843Y-67402235D01*
X103502560Y-67650000D01*
X103502560Y-69350000D01*
X103551843Y-69597765D01*
X103692191Y-69807809D01*
X103902235Y-69948157D01*
X104150000Y-69997440D01*
X104785324Y-69997440D01*
X101683296Y-73099469D01*
X101609067Y-73149067D01*
X101412581Y-73443131D01*
X101362073Y-73697049D01*
X101343584Y-73790000D01*
X101361000Y-73877555D01*
X101361000Y-74191649D01*
X101215000Y-74544126D01*
X101215000Y-74955874D01*
X101372569Y-75336280D01*
X101663720Y-75627431D01*
X102044126Y-75785000D01*
X102455874Y-75785000D01*
X102836280Y-75627431D01*
X103127431Y-75336280D01*
X103285000Y-74955874D01*
X103285000Y-74544126D01*
X103139000Y-74191650D01*
X103139000Y-74158235D01*
X107325759Y-69971477D01*
X107393744Y-69985000D01*
X107686256Y-69985000D01*
X108119418Y-69898839D01*
X108610625Y-69570625D01*
X108823843Y-69251522D01*
X108884817Y-69381358D01*
X109313076Y-69771645D01*
X109723110Y-69941476D01*
X109952998Y-69820156D01*
X109952998Y-69981608D01*
X107215677Y-72718930D01*
X107145693Y-72765692D01*
X107098931Y-72835676D01*
X107098929Y-72835678D01*
X106960434Y-73042951D01*
X106895380Y-73370000D01*
X106911801Y-73452554D01*
X106911801Y-83800297D01*
X106705874Y-83715000D01*
X106294126Y-83715000D01*
X105913720Y-83872569D01*
X105874489Y-83911800D01*
X99582549Y-83911800D01*
X99500000Y-83895380D01*
X99417451Y-83911800D01*
X99417446Y-83911800D01*
X99172951Y-83960433D01*
X99162496Y-83967419D01*
X98965677Y-84098929D01*
X98965676Y-84098930D01*
X98895692Y-84145692D01*
X98848930Y-84215676D01*
X95599607Y-87465000D01*
X95544126Y-87465000D01*
X95163720Y-87622569D01*
X95127000Y-87659289D01*
X95127000Y-65127000D01*
X105739085Y-65127000D01*
X105701471Y-65183293D01*
X105701471Y-65183293D01*
G37*
X105701471Y-65183293D02*
X104433294Y-66451471D01*
X104359068Y-66501067D01*
X104309472Y-66575293D01*
X104309471Y-66575294D01*
X104162582Y-66795130D01*
X104120139Y-67008500D01*
X103902235Y-67051843D01*
X103692191Y-67192191D01*
X103551843Y-67402235D01*
X103502560Y-67650000D01*
X103502560Y-69350000D01*
X103551843Y-69597765D01*
X103692191Y-69807809D01*
X103902235Y-69948157D01*
X104150000Y-69997440D01*
X104785324Y-69997440D01*
X101683296Y-73099469D01*
X101609067Y-73149067D01*
X101412581Y-73443131D01*
X101362073Y-73697049D01*
X101343584Y-73790000D01*
X101361000Y-73877555D01*
X101361000Y-74191649D01*
X101215000Y-74544126D01*
X101215000Y-74955874D01*
X101372569Y-75336280D01*
X101663720Y-75627431D01*
X102044126Y-75785000D01*
X102455874Y-75785000D01*
X102836280Y-75627431D01*
X103127431Y-75336280D01*
X103285000Y-74955874D01*
X103285000Y-74544126D01*
X103139000Y-74191650D01*
X103139000Y-74158235D01*
X107325759Y-69971477D01*
X107393744Y-69985000D01*
X107686256Y-69985000D01*
X108119418Y-69898839D01*
X108610625Y-69570625D01*
X108823843Y-69251522D01*
X108884817Y-69381358D01*
X109313076Y-69771645D01*
X109723110Y-69941476D01*
X109952998Y-69820156D01*
X109952998Y-69981608D01*
X107215677Y-72718930D01*
X107145693Y-72765692D01*
X107098931Y-72835676D01*
X107098929Y-72835678D01*
X106960434Y-73042951D01*
X106895380Y-73370000D01*
X106911801Y-73452554D01*
X106911801Y-83800297D01*
X106705874Y-83715000D01*
X106294126Y-83715000D01*
X105913720Y-83872569D01*
X105874489Y-83911800D01*
X99582549Y-83911800D01*
X99500000Y-83895380D01*
X99417451Y-83911800D01*
X99417446Y-83911800D01*
X99172951Y-83960433D01*
X99162496Y-83967419D01*
X98965677Y-84098929D01*
X98965676Y-84098930D01*
X98895692Y-84145692D01*
X98848930Y-84215676D01*
X95599607Y-87465000D01*
X95544126Y-87465000D01*
X95163720Y-87622569D01*
X95127000Y-87659289D01*
X95127000Y-65127000D01*
X105739085Y-65127000D01*
X105701471Y-65183293D01*
M02*
