%TF.GenerationSoftware,KiCad,Pcbnew,(5.0.0)*%
%TF.CreationDate,2018-11-06T01:25:48+05:00*%
%TF.ProjectId,Dev Board,44657620426F6172642E6B696361645F,rev?*%
%TF.SameCoordinates,Original*%
%TF.FileFunction,Paste,Top*%
%TF.FilePolarity,Positive*%
%FSLAX46Y46*%
G04 Gerber Fmt 4.6, Leading zero omitted, Abs format (unit mm)*
G04 Created by KiCad (PCBNEW (5.0.0)) date 11/06/18 01:25:48*
%MOMM*%
%LPD*%
G01*
G04 APERTURE LIST*
%ADD10R,1.395000X1.800000*%
%ADD11R,1.800000X1.395000*%
%ADD12R,1.600000X3.000000*%
%ADD13R,1.200000X0.900000*%
%ADD14R,1.550000X0.600000*%
%ADD15R,1.750000X0.450000*%
%ADD16R,2.200000X1.200000*%
%ADD17R,3.050000X2.750000*%
%ADD18R,2.000000X7.875000*%
%ADD19R,1.800000X1.220000*%
G04 APERTURE END LIST*
D10*
X100250000Y-92500000D03*
X97215000Y-92500000D03*
D11*
X113000000Y-93000000D03*
X113000000Y-89965000D03*
D10*
X100250000Y-100000000D03*
X97215000Y-100000000D03*
X97215000Y-102500000D03*
X100250000Y-102500000D03*
D11*
X121250000Y-93000000D03*
X121250000Y-89965000D03*
D10*
X100250000Y-105000000D03*
X97215000Y-105000000D03*
D11*
X124000000Y-90000000D03*
X124000000Y-93035000D03*
D10*
X97215000Y-97500000D03*
X100250000Y-97500000D03*
X97215000Y-90000000D03*
X100250000Y-90000000D03*
D11*
X112000000Y-77285000D03*
X112000000Y-74250000D03*
D12*
X105250000Y-78250000D03*
X105250000Y-73850000D03*
D11*
X114500000Y-77285000D03*
X114500000Y-74250000D03*
D12*
X98750000Y-73800000D03*
X98750000Y-78200000D03*
D13*
X109500000Y-74000000D03*
X109500000Y-77300000D03*
D11*
X126750000Y-89965000D03*
X126750000Y-93000000D03*
X110250000Y-89982500D03*
X110250000Y-93017500D03*
X118500000Y-89965000D03*
X118500000Y-93000000D03*
X115750000Y-93000000D03*
X115750000Y-89965000D03*
D10*
X100250000Y-95000000D03*
X97215000Y-95000000D03*
D14*
X113800000Y-82595000D03*
X113800000Y-83865000D03*
X113800000Y-85135000D03*
X113800000Y-86405000D03*
X119200000Y-86405000D03*
X119200000Y-85135000D03*
X119200000Y-83865000D03*
X119200000Y-82595000D03*
D15*
X111400000Y-95775000D03*
X111400000Y-96425000D03*
X111400000Y-97075000D03*
X111400000Y-97725000D03*
X111400000Y-98375000D03*
X111400000Y-99025000D03*
X111400000Y-99675000D03*
X111400000Y-100325000D03*
X111400000Y-100975000D03*
X111400000Y-101625000D03*
X111400000Y-102275000D03*
X111400000Y-102925000D03*
X111400000Y-103575000D03*
X111400000Y-104225000D03*
X118600000Y-104225000D03*
X118600000Y-103575000D03*
X118600000Y-102925000D03*
X118600000Y-102275000D03*
X118600000Y-101625000D03*
X118600000Y-100975000D03*
X118600000Y-100325000D03*
X118600000Y-99675000D03*
X118600000Y-99025000D03*
X118600000Y-98375000D03*
X118600000Y-97725000D03*
X118600000Y-97075000D03*
X118600000Y-96425000D03*
X118600000Y-95775000D03*
D16*
X106050000Y-86530000D03*
X106050000Y-81970000D03*
D17*
X98075000Y-82725000D03*
X101425000Y-85775000D03*
X98075000Y-85775000D03*
X101425000Y-82725000D03*
D18*
X105500000Y-93062500D03*
X105500000Y-104937500D03*
D19*
X123250000Y-110250000D03*
X123250000Y-113110000D03*
X120500000Y-113110000D03*
X120500000Y-110250000D03*
X117750000Y-110250000D03*
X117750000Y-113110000D03*
X115000000Y-113110000D03*
X115000000Y-110250000D03*
X112250000Y-113110000D03*
X112250000Y-110250000D03*
X109500000Y-110250000D03*
X109500000Y-113110000D03*
X106750000Y-113110000D03*
X106750000Y-110250000D03*
X104000000Y-110250000D03*
X104000000Y-113110000D03*
D11*
X126000000Y-110215000D03*
X126000000Y-113250000D03*
M02*
